<svg width="1130" height="600" viewBox="0 0 1130 600" fill="none" xmlns="http://www.w3.org/2000/svg">
<rect width="1130" height="600" fill="#2F3340"/>
<path d="M123.651 146.051C123.423 143.759 122.448 141.979 120.724 140.71C119.001 139.441 116.662 138.807 113.707 138.807C111.7 138.807 110.005 139.091 108.622 139.659C107.24 140.208 106.179 140.975 105.44 141.96C104.721 142.945 104.361 144.062 104.361 145.312C104.323 146.354 104.541 147.263 105.014 148.04C105.507 148.816 106.179 149.489 107.031 150.057C107.884 150.606 108.868 151.089 109.986 151.506C111.103 151.903 112.296 152.244 113.565 152.528L118.793 153.778C121.33 154.347 123.66 155.104 125.781 156.051C127.902 156.998 129.74 158.163 131.293 159.545C132.846 160.928 134.048 162.557 134.901 164.432C135.772 166.307 136.217 168.456 136.236 170.881C136.217 174.441 135.308 177.528 133.509 180.142C131.728 182.737 129.152 184.754 125.781 186.193C122.429 187.614 118.385 188.324 113.651 188.324C108.954 188.324 104.863 187.604 101.378 186.165C97.9119 184.725 95.2036 182.595 93.2528 179.773C91.321 176.932 90.3078 173.419 90.2131 169.233H102.116C102.249 171.184 102.808 172.812 103.793 174.119C104.796 175.407 106.132 176.383 107.798 177.045C109.484 177.689 111.387 178.011 113.509 178.011C115.592 178.011 117.401 177.708 118.935 177.102C120.488 176.496 121.69 175.653 122.543 174.574C123.395 173.494 123.821 172.254 123.821 170.852C123.821 169.545 123.433 168.447 122.656 167.557C121.899 166.667 120.781 165.909 119.304 165.284C117.846 164.659 116.056 164.091 113.935 163.58L107.599 161.989C102.694 160.795 98.821 158.93 95.9801 156.392C93.1392 153.854 91.7282 150.436 91.7472 146.136C91.7282 142.614 92.6657 139.536 94.5597 136.903C96.4725 134.271 99.0956 132.216 102.429 130.739C105.762 129.261 109.55 128.523 113.793 128.523C118.111 128.523 121.88 129.261 125.099 130.739C128.338 132.216 130.857 134.271 132.656 136.903C134.455 139.536 135.384 142.585 135.44 146.051H123.651ZM156.385 162.273V187.5H144.283V129.318H156.044V151.562H156.555C157.54 148.987 159.131 146.97 161.328 145.511C163.525 144.034 166.281 143.295 169.595 143.295C172.625 143.295 175.268 143.958 177.521 145.284C179.794 146.591 181.555 148.475 182.805 150.938C184.074 153.381 184.699 156.307 184.68 159.716V187.5H172.578V161.875C172.597 159.186 171.915 157.093 170.533 155.597C169.169 154.1 167.256 153.352 164.794 153.352C163.146 153.352 161.688 153.703 160.419 154.403C159.169 155.104 158.184 156.127 157.464 157.472C156.764 158.797 156.404 160.398 156.385 162.273ZM213.92 188.352C209.508 188.352 205.691 187.415 202.472 185.54C199.271 183.646 196.799 181.013 195.057 177.642C193.314 174.252 192.443 170.322 192.443 165.852C192.443 161.345 193.314 157.405 195.057 154.034C196.799 150.644 199.271 148.011 202.472 146.136C205.691 144.242 209.508 143.295 213.92 143.295C218.333 143.295 222.14 144.242 225.341 146.136C228.561 148.011 231.042 150.644 232.784 154.034C234.527 157.405 235.398 161.345 235.398 165.852C235.398 170.322 234.527 174.252 232.784 177.642C231.042 181.013 228.561 183.646 225.341 185.54C222.14 187.415 218.333 188.352 213.92 188.352ZM213.977 178.977C215.985 178.977 217.661 178.409 219.006 177.273C220.35 176.117 221.364 174.545 222.045 172.557C222.746 170.568 223.097 168.305 223.097 165.767C223.097 163.229 222.746 160.966 222.045 158.977C221.364 156.989 220.35 155.417 219.006 154.261C217.661 153.106 215.985 152.528 213.977 152.528C211.951 152.528 210.246 153.106 208.864 154.261C207.5 155.417 206.468 156.989 205.767 158.977C205.085 160.966 204.744 163.229 204.744 165.767C204.744 168.305 205.085 170.568 205.767 172.557C206.468 174.545 207.5 176.117 208.864 177.273C210.246 178.409 211.951 178.977 213.977 178.977ZM250.781 187.5L238.906 143.864H251.151L257.912 173.182H258.31L265.355 143.864H277.372L284.531 173.011H284.901L291.548 143.864H303.764L291.918 187.5H279.105L271.605 160.057H271.065L263.565 187.5H250.781ZM351.946 143.864V152.955H325.668V143.864H351.946ZM331.634 133.409H343.736V174.091C343.736 175.208 343.906 176.08 344.247 176.705C344.588 177.311 345.062 177.737 345.668 177.983C346.293 178.229 347.012 178.352 347.827 178.352C348.395 178.352 348.963 178.305 349.531 178.21C350.099 178.097 350.535 178.011 350.838 177.955L352.741 186.96C352.135 187.15 351.283 187.367 350.185 187.614C349.086 187.879 347.751 188.04 346.179 188.097C343.262 188.21 340.705 187.822 338.509 186.932C336.33 186.042 334.635 184.659 333.423 182.784C332.211 180.909 331.615 178.542 331.634 175.682V133.409ZM379.077 188.352C374.664 188.352 370.848 187.415 367.628 185.54C364.427 183.646 361.955 181.013 360.213 177.642C358.471 174.252 357.599 170.322 357.599 165.852C357.599 161.345 358.471 157.405 360.213 154.034C361.955 150.644 364.427 148.011 367.628 146.136C370.848 144.242 374.664 143.295 379.077 143.295C383.49 143.295 387.296 144.242 390.497 146.136C393.717 148.011 396.198 150.644 397.94 154.034C399.683 157.405 400.554 161.345 400.554 165.852C400.554 170.322 399.683 174.252 397.94 177.642C396.198 181.013 393.717 183.646 390.497 185.54C387.296 187.415 383.49 188.352 379.077 188.352ZM379.134 178.977C381.141 178.977 382.817 178.409 384.162 177.273C385.507 176.117 386.52 174.545 387.202 172.557C387.902 170.568 388.253 168.305 388.253 165.767C388.253 163.229 387.902 160.966 387.202 158.977C386.52 156.989 385.507 155.417 384.162 154.261C382.817 153.106 381.141 152.528 379.134 152.528C377.107 152.528 375.402 153.106 374.02 154.261C372.656 155.417 371.624 156.989 370.923 158.977C370.241 160.966 369.901 163.229 369.901 165.767C369.901 168.305 370.241 170.568 370.923 172.557C371.624 174.545 372.656 176.117 374.02 177.273C375.402 178.409 377.107 178.977 379.134 178.977ZM428.139 188.352C423.726 188.352 419.91 187.415 416.69 185.54C413.49 183.646 411.018 181.013 409.276 177.642C407.533 174.252 406.662 170.322 406.662 165.852C406.662 161.345 407.533 157.405 409.276 154.034C411.018 150.644 413.49 148.011 416.69 146.136C419.91 144.242 423.726 143.295 428.139 143.295C432.552 143.295 436.359 144.242 439.56 146.136C442.779 148.011 445.26 150.644 447.003 154.034C448.745 157.405 449.616 161.345 449.616 165.852C449.616 170.322 448.745 174.252 447.003 177.642C445.26 181.013 442.779 183.646 439.56 185.54C436.359 187.415 432.552 188.352 428.139 188.352ZM428.196 178.977C430.204 178.977 431.88 178.409 433.224 177.273C434.569 176.117 435.582 174.545 436.264 172.557C436.965 170.568 437.315 168.305 437.315 165.767C437.315 163.229 436.965 160.966 436.264 158.977C435.582 156.989 434.569 155.417 433.224 154.261C431.88 153.106 430.204 152.528 428.196 152.528C426.17 152.528 424.465 153.106 423.082 154.261C421.719 155.417 420.687 156.989 419.986 158.977C419.304 160.966 418.963 163.229 418.963 165.767C418.963 168.305 419.304 170.568 419.986 172.557C420.687 174.545 421.719 176.117 423.082 177.273C424.465 178.409 426.17 178.977 428.196 178.977ZM469.588 129.318V187.5H457.486V129.318H469.588ZM502.493 143.864V152.955H476.214V143.864H502.493ZM482.18 133.409H494.283V174.091C494.283 175.208 494.453 176.08 494.794 176.705C495.135 177.311 495.608 177.737 496.214 177.983C496.839 178.229 497.559 178.352 498.374 178.352C498.942 178.352 499.51 178.305 500.078 178.21C500.646 178.097 501.082 178.011 501.385 177.955L503.288 186.96C502.682 187.15 501.83 187.367 500.732 187.614C499.633 187.879 498.298 188.04 496.726 188.097C493.809 188.21 491.252 187.822 489.055 186.932C486.877 186.042 485.182 184.659 483.97 182.784C482.758 180.909 482.161 178.542 482.18 175.682V133.409ZM510.376 187.5V143.864H522.479V187.5H510.376ZM516.456 138.239C514.657 138.239 513.113 137.642 511.825 136.449C510.556 135.237 509.922 133.788 509.922 132.102C509.922 130.436 510.556 129.006 511.825 127.812C513.113 126.6 514.657 125.994 516.456 125.994C518.255 125.994 519.789 126.6 521.058 127.812C522.346 129.006 522.99 130.436 522.99 132.102C522.99 133.788 522.346 135.237 521.058 136.449C519.789 137.642 518.255 138.239 516.456 138.239ZM532.173 203.864V143.864H544.105V151.193H544.645C545.175 150.019 545.942 148.826 546.946 147.614C547.969 146.383 549.295 145.36 550.923 144.545C552.571 143.712 554.616 143.295 557.06 143.295C560.241 143.295 563.177 144.129 565.866 145.795C568.556 147.443 570.705 149.934 572.315 153.267C573.925 156.581 574.73 160.739 574.73 165.739C574.73 170.606 573.944 174.716 572.372 178.068C570.819 181.402 568.698 183.93 566.009 185.653C563.338 187.358 560.346 188.21 557.031 188.21C554.683 188.21 552.685 187.822 551.037 187.045C549.408 186.269 548.073 185.294 547.031 184.119C545.99 182.926 545.194 181.723 544.645 180.511H544.276V203.864H532.173ZM544.02 165.682C544.02 168.277 544.38 170.54 545.099 172.472C545.819 174.403 546.861 175.909 548.224 176.989C549.588 178.049 551.245 178.58 553.196 178.58C555.166 178.58 556.832 178.04 558.196 176.96C559.56 175.862 560.592 174.347 561.293 172.415C562.012 170.464 562.372 168.22 562.372 165.682C562.372 163.163 562.022 160.947 561.321 159.034C560.62 157.121 559.588 155.625 558.224 154.545C556.861 153.466 555.185 152.926 553.196 152.926C551.226 152.926 549.56 153.447 548.196 154.489C546.851 155.53 545.819 157.008 545.099 158.92C544.38 160.833 544.02 163.087 544.02 165.682ZM619.105 156.307L608.026 156.989C607.836 156.042 607.429 155.189 606.804 154.432C606.179 153.655 605.355 153.04 604.332 152.585C603.329 152.112 602.126 151.875 600.724 151.875C598.849 151.875 597.268 152.273 595.98 153.068C594.692 153.845 594.048 154.886 594.048 156.193C594.048 157.235 594.465 158.116 595.298 158.835C596.132 159.555 597.562 160.133 599.588 160.568L607.486 162.159C611.728 163.03 614.891 164.432 616.974 166.364C619.058 168.295 620.099 170.833 620.099 173.977C620.099 176.837 619.257 179.347 617.571 181.506C615.904 183.665 613.613 185.35 610.696 186.562C607.798 187.756 604.455 188.352 600.668 188.352C594.891 188.352 590.289 187.15 586.861 184.744C583.452 182.32 581.454 179.025 580.866 174.858L592.77 174.233C593.13 175.994 594.001 177.339 595.384 178.267C596.766 179.176 598.537 179.631 600.696 179.631C602.817 179.631 604.522 179.223 605.81 178.409C607.116 177.576 607.779 176.506 607.798 175.199C607.779 174.1 607.315 173.201 606.406 172.5C605.497 171.78 604.096 171.231 602.202 170.852L594.645 169.347C590.384 168.494 587.211 167.017 585.128 164.915C583.063 162.812 582.031 160.133 582.031 156.875C582.031 154.072 582.789 151.657 584.304 149.631C585.838 147.604 587.988 146.042 590.753 144.943C593.537 143.845 596.795 143.295 600.526 143.295C606.037 143.295 610.374 144.46 613.537 146.79C616.719 149.119 618.575 152.292 619.105 156.307ZM665.952 188.352C661.539 188.352 657.723 187.415 654.503 185.54C651.302 183.646 648.83 181.013 647.088 177.642C645.346 174.252 644.474 170.322 644.474 165.852C644.474 161.345 645.346 157.405 647.088 154.034C648.83 150.644 651.302 148.011 654.503 146.136C657.723 144.242 661.539 143.295 665.952 143.295C670.365 143.295 674.171 144.242 677.372 146.136C680.592 148.011 683.073 150.644 684.815 154.034C686.558 157.405 687.429 161.345 687.429 165.852C687.429 170.322 686.558 174.252 684.815 177.642C683.073 181.013 680.592 183.646 677.372 185.54C674.171 187.415 670.365 188.352 665.952 188.352ZM666.009 178.977C668.016 178.977 669.692 178.409 671.037 177.273C672.382 176.117 673.395 174.545 674.077 172.557C674.777 170.568 675.128 168.305 675.128 165.767C675.128 163.229 674.777 160.966 674.077 158.977C673.395 156.989 672.382 155.417 671.037 154.261C669.692 153.106 668.016 152.528 666.009 152.528C663.982 152.528 662.277 153.106 660.895 154.261C659.531 155.417 658.499 156.989 657.798 158.977C657.116 160.966 656.776 163.229 656.776 165.767C656.776 168.305 657.116 170.568 657.798 172.557C658.499 174.545 659.531 176.117 660.895 177.273C662.277 178.409 663.982 178.977 666.009 178.977ZM707.401 162.273V187.5H695.298V143.864H706.832V151.562H707.344C708.31 149.025 709.929 147.017 712.202 145.54C714.474 144.044 717.23 143.295 720.469 143.295C723.499 143.295 726.141 143.958 728.395 145.284C730.649 146.61 732.401 148.504 733.651 150.966C734.901 153.409 735.526 156.326 735.526 159.716V187.5H723.423V161.875C723.442 159.205 722.76 157.121 721.378 155.625C719.995 154.11 718.092 153.352 715.668 153.352C714.039 153.352 712.599 153.703 711.349 154.403C710.118 155.104 709.152 156.127 708.452 157.472C707.77 158.797 707.42 160.398 707.401 162.273ZM757.166 129.318V187.5H745.064V129.318H757.166ZM774.332 203.864C772.798 203.864 771.359 203.741 770.014 203.494C768.688 203.267 767.59 202.973 766.719 202.614L769.446 193.58C770.866 194.015 772.145 194.252 773.281 194.29C774.437 194.328 775.431 194.063 776.264 193.494C777.116 192.926 777.808 191.96 778.338 190.597L779.048 188.75L763.395 143.864H776.122L785.156 175.909H785.611L794.73 143.864H807.543L790.582 192.216C789.768 194.564 788.66 196.61 787.259 198.352C785.876 200.114 784.124 201.468 782.003 202.415C779.882 203.381 777.325 203.864 774.332 203.864ZM840.859 187.5L828.984 143.864H841.229L847.99 173.182H848.388L855.433 143.864H867.45L874.609 173.011H874.979L881.626 143.864H893.842L881.996 187.5H869.183L861.683 160.057H861.143L853.643 187.5H840.859ZM912.401 162.273V187.5H900.298V129.318H912.06V151.562H912.571C913.556 148.987 915.147 146.97 917.344 145.511C919.541 144.034 922.296 143.295 925.611 143.295C928.641 143.295 931.283 143.958 933.537 145.284C935.81 146.591 937.571 148.475 938.821 150.938C940.09 153.381 940.715 156.307 940.696 159.716V187.5H928.594V161.875C928.613 159.186 927.931 157.093 926.548 155.597C925.185 154.1 923.272 153.352 920.81 153.352C919.162 153.352 917.704 153.703 916.435 154.403C915.185 155.104 914.2 156.127 913.48 157.472C912.779 158.797 912.42 160.398 912.401 162.273ZM970.107 188.352C965.618 188.352 961.754 187.443 958.516 185.625C955.296 183.788 952.815 181.193 951.072 177.841C949.33 174.47 948.459 170.483 948.459 165.881C948.459 161.392 949.33 157.453 951.072 154.062C952.815 150.672 955.268 148.03 958.43 146.136C961.612 144.242 965.343 143.295 969.624 143.295C972.502 143.295 975.182 143.759 977.663 144.688C980.163 145.597 982.341 146.97 984.197 148.807C986.072 150.644 987.531 152.955 988.572 155.739C989.614 158.504 990.135 161.742 990.135 165.455V168.778H953.288V161.278H978.743C978.743 159.536 978.364 157.992 977.607 156.648C976.849 155.303 975.798 154.252 974.453 153.494C973.127 152.718 971.584 152.33 969.822 152.33C967.985 152.33 966.357 152.756 964.936 153.608C963.535 154.441 962.436 155.568 961.641 156.989C960.845 158.39 960.438 159.953 960.419 161.676V168.807C960.419 170.966 960.817 172.831 961.612 174.403C962.427 175.975 963.572 177.188 965.05 178.04C966.527 178.892 968.279 179.318 970.305 179.318C971.65 179.318 972.881 179.129 973.999 178.75C975.116 178.371 976.072 177.803 976.868 177.045C977.663 176.288 978.269 175.36 978.686 174.261L989.879 175C989.311 177.689 988.146 180.038 986.385 182.045C984.643 184.034 982.389 185.587 979.624 186.705C976.877 187.803 973.705 188.352 970.107 188.352ZM1010.13 162.273V187.5H998.033V143.864H1009.57V151.562H1010.08C1011.04 149.025 1012.66 147.017 1014.94 145.54C1017.21 144.044 1019.96 143.295 1023.2 143.295C1026.23 143.295 1028.88 143.958 1031.13 145.284C1033.38 146.61 1035.13 148.504 1036.38 150.966C1037.63 153.409 1038.26 156.326 1038.26 159.716V187.5H1026.16V161.875C1026.18 159.205 1025.49 157.121 1024.11 155.625C1022.73 154.11 1020.83 153.352 1018.4 153.352C1016.77 153.352 1015.33 153.703 1014.08 154.403C1012.85 155.104 1011.89 156.127 1011.19 157.472C1010.5 158.797 1010.15 160.398 1010.13 162.273ZM233.022 285.352C228.552 285.352 224.708 284.405 221.488 282.511C218.287 280.598 215.825 277.947 214.102 274.557C212.397 271.167 211.545 267.265 211.545 262.852C211.545 258.383 212.406 254.462 214.13 251.091C215.872 247.701 218.344 245.059 221.545 243.165C224.746 241.252 228.552 240.295 232.965 240.295C236.772 240.295 240.105 240.987 242.965 242.369C245.825 243.752 248.088 245.693 249.755 248.193C251.422 250.693 252.34 253.629 252.511 257H241.09C240.768 254.822 239.916 253.07 238.533 251.744C237.17 250.4 235.38 249.727 233.164 249.727C231.289 249.727 229.651 250.239 228.249 251.261C226.867 252.265 225.787 253.733 225.011 255.665C224.234 257.597 223.846 259.936 223.846 262.682C223.846 265.466 224.225 267.833 224.982 269.784C225.759 271.735 226.848 273.222 228.249 274.244C229.651 275.267 231.289 275.778 233.164 275.778C234.547 275.778 235.787 275.494 236.886 274.926C238.003 274.358 238.922 273.534 239.641 272.455C240.38 271.356 240.863 270.04 241.09 268.506H252.511C252.321 271.839 251.412 274.775 249.783 277.312C248.174 279.831 245.948 281.801 243.107 283.222C240.266 284.642 236.905 285.352 233.022 285.352ZM279.975 285.352C275.562 285.352 271.746 284.415 268.526 282.54C265.326 280.646 262.854 278.013 261.112 274.642C259.369 271.252 258.498 267.322 258.498 262.852C258.498 258.345 259.369 254.405 261.112 251.034C262.854 247.644 265.326 245.011 268.526 243.136C271.746 241.242 275.562 240.295 279.975 240.295C284.388 240.295 288.195 241.242 291.396 243.136C294.615 245.011 297.096 247.644 298.839 251.034C300.581 254.405 301.452 258.345 301.452 262.852C301.452 267.322 300.581 271.252 298.839 274.642C297.096 278.013 294.615 280.646 291.396 282.54C288.195 284.415 284.388 285.352 279.975 285.352ZM280.032 275.977C282.04 275.977 283.716 275.409 285.06 274.273C286.405 273.117 287.418 271.545 288.1 269.557C288.801 267.568 289.151 265.305 289.151 262.767C289.151 260.229 288.801 257.966 288.1 255.977C287.418 253.989 286.405 252.417 285.06 251.261C283.716 250.106 282.04 249.528 280.032 249.528C278.005 249.528 276.301 250.106 274.918 251.261C273.555 252.417 272.522 253.989 271.822 255.977C271.14 257.966 270.799 260.229 270.799 262.767C270.799 265.305 271.14 267.568 271.822 269.557C272.522 271.545 273.555 273.117 274.918 274.273C276.301 275.409 278.005 275.977 280.032 275.977ZM321.424 259.273V284.5H309.322V240.864H320.856V248.562H321.367C322.333 246.025 323.952 244.017 326.225 242.54C328.498 241.044 331.254 240.295 334.492 240.295C337.522 240.295 340.165 240.958 342.418 242.284C344.672 243.61 346.424 245.504 347.674 247.966C348.924 250.409 349.549 253.326 349.549 256.716V284.5H337.447V258.875C337.466 256.205 336.784 254.121 335.401 252.625C334.019 251.11 332.115 250.352 329.691 250.352C328.062 250.352 326.623 250.703 325.373 251.403C324.142 252.104 323.176 253.127 322.475 254.472C321.793 255.797 321.443 257.398 321.424 259.273ZM382.298 240.864V249.955H356.019V240.864H382.298ZM361.985 230.409H374.087V271.091C374.087 272.208 374.258 273.08 374.599 273.705C374.94 274.311 375.413 274.737 376.019 274.983C376.644 275.229 377.364 275.352 378.178 275.352C378.746 275.352 379.315 275.305 379.883 275.21C380.451 275.097 380.887 275.011 381.19 274.955L383.093 283.96C382.487 284.15 381.635 284.367 380.536 284.614C379.438 284.879 378.103 285.04 376.531 285.097C373.614 285.21 371.057 284.822 368.86 283.932C366.682 283.042 364.987 281.659 363.775 279.784C362.563 277.909 361.966 275.542 361.985 272.682V230.409ZM409.599 285.352C405.11 285.352 401.246 284.443 398.008 282.625C394.788 280.788 392.307 278.193 390.565 274.841C388.822 271.47 387.951 267.483 387.951 262.881C387.951 258.392 388.822 254.453 390.565 251.062C392.307 247.672 394.76 245.03 397.923 243.136C401.104 241.242 404.835 240.295 409.116 240.295C411.995 240.295 414.674 240.759 417.156 241.688C419.656 242.597 421.834 243.97 423.69 245.807C425.565 247.644 427.023 249.955 428.065 252.739C429.106 255.504 429.627 258.742 429.627 262.455V265.778H392.781V258.278H418.235C418.235 256.536 417.856 254.992 417.099 253.648C416.341 252.303 415.29 251.252 413.945 250.494C412.62 249.718 411.076 249.33 409.315 249.33C407.478 249.33 405.849 249.756 404.428 250.608C403.027 251.441 401.928 252.568 401.133 253.989C400.337 255.39 399.93 256.953 399.911 258.676V265.807C399.911 267.966 400.309 269.831 401.104 271.403C401.919 272.975 403.065 274.188 404.542 275.04C406.019 275.892 407.771 276.318 409.798 276.318C411.142 276.318 412.373 276.129 413.491 275.75C414.608 275.371 415.565 274.803 416.36 274.045C417.156 273.288 417.762 272.36 418.178 271.261L429.371 272C428.803 274.689 427.638 277.038 425.877 279.045C424.135 281.034 421.881 282.587 419.116 283.705C416.37 284.803 413.197 285.352 409.599 285.352ZM449.627 259.273V284.5H437.525V240.864H449.059V248.562H449.57C450.536 246.025 452.156 244.017 454.428 242.54C456.701 241.044 459.457 240.295 462.695 240.295C465.726 240.295 468.368 240.958 470.621 242.284C472.875 243.61 474.627 245.504 475.877 247.966C477.127 250.409 477.752 253.326 477.752 256.716V284.5H465.65V258.875C465.669 256.205 464.987 254.121 463.604 252.625C462.222 251.11 460.318 250.352 457.894 250.352C456.265 250.352 454.826 250.703 453.576 251.403C452.345 252.104 451.379 253.127 450.678 254.472C449.996 255.797 449.646 257.398 449.627 259.273ZM510.501 240.864V249.955H484.222V240.864H510.501ZM490.188 230.409H502.29V271.091C502.29 272.208 502.461 273.08 502.802 273.705C503.143 274.311 503.616 274.737 504.222 274.983C504.847 275.229 505.567 275.352 506.381 275.352C506.95 275.352 507.518 275.305 508.086 275.21C508.654 275.097 509.09 275.011 509.393 274.955L511.296 283.96C510.69 284.15 509.838 284.367 508.739 284.614C507.641 284.879 506.306 285.04 504.734 285.097C501.817 285.21 499.26 284.822 497.063 283.932C494.885 283.042 493.19 281.659 491.978 279.784C490.766 277.909 490.169 275.542 490.188 272.682V230.409ZM556.616 285.352C552.203 285.352 548.387 284.415 545.167 282.54C541.966 280.646 539.495 278.013 537.752 274.642C536.01 271.252 535.138 267.322 535.138 262.852C535.138 258.345 536.01 254.405 537.752 251.034C539.495 247.644 541.966 245.011 545.167 243.136C548.387 241.242 552.203 240.295 556.616 240.295C561.029 240.295 564.835 241.242 568.036 243.136C571.256 245.011 573.737 247.644 575.479 251.034C577.222 254.405 578.093 258.345 578.093 262.852C578.093 267.322 577.222 271.252 575.479 274.642C573.737 278.013 571.256 280.646 568.036 282.54C564.835 284.415 561.029 285.352 556.616 285.352ZM556.673 275.977C558.68 275.977 560.356 275.409 561.701 274.273C563.046 273.117 564.059 271.545 564.741 269.557C565.442 267.568 565.792 265.305 565.792 262.767C565.792 260.229 565.442 257.966 564.741 255.977C564.059 253.989 563.046 252.417 561.701 251.261C560.356 250.106 558.68 249.528 556.673 249.528C554.646 249.528 552.942 250.106 551.559 251.261C550.195 252.417 549.163 253.989 548.462 255.977C547.781 257.966 547.44 260.229 547.44 262.767C547.44 265.305 547.781 267.568 548.462 269.557C549.163 271.545 550.195 273.117 551.559 274.273C552.942 275.409 554.646 275.977 556.673 275.977ZM625.238 240.864L609.982 284.5H596.346L581.09 240.864H593.874L602.937 272.085H603.391L612.425 240.864H625.238ZM649.911 285.352C645.423 285.352 641.559 284.443 638.32 282.625C635.101 280.788 632.62 278.193 630.877 274.841C629.135 271.47 628.263 267.483 628.263 262.881C628.263 258.392 629.135 254.453 630.877 251.062C632.62 247.672 635.072 245.03 638.235 243.136C641.417 241.242 645.148 240.295 649.428 240.295C652.307 240.295 654.987 240.759 657.468 241.688C659.968 242.597 662.146 243.97 664.002 245.807C665.877 247.644 667.335 249.955 668.377 252.739C669.419 255.504 669.94 258.742 669.94 262.455V265.778H633.093V258.278H658.548C658.548 256.536 658.169 254.992 657.411 253.648C656.654 252.303 655.603 251.252 654.258 250.494C652.932 249.718 651.388 249.33 649.627 249.33C647.79 249.33 646.161 249.756 644.741 250.608C643.339 251.441 642.241 252.568 641.445 253.989C640.65 255.39 640.243 256.953 640.224 258.676V265.807C640.224 267.966 640.621 269.831 641.417 271.403C642.231 272.975 643.377 274.188 644.854 275.04C646.332 275.892 648.084 276.318 650.11 276.318C651.455 276.318 652.686 276.129 653.803 275.75C654.921 275.371 655.877 274.803 656.673 274.045C657.468 273.288 658.074 272.36 658.491 271.261L669.684 272C669.116 274.689 667.951 277.038 666.19 279.045C664.447 281.034 662.193 282.587 659.428 283.705C656.682 284.803 653.51 285.352 649.911 285.352ZM677.837 284.5V240.864H689.57V248.477H690.025C690.82 245.769 692.156 243.723 694.031 242.341C695.906 240.939 698.065 240.239 700.508 240.239C701.114 240.239 701.767 240.277 702.468 240.352C703.169 240.428 703.784 240.532 704.315 240.665V251.403C703.746 251.233 702.96 251.081 701.957 250.949C700.953 250.816 700.034 250.75 699.201 250.75C697.421 250.75 695.83 251.138 694.428 251.915C693.046 252.672 691.947 253.733 691.133 255.097C690.337 256.46 689.94 258.032 689.94 259.812V284.5H677.837ZM736.225 240.864V249.955H709.293V240.864H736.225ZM715.458 284.5V237.71C715.458 234.547 716.074 231.924 717.305 229.841C718.555 227.758 720.259 226.195 722.418 225.153C724.577 224.112 727.03 223.591 729.776 223.591C731.632 223.591 733.327 223.733 734.862 224.017C736.415 224.301 737.57 224.557 738.327 224.784L736.168 233.875C735.695 233.723 735.108 233.581 734.407 233.449C733.725 233.316 733.024 233.25 732.305 233.25C730.524 233.25 729.284 233.667 728.583 234.5C727.882 235.314 727.532 236.46 727.532 237.938V284.5H715.458ZM755.721 226.318V284.5H743.619V226.318H755.721ZM785.131 285.352C780.719 285.352 776.902 284.415 773.683 282.54C770.482 280.646 768.01 278.013 766.268 274.642C764.525 271.252 763.654 267.322 763.654 262.852C763.654 258.345 764.525 254.405 766.268 251.034C768.01 247.644 770.482 245.011 773.683 243.136C776.902 241.242 780.719 240.295 785.131 240.295C789.544 240.295 793.351 241.242 796.552 243.136C799.772 245.011 802.253 247.644 803.995 251.034C805.737 254.405 806.609 258.345 806.609 262.852C806.609 267.322 805.737 271.252 803.995 274.642C802.253 278.013 799.772 280.646 796.552 282.54C793.351 284.415 789.544 285.352 785.131 285.352ZM785.188 275.977C787.196 275.977 788.872 275.409 790.217 274.273C791.561 273.117 792.575 271.545 793.256 269.557C793.957 267.568 794.308 265.305 794.308 262.767C794.308 260.229 793.957 257.966 793.256 255.977C792.575 253.989 791.561 252.417 790.217 251.261C788.872 250.106 787.196 249.528 785.188 249.528C783.162 249.528 781.457 250.106 780.075 251.261C778.711 252.417 777.679 253.989 776.978 255.977C776.296 257.966 775.955 260.229 775.955 262.767C775.955 265.305 776.296 267.568 776.978 269.557C777.679 271.545 778.711 273.117 780.075 274.273C781.457 275.409 783.162 275.977 785.188 275.977ZM821.992 284.5L810.117 240.864H822.362L829.123 270.182H829.521L836.566 240.864H848.583L855.742 270.011H856.112L862.759 240.864H874.975L863.129 284.5H850.316L842.816 257.057H842.276L834.776 284.5H821.992ZM917.738 253.307L906.658 253.989C906.469 253.042 906.062 252.189 905.437 251.432C904.812 250.655 903.988 250.04 902.965 249.585C901.961 249.112 900.759 248.875 899.357 248.875C897.482 248.875 895.901 249.273 894.613 250.068C893.325 250.845 892.681 251.886 892.681 253.193C892.681 254.235 893.098 255.116 893.931 255.835C894.764 256.555 896.194 257.133 898.221 257.568L906.119 259.159C910.361 260.03 913.524 261.432 915.607 263.364C917.691 265.295 918.732 267.833 918.732 270.977C918.732 273.837 917.889 276.347 916.204 278.506C914.537 280.665 912.246 282.35 909.329 283.562C906.431 284.756 903.088 285.352 899.3 285.352C893.524 285.352 888.922 284.15 885.494 281.744C882.085 279.32 880.086 276.025 879.499 271.858L891.403 271.233C891.763 272.994 892.634 274.339 894.016 275.267C895.399 276.176 897.17 276.631 899.329 276.631C901.45 276.631 903.155 276.223 904.442 275.409C905.749 274.576 906.412 273.506 906.431 272.199C906.412 271.1 905.948 270.201 905.039 269.5C904.13 268.78 902.728 268.231 900.835 267.852L893.278 266.347C889.016 265.494 885.844 264.017 883.761 261.915C881.696 259.812 880.664 257.133 880.664 253.875C880.664 251.072 881.422 248.657 882.937 246.631C884.471 244.604 886.621 243.042 889.386 241.943C892.17 240.845 895.427 240.295 899.158 240.295C904.67 240.295 909.007 241.46 912.17 243.79C915.352 246.119 917.208 249.292 917.738 253.307Z" fill="#D8DEE9"/>
<g filter="url(#filter0_i_1900_2)">
<rect x="276" y="368.5" width="128" height="46" rx="23" fill="#202227"/>
<path d="M312.44 383.5H314.862V394.023C314.862 395.143 314.599 396.135 314.073 397C313.547 397.859 312.808 398.536 311.854 399.031C310.901 399.521 309.784 399.766 308.503 399.766C307.227 399.766 306.112 399.521 305.159 399.031C304.206 398.536 303.466 397.859 302.94 397C302.414 396.135 302.151 395.143 302.151 394.023V383.5H304.565V393.828C304.565 394.552 304.724 395.195 305.042 395.758C305.365 396.32 305.821 396.763 306.409 397.086C306.998 397.404 307.696 397.562 308.503 397.562C309.315 397.562 310.016 397.404 310.604 397.086C311.198 396.763 311.651 396.32 311.964 395.758C312.282 395.195 312.44 394.552 312.44 393.828V383.5ZM323.786 387.5V389.375H317.231V387.5H323.786ZM318.989 384.625H321.325V395.977C321.325 396.43 321.393 396.771 321.528 397C321.664 397.224 321.838 397.378 322.052 397.461C322.271 397.539 322.507 397.578 322.763 397.578C322.95 397.578 323.114 397.565 323.255 397.539C323.396 397.513 323.505 397.492 323.583 397.477L324.005 399.406C323.869 399.458 323.677 399.51 323.427 399.563C323.177 399.62 322.864 399.651 322.489 399.656C321.875 399.667 321.302 399.557 320.771 399.328C320.239 399.099 319.81 398.745 319.481 398.266C319.153 397.786 318.989 397.185 318.989 396.461V384.625ZM326.37 399.5V387.5H328.706V399.5H326.37ZM327.55 385.648C327.144 385.648 326.795 385.513 326.503 385.242C326.216 384.966 326.073 384.638 326.073 384.258C326.073 383.872 326.216 383.544 326.503 383.273C326.795 382.997 327.144 382.859 327.55 382.859C327.956 382.859 328.302 382.997 328.589 383.273C328.881 383.544 329.026 383.872 329.026 384.258C329.026 384.638 328.881 384.966 328.589 385.242C328.302 385.513 327.956 385.648 327.55 385.648ZM334.185 383.5V399.5H331.849V383.5H334.185ZM337.327 399.5V387.5H339.663V399.5H337.327ZM338.507 385.648C338.101 385.648 337.752 385.513 337.46 385.242C337.174 384.966 337.03 384.638 337.03 384.258C337.03 383.872 337.174 383.544 337.46 383.273C337.752 382.997 338.101 382.859 338.507 382.859C338.913 382.859 339.259 382.997 339.546 383.273C339.838 383.544 339.983 383.872 339.983 384.258C339.983 384.638 339.838 384.966 339.546 385.242C339.259 385.513 338.913 385.648 338.507 385.648ZM348.407 387.5V389.375H341.853V387.5H348.407ZM343.61 384.625H345.946V395.977C345.946 396.43 346.014 396.771 346.149 397C346.285 397.224 346.459 397.378 346.673 397.461C346.892 397.539 347.129 397.578 347.384 397.578C347.571 397.578 347.735 397.565 347.876 397.539C348.017 397.513 348.126 397.492 348.204 397.477L348.626 399.406C348.491 399.458 348.298 399.51 348.048 399.563C347.798 399.62 347.485 399.651 347.11 399.656C346.496 399.667 345.923 399.557 345.392 399.328C344.86 399.099 344.431 398.745 344.103 398.266C343.774 397.786 343.61 397.185 343.61 396.461V384.625ZM350.991 399.5V387.5H353.327V399.5H350.991ZM352.171 385.648C351.765 385.648 351.416 385.513 351.124 385.242C350.838 384.966 350.694 384.638 350.694 384.258C350.694 383.872 350.838 383.544 351.124 383.273C351.416 382.997 351.765 382.859 352.171 382.859C352.577 382.859 352.924 382.997 353.21 383.273C353.502 383.544 353.647 383.872 353.647 384.258C353.647 384.638 353.502 384.966 353.21 385.242C352.924 385.513 352.577 385.648 352.171 385.648ZM361.642 399.742C360.459 399.742 359.441 399.49 358.587 398.984C357.738 398.474 357.082 397.758 356.618 396.836C356.16 395.909 355.931 394.823 355.931 393.578C355.931 392.349 356.16 391.266 356.618 390.328C357.082 389.391 357.728 388.659 358.556 388.133C359.389 387.607 360.363 387.344 361.478 387.344C362.155 387.344 362.811 387.456 363.446 387.68C364.082 387.904 364.652 388.255 365.157 388.734C365.662 389.214 366.061 389.836 366.353 390.602C366.644 391.362 366.79 392.286 366.79 393.375V394.203H357.251V392.453H364.501C364.501 391.839 364.376 391.294 364.126 390.82C363.876 390.341 363.524 389.964 363.071 389.687C362.623 389.411 362.097 389.273 361.493 389.273C360.837 389.273 360.264 389.435 359.774 389.758C359.29 390.076 358.915 390.492 358.649 391.008C358.389 391.518 358.259 392.073 358.259 392.672V394.039C358.259 394.841 358.399 395.523 358.681 396.086C358.967 396.648 359.366 397.078 359.876 397.375C360.386 397.667 360.983 397.812 361.665 397.812C362.108 397.812 362.511 397.75 362.876 397.625C363.241 397.495 363.556 397.302 363.821 397.047C364.087 396.792 364.29 396.477 364.431 396.102L366.642 396.5C366.465 397.151 366.147 397.721 365.688 398.211C365.235 398.695 364.665 399.073 363.978 399.344C363.295 399.609 362.517 399.742 361.642 399.742ZM378.374 390.43L376.257 390.805C376.168 390.534 376.028 390.276 375.835 390.031C375.647 389.786 375.392 389.586 375.069 389.43C374.746 389.273 374.343 389.195 373.858 389.195C373.197 389.195 372.645 389.344 372.202 389.641C371.759 389.932 371.538 390.31 371.538 390.773C371.538 391.174 371.687 391.497 371.983 391.742C372.28 391.987 372.759 392.187 373.421 392.344L375.327 392.781C376.431 393.036 377.254 393.43 377.796 393.961C378.338 394.492 378.608 395.182 378.608 396.031C378.608 396.75 378.4 397.391 377.983 397.953C377.572 398.51 376.996 398.948 376.257 399.266C375.522 399.583 374.671 399.742 373.702 399.742C372.358 399.742 371.262 399.456 370.413 398.883C369.564 398.305 369.043 397.484 368.851 396.422L371.108 396.078C371.249 396.667 371.538 397.112 371.976 397.414C372.413 397.711 372.983 397.859 373.687 397.859C374.452 397.859 375.064 397.701 375.522 397.383C375.981 397.06 376.21 396.667 376.21 396.203C376.21 395.828 376.069 395.513 375.788 395.258C375.512 395.003 375.088 394.81 374.515 394.68L372.483 394.234C371.364 393.979 370.535 393.573 369.999 393.016C369.468 392.458 369.202 391.753 369.202 390.898C369.202 390.19 369.4 389.57 369.796 389.039C370.192 388.508 370.739 388.094 371.437 387.797C372.134 387.495 372.934 387.344 373.835 387.344C375.132 387.344 376.153 387.625 376.897 388.187C377.642 388.745 378.134 389.492 378.374 390.43Z" fill="#81A1C1"/>
</g>
<g filter="url(#filter1_i_1900_2)">
<rect x="428" y="368.5" width="109" height="46" rx="23" fill="#202227"/>
<path d="M454.19 399.5V383.5H459.894C461.133 383.5 462.162 383.714 462.979 384.141C463.802 384.568 464.417 385.159 464.823 385.914C465.229 386.664 465.433 387.531 465.433 388.516C465.433 389.495 465.227 390.357 464.815 391.102C464.409 391.841 463.795 392.417 462.972 392.828C462.154 393.24 461.125 393.445 459.886 393.445H455.565V391.367H459.667C460.448 391.367 461.084 391.255 461.573 391.031C462.068 390.807 462.43 390.482 462.659 390.055C462.888 389.628 463.003 389.115 463.003 388.516C463.003 387.911 462.886 387.388 462.651 386.945C462.422 386.503 462.06 386.164 461.565 385.93C461.076 385.69 460.433 385.57 459.636 385.57H456.604V399.5H454.19ZM462.089 392.281L466.042 399.5H463.292L459.417 392.281H462.089ZM473.204 399.742C472.022 399.742 471.004 399.49 470.149 398.984C469.3 398.474 468.644 397.758 468.181 396.836C467.722 395.909 467.493 394.823 467.493 393.578C467.493 392.349 467.722 391.266 468.181 390.328C468.644 389.391 469.29 388.659 470.118 388.133C470.951 387.607 471.925 387.344 473.04 387.344C473.717 387.344 474.373 387.456 475.009 387.68C475.644 387.904 476.215 388.255 476.72 388.734C477.225 389.214 477.623 389.836 477.915 390.602C478.207 391.362 478.353 392.286 478.353 393.375V394.203H468.813V392.453H476.063C476.063 391.839 475.938 391.294 475.688 390.82C475.438 390.341 475.087 389.964 474.634 389.687C474.186 389.411 473.66 389.273 473.056 389.273C472.399 389.273 471.826 389.435 471.337 389.758C470.853 390.076 470.478 390.492 470.212 391.008C469.951 391.518 469.821 392.073 469.821 392.672V394.039C469.821 394.841 469.962 395.523 470.243 396.086C470.53 396.648 470.928 397.078 471.438 397.375C471.949 397.667 472.545 397.812 473.228 397.812C473.67 397.812 474.074 397.75 474.438 397.625C474.803 397.495 475.118 397.302 475.384 397.047C475.649 396.792 475.853 396.477 475.993 396.102L478.204 396.5C478.027 397.151 477.709 397.721 477.251 398.211C476.798 398.695 476.228 399.073 475.54 399.344C474.858 399.609 474.079 399.742 473.204 399.742ZM484.437 399.766C483.676 399.766 482.989 399.625 482.374 399.344C481.759 399.057 481.272 398.643 480.913 398.102C480.559 397.56 480.382 396.896 480.382 396.109C480.382 395.432 480.512 394.875 480.772 394.437C481.033 394 481.384 393.654 481.827 393.398C482.27 393.143 482.765 392.951 483.312 392.82C483.858 392.69 484.416 392.591 484.983 392.523C485.702 392.44 486.285 392.372 486.733 392.32C487.181 392.263 487.507 392.172 487.71 392.047C487.913 391.922 488.015 391.719 488.015 391.437V391.383C488.015 390.701 487.822 390.172 487.437 389.797C487.056 389.422 486.489 389.234 485.733 389.234C484.947 389.234 484.327 389.409 483.874 389.758C483.426 390.102 483.116 390.484 482.944 390.906L480.749 390.406C481.009 389.677 481.39 389.089 481.89 388.641C482.395 388.187 482.976 387.859 483.632 387.656C484.288 387.448 484.978 387.344 485.702 387.344C486.181 387.344 486.689 387.401 487.226 387.516C487.767 387.625 488.272 387.828 488.741 388.125C489.215 388.422 489.603 388.846 489.905 389.398C490.207 389.945 490.358 390.656 490.358 391.531V399.5H488.077V397.859H487.983C487.832 398.161 487.606 398.458 487.304 398.75C487.002 399.042 486.614 399.284 486.14 399.477C485.666 399.669 485.098 399.766 484.437 399.766ZM484.944 397.891C485.59 397.891 486.142 397.763 486.601 397.508C487.064 397.253 487.416 396.919 487.655 396.508C487.9 396.091 488.022 395.646 488.022 395.172V393.625C487.939 393.708 487.778 393.786 487.538 393.859C487.304 393.927 487.035 393.987 486.733 394.039C486.431 394.086 486.137 394.13 485.851 394.172C485.564 394.208 485.325 394.24 485.132 394.266C484.679 394.323 484.265 394.419 483.89 394.555C483.52 394.69 483.223 394.885 482.999 395.141C482.78 395.391 482.671 395.724 482.671 396.141C482.671 396.719 482.884 397.156 483.312 397.453C483.739 397.745 484.283 397.891 484.944 397.891ZM498.524 399.742C497.363 399.742 496.363 399.479 495.524 398.953C494.691 398.422 494.05 397.69 493.603 396.758C493.155 395.826 492.931 394.758 492.931 393.555C492.931 392.336 493.16 391.26 493.618 390.328C494.076 389.391 494.722 388.659 495.556 388.133C496.389 387.607 497.371 387.344 498.501 387.344C499.412 387.344 500.225 387.513 500.938 387.852C501.652 388.185 502.228 388.654 502.665 389.258C503.108 389.862 503.371 390.568 503.454 391.375H501.181C501.056 390.812 500.769 390.328 500.321 389.922C499.879 389.516 499.285 389.312 498.54 389.312C497.889 389.312 497.319 389.484 496.829 389.828C496.345 390.167 495.967 390.651 495.696 391.281C495.425 391.906 495.29 392.646 495.29 393.5C495.29 394.375 495.423 395.13 495.688 395.766C495.954 396.401 496.329 396.893 496.813 397.242C497.303 397.591 497.879 397.766 498.54 397.766C498.983 397.766 499.384 397.685 499.743 397.523C500.108 397.357 500.412 397.12 500.657 396.812C500.907 396.505 501.082 396.135 501.181 395.703H503.454C503.371 396.479 503.118 397.172 502.696 397.781C502.274 398.391 501.709 398.87 501.001 399.219C500.298 399.568 499.472 399.742 498.524 399.742ZM511.554 387.5V389.375H504.999V387.5H511.554ZM506.757 384.625H509.093V395.977C509.093 396.43 509.16 396.771 509.296 397C509.431 397.224 509.606 397.378 509.819 397.461C510.038 397.539 510.275 397.578 510.53 397.578C510.718 397.578 510.882 397.565 511.022 397.539C511.163 397.513 511.272 397.492 511.351 397.477L511.772 399.406C511.637 399.458 511.444 399.51 511.194 399.563C510.944 399.62 510.632 399.651 510.257 399.656C509.642 399.667 509.069 399.557 508.538 399.328C508.007 399.099 507.577 398.745 507.249 398.266C506.921 397.786 506.757 397.185 506.757 396.461V384.625Z" fill="#81A1C1"/>
</g>
<g filter="url(#filter2_i_1900_2)">
<rect x="561" y="368.5" width="231" height="46" rx="23" fill="#202227"/>
<path d="M600.389 388.703H597.951C597.857 388.182 597.683 387.724 597.428 387.328C597.173 386.932 596.86 386.596 596.49 386.32C596.12 386.044 595.706 385.836 595.248 385.695C594.795 385.555 594.313 385.484 593.803 385.484C592.881 385.484 592.055 385.716 591.326 386.18C590.602 386.643 590.029 387.323 589.607 388.219C589.191 389.115 588.982 390.208 588.982 391.5C588.982 392.802 589.191 393.901 589.607 394.797C590.029 395.693 590.605 396.37 591.334 396.828C592.063 397.286 592.883 397.516 593.795 397.516C594.3 397.516 594.779 397.448 595.232 397.312C595.691 397.172 596.105 396.966 596.475 396.695C596.844 396.424 597.157 396.094 597.412 395.703C597.673 395.307 597.852 394.854 597.951 394.344L600.389 394.352C600.258 395.138 600.006 395.862 599.631 396.523C599.261 397.18 598.785 397.747 598.201 398.227C597.623 398.701 596.962 399.068 596.217 399.328C595.472 399.589 594.66 399.719 593.779 399.719C592.394 399.719 591.16 399.391 590.076 398.734C588.993 398.073 588.139 397.128 587.514 395.898C586.894 394.669 586.584 393.203 586.584 391.5C586.584 389.792 586.896 388.326 587.521 387.102C588.146 385.872 589.001 384.93 590.084 384.273C591.167 383.612 592.399 383.281 593.779 383.281C594.628 383.281 595.42 383.404 596.154 383.648C596.894 383.888 597.558 384.242 598.146 384.711C598.735 385.174 599.222 385.742 599.607 386.414C599.993 387.081 600.253 387.844 600.389 388.703ZM608.145 399.742C607.02 399.742 606.038 399.484 605.199 398.969C604.361 398.453 603.71 397.732 603.246 396.805C602.783 395.878 602.551 394.794 602.551 393.555C602.551 392.31 602.783 391.221 603.246 390.289C603.71 389.357 604.361 388.633 605.199 388.117C606.038 387.602 607.02 387.344 608.145 387.344C609.27 387.344 610.251 387.602 611.09 388.117C611.928 388.633 612.579 389.357 613.043 390.289C613.507 391.221 613.738 392.31 613.738 393.555C613.738 394.794 613.507 395.878 613.043 396.805C612.579 397.732 611.928 398.453 611.09 398.969C610.251 399.484 609.27 399.742 608.145 399.742ZM608.152 397.781C608.882 397.781 609.486 397.589 609.965 397.203C610.444 396.818 610.798 396.305 611.027 395.664C611.262 395.023 611.379 394.318 611.379 393.547C611.379 392.781 611.262 392.078 611.027 391.437C610.798 390.792 610.444 390.273 609.965 389.883C609.486 389.492 608.882 389.297 608.152 389.297C607.418 389.297 606.809 389.492 606.324 389.883C605.845 390.273 605.488 390.792 605.254 391.437C605.025 392.078 604.91 392.781 604.91 393.547C604.91 394.318 605.025 395.023 605.254 395.664C605.488 396.305 605.845 396.818 606.324 397.203C606.809 397.589 607.418 397.781 608.152 397.781ZM618.682 392.375V399.5H616.346V387.5H618.588V389.453H618.736C619.012 388.818 619.445 388.307 620.033 387.922C620.627 387.536 621.374 387.344 622.275 387.344C623.093 387.344 623.809 387.516 624.424 387.859C625.038 388.198 625.515 388.703 625.854 389.375C626.192 390.047 626.361 390.878 626.361 391.867V399.5H624.025V392.148C624.025 391.279 623.799 390.599 623.346 390.109C622.893 389.615 622.27 389.367 621.479 389.367C620.937 389.367 620.455 389.484 620.033 389.719C619.617 389.953 619.286 390.297 619.041 390.75C618.801 391.198 618.682 391.74 618.682 392.375ZM635.096 387.5V389.375H628.541V387.5H635.096ZM630.299 384.625H632.635V395.977C632.635 396.43 632.702 396.771 632.838 397C632.973 397.224 633.148 397.378 633.361 397.461C633.58 397.539 633.817 397.578 634.072 397.578C634.26 397.578 634.424 397.565 634.564 397.539C634.705 397.513 634.814 397.492 634.893 397.477L635.314 399.406C635.179 399.458 634.986 399.51 634.736 399.563C634.486 399.62 634.174 399.651 633.799 399.656C633.184 399.667 632.611 399.557 632.08 399.328C631.549 399.099 631.119 398.745 630.791 398.266C630.463 397.786 630.299 397.185 630.299 396.461V384.625ZM642.723 399.742C641.54 399.742 640.522 399.49 639.668 398.984C638.819 398.474 638.163 397.758 637.699 396.836C637.241 395.909 637.012 394.823 637.012 393.578C637.012 392.349 637.241 391.266 637.699 390.328C638.163 389.391 638.809 388.659 639.637 388.133C640.47 387.607 641.444 387.344 642.559 387.344C643.236 387.344 643.892 387.456 644.527 387.68C645.163 387.904 645.733 388.255 646.238 388.734C646.743 389.214 647.142 389.836 647.434 390.602C647.725 391.362 647.871 392.286 647.871 393.375V394.203H638.332V392.453H645.582C645.582 391.839 645.457 391.294 645.207 390.82C644.957 390.341 644.605 389.964 644.152 389.687C643.704 389.411 643.178 389.273 642.574 389.273C641.918 389.273 641.345 389.435 640.855 389.758C640.371 390.076 639.996 390.492 639.73 391.008C639.47 391.518 639.34 392.073 639.34 392.672V394.039C639.34 394.841 639.48 395.523 639.762 396.086C640.048 396.648 640.447 397.078 640.957 397.375C641.467 397.667 642.064 397.812 642.746 397.812C643.189 397.812 643.592 397.75 643.957 397.625C644.322 397.495 644.637 397.302 644.902 397.047C645.168 396.792 645.371 396.477 645.512 396.102L647.723 396.5C647.546 397.151 647.228 397.721 646.77 398.211C646.316 398.695 645.746 399.073 645.059 399.344C644.376 399.609 643.598 399.742 642.723 399.742ZM652.799 392.375V399.5H650.463V387.5H652.705V389.453H652.854C653.13 388.818 653.562 388.307 654.15 387.922C654.744 387.536 655.492 387.344 656.393 387.344C657.21 387.344 657.926 387.516 658.541 387.859C659.156 388.198 659.632 388.703 659.971 389.375C660.309 390.047 660.479 390.878 660.479 391.867V399.5H658.143V392.148C658.143 391.279 657.916 390.599 657.463 390.109C657.01 389.615 656.387 389.367 655.596 389.367C655.054 389.367 654.572 389.484 654.15 389.719C653.734 389.953 653.403 390.297 653.158 390.75C652.919 391.198 652.799 391.74 652.799 392.375ZM669.213 387.5V389.375H662.658V387.5H669.213ZM664.416 384.625H666.752V395.977C666.752 396.43 666.82 396.771 666.955 397C667.09 397.224 667.265 397.378 667.479 397.461C667.697 397.539 667.934 397.578 668.189 397.578C668.377 397.578 668.541 397.565 668.682 397.539C668.822 397.513 668.932 397.492 669.01 397.477L669.432 399.406C669.296 399.458 669.104 399.51 668.854 399.563C668.604 399.62 668.291 399.651 667.916 399.656C667.301 399.667 666.729 399.557 666.197 399.328C665.666 399.099 665.236 398.745 664.908 398.266C664.58 397.786 664.416 397.185 664.416 396.461V384.625ZM682.674 399.742C681.549 399.742 680.567 399.484 679.729 398.969C678.89 398.453 678.239 397.732 677.775 396.805C677.312 395.878 677.08 394.794 677.08 393.555C677.08 392.31 677.312 391.221 677.775 390.289C678.239 389.357 678.89 388.633 679.729 388.117C680.567 387.602 681.549 387.344 682.674 387.344C683.799 387.344 684.781 387.602 685.619 388.117C686.458 388.633 687.109 389.357 687.572 390.289C688.036 391.221 688.268 392.31 688.268 393.555C688.268 394.794 688.036 395.878 687.572 396.805C687.109 397.732 686.458 398.453 685.619 398.969C684.781 399.484 683.799 399.742 682.674 399.742ZM682.682 397.781C683.411 397.781 684.015 397.589 684.494 397.203C684.973 396.818 685.327 396.305 685.557 395.664C685.791 395.023 685.908 394.318 685.908 393.547C685.908 392.781 685.791 392.078 685.557 391.437C685.327 390.792 684.973 390.273 684.494 389.883C684.015 389.492 683.411 389.297 682.682 389.297C681.947 389.297 681.338 389.492 680.854 389.883C680.374 390.273 680.018 390.792 679.783 391.437C679.554 392.078 679.439 392.781 679.439 393.547C679.439 394.318 679.554 395.023 679.783 395.664C680.018 396.305 680.374 396.818 680.854 397.203C681.338 397.589 681.947 397.781 682.682 397.781ZM700.732 387.5L696.381 399.5H693.881L689.521 387.5H692.029L695.068 396.734H695.193L698.225 387.5H700.732ZM707.691 399.742C706.509 399.742 705.491 399.49 704.637 398.984C703.788 398.474 703.132 397.758 702.668 396.836C702.21 395.909 701.98 394.823 701.98 393.578C701.98 392.349 702.21 391.266 702.668 390.328C703.132 389.391 703.777 388.659 704.605 388.133C705.439 387.607 706.413 387.344 707.527 387.344C708.204 387.344 708.861 387.456 709.496 387.68C710.132 387.904 710.702 388.255 711.207 388.734C711.712 389.214 712.111 389.836 712.402 390.602C712.694 391.362 712.84 392.286 712.84 393.375V394.203H703.301V392.453H710.551C710.551 391.839 710.426 391.294 710.176 390.82C709.926 390.341 709.574 389.964 709.121 389.687C708.673 389.411 708.147 389.273 707.543 389.273C706.887 389.273 706.314 389.435 705.824 389.758C705.34 390.076 704.965 390.492 704.699 391.008C704.439 391.518 704.309 392.073 704.309 392.672V394.039C704.309 394.841 704.449 395.523 704.73 396.086C705.017 396.648 705.415 397.078 705.926 397.375C706.436 397.667 707.033 397.812 707.715 397.812C708.158 397.812 708.561 397.75 708.926 397.625C709.29 397.495 709.605 397.302 709.871 397.047C710.137 396.792 710.34 396.477 710.48 396.102L712.691 396.5C712.514 397.151 712.197 397.721 711.738 398.211C711.285 398.695 710.715 399.073 710.027 399.344C709.345 399.609 708.566 399.742 707.691 399.742ZM715.432 399.5V387.5H717.689V389.406H717.814C718.033 388.76 718.419 388.253 718.971 387.883C719.528 387.508 720.158 387.32 720.861 387.32C721.007 387.32 721.179 387.326 721.377 387.336C721.58 387.346 721.739 387.359 721.854 387.375V389.609C721.76 389.583 721.593 389.555 721.354 389.523C721.114 389.487 720.874 389.469 720.635 389.469C720.083 389.469 719.59 389.586 719.158 389.82C718.731 390.049 718.393 390.37 718.143 390.781C717.893 391.187 717.768 391.651 717.768 392.172V399.5H715.432ZM730.295 387.5V389.375H723.514V387.5H730.295ZM725.373 399.5V386.109C725.373 385.359 725.537 384.737 725.865 384.242C726.193 383.742 726.628 383.37 727.17 383.125C727.712 382.875 728.3 382.75 728.936 382.75C729.404 382.75 729.805 382.789 730.139 382.867C730.472 382.94 730.719 383.008 730.881 383.07L730.334 384.961C730.225 384.93 730.084 384.893 729.912 384.852C729.74 384.805 729.532 384.781 729.287 384.781C728.719 384.781 728.313 384.922 728.068 385.203C727.829 385.484 727.709 385.891 727.709 386.422V399.5H725.373ZM735.041 383.5V399.5H732.705V383.5H735.041ZM743.238 399.742C742.113 399.742 741.132 399.484 740.293 398.969C739.454 398.453 738.803 397.732 738.34 396.805C737.876 395.878 737.645 394.794 737.645 393.555C737.645 392.31 737.876 391.221 738.34 390.289C738.803 389.357 739.454 388.633 740.293 388.117C741.132 387.602 742.113 387.344 743.238 387.344C744.363 387.344 745.345 387.602 746.184 388.117C747.022 388.633 747.673 389.357 748.137 390.289C748.6 391.221 748.832 392.31 748.832 393.555C748.832 394.794 748.6 395.878 748.137 396.805C747.673 397.732 747.022 398.453 746.184 398.969C745.345 399.484 744.363 399.742 743.238 399.742ZM743.246 397.781C743.975 397.781 744.579 397.589 745.059 397.203C745.538 396.818 745.892 396.305 746.121 395.664C746.355 395.023 746.473 394.318 746.473 393.547C746.473 392.781 746.355 392.078 746.121 391.437C745.892 390.792 745.538 390.273 745.059 389.883C744.579 389.492 743.975 389.297 743.246 389.297C742.512 389.297 741.902 389.492 741.418 389.883C740.939 390.273 740.582 390.792 740.348 391.437C740.118 392.078 740.004 392.781 740.004 393.547C740.004 394.318 740.118 395.023 740.348 395.664C740.582 396.305 740.939 396.818 741.418 397.203C741.902 397.589 742.512 397.781 743.246 397.781ZM753.676 399.5L750.145 387.5H752.559L754.91 396.312H755.027L757.387 387.5H759.801L762.145 396.273H762.262L764.598 387.5H767.012L763.488 399.5H761.105L758.668 390.836H758.488L756.051 399.5H753.676Z" fill="#81A1C1"/>
</g>
<g filter="url(#filter3_i_1900_2)">
<rect x="276" y="443.5" width="132" height="46" rx="23" fill="#202227"/>
<path d="M301.16 460.578V458.5H313.543V460.578H308.551V474.5H306.145V460.578H301.16ZM319.406 474.742C318.281 474.742 317.299 474.484 316.461 473.969C315.622 473.453 314.971 472.732 314.508 471.805C314.044 470.878 313.812 469.794 313.812 468.555C313.812 467.31 314.044 466.221 314.508 465.289C314.971 464.357 315.622 463.633 316.461 463.117C317.299 462.602 318.281 462.344 319.406 462.344C320.531 462.344 321.513 462.602 322.352 463.117C323.19 463.633 323.841 464.357 324.305 465.289C324.768 466.221 325 467.31 325 468.555C325 469.794 324.768 470.878 324.305 471.805C323.841 472.732 323.19 473.453 322.352 473.969C321.513 474.484 320.531 474.742 319.406 474.742ZM319.414 472.781C320.143 472.781 320.747 472.589 321.227 472.203C321.706 471.818 322.06 471.305 322.289 470.664C322.523 470.023 322.641 469.318 322.641 468.547C322.641 467.781 322.523 467.078 322.289 466.437C322.06 465.792 321.706 465.273 321.227 464.883C320.747 464.492 320.143 464.297 319.414 464.297C318.68 464.297 318.07 464.492 317.586 464.883C317.107 465.273 316.75 465.792 316.516 466.437C316.286 467.078 316.172 467.781 316.172 468.547C316.172 469.318 316.286 470.023 316.516 470.664C316.75 471.305 317.107 471.818 317.586 472.203C318.07 472.589 318.68 472.781 319.414 472.781ZM332.662 474.742C331.537 474.742 330.555 474.484 329.717 473.969C328.878 473.453 328.227 472.732 327.764 471.805C327.3 470.878 327.068 469.794 327.068 468.555C327.068 467.31 327.3 466.221 327.764 465.289C328.227 464.357 328.878 463.633 329.717 463.117C330.555 462.602 331.537 462.344 332.662 462.344C333.787 462.344 334.769 462.602 335.607 463.117C336.446 463.633 337.097 464.357 337.561 465.289C338.024 466.221 338.256 467.31 338.256 468.555C338.256 469.794 338.024 470.878 337.561 471.805C337.097 472.732 336.446 473.453 335.607 473.969C334.769 474.484 333.787 474.742 332.662 474.742ZM332.67 472.781C333.399 472.781 334.003 472.589 334.482 472.203C334.962 471.818 335.316 471.305 335.545 470.664C335.779 470.023 335.896 469.318 335.896 468.547C335.896 467.781 335.779 467.078 335.545 466.437C335.316 465.792 334.962 465.273 334.482 464.883C334.003 464.492 333.399 464.297 332.67 464.297C331.936 464.297 331.326 464.492 330.842 464.883C330.363 465.273 330.006 465.792 329.771 466.437C329.542 467.078 329.428 467.781 329.428 468.547C329.428 469.318 329.542 470.023 329.771 470.664C330.006 471.305 330.363 471.818 330.842 472.203C331.326 472.589 331.936 472.781 332.67 472.781ZM343.199 458.5V474.5H340.863V458.5H343.199ZM351.943 462.5V464.375H345.389V462.5H351.943ZM347.146 459.625H349.482V470.977C349.482 471.43 349.55 471.771 349.686 472C349.821 472.224 349.995 472.378 350.209 472.461C350.428 472.539 350.665 472.578 350.92 472.578C351.107 472.578 351.271 472.565 351.412 472.539C351.553 472.513 351.662 472.492 351.74 472.477L352.162 474.406C352.027 474.458 351.834 474.51 351.584 474.563C351.334 474.62 351.021 474.651 350.646 474.656C350.032 474.667 349.459 474.557 348.928 474.328C348.396 474.099 347.967 473.745 347.639 473.266C347.311 472.786 347.146 472.185 347.146 471.461V459.625ZM354.527 474.5V462.5H356.863V474.5H354.527ZM355.707 460.648C355.301 460.648 354.952 460.513 354.66 460.242C354.374 459.966 354.23 459.638 354.23 459.258C354.23 458.872 354.374 458.544 354.66 458.273C354.952 457.997 355.301 457.859 355.707 457.859C356.113 457.859 356.46 457.997 356.746 458.273C357.038 458.544 357.184 458.872 357.184 459.258C357.184 459.638 357.038 459.966 356.746 460.242C356.46 460.513 356.113 460.648 355.707 460.648ZM360.006 479V462.5H362.287V464.445H362.482C362.618 464.195 362.813 463.906 363.068 463.578C363.324 463.25 363.678 462.964 364.131 462.719C364.584 462.469 365.183 462.344 365.928 462.344C366.896 462.344 367.761 462.589 368.521 463.078C369.282 463.568 369.878 464.273 370.311 465.195C370.748 466.117 370.967 467.227 370.967 468.523C370.967 469.82 370.751 470.932 370.318 471.859C369.886 472.781 369.292 473.492 368.537 473.992C367.782 474.487 366.92 474.734 365.951 474.734C365.222 474.734 364.626 474.612 364.162 474.367C363.704 474.122 363.344 473.836 363.084 473.508C362.824 473.18 362.623 472.888 362.482 472.633H362.342V479H360.006ZM362.295 468.5C362.295 469.344 362.417 470.083 362.662 470.719C362.907 471.354 363.261 471.852 363.725 472.211C364.188 472.565 364.756 472.742 365.428 472.742C366.126 472.742 366.709 472.557 367.178 472.187C367.646 471.812 368.001 471.305 368.24 470.664C368.485 470.023 368.607 469.302 368.607 468.5C368.607 467.708 368.488 466.997 368.248 466.367C368.014 465.737 367.66 465.24 367.186 464.875C366.717 464.51 366.131 464.328 365.428 464.328C364.751 464.328 364.178 464.503 363.709 464.852C363.245 465.201 362.894 465.687 362.654 466.312C362.415 466.937 362.295 467.667 362.295 468.5ZM382.576 465.43L380.459 465.805C380.37 465.534 380.23 465.276 380.037 465.031C379.85 464.786 379.594 464.586 379.271 464.43C378.949 464.273 378.545 464.195 378.061 464.195C377.399 464.195 376.847 464.344 376.404 464.641C375.962 464.932 375.74 465.31 375.74 465.773C375.74 466.174 375.889 466.497 376.186 466.742C376.482 466.987 376.962 467.187 377.623 467.344L379.529 467.781C380.633 468.036 381.456 468.43 381.998 468.961C382.54 469.492 382.811 470.182 382.811 471.031C382.811 471.75 382.602 472.391 382.186 472.953C381.774 473.51 381.199 473.948 380.459 474.266C379.725 474.583 378.873 474.742 377.904 474.742C376.561 474.742 375.464 474.456 374.615 473.883C373.766 473.305 373.245 472.484 373.053 471.422L375.311 471.078C375.451 471.667 375.74 472.112 376.178 472.414C376.615 472.711 377.186 472.859 377.889 472.859C378.654 472.859 379.266 472.701 379.725 472.383C380.183 472.06 380.412 471.667 380.412 471.203C380.412 470.828 380.271 470.513 379.99 470.258C379.714 470.003 379.29 469.81 378.717 469.68L376.686 469.234C375.566 468.979 374.738 468.573 374.201 468.016C373.67 467.458 373.404 466.753 373.404 465.898C373.404 465.19 373.602 464.57 373.998 464.039C374.394 463.508 374.941 463.094 375.639 462.797C376.337 462.495 377.136 462.344 378.037 462.344C379.334 462.344 380.355 462.625 381.1 463.187C381.844 463.745 382.337 464.492 382.576 465.43Z" fill="#81A1C1"/>
</g>
<g filter="url(#filter4_i_1900_2)">
<rect x="432" y="443.5" width="144" height="46" rx="23" fill="#202227"/>
<path d="M458.234 474.5V458.5H468.156V460.578H460.648V465.453H467.445V467.523H460.648V474.5H458.234ZM470.787 474.5V462.5H473.045V464.406H473.17C473.389 463.76 473.774 463.253 474.326 462.883C474.883 462.508 475.514 462.32 476.217 462.32C476.363 462.32 476.535 462.326 476.732 462.336C476.936 462.346 477.094 462.359 477.209 462.375V464.609C477.115 464.583 476.949 464.555 476.709 464.523C476.469 464.487 476.23 464.469 475.99 464.469C475.438 464.469 474.946 464.586 474.514 464.82C474.087 465.049 473.748 465.37 473.498 465.781C473.248 466.187 473.123 466.651 473.123 467.172V474.5H470.787ZM483.855 474.742C482.73 474.742 481.749 474.484 480.91 473.969C480.072 473.453 479.421 472.732 478.957 471.805C478.493 470.878 478.262 469.794 478.262 468.555C478.262 467.31 478.493 466.221 478.957 465.289C479.421 464.357 480.072 463.633 480.91 463.117C481.749 462.602 482.73 462.344 483.855 462.344C484.98 462.344 485.962 462.602 486.801 463.117C487.639 463.633 488.29 464.357 488.754 465.289C489.217 466.221 489.449 467.31 489.449 468.555C489.449 469.794 489.217 470.878 488.754 471.805C488.29 472.732 487.639 473.453 486.801 473.969C485.962 474.484 484.98 474.742 483.855 474.742ZM483.863 472.781C484.592 472.781 485.197 472.589 485.676 472.203C486.155 471.818 486.509 471.305 486.738 470.664C486.973 470.023 487.09 469.318 487.09 468.547C487.09 467.781 486.973 467.078 486.738 466.437C486.509 465.792 486.155 465.273 485.676 464.883C485.197 464.492 484.592 464.297 483.863 464.297C483.129 464.297 482.52 464.492 482.035 464.883C481.556 465.273 481.199 465.792 480.965 466.437C480.736 467.078 480.621 467.781 480.621 468.547C480.621 469.318 480.736 470.023 480.965 470.664C481.199 471.305 481.556 471.818 482.035 472.203C482.52 472.589 483.129 472.781 483.863 472.781ZM494.393 467.375V474.5H492.057V462.5H494.299V464.453H494.447C494.723 463.818 495.156 463.307 495.744 462.922C496.338 462.536 497.085 462.344 497.986 462.344C498.804 462.344 499.52 462.516 500.135 462.859C500.749 463.198 501.226 463.703 501.564 464.375C501.903 465.047 502.072 465.878 502.072 466.867V474.5H499.736V467.148C499.736 466.279 499.51 465.599 499.057 465.109C498.604 464.615 497.981 464.367 497.189 464.367C496.648 464.367 496.166 464.484 495.744 464.719C495.327 464.953 494.997 465.297 494.752 465.75C494.512 466.198 494.393 466.74 494.393 467.375ZM510.807 462.5V464.375H504.252V462.5H510.807ZM506.01 459.625H508.346V470.977C508.346 471.43 508.413 471.771 508.549 472C508.684 472.224 508.859 472.378 509.072 472.461C509.291 472.539 509.528 472.578 509.783 472.578C509.971 472.578 510.135 472.565 510.275 472.539C510.416 472.513 510.525 472.492 510.604 472.477L511.025 474.406C510.89 474.458 510.697 474.51 510.447 474.563C510.197 474.62 509.885 474.651 509.51 474.656C508.895 474.667 508.322 474.557 507.791 474.328C507.26 474.099 506.83 473.745 506.502 473.266C506.174 472.786 506.01 472.185 506.01 471.461V459.625ZM518.434 474.742C517.251 474.742 516.233 474.49 515.379 473.984C514.53 473.474 513.874 472.758 513.41 471.836C512.952 470.909 512.723 469.823 512.723 468.578C512.723 467.349 512.952 466.266 513.41 465.328C513.874 464.391 514.52 463.659 515.348 463.133C516.181 462.607 517.155 462.344 518.27 462.344C518.947 462.344 519.603 462.456 520.238 462.68C520.874 462.904 521.444 463.255 521.949 463.734C522.454 464.214 522.853 464.836 523.145 465.602C523.436 466.362 523.582 467.286 523.582 468.375V469.203H514.043V467.453H521.293C521.293 466.839 521.168 466.294 520.918 465.82C520.668 465.341 520.316 464.964 519.863 464.687C519.415 464.411 518.889 464.273 518.285 464.273C517.629 464.273 517.056 464.435 516.566 464.758C516.082 465.076 515.707 465.492 515.441 466.008C515.181 466.518 515.051 467.073 515.051 467.672V469.039C515.051 469.841 515.191 470.523 515.473 471.086C515.759 471.648 516.158 472.078 516.668 472.375C517.178 472.667 517.775 472.812 518.457 472.812C518.9 472.812 519.303 472.75 519.668 472.625C520.033 472.495 520.348 472.302 520.613 472.047C520.879 471.792 521.082 471.477 521.223 471.102L523.434 471.5C523.257 472.151 522.939 472.721 522.48 473.211C522.027 473.695 521.457 474.073 520.77 474.344C520.087 474.609 519.309 474.742 518.434 474.742ZM528.51 467.375V474.5H526.174V462.5H528.416V464.453H528.564C528.84 463.818 529.273 463.307 529.861 462.922C530.455 462.536 531.202 462.344 532.104 462.344C532.921 462.344 533.637 462.516 534.252 462.859C534.867 463.198 535.343 463.703 535.682 464.375C536.02 465.047 536.189 465.878 536.189 466.867V474.5H533.854V467.148C533.854 466.279 533.627 465.599 533.174 465.109C532.721 464.615 532.098 464.367 531.307 464.367C530.765 464.367 530.283 464.484 529.861 464.719C529.445 464.953 529.114 465.297 528.869 465.75C528.63 466.198 528.51 466.74 528.51 467.375ZM543.814 474.734C542.846 474.734 541.981 474.487 541.221 473.992C540.465 473.492 539.872 472.781 539.439 471.859C539.012 470.932 538.799 469.82 538.799 468.523C538.799 467.227 539.015 466.117 539.447 465.195C539.885 464.273 540.484 463.568 541.244 463.078C542.005 462.589 542.867 462.344 543.83 462.344C544.575 462.344 545.174 462.469 545.627 462.719C546.085 462.964 546.439 463.25 546.689 463.578C546.945 463.906 547.143 464.195 547.283 464.445H547.424V458.5H549.76V474.5H547.479V472.633H547.283C547.143 472.888 546.939 473.18 546.674 473.508C546.413 473.836 546.054 474.122 545.596 474.367C545.137 474.612 544.544 474.734 543.814 474.734ZM544.33 472.742C545.002 472.742 545.57 472.565 546.033 472.211C546.502 471.852 546.856 471.354 547.096 470.719C547.34 470.083 547.463 469.344 547.463 468.5C547.463 467.667 547.343 466.937 547.104 466.312C546.864 465.687 546.512 465.201 546.049 464.852C545.585 464.503 545.012 464.328 544.33 464.328C543.627 464.328 543.041 464.51 542.572 464.875C542.104 465.24 541.749 465.737 541.51 466.367C541.275 466.997 541.158 467.708 541.158 468.5C541.158 469.302 541.278 470.023 541.518 470.664C541.757 471.305 542.111 471.812 542.58 472.187C543.054 472.557 543.637 472.742 544.33 472.742Z" fill="#81A1C1"/>
</g>
<path d="M41.22 564V548.727H43.487V551.034H43.6461C43.9245 550.278 44.4283 549.665 45.1575 549.195C45.8867 548.724 46.7086 548.489 47.6234 548.489C47.7958 548.489 48.0112 548.492 48.2697 548.499C48.5282 548.505 48.7238 548.515 48.8564 548.528V550.915C48.7768 550.895 48.5945 550.865 48.3095 550.825C48.0311 550.779 47.7361 550.756 47.4245 550.756C46.6821 550.756 46.0192 550.911 45.4359 551.223C44.8592 551.528 44.4018 551.952 44.0637 552.496C43.7323 553.033 43.5666 553.646 43.5666 554.335V564H41.22ZM51.9561 564V543.636H54.3027V551.153H54.5016C54.6739 550.888 54.9126 550.55 55.2175 550.139C55.5291 549.722 55.9732 549.35 56.5499 549.026C57.1332 548.694 57.9221 548.528 58.9164 548.528C60.2024 548.528 61.3359 548.85 62.3169 549.493C63.298 550.136 64.0636 551.047 64.6138 552.227C65.164 553.407 65.4391 554.799 65.4391 556.403C65.4391 558.021 65.164 559.423 64.6138 560.609C64.0636 561.789 63.3013 562.704 62.3269 563.354C61.3525 563.997 60.2289 564.318 58.9561 564.318C57.9751 564.318 57.1896 564.156 56.5996 563.831C56.0096 563.5 55.5556 563.125 55.2374 562.707C54.9192 562.283 54.6739 561.932 54.5016 561.653H54.2232V564H51.9561ZM54.263 556.364C54.263 557.517 54.432 558.535 54.7701 559.416C55.1081 560.291 55.602 560.977 56.2516 561.474C56.9012 561.965 57.6967 562.21 58.638 562.21C59.619 562.21 60.4377 561.952 61.0939 561.435C61.7568 560.911 62.254 560.208 62.5854 559.327C62.9235 558.438 63.0925 557.451 63.0925 556.364C63.0925 555.29 62.9268 554.322 62.5953 553.46C62.2705 552.592 61.7767 551.906 61.1138 551.402C60.4576 550.892 59.6323 550.636 58.638 550.636C57.6834 550.636 56.8813 550.878 56.2317 551.362C55.5821 551.839 55.0916 552.509 54.7601 553.371C54.4287 554.226 54.263 555.223 54.263 556.364ZM69.0286 564V548.727H71.3752V564H69.0286ZM70.2218 546.182C69.7644 546.182 69.37 546.026 69.0385 545.714C68.7137 545.403 68.5513 545.028 68.5513 544.591C68.5513 544.153 68.7137 543.779 69.0385 543.467C69.37 543.156 69.7644 543 70.2218 543C70.6792 543 71.0703 543.156 71.3951 543.467C71.7265 543.779 71.8922 544.153 71.8922 544.591C71.8922 545.028 71.7265 545.403 71.3951 545.714C71.0703 546.026 70.6792 546.182 70.2218 546.182ZM77.8606 558.432L77.8208 555.528H78.2981L84.9799 548.727H87.8833L80.764 555.926H80.5652L77.8606 558.432ZM75.6731 564V543.636H78.0197V564H75.6731ZM85.3777 564L79.4118 556.443L81.0822 554.812L88.3606 564H85.3777ZM95.3979 564.358C94.4301 564.358 93.5518 564.176 92.763 563.811C91.9741 563.44 91.3477 562.906 90.8837 562.21C90.4197 561.508 90.1877 560.659 90.1877 559.665C90.1877 558.79 90.36 558.08 90.7047 557.537C91.0494 556.987 91.5101 556.556 92.0868 556.244C92.6635 555.933 93.2999 555.701 93.9959 555.548C94.6986 555.389 95.4045 555.263 96.1138 555.17C97.0418 555.051 97.7942 554.962 98.3709 554.902C98.9543 554.836 99.3785 554.726 99.6436 554.574C99.9154 554.421 100.051 554.156 100.051 553.778V553.699C100.051 552.718 99.7828 551.955 99.2459 551.412C98.7156 550.868 97.9102 550.597 96.8297 550.597C95.7095 550.597 94.8311 550.842 94.1948 551.332C93.5584 551.823 93.111 552.347 92.8525 552.903L90.6252 552.108C91.0229 551.18 91.5532 550.457 92.2161 549.94C92.8856 549.417 93.6148 549.052 94.4036 548.847C95.199 548.634 95.9812 548.528 96.7502 548.528C97.2407 548.528 97.8042 548.588 98.4405 548.707C99.0835 548.82 99.7033 549.055 100.3 549.413C100.903 549.771 101.404 550.312 101.801 551.034C102.199 551.757 102.398 552.724 102.398 553.938V564H100.051V561.932H99.932C99.7729 562.263 99.5078 562.618 99.1365 562.996C98.7653 563.374 98.2715 563.695 97.655 563.96C97.0385 564.225 96.2862 564.358 95.3979 564.358ZM95.7559 562.25C96.6839 562.25 97.4661 562.068 98.1025 561.703C98.7454 561.339 99.2293 560.868 99.5542 560.291C99.8856 559.714 100.051 559.108 100.051 558.472V556.324C99.9519 556.443 99.7331 556.553 99.3951 556.652C99.0636 556.745 98.6792 556.828 98.2417 556.901C97.8108 556.967 97.3899 557.027 96.9789 557.08C96.5745 557.126 96.2464 557.166 95.9945 557.199C95.3846 557.278 94.8146 557.408 94.2843 557.587C93.7606 557.759 93.3364 558.021 93.0115 558.372C92.6934 558.717 92.5343 559.187 92.5343 559.784C92.5343 560.599 92.8359 561.216 93.4391 561.634C94.0489 562.045 94.8212 562.25 95.7559 562.25ZM108.391 564.159C107.901 564.159 107.48 563.983 107.128 563.632C106.777 563.281 106.601 562.86 106.601 562.369C106.601 561.879 106.777 561.458 107.128 561.107C107.48 560.755 107.901 560.58 108.391 560.58C108.882 560.58 109.303 560.755 109.654 561.107C110.005 561.458 110.181 561.879 110.181 562.369C110.181 562.694 110.098 562.992 109.932 563.264C109.773 563.536 109.558 563.755 109.286 563.92C109.021 564.08 108.723 564.159 108.391 564.159ZM120.596 564.318C119.165 564.318 117.932 563.98 116.898 563.304C115.863 562.628 115.068 561.696 114.511 560.51C113.954 559.323 113.676 557.968 113.676 556.443C113.676 554.892 113.961 553.523 114.531 552.337C115.108 551.143 115.91 550.212 116.937 549.543C117.971 548.866 119.178 548.528 120.557 548.528C121.631 548.528 122.598 548.727 123.46 549.125C124.322 549.523 125.028 550.08 125.578 550.795C126.128 551.511 126.47 552.347 126.602 553.301H124.256C124.077 552.605 123.679 551.989 123.062 551.452C122.452 550.908 121.631 550.636 120.596 550.636C119.682 550.636 118.88 550.875 118.19 551.352C117.507 551.823 116.974 552.489 116.589 553.351C116.211 554.206 116.023 555.21 116.023 556.364C116.023 557.544 116.208 558.571 116.579 559.446C116.957 560.321 117.488 561 118.17 561.484C118.86 561.968 119.668 562.21 120.596 562.21C121.206 562.21 121.76 562.104 122.257 561.892C122.754 561.68 123.175 561.375 123.52 560.977C123.864 560.58 124.11 560.102 124.256 559.545H126.602C126.47 560.447 126.141 561.259 125.618 561.982C125.101 562.697 124.415 563.268 123.559 563.692C122.711 564.109 121.723 564.318 120.596 564.318ZM136.237 564.318C134.858 564.318 133.648 563.99 132.608 563.334C131.574 562.678 130.765 561.759 130.182 560.58C129.605 559.4 129.317 558.021 129.317 556.443C129.317 554.852 129.605 553.464 130.182 552.277C130.765 551.09 131.574 550.169 132.608 549.513C133.648 548.857 134.858 548.528 136.237 548.528C137.616 548.528 138.822 548.857 139.856 549.513C140.897 550.169 141.706 551.09 142.282 552.277C142.866 553.464 143.157 554.852 143.157 556.443C143.157 558.021 142.866 559.4 142.282 560.58C141.706 561.759 140.897 562.678 139.856 563.334C138.822 563.99 137.616 564.318 136.237 564.318ZM136.237 562.21C137.284 562.21 138.146 561.942 138.822 561.405C139.498 560.868 139.999 560.162 140.324 559.287C140.648 558.412 140.811 557.464 140.811 556.443C140.811 555.422 140.648 554.471 140.324 553.589C139.999 552.708 139.498 551.995 138.822 551.452C138.146 550.908 137.284 550.636 136.237 550.636C135.19 550.636 134.328 550.908 133.652 551.452C132.976 551.995 132.475 552.708 132.15 553.589C131.826 554.471 131.663 555.422 131.663 556.443C131.663 557.464 131.826 558.412 132.15 559.287C132.475 560.162 132.976 560.868 133.652 561.405C134.328 561.942 135.19 562.21 136.237 562.21ZM146.74 564V548.727H149.007V551.114H149.205C149.524 550.298 150.037 549.665 150.747 549.214C151.456 548.757 152.308 548.528 153.302 548.528C154.31 548.528 155.148 548.757 155.818 549.214C156.494 549.665 157.021 550.298 157.399 551.114H157.558C157.949 550.325 158.535 549.698 159.318 549.234C160.1 548.764 161.038 548.528 162.132 548.528C163.497 548.528 164.614 548.956 165.482 549.811C166.351 550.66 166.785 551.982 166.785 553.778V564H164.438V553.778C164.438 552.652 164.13 551.846 163.514 551.362C162.897 550.878 162.171 550.636 161.336 550.636C160.262 550.636 159.43 550.961 158.84 551.611C158.25 552.254 157.955 553.069 157.955 554.057V564H155.569V553.54C155.569 552.671 155.287 551.972 154.724 551.442C154.16 550.905 153.435 550.636 152.546 550.636C151.936 550.636 151.366 550.799 150.836 551.124C150.312 551.448 149.888 551.899 149.563 552.476C149.245 553.046 149.086 553.705 149.086 554.455V564H146.74Z" fill="#D8DEE9"/>
<defs>
<filter id="filter0_i_1900_2" x="276" y="368.5" width="128" height="47" filterUnits="userSpaceOnUse" color-interpolation-filters="sRGB">
<feFlood flood-opacity="0" result="BackgroundImageFix"/>
<feBlend mode="normal" in="SourceGraphic" in2="BackgroundImageFix" result="shape"/>
<feColorMatrix in="SourceAlpha" type="matrix" values="0 0 0 0 0 0 0 0 0 0 0 0 0 0 0 0 0 0 127 0" result="hardAlpha"/>
<feOffset dy="1"/>
<feGaussianBlur stdDeviation="0.5"/>
<feComposite in2="hardAlpha" operator="arithmetic" k2="-1" k3="1"/>
<feColorMatrix type="matrix" values="0 0 0 0 1 0 0 0 0 1 0 0 0 0 1 0 0 0 0.25 0"/>
<feBlend mode="normal" in2="shape" result="effect1_innerShadow_1900_2"/>
</filter>
<filter id="filter1_i_1900_2" x="428" y="368.5" width="109" height="47" filterUnits="userSpaceOnUse" color-interpolation-filters="sRGB">
<feFlood flood-opacity="0" result="BackgroundImageFix"/>
<feBlend mode="normal" in="SourceGraphic" in2="BackgroundImageFix" result="shape"/>
<feColorMatrix in="SourceAlpha" type="matrix" values="0 0 0 0 0 0 0 0 0 0 0 0 0 0 0 0 0 0 127 0" result="hardAlpha"/>
<feOffset dy="1"/>
<feGaussianBlur stdDeviation="0.5"/>
<feComposite in2="hardAlpha" operator="arithmetic" k2="-1" k3="1"/>
<feColorMatrix type="matrix" values="0 0 0 0 1 0 0 0 0 1 0 0 0 0 1 0 0 0 0.25 0"/>
<feBlend mode="normal" in2="shape" result="effect1_innerShadow_1900_2"/>
</filter>
<filter id="filter2_i_1900_2" x="561" y="368.5" width="231" height="47" filterUnits="userSpaceOnUse" color-interpolation-filters="sRGB">
<feFlood flood-opacity="0" result="BackgroundImageFix"/>
<feBlend mode="normal" in="SourceGraphic" in2="BackgroundImageFix" result="shape"/>
<feColorMatrix in="SourceAlpha" type="matrix" values="0 0 0 0 0 0 0 0 0 0 0 0 0 0 0 0 0 0 127 0" result="hardAlpha"/>
<feOffset dy="1"/>
<feGaussianBlur stdDeviation="0.5"/>
<feComposite in2="hardAlpha" operator="arithmetic" k2="-1" k3="1"/>
<feColorMatrix type="matrix" values="0 0 0 0 1 0 0 0 0 1 0 0 0 0 1 0 0 0 0.25 0"/>
<feBlend mode="normal" in2="shape" result="effect1_innerShadow_1900_2"/>
</filter>
<filter id="filter3_i_1900_2" x="276" y="443.5" width="132" height="47" filterUnits="userSpaceOnUse" color-interpolation-filters="sRGB">
<feFlood flood-opacity="0" result="BackgroundImageFix"/>
<feBlend mode="normal" in="SourceGraphic" in2="BackgroundImageFix" result="shape"/>
<feColorMatrix in="SourceAlpha" type="matrix" values="0 0 0 0 0 0 0 0 0 0 0 0 0 0 0 0 0 0 127 0" result="hardAlpha"/>
<feOffset dy="1"/>
<feGaussianBlur stdDeviation="0.5"/>
<feComposite in2="hardAlpha" operator="arithmetic" k2="-1" k3="1"/>
<feColorMatrix type="matrix" values="0 0 0 0 1 0 0 0 0 1 0 0 0 0 1 0 0 0 0.25 0"/>
<feBlend mode="normal" in2="shape" result="effect1_innerShadow_1900_2"/>
</filter>
<filter id="filter4_i_1900_2" x="432" y="443.5" width="144" height="47" filterUnits="userSpaceOnUse" color-interpolation-filters="sRGB">
<feFlood flood-opacity="0" result="BackgroundImageFix"/>
<feBlend mode="normal" in="SourceGraphic" in2="BackgroundImageFix" result="shape"/>
<feColorMatrix in="SourceAlpha" type="matrix" values="0 0 0 0 0 0 0 0 0 0 0 0 0 0 0 0 0 0 127 0" result="hardAlpha"/>
<feOffset dy="1"/>
<feGaussianBlur stdDeviation="0.5"/>
<feComposite in2="hardAlpha" operator="arithmetic" k2="-1" k3="1"/>
<feColorMatrix type="matrix" values="0 0 0 0 1 0 0 0 0 1 0 0 0 0 1 0 0 0 0.25 0"/>
<feBlend mode="normal" in2="shape" result="effect1_innerShadow_1900_2"/>
</filter>
</defs>
</svg>
