<svg width="1130" height="600" viewBox="0 0 1130 600" fill="none" xmlns="http://www.w3.org/2000/svg">
<rect width="1130" height="600" fill="#2F3340"/>
<path d="M395.526 289.5V231.318H418.48C422.874 231.318 426.624 232.104 429.73 233.676C432.855 235.229 435.232 237.436 436.861 240.295C438.509 243.136 439.332 246.479 439.332 250.324C439.332 254.187 438.499 257.511 436.832 260.295C435.166 263.061 432.751 265.182 429.588 266.659C426.444 268.136 422.637 268.875 418.168 268.875H402.798V258.989H416.179C418.527 258.989 420.478 258.667 422.031 258.023C423.584 257.379 424.74 256.413 425.497 255.125C426.274 253.837 426.662 252.237 426.662 250.324C426.662 248.392 426.274 246.763 425.497 245.438C424.74 244.112 423.575 243.108 422.003 242.426C420.45 241.725 418.49 241.375 416.122 241.375H407.827V289.5H395.526ZM426.946 263.023L441.406 289.5H427.827L413.679 263.023H426.946ZM466.541 289.5V231.318H489.837C494.117 231.318 497.687 231.953 500.547 233.222C503.407 234.491 505.556 236.252 506.996 238.506C508.435 240.741 509.155 243.316 509.155 246.233C509.155 248.506 508.7 250.504 507.791 252.227C506.882 253.932 505.632 255.333 504.041 256.432C502.469 257.511 500.67 258.278 498.643 258.733V259.301C500.859 259.396 502.933 260.021 504.865 261.176C506.816 262.331 508.397 263.951 509.609 266.034C510.821 268.098 511.428 270.561 511.428 273.42C511.428 276.508 510.661 279.263 509.126 281.688C507.611 284.093 505.367 285.996 502.393 287.398C499.42 288.799 495.755 289.5 491.399 289.5H466.541ZM478.842 279.443H488.871C492.299 279.443 494.799 278.79 496.371 277.483C497.943 276.157 498.729 274.396 498.729 272.199C498.729 270.589 498.34 269.169 497.564 267.938C496.787 266.706 495.679 265.741 494.24 265.04C492.82 264.339 491.125 263.989 489.155 263.989H478.842V279.443ZM478.842 255.665H487.962C489.647 255.665 491.143 255.371 492.45 254.784C493.776 254.178 494.818 253.326 495.575 252.227C496.352 251.129 496.74 249.812 496.74 248.278C496.74 246.176 495.992 244.481 494.496 243.193C493.018 241.905 490.916 241.261 488.189 241.261H478.842V255.665ZM519.205 289.5V245.864H531.307V289.5H519.205ZM525.284 240.239C523.485 240.239 521.941 239.642 520.653 238.449C519.384 237.237 518.75 235.788 518.75 234.102C518.75 232.436 519.384 231.006 520.653 229.812C521.941 228.6 523.485 227.994 525.284 227.994C527.083 227.994 528.617 228.6 529.886 229.812C531.174 231.006 531.818 232.436 531.818 234.102C531.818 235.788 531.174 237.237 529.886 238.449C528.617 239.642 527.083 240.239 525.284 240.239ZM551.967 276.943L551.996 262.426H553.757L567.734 245.864H581.626L562.848 267.795H559.979L551.967 276.943ZM541.001 289.5V231.318H553.104V289.5H541.001ZM568.274 289.5L555.433 270.494L563.501 261.943L582.45 289.5H568.274ZM600.007 290.324C597.223 290.324 594.742 289.841 592.564 288.875C590.386 287.89 588.662 286.441 587.393 284.528C586.143 282.597 585.518 280.191 585.518 277.312C585.518 274.888 585.964 272.852 586.854 271.205C587.744 269.557 588.956 268.231 590.49 267.227C592.024 266.223 593.767 265.466 595.717 264.955C597.687 264.443 599.751 264.083 601.911 263.875C604.448 263.61 606.494 263.364 608.047 263.136C609.6 262.89 610.727 262.53 611.428 262.057C612.128 261.583 612.479 260.883 612.479 259.955V259.784C612.479 257.985 611.911 256.593 610.774 255.608C609.657 254.623 608.066 254.131 606.001 254.131C603.823 254.131 602.09 254.614 600.803 255.58C599.515 256.527 598.662 257.72 598.246 259.159L587.053 258.25C587.621 255.598 588.738 253.307 590.405 251.375C592.071 249.424 594.221 247.928 596.854 246.886C599.505 245.826 602.573 245.295 606.058 245.295C608.482 245.295 610.803 245.58 613.018 246.148C615.253 246.716 617.232 247.597 618.956 248.79C620.698 249.983 622.071 251.517 623.075 253.392C624.079 255.248 624.581 257.473 624.581 260.068V289.5H613.104V283.449H612.763C612.062 284.812 611.125 286.015 609.95 287.057C608.776 288.08 607.365 288.884 605.717 289.472C604.07 290.04 602.166 290.324 600.007 290.324ZM603.473 281.972C605.253 281.972 606.825 281.621 608.189 280.92C609.553 280.201 610.623 279.235 611.399 278.023C612.176 276.811 612.564 275.437 612.564 273.903V269.273C612.185 269.519 611.664 269.746 611.001 269.955C610.357 270.144 609.628 270.324 608.814 270.494C608 270.646 607.185 270.788 606.371 270.92C605.556 271.034 604.818 271.138 604.155 271.233C602.734 271.441 601.494 271.773 600.433 272.227C599.373 272.682 598.549 273.297 597.962 274.074C597.375 274.831 597.081 275.778 597.081 276.915C597.081 278.562 597.678 279.822 598.871 280.693C600.083 281.545 601.617 281.972 603.473 281.972ZM636.641 266.176C636.641 259.131 637.578 252.644 639.453 246.716C641.347 240.788 644.235 235.295 648.118 230.239H659.68C658.203 232.114 656.83 234.405 655.561 237.114C654.292 239.803 653.184 242.758 652.237 245.977C651.29 249.197 650.552 252.53 650.021 255.977C649.491 259.405 649.226 262.805 649.226 266.176C649.226 270.665 649.68 275.201 650.589 279.784C651.518 284.348 652.768 288.591 654.339 292.511C655.93 296.432 657.711 299.642 659.68 302.142H648.118C644.235 297.085 641.347 291.593 639.453 285.665C637.578 279.737 636.641 273.241 636.641 266.176ZM703.011 258.307L691.932 258.989C691.742 258.042 691.335 257.189 690.71 256.432C690.085 255.655 689.261 255.04 688.239 254.585C687.235 254.112 686.032 253.875 684.631 253.875C682.756 253.875 681.174 254.273 679.886 255.068C678.598 255.845 677.955 256.886 677.955 258.193C677.955 259.235 678.371 260.116 679.205 260.835C680.038 261.555 681.468 262.133 683.494 262.568L691.392 264.159C695.634 265.03 698.797 266.432 700.881 268.364C702.964 270.295 704.006 272.833 704.006 275.977C704.006 278.837 703.163 281.347 701.477 283.506C699.811 285.665 697.519 287.35 694.602 288.562C691.705 289.756 688.362 290.352 684.574 290.352C678.797 290.352 674.195 289.15 670.767 286.744C667.358 284.32 665.36 281.025 664.773 276.858L676.676 276.233C677.036 277.994 677.907 279.339 679.29 280.267C680.672 281.176 682.443 281.631 684.602 281.631C686.723 281.631 688.428 281.223 689.716 280.409C691.023 279.576 691.686 278.506 691.705 277.199C691.686 276.1 691.222 275.201 690.312 274.5C689.403 273.78 688.002 273.231 686.108 272.852L678.551 271.347C674.29 270.494 671.117 269.017 669.034 266.915C666.97 264.812 665.938 262.133 665.938 258.875C665.938 256.072 666.695 253.657 668.21 251.631C669.744 249.604 671.894 248.042 674.659 246.943C677.443 245.845 680.701 245.295 684.432 245.295C689.943 245.295 694.28 246.46 697.443 248.79C700.625 251.119 702.481 254.292 703.011 258.307ZM732.024 266.176C732.024 273.241 731.077 279.737 729.183 285.665C727.308 291.593 724.429 297.085 720.547 302.142H708.984C710.462 300.267 711.835 297.975 713.104 295.267C714.373 292.559 715.481 289.604 716.428 286.403C717.375 283.184 718.113 279.85 718.643 276.403C719.174 272.956 719.439 269.547 719.439 266.176C719.439 261.687 718.975 257.161 718.047 252.597C717.138 248.013 715.888 243.771 714.297 239.869C712.725 235.949 710.954 232.739 708.984 230.239H720.547C724.429 235.295 727.308 240.788 729.183 246.716C731.077 252.644 732.024 259.131 732.024 266.176Z" fill="#D8DEE9"/>
<g filter="url(#filter0_i_1367_15)">
<rect x="432" y="341.5" width="266" height="46" rx="23" fill="#202227"/>
<path d="M457.832 372.5V356.5H467.754V358.578H460.246V363.453H467.043V365.523H460.246V372.5H457.832ZM470.385 372.5V360.5H472.643V362.406H472.768C472.986 361.76 473.372 361.253 473.924 360.883C474.481 360.508 475.111 360.32 475.814 360.32C475.96 360.32 476.132 360.326 476.33 360.336C476.533 360.346 476.692 360.359 476.807 360.375V362.609C476.713 362.583 476.546 362.555 476.307 362.523C476.067 362.487 475.827 362.469 475.588 362.469C475.036 362.469 474.544 362.586 474.111 362.82C473.684 363.049 473.346 363.37 473.096 363.781C472.846 364.187 472.721 364.651 472.721 365.172V372.5H470.385ZM483.453 372.742C482.328 372.742 481.346 372.484 480.508 371.969C479.669 371.453 479.018 370.732 478.555 369.805C478.091 368.878 477.859 367.794 477.859 366.555C477.859 365.31 478.091 364.221 478.555 363.289C479.018 362.357 479.669 361.633 480.508 361.117C481.346 360.602 482.328 360.344 483.453 360.344C484.578 360.344 485.56 360.602 486.398 361.117C487.237 361.633 487.888 362.357 488.352 363.289C488.815 364.221 489.047 365.31 489.047 366.555C489.047 367.794 488.815 368.878 488.352 369.805C487.888 370.732 487.237 371.453 486.398 371.969C485.56 372.484 484.578 372.742 483.453 372.742ZM483.461 370.781C484.19 370.781 484.794 370.589 485.273 370.203C485.753 369.818 486.107 369.305 486.336 368.664C486.57 368.023 486.688 367.318 486.688 366.547C486.688 365.781 486.57 365.078 486.336 364.437C486.107 363.792 485.753 363.273 485.273 362.883C484.794 362.492 484.19 362.297 483.461 362.297C482.727 362.297 482.117 362.492 481.633 362.883C481.154 363.273 480.797 363.792 480.563 364.437C480.333 365.078 480.219 365.781 480.219 366.547C480.219 367.318 480.333 368.023 480.563 368.664C480.797 369.305 481.154 369.818 481.633 370.203C482.117 370.589 482.727 370.781 483.461 370.781ZM493.99 365.375V372.5H491.654V360.5H493.896V362.453H494.045C494.321 361.818 494.753 361.307 495.342 360.922C495.936 360.536 496.683 360.344 497.584 360.344C498.402 360.344 499.118 360.516 499.732 360.859C500.347 361.198 500.824 361.703 501.162 362.375C501.501 363.047 501.67 363.878 501.67 364.867V372.5H499.334V365.148C499.334 364.279 499.107 363.599 498.654 363.109C498.201 362.615 497.579 362.367 496.787 362.367C496.245 362.367 495.764 362.484 495.342 362.719C494.925 362.953 494.594 363.297 494.35 363.75C494.11 364.198 493.99 364.74 493.99 365.375ZM510.404 360.5V362.375H503.85V360.5H510.404ZM505.607 357.625H507.943V368.977C507.943 369.43 508.011 369.771 508.146 370C508.282 370.224 508.456 370.378 508.67 370.461C508.889 370.539 509.126 370.578 509.381 370.578C509.568 370.578 509.732 370.565 509.873 370.539C510.014 370.513 510.123 370.492 510.201 370.477L510.623 372.406C510.488 372.458 510.295 372.51 510.045 372.563C509.795 372.62 509.482 372.651 509.107 372.656C508.493 372.667 507.92 372.557 507.389 372.328C506.857 372.099 506.428 371.745 506.1 371.266C505.771 370.786 505.607 370.185 505.607 369.461V357.625ZM519.65 364.727V366.75H512.557V364.727H519.65ZM527.936 372.742C526.753 372.742 525.735 372.49 524.881 371.984C524.032 371.474 523.376 370.758 522.912 369.836C522.454 368.909 522.225 367.823 522.225 366.578C522.225 365.349 522.454 364.266 522.912 363.328C523.376 362.391 524.021 361.659 524.85 361.133C525.683 360.607 526.657 360.344 527.771 360.344C528.449 360.344 529.105 360.456 529.74 360.68C530.376 360.904 530.946 361.255 531.451 361.734C531.956 362.214 532.355 362.836 532.646 363.602C532.938 364.362 533.084 365.286 533.084 366.375V367.203H523.545V365.453H530.795C530.795 364.839 530.67 364.294 530.42 363.82C530.17 363.341 529.818 362.964 529.365 362.687C528.917 362.411 528.391 362.273 527.787 362.273C527.131 362.273 526.558 362.435 526.068 362.758C525.584 363.076 525.209 363.492 524.943 364.008C524.683 364.518 524.553 365.073 524.553 365.672V367.039C524.553 367.841 524.693 368.523 524.975 369.086C525.261 369.648 525.66 370.078 526.17 370.375C526.68 370.667 527.277 370.812 527.959 370.812C528.402 370.812 528.805 370.75 529.17 370.625C529.535 370.495 529.85 370.302 530.115 370.047C530.381 369.792 530.584 369.477 530.725 369.102L532.936 369.5C532.758 370.151 532.441 370.721 531.982 371.211C531.529 371.695 530.959 372.073 530.271 372.344C529.589 372.609 528.811 372.742 527.936 372.742ZM538.012 365.375V372.5H535.676V360.5H537.918V362.453H538.066C538.342 361.818 538.775 361.307 539.363 360.922C539.957 360.536 540.704 360.344 541.605 360.344C542.423 360.344 543.139 360.516 543.754 360.859C544.368 361.198 544.845 361.703 545.184 362.375C545.522 363.047 545.691 363.878 545.691 364.867V372.5H543.355V365.148C543.355 364.279 543.129 363.599 542.676 363.109C542.223 362.615 541.6 362.367 540.809 362.367C540.267 362.367 539.785 362.484 539.363 362.719C538.947 362.953 538.616 363.297 538.371 363.75C538.132 364.198 538.012 364.74 538.012 365.375ZM553.316 372.734C552.348 372.734 551.483 372.487 550.723 371.992C549.967 371.492 549.374 370.781 548.941 369.859C548.514 368.932 548.301 367.82 548.301 366.523C548.301 365.227 548.517 364.117 548.949 363.195C549.387 362.273 549.986 361.568 550.746 361.078C551.507 360.589 552.368 360.344 553.332 360.344C554.077 360.344 554.676 360.469 555.129 360.719C555.587 360.964 555.941 361.25 556.191 361.578C556.447 361.906 556.645 362.195 556.785 362.445H556.926V356.5H559.262V372.5H556.98V370.633H556.785C556.645 370.888 556.441 371.18 556.176 371.508C555.915 371.836 555.556 372.122 555.098 372.367C554.639 372.612 554.046 372.734 553.316 372.734ZM553.832 370.742C554.504 370.742 555.072 370.565 555.535 370.211C556.004 369.852 556.358 369.354 556.598 368.719C556.842 368.083 556.965 367.344 556.965 366.5C556.965 365.667 556.845 364.937 556.605 364.312C556.366 363.687 556.014 363.201 555.551 362.852C555.087 362.503 554.514 362.328 553.832 362.328C553.129 362.328 552.543 362.51 552.074 362.875C551.605 363.24 551.251 363.737 551.012 364.367C550.777 364.997 550.66 365.708 550.66 366.5C550.66 367.302 550.78 368.023 551.02 368.664C551.259 369.305 551.613 369.812 552.082 370.187C552.556 370.557 553.139 370.742 553.832 370.742ZM573.785 372.5H568.605V356.5H573.949C575.517 356.5 576.863 356.82 577.988 357.461C579.113 358.096 579.975 359.01 580.574 360.203C581.178 361.391 581.48 362.815 581.48 364.477C581.48 366.143 581.176 367.576 580.566 368.773C579.962 369.971 579.087 370.893 577.941 371.539C576.796 372.18 575.41 372.5 573.785 372.5ZM571.02 370.391H573.652C574.871 370.391 575.884 370.161 576.691 369.703C577.499 369.24 578.103 368.57 578.504 367.695C578.905 366.815 579.105 365.742 579.105 364.477C579.105 363.221 578.905 362.156 578.504 361.281C578.108 360.406 577.517 359.742 576.73 359.289C575.944 358.836 574.967 358.609 573.801 358.609H571.02V370.391ZM589.467 372.742C588.285 372.742 587.266 372.49 586.412 371.984C585.563 371.474 584.907 370.758 584.443 369.836C583.985 368.909 583.756 367.823 583.756 366.578C583.756 365.349 583.985 364.266 584.443 363.328C584.907 362.391 585.553 361.659 586.381 361.133C587.214 360.607 588.188 360.344 589.303 360.344C589.98 360.344 590.636 360.456 591.271 360.68C591.907 360.904 592.477 361.255 592.982 361.734C593.488 362.214 593.886 362.836 594.178 363.602C594.469 364.362 594.615 365.286 594.615 366.375V367.203H585.076V365.453H592.326C592.326 364.839 592.201 364.294 591.951 363.82C591.701 363.341 591.35 362.964 590.896 362.687C590.449 362.411 589.923 362.273 589.318 362.273C588.662 362.273 588.089 362.435 587.6 362.758C587.115 363.076 586.74 363.492 586.475 364.008C586.214 364.518 586.084 365.073 586.084 365.672V367.039C586.084 367.841 586.225 368.523 586.506 369.086C586.792 369.648 587.191 370.078 587.701 370.375C588.212 370.667 588.808 370.812 589.49 370.812C589.933 370.812 590.337 370.75 590.701 370.625C591.066 370.495 591.381 370.302 591.646 370.047C591.912 369.792 592.115 369.477 592.256 369.102L594.467 369.5C594.29 370.151 593.972 370.721 593.514 371.211C593.061 371.695 592.49 372.073 591.803 372.344C591.12 372.609 590.342 372.742 589.467 372.742ZM607.129 360.5L602.777 372.5H600.277L595.918 360.5H598.426L601.465 369.734H601.59L604.621 360.5H607.129ZM614.088 372.742C612.906 372.742 611.887 372.49 611.033 371.984C610.184 371.474 609.528 370.758 609.064 369.836C608.606 368.909 608.377 367.823 608.377 366.578C608.377 365.349 608.606 364.266 609.064 363.328C609.528 362.391 610.174 361.659 611.002 361.133C611.835 360.607 612.809 360.344 613.924 360.344C614.601 360.344 615.257 360.456 615.893 360.68C616.528 360.904 617.098 361.255 617.604 361.734C618.109 362.214 618.507 362.836 618.799 363.602C619.09 364.362 619.236 365.286 619.236 366.375V367.203H609.697V365.453H616.947C616.947 364.839 616.822 364.294 616.572 363.82C616.322 363.341 615.971 362.964 615.518 362.687C615.07 362.411 614.544 362.273 613.939 362.273C613.283 362.273 612.71 362.435 612.221 362.758C611.736 363.076 611.361 363.492 611.096 364.008C610.835 364.518 610.705 365.073 610.705 365.672V367.039C610.705 367.841 610.846 368.523 611.127 369.086C611.413 369.648 611.812 370.078 612.322 370.375C612.833 370.667 613.429 370.812 614.111 370.812C614.554 370.812 614.958 370.75 615.322 370.625C615.687 370.495 616.002 370.302 616.268 370.047C616.533 369.792 616.736 369.477 616.877 369.102L619.088 369.5C618.911 370.151 618.593 370.721 618.135 371.211C617.682 371.695 617.111 372.073 616.424 372.344C615.742 372.609 614.963 372.742 614.088 372.742ZM624.164 356.5V372.5H621.828V356.5H624.164ZM632.361 372.742C631.236 372.742 630.255 372.484 629.416 371.969C628.577 371.453 627.926 370.732 627.463 369.805C626.999 368.878 626.768 367.794 626.768 366.555C626.768 365.31 626.999 364.221 627.463 363.289C627.926 362.357 628.577 361.633 629.416 361.117C630.255 360.602 631.236 360.344 632.361 360.344C633.486 360.344 634.468 360.602 635.307 361.117C636.145 361.633 636.796 362.357 637.26 363.289C637.723 364.221 637.955 365.31 637.955 366.555C637.955 367.794 637.723 368.878 637.26 369.805C636.796 370.732 636.145 371.453 635.307 371.969C634.468 372.484 633.486 372.742 632.361 372.742ZM632.369 370.781C633.098 370.781 633.702 370.589 634.182 370.203C634.661 369.818 635.015 369.305 635.244 368.664C635.479 368.023 635.596 367.318 635.596 366.547C635.596 365.781 635.479 365.078 635.244 364.437C635.015 363.792 634.661 363.273 634.182 362.883C633.702 362.492 633.098 362.297 632.369 362.297C631.635 362.297 631.025 362.492 630.541 362.883C630.062 363.273 629.705 363.792 629.471 364.437C629.242 365.078 629.127 365.781 629.127 366.547C629.127 367.318 629.242 368.023 629.471 368.664C629.705 369.305 630.062 369.818 630.541 370.203C631.025 370.589 631.635 370.781 632.369 370.781ZM640.563 377V360.5H642.844V362.445H643.039C643.174 362.195 643.37 361.906 643.625 361.578C643.88 361.25 644.234 360.964 644.688 360.719C645.141 360.469 645.74 360.344 646.484 360.344C647.453 360.344 648.318 360.589 649.078 361.078C649.839 361.568 650.435 362.273 650.867 363.195C651.305 364.117 651.523 365.227 651.523 366.523C651.523 367.82 651.307 368.932 650.875 369.859C650.443 370.781 649.849 371.492 649.094 371.992C648.339 372.487 647.477 372.734 646.508 372.734C645.779 372.734 645.182 372.612 644.719 372.367C644.26 372.122 643.901 371.836 643.641 371.508C643.38 371.18 643.18 370.888 643.039 370.633H642.898V377H640.563ZM642.852 366.5C642.852 367.344 642.974 368.083 643.219 368.719C643.464 369.354 643.818 369.852 644.281 370.211C644.745 370.565 645.313 370.742 645.984 370.742C646.682 370.742 647.266 370.557 647.734 370.187C648.203 369.812 648.557 369.305 648.797 368.664C649.042 368.023 649.164 367.302 649.164 366.5C649.164 365.708 649.044 364.997 648.805 364.367C648.57 363.737 648.216 363.24 647.742 362.875C647.273 362.51 646.688 362.328 645.984 362.328C645.307 362.328 644.734 362.503 644.266 362.852C643.802 363.201 643.451 363.687 643.211 364.312C642.971 364.937 642.852 365.667 642.852 366.5ZM659.312 372.742C658.13 372.742 657.112 372.49 656.258 371.984C655.409 371.474 654.753 370.758 654.289 369.836C653.831 368.909 653.602 367.823 653.602 366.578C653.602 365.349 653.831 364.266 654.289 363.328C654.753 362.391 655.398 361.659 656.227 361.133C657.06 360.607 658.034 360.344 659.148 360.344C659.826 360.344 660.482 360.456 661.117 360.68C661.753 360.904 662.323 361.255 662.828 361.734C663.333 362.214 663.732 362.836 664.023 363.602C664.315 364.362 664.461 365.286 664.461 366.375V367.203H654.922V365.453H662.172C662.172 364.839 662.047 364.294 661.797 363.82C661.547 363.341 661.195 362.964 660.742 362.687C660.294 362.411 659.768 362.273 659.164 362.273C658.508 362.273 657.935 362.435 657.445 362.758C656.961 363.076 656.586 363.492 656.32 364.008C656.06 364.518 655.93 365.073 655.93 365.672V367.039C655.93 367.841 656.07 368.523 656.352 369.086C656.638 369.648 657.036 370.078 657.547 370.375C658.057 370.667 658.654 370.812 659.336 370.812C659.779 370.812 660.182 370.75 660.547 370.625C660.911 370.495 661.227 370.302 661.492 370.047C661.758 369.792 661.961 369.477 662.102 369.102L664.313 369.5C664.135 370.151 663.818 370.721 663.359 371.211C662.906 371.695 662.336 372.073 661.648 372.344C660.966 372.609 660.187 372.742 659.312 372.742ZM667.053 372.5V360.5H669.311V362.406H669.436C669.654 361.76 670.04 361.253 670.592 360.883C671.149 360.508 671.779 360.32 672.482 360.32C672.628 360.32 672.8 360.326 672.998 360.336C673.201 360.346 673.36 360.359 673.475 360.375V362.609C673.381 362.583 673.214 362.555 672.975 362.523C672.735 362.487 672.495 362.469 672.256 362.469C671.704 362.469 671.212 362.586 670.779 362.82C670.352 363.049 670.014 363.37 669.764 363.781C669.514 364.187 669.389 364.651 669.389 365.172V372.5H667.053Z" fill="#81A1C1"/>
</g>
<path d="M41.22 564V548.727H43.487V551.034H43.6461C43.9245 550.278 44.4283 549.665 45.1575 549.195C45.8867 548.724 46.7086 548.489 47.6234 548.489C47.7958 548.489 48.0112 548.492 48.2697 548.499C48.5282 548.505 48.7238 548.515 48.8564 548.528V550.915C48.7768 550.895 48.5945 550.865 48.3095 550.825C48.0311 550.779 47.7361 550.756 47.4245 550.756C46.6821 550.756 46.0192 550.911 45.4359 551.223C44.8592 551.528 44.4018 551.952 44.0637 552.496C43.7323 553.033 43.5666 553.646 43.5666 554.335V564H41.22ZM51.9561 564V543.636H54.3027V551.153H54.5016C54.6739 550.888 54.9126 550.55 55.2175 550.139C55.5291 549.722 55.9732 549.35 56.5499 549.026C57.1332 548.694 57.9221 548.528 58.9164 548.528C60.2024 548.528 61.3359 548.85 62.3169 549.493C63.298 550.136 64.0636 551.047 64.6138 552.227C65.164 553.407 65.4391 554.799 65.4391 556.403C65.4391 558.021 65.164 559.423 64.6138 560.609C64.0636 561.789 63.3013 562.704 62.3269 563.354C61.3525 563.997 60.2289 564.318 58.9561 564.318C57.9751 564.318 57.1896 564.156 56.5996 563.831C56.0096 563.5 55.5556 563.125 55.2374 562.707C54.9192 562.283 54.6739 561.932 54.5016 561.653H54.2232V564H51.9561ZM54.263 556.364C54.263 557.517 54.432 558.535 54.7701 559.416C55.1081 560.291 55.602 560.977 56.2516 561.474C56.9012 561.965 57.6967 562.21 58.638 562.21C59.619 562.21 60.4377 561.952 61.0939 561.435C61.7568 560.911 62.254 560.208 62.5854 559.327C62.9235 558.438 63.0925 557.451 63.0925 556.364C63.0925 555.29 62.9268 554.322 62.5953 553.46C62.2705 552.592 61.7767 551.906 61.1138 551.402C60.4576 550.892 59.6323 550.636 58.638 550.636C57.6834 550.636 56.8813 550.878 56.2317 551.362C55.5821 551.839 55.0916 552.509 54.7601 553.371C54.4287 554.226 54.263 555.223 54.263 556.364ZM69.0286 564V548.727H71.3752V564H69.0286ZM70.2218 546.182C69.7644 546.182 69.37 546.026 69.0385 545.714C68.7137 545.403 68.5513 545.028 68.5513 544.591C68.5513 544.153 68.7137 543.779 69.0385 543.467C69.37 543.156 69.7644 543 70.2218 543C70.6792 543 71.0703 543.156 71.3951 543.467C71.7265 543.779 71.8922 544.153 71.8922 544.591C71.8922 545.028 71.7265 545.403 71.3951 545.714C71.0703 546.026 70.6792 546.182 70.2218 546.182ZM77.8606 558.432L77.8208 555.528H78.2981L84.9799 548.727H87.8833L80.764 555.926H80.5652L77.8606 558.432ZM75.6731 564V543.636H78.0197V564H75.6731ZM85.3777 564L79.4118 556.443L81.0822 554.812L88.3606 564H85.3777ZM95.3979 564.358C94.4301 564.358 93.5518 564.176 92.763 563.811C91.9741 563.44 91.3477 562.906 90.8837 562.21C90.4197 561.508 90.1877 560.659 90.1877 559.665C90.1877 558.79 90.36 558.08 90.7047 557.537C91.0494 556.987 91.5101 556.556 92.0868 556.244C92.6635 555.933 93.2999 555.701 93.9959 555.548C94.6986 555.389 95.4045 555.263 96.1138 555.17C97.0418 555.051 97.7942 554.962 98.3709 554.902C98.9543 554.836 99.3785 554.726 99.6436 554.574C99.9154 554.421 100.051 554.156 100.051 553.778V553.699C100.051 552.718 99.7828 551.955 99.2459 551.412C98.7156 550.868 97.9102 550.597 96.8297 550.597C95.7095 550.597 94.8311 550.842 94.1948 551.332C93.5584 551.823 93.111 552.347 92.8525 552.903L90.6252 552.108C91.0229 551.18 91.5532 550.457 92.2161 549.94C92.8856 549.417 93.6148 549.052 94.4036 548.847C95.199 548.634 95.9812 548.528 96.7502 548.528C97.2407 548.528 97.8042 548.588 98.4405 548.707C99.0835 548.82 99.7033 549.055 100.3 549.413C100.903 549.771 101.404 550.312 101.801 551.034C102.199 551.757 102.398 552.724 102.398 553.938V564H100.051V561.932H99.932C99.7729 562.263 99.5078 562.618 99.1365 562.996C98.7653 563.374 98.2715 563.695 97.655 563.96C97.0385 564.225 96.2862 564.358 95.3979 564.358ZM95.7559 562.25C96.6839 562.25 97.4661 562.068 98.1025 561.703C98.7454 561.339 99.2293 560.868 99.5542 560.291C99.8856 559.714 100.051 559.108 100.051 558.472V556.324C99.9519 556.443 99.7331 556.553 99.3951 556.652C99.0636 556.745 98.6792 556.828 98.2417 556.901C97.8108 556.967 97.3899 557.027 96.9789 557.08C96.5745 557.126 96.2464 557.166 95.9945 557.199C95.3846 557.278 94.8146 557.408 94.2843 557.587C93.7606 557.759 93.3364 558.021 93.0115 558.372C92.6934 558.717 92.5343 559.187 92.5343 559.784C92.5343 560.599 92.8359 561.216 93.4391 561.634C94.0489 562.045 94.8212 562.25 95.7559 562.25ZM108.391 564.159C107.901 564.159 107.48 563.983 107.128 563.632C106.777 563.281 106.601 562.86 106.601 562.369C106.601 561.879 106.777 561.458 107.128 561.107C107.48 560.755 107.901 560.58 108.391 560.58C108.882 560.58 109.303 560.755 109.654 561.107C110.005 561.458 110.181 561.879 110.181 562.369C110.181 562.694 110.098 562.992 109.932 563.264C109.773 563.536 109.558 563.755 109.286 563.92C109.021 564.08 108.723 564.159 108.391 564.159ZM120.596 564.318C119.165 564.318 117.932 563.98 116.898 563.304C115.863 562.628 115.068 561.696 114.511 560.51C113.954 559.323 113.676 557.968 113.676 556.443C113.676 554.892 113.961 553.523 114.531 552.337C115.108 551.143 115.91 550.212 116.937 549.543C117.971 548.866 119.178 548.528 120.557 548.528C121.631 548.528 122.598 548.727 123.46 549.125C124.322 549.523 125.028 550.08 125.578 550.795C126.128 551.511 126.47 552.347 126.602 553.301H124.256C124.077 552.605 123.679 551.989 123.062 551.452C122.452 550.908 121.631 550.636 120.596 550.636C119.682 550.636 118.88 550.875 118.19 551.352C117.507 551.823 116.974 552.489 116.589 553.351C116.211 554.206 116.023 555.21 116.023 556.364C116.023 557.544 116.208 558.571 116.579 559.446C116.957 560.321 117.488 561 118.17 561.484C118.86 561.968 119.668 562.21 120.596 562.21C121.206 562.21 121.76 562.104 122.257 561.892C122.754 561.68 123.175 561.375 123.52 560.977C123.864 560.58 124.11 560.102 124.256 559.545H126.602C126.47 560.447 126.141 561.259 125.618 561.982C125.101 562.697 124.415 563.268 123.559 563.692C122.711 564.109 121.723 564.318 120.596 564.318ZM136.237 564.318C134.858 564.318 133.648 563.99 132.608 563.334C131.574 562.678 130.765 561.759 130.182 560.58C129.605 559.4 129.317 558.021 129.317 556.443C129.317 554.852 129.605 553.464 130.182 552.277C130.765 551.09 131.574 550.169 132.608 549.513C133.648 548.857 134.858 548.528 136.237 548.528C137.616 548.528 138.822 548.857 139.856 549.513C140.897 550.169 141.706 551.09 142.282 552.277C142.866 553.464 143.157 554.852 143.157 556.443C143.157 558.021 142.866 559.4 142.282 560.58C141.706 561.759 140.897 562.678 139.856 563.334C138.822 563.99 137.616 564.318 136.237 564.318ZM136.237 562.21C137.284 562.21 138.146 561.942 138.822 561.405C139.498 560.868 139.999 560.162 140.324 559.287C140.648 558.412 140.811 557.464 140.811 556.443C140.811 555.422 140.648 554.471 140.324 553.589C139.999 552.708 139.498 551.995 138.822 551.452C138.146 550.908 137.284 550.636 136.237 550.636C135.19 550.636 134.328 550.908 133.652 551.452C132.976 551.995 132.475 552.708 132.15 553.589C131.826 554.471 131.663 555.422 131.663 556.443C131.663 557.464 131.826 558.412 132.15 559.287C132.475 560.162 132.976 560.868 133.652 561.405C134.328 561.942 135.19 562.21 136.237 562.21ZM146.74 564V548.727H149.007V551.114H149.205C149.524 550.298 150.037 549.665 150.747 549.214C151.456 548.757 152.308 548.528 153.302 548.528C154.31 548.528 155.148 548.757 155.818 549.214C156.494 549.665 157.021 550.298 157.399 551.114H157.558C157.949 550.325 158.535 549.698 159.318 549.234C160.1 548.764 161.038 548.528 162.132 548.528C163.497 548.528 164.614 548.956 165.482 549.811C166.351 550.66 166.785 551.982 166.785 553.778V564H164.438V553.778C164.438 552.652 164.13 551.846 163.514 551.362C162.897 550.878 162.171 550.636 161.336 550.636C160.262 550.636 159.43 550.961 158.84 551.611C158.25 552.254 157.955 553.069 157.955 554.057V564H155.569V553.54C155.569 552.671 155.287 551.972 154.724 551.442C154.16 550.905 153.435 550.636 152.546 550.636C151.936 550.636 151.366 550.799 150.836 551.124C150.312 551.448 149.888 551.899 149.563 552.476C149.245 553.046 149.086 553.705 149.086 554.455V564H146.74Z" fill="#D8DEE9"/>
<defs>
<filter id="filter0_i_1367_15" x="432" y="341.5" width="266" height="47" filterUnits="userSpaceOnUse" color-interpolation-filters="sRGB">
<feFlood flood-opacity="0" result="BackgroundImageFix"/>
<feBlend mode="normal" in="SourceGraphic" in2="BackgroundImageFix" result="shape"/>
<feColorMatrix in="SourceAlpha" type="matrix" values="0 0 0 0 0 0 0 0 0 0 0 0 0 0 0 0 0 0 127 0" result="hardAlpha"/>
<feOffset dy="1"/>
<feGaussianBlur stdDeviation="0.5"/>
<feComposite in2="hardAlpha" operator="arithmetic" k2="-1" k3="1"/>
<feColorMatrix type="matrix" values="0 0 0 0 1 0 0 0 0 1 0 0 0 0 1 0 0 0 0.25 0"/>
<feBlend mode="normal" in2="shape" result="effect1_innerShadow_1367_15"/>
</filter>
</defs>
</svg>
