<svg width="1130" height="600" viewBox="0 0 1130 600" fill="none" xmlns="http://www.w3.org/2000/svg">
<rect width="1130" height="600" fill="#2F3340"/>
<path d="M186.335 158.409C186.335 164.754 185.133 170.152 182.727 174.602C180.341 179.053 177.083 182.453 172.955 184.801C168.845 187.131 164.223 188.295 159.091 188.295C153.92 188.295 149.28 187.121 145.17 184.773C141.061 182.424 137.813 179.025 135.426 174.574C133.04 170.123 131.847 164.735 131.847 158.409C131.847 152.064 133.04 146.667 135.426 142.216C137.813 137.765 141.061 134.375 145.17 132.045C149.28 129.697 153.92 128.523 159.091 128.523C164.223 128.523 168.845 129.697 172.955 132.045C177.083 134.375 180.341 137.765 182.727 142.216C185.133 146.667 186.335 152.064 186.335 158.409ZM173.864 158.409C173.864 154.299 173.248 150.833 172.017 148.011C170.805 145.189 169.091 143.049 166.875 141.591C164.659 140.133 162.064 139.403 159.091 139.403C156.117 139.403 153.523 140.133 151.307 141.591C149.091 143.049 147.367 145.189 146.136 148.011C144.924 150.833 144.318 154.299 144.318 158.409C144.318 162.519 144.924 165.985 146.136 168.807C147.367 171.629 149.091 173.769 151.307 175.227C153.523 176.686 156.117 177.415 159.091 177.415C162.064 177.415 164.659 176.686 166.875 175.227C169.091 173.769 170.805 171.629 172.017 168.807C173.248 165.985 173.864 162.519 173.864 158.409ZM195.22 203.864V143.864H207.152V151.193H207.692C208.222 150.019 208.989 148.826 209.993 147.614C211.016 146.383 212.341 145.36 213.97 144.545C215.618 143.712 217.663 143.295 220.107 143.295C223.288 143.295 226.224 144.129 228.913 145.795C231.603 147.443 233.752 149.934 235.362 153.267C236.972 156.581 237.777 160.739 237.777 165.739C237.777 170.606 236.991 174.716 235.419 178.068C233.866 181.402 231.745 183.93 229.055 185.653C226.385 187.358 223.393 188.21 220.078 188.21C217.73 188.21 215.732 187.822 214.084 187.045C212.455 186.269 211.12 185.294 210.078 184.119C209.036 182.926 208.241 181.723 207.692 180.511H207.322V203.864H195.22ZM207.067 165.682C207.067 168.277 207.427 170.54 208.146 172.472C208.866 174.403 209.908 175.909 211.271 176.989C212.635 178.049 214.292 178.58 216.243 178.58C218.213 178.58 219.879 178.04 221.243 176.96C222.607 175.862 223.639 174.347 224.339 172.415C225.059 170.464 225.419 168.22 225.419 165.682C225.419 163.163 225.069 160.947 224.368 159.034C223.667 157.121 222.635 155.625 221.271 154.545C219.908 153.466 218.232 152.926 216.243 152.926C214.273 152.926 212.607 153.447 211.243 154.489C209.898 155.53 208.866 157.008 208.146 158.92C207.427 160.833 207.067 163.087 207.067 165.682ZM269.055 143.864V152.955H242.777V143.864H269.055ZM248.743 133.409H260.845V174.091C260.845 175.208 261.016 176.08 261.357 176.705C261.697 177.311 262.171 177.737 262.777 177.983C263.402 178.229 264.122 178.352 264.936 178.352C265.504 178.352 266.072 178.305 266.641 178.21C267.209 178.097 267.644 178.011 267.947 177.955L269.851 186.96C269.245 187.15 268.393 187.367 267.294 187.614C266.196 187.879 264.86 188.04 263.288 188.097C260.372 188.21 257.815 187.822 255.618 186.932C253.44 186.042 251.745 184.659 250.533 182.784C249.321 180.909 248.724 178.542 248.743 175.682V133.409ZM276.939 187.5V143.864H289.041V187.5H276.939ZM283.018 138.239C281.219 138.239 279.676 137.642 278.388 136.449C277.119 135.237 276.484 133.788 276.484 132.102C276.484 130.436 277.119 129.006 278.388 127.812C279.676 126.6 281.219 125.994 283.018 125.994C284.818 125.994 286.352 126.6 287.621 127.812C288.909 129.006 289.553 130.436 289.553 132.102C289.553 133.788 288.909 135.237 287.621 136.449C286.352 137.642 284.818 138.239 283.018 138.239ZM298.736 187.5V143.864H310.27V151.562H310.781C311.69 149.006 313.205 146.989 315.327 145.511C317.448 144.034 319.986 143.295 322.94 143.295C325.933 143.295 328.48 144.044 330.582 145.54C332.685 147.017 334.086 149.025 334.787 151.562H335.241C336.132 149.062 337.741 147.064 340.071 145.568C342.42 144.053 345.194 143.295 348.395 143.295C352.467 143.295 355.772 144.593 358.31 147.188C360.866 149.763 362.145 153.419 362.145 158.153V187.5H350.071V160.54C350.071 158.116 349.427 156.297 348.139 155.085C346.851 153.873 345.241 153.267 343.31 153.267C341.113 153.267 339.399 153.968 338.168 155.369C336.937 156.752 336.321 158.58 336.321 160.852V187.5H324.588V160.284C324.588 158.144 323.973 156.439 322.741 155.17C321.529 153.902 319.929 153.267 317.94 153.267C316.596 153.267 315.384 153.608 314.304 154.29C313.243 154.953 312.401 155.89 311.776 157.102C311.151 158.295 310.838 159.697 310.838 161.307V187.5H298.736ZM371.705 187.5V143.864H383.807V187.5H371.705ZM377.784 138.239C375.985 138.239 374.441 137.642 373.153 136.449C371.884 135.237 371.25 133.788 371.25 132.102C371.25 130.436 371.884 129.006 373.153 127.812C374.441 126.6 375.985 125.994 377.784 125.994C379.583 125.994 381.117 126.6 382.386 127.812C383.674 129.006 384.318 130.436 384.318 132.102C384.318 133.788 383.674 135.237 382.386 136.449C381.117 137.642 379.583 138.239 377.784 138.239ZM393.274 187.5V180.284L414.638 153.835V153.523H394.013V143.864H429.212V151.733L409.155 177.528V177.841H429.95V187.5H393.274ZM457.841 188.352C453.352 188.352 449.489 187.443 446.25 185.625C443.03 183.788 440.549 181.193 438.807 177.841C437.064 174.47 436.193 170.483 436.193 165.881C436.193 161.392 437.064 157.453 438.807 154.062C440.549 150.672 443.002 148.03 446.165 146.136C449.347 144.242 453.078 143.295 457.358 143.295C460.237 143.295 462.917 143.759 465.398 144.688C467.898 145.597 470.076 146.97 471.932 148.807C473.807 150.644 475.265 152.955 476.307 155.739C477.348 158.504 477.869 161.742 477.869 165.455V168.778H441.023V161.278H466.477C466.477 159.536 466.098 157.992 465.341 156.648C464.583 155.303 463.532 154.252 462.188 153.494C460.862 152.718 459.318 152.33 457.557 152.33C455.72 152.33 454.091 152.756 452.67 153.608C451.269 154.441 450.17 155.568 449.375 156.989C448.58 158.39 448.172 159.953 448.153 161.676V168.807C448.153 170.966 448.551 172.831 449.347 174.403C450.161 175.975 451.307 177.188 452.784 178.04C454.261 178.892 456.013 179.318 458.04 179.318C459.384 179.318 460.616 179.129 461.733 178.75C462.85 178.371 463.807 177.803 464.602 177.045C465.398 176.288 466.004 175.36 466.42 174.261L477.614 175C477.045 177.689 475.881 180.038 474.119 182.045C472.377 184.034 470.123 185.587 467.358 186.705C464.612 187.803 461.439 188.352 457.841 188.352ZM523.999 188.352C519.529 188.352 515.684 187.405 512.464 185.511C509.264 183.598 506.802 180.947 505.078 177.557C503.374 174.167 502.521 170.265 502.521 165.852C502.521 161.383 503.383 157.462 505.107 154.091C506.849 150.701 509.321 148.059 512.521 146.165C515.722 144.252 519.529 143.295 523.942 143.295C527.749 143.295 531.082 143.987 533.942 145.369C536.802 146.752 539.065 148.693 540.732 151.193C542.398 153.693 543.317 156.629 543.487 160H532.067C531.745 157.822 530.893 156.07 529.51 154.744C528.146 153.4 526.357 152.727 524.141 152.727C522.266 152.727 520.627 153.239 519.226 154.261C517.843 155.265 516.764 156.733 515.987 158.665C515.211 160.597 514.822 162.936 514.822 165.682C514.822 168.466 515.201 170.833 515.959 172.784C516.735 174.735 517.824 176.222 519.226 177.244C520.627 178.267 522.266 178.778 524.141 178.778C525.523 178.778 526.764 178.494 527.862 177.926C528.98 177.358 529.898 176.534 530.618 175.455C531.357 174.356 531.839 173.04 532.067 171.506H543.487C543.298 174.839 542.389 177.775 540.76 180.312C539.15 182.831 536.925 184.801 534.084 186.222C531.243 187.642 527.881 188.352 523.999 188.352ZM563.679 188.324C560.895 188.324 558.414 187.841 556.236 186.875C554.058 185.89 552.334 184.441 551.065 182.528C549.815 180.597 549.19 178.191 549.19 175.312C549.19 172.888 549.635 170.852 550.526 169.205C551.416 167.557 552.628 166.231 554.162 165.227C555.696 164.223 557.438 163.466 559.389 162.955C561.359 162.443 563.423 162.083 565.582 161.875C568.12 161.61 570.166 161.364 571.719 161.136C573.272 160.89 574.399 160.53 575.099 160.057C575.8 159.583 576.151 158.883 576.151 157.955V157.784C576.151 155.985 575.582 154.593 574.446 153.608C573.329 152.623 571.738 152.131 569.673 152.131C567.495 152.131 565.762 152.614 564.474 153.58C563.187 154.527 562.334 155.72 561.918 157.159L550.724 156.25C551.293 153.598 552.41 151.307 554.077 149.375C555.743 147.424 557.893 145.928 560.526 144.886C563.177 143.826 566.245 143.295 569.73 143.295C572.154 143.295 574.474 143.58 576.69 144.148C578.925 144.716 580.904 145.597 582.628 146.79C584.37 147.983 585.743 149.517 586.747 151.392C587.751 153.248 588.253 155.473 588.253 158.068V187.5H576.776V181.449H576.435C575.734 182.812 574.796 184.015 573.622 185.057C572.448 186.08 571.037 186.884 569.389 187.472C567.741 188.04 565.838 188.324 563.679 188.324ZM567.145 179.972C568.925 179.972 570.497 179.621 571.861 178.92C573.224 178.201 574.295 177.235 575.071 176.023C575.848 174.811 576.236 173.437 576.236 171.903V167.273C575.857 167.519 575.336 167.746 574.673 167.955C574.029 168.144 573.3 168.324 572.486 168.494C571.671 168.646 570.857 168.788 570.043 168.92C569.228 169.034 568.49 169.138 567.827 169.233C566.406 169.441 565.166 169.773 564.105 170.227C563.045 170.682 562.221 171.297 561.634 172.074C561.046 172.831 560.753 173.778 560.753 174.915C560.753 176.562 561.349 177.822 562.543 178.693C563.755 179.545 565.289 179.972 567.145 179.972ZM617.358 188.352C612.888 188.352 609.044 187.405 605.824 185.511C602.623 183.598 600.161 180.947 598.438 177.557C596.733 174.167 595.881 170.265 595.881 165.852C595.881 161.383 596.742 157.462 598.466 154.091C600.208 150.701 602.68 148.059 605.881 146.165C609.081 144.252 612.888 143.295 617.301 143.295C621.108 143.295 624.441 143.987 627.301 145.369C630.161 146.752 632.424 148.693 634.091 151.193C635.758 153.693 636.676 156.629 636.847 160H625.426C625.104 157.822 624.252 156.07 622.869 154.744C621.506 153.4 619.716 152.727 617.5 152.727C615.625 152.727 613.987 153.239 612.585 154.261C611.203 155.265 610.123 156.733 609.347 158.665C608.57 160.597 608.182 162.936 608.182 165.682C608.182 168.466 608.561 170.833 609.318 172.784C610.095 174.735 611.184 176.222 612.585 177.244C613.987 178.267 615.625 178.778 617.5 178.778C618.883 178.778 620.123 178.494 621.222 177.926C622.339 177.358 623.258 176.534 623.977 175.455C624.716 174.356 625.199 173.04 625.426 171.506H636.847C636.657 174.839 635.748 177.775 634.119 180.312C632.509 182.831 630.284 184.801 627.443 186.222C624.602 187.642 621.241 188.352 617.358 188.352ZM656.697 162.273V187.5H644.595V129.318H656.357V151.562H656.868C657.853 148.987 659.444 146.97 661.641 145.511C663.838 144.034 666.593 143.295 669.908 143.295C672.938 143.295 675.58 143.958 677.834 145.284C680.107 146.591 681.868 148.475 683.118 150.938C684.387 153.381 685.012 156.307 684.993 159.716V187.5H672.891V161.875C672.91 159.186 672.228 157.093 670.845 155.597C669.482 154.1 667.569 153.352 665.107 153.352C663.459 153.352 662 153.703 660.732 154.403C659.482 155.104 658.497 156.127 657.777 157.472C657.076 158.797 656.716 160.398 656.697 162.273ZM694.517 187.5V143.864H706.619V187.5H694.517ZM700.597 138.239C698.797 138.239 697.254 137.642 695.966 136.449C694.697 135.237 694.062 133.788 694.062 132.102C694.062 130.436 694.697 129.006 695.966 127.812C697.254 126.6 698.797 125.994 700.597 125.994C702.396 125.994 703.93 126.6 705.199 127.812C706.487 129.006 707.131 130.436 707.131 132.102C707.131 133.788 706.487 135.237 705.199 136.449C703.93 137.642 702.396 138.239 700.597 138.239ZM728.416 162.273V187.5H716.314V143.864H727.848V151.562H728.359C729.325 149.025 730.945 147.017 733.217 145.54C735.49 144.044 738.246 143.295 741.484 143.295C744.515 143.295 747.157 143.958 749.411 145.284C751.664 146.61 753.416 148.504 754.666 150.966C755.916 153.409 756.541 156.326 756.541 159.716V187.5H744.439V161.875C744.458 159.205 743.776 157.121 742.393 155.625C741.011 154.11 739.107 153.352 736.683 153.352C735.054 153.352 733.615 153.703 732.365 154.403C731.134 155.104 730.168 156.127 729.467 157.472C728.786 158.797 728.435 160.398 728.416 162.273ZM785.739 204.773C781.818 204.773 778.456 204.233 775.653 203.153C772.869 202.093 770.653 200.644 769.006 198.807C767.358 196.97 766.288 194.905 765.795 192.614L776.989 191.108C777.33 191.979 777.869 192.794 778.608 193.551C779.347 194.309 780.322 194.915 781.534 195.369C782.765 195.843 784.261 196.08 786.023 196.08C788.655 196.08 790.824 195.436 792.528 194.148C794.252 192.879 795.114 190.748 795.114 187.756V179.773H794.602C794.072 180.985 793.277 182.131 792.216 183.21C791.155 184.29 789.792 185.17 788.125 185.852C786.458 186.534 784.47 186.875 782.159 186.875C778.883 186.875 775.9 186.117 773.21 184.602C770.54 183.068 768.409 180.729 766.818 177.585C765.246 174.422 764.46 170.426 764.46 165.597C764.46 160.653 765.265 156.525 766.875 153.21C768.485 149.896 770.625 147.415 773.295 145.767C775.985 144.119 778.93 143.295 782.131 143.295C784.574 143.295 786.619 143.712 788.267 144.545C789.915 145.36 791.241 146.383 792.244 147.614C793.267 148.826 794.053 150.019 794.602 151.193H795.057V143.864H807.074V187.926C807.074 191.638 806.165 194.744 804.347 197.244C802.528 199.744 800.009 201.619 796.79 202.869C793.589 204.138 789.905 204.773 785.739 204.773ZM785.994 177.784C787.945 177.784 789.593 177.301 790.938 176.335C792.301 175.35 793.343 173.949 794.062 172.131C794.801 170.294 795.17 168.097 795.17 165.54C795.17 162.983 794.811 160.767 794.091 158.892C793.371 156.998 792.33 155.53 790.966 154.489C789.602 153.447 787.945 152.926 785.994 152.926C784.006 152.926 782.33 153.466 780.966 154.545C779.602 155.606 778.57 157.083 777.869 158.977C777.169 160.871 776.818 163.059 776.818 165.54C776.818 168.059 777.169 170.237 777.869 172.074C778.589 173.892 779.621 175.303 780.966 176.307C782.33 177.292 784.006 177.784 785.994 177.784ZM843.828 187.5L831.953 143.864H844.197L850.959 173.182H851.357L858.402 143.864H870.419L877.578 173.011H877.947L884.595 143.864H896.811L884.964 187.5H872.152L864.652 160.057H864.112L856.612 187.5H843.828ZM903.267 187.5V143.864H915.369V187.5H903.267ZM909.347 138.239C907.547 138.239 906.004 137.642 904.716 136.449C903.447 135.237 902.812 133.788 902.812 132.102C902.812 130.436 903.447 129.006 904.716 127.812C906.004 126.6 907.547 125.994 909.347 125.994C911.146 125.994 912.68 126.6 913.949 127.812C915.237 129.006 915.881 130.436 915.881 132.102C915.881 133.788 915.237 135.237 913.949 136.449C912.68 137.642 911.146 138.239 909.347 138.239ZM948.274 143.864V152.955H921.996V143.864H948.274ZM927.962 133.409H940.064V174.091C940.064 175.208 940.234 176.08 940.575 176.705C940.916 177.311 941.39 177.737 941.996 177.983C942.621 178.229 943.34 178.352 944.155 178.352C944.723 178.352 945.291 178.305 945.859 178.21C946.428 178.097 946.863 178.011 947.166 177.955L949.07 186.96C948.464 187.15 947.611 187.367 946.513 187.614C945.414 187.879 944.079 188.04 942.507 188.097C939.59 188.21 937.034 187.822 934.837 186.932C932.659 186.042 930.964 184.659 929.751 182.784C928.539 180.909 927.943 178.542 927.962 175.682V133.409ZM969.197 162.273V187.5H957.095V129.318H968.857V151.562H969.368C970.353 148.987 971.944 146.97 974.141 145.511C976.338 144.034 979.093 143.295 982.408 143.295C985.438 143.295 988.08 143.958 990.334 145.284C992.607 146.591 994.368 148.475 995.618 150.938C996.887 153.381 997.512 156.307 997.493 159.716V187.5H985.391V161.875C985.41 159.186 984.728 157.093 983.345 155.597C981.982 154.1 980.069 153.352 977.607 153.352C975.959 153.352 974.5 153.703 973.232 154.403C971.982 155.104 970.997 156.127 970.277 157.472C969.576 158.797 969.216 160.398 969.197 162.273ZM173.558 253.307L162.479 253.989C162.289 253.042 161.882 252.189 161.257 251.432C160.632 250.655 159.808 250.04 158.786 249.585C157.782 249.112 156.579 248.875 155.178 248.875C153.303 248.875 151.721 249.273 150.433 250.068C149.145 250.845 148.501 251.886 148.501 253.193C148.501 254.235 148.918 255.116 149.751 255.835C150.585 256.555 152.015 257.133 154.041 257.568L161.939 259.159C166.181 260.03 169.344 261.432 171.428 263.364C173.511 265.295 174.553 267.833 174.553 270.977C174.553 273.837 173.71 276.347 172.024 278.506C170.357 280.665 168.066 282.35 165.149 283.562C162.251 284.756 158.909 285.352 155.121 285.352C149.344 285.352 144.742 284.15 141.314 281.744C137.905 279.32 135.907 276.025 135.32 271.858L147.223 271.233C147.583 272.994 148.454 274.339 149.837 275.267C151.219 276.176 152.99 276.631 155.149 276.631C157.27 276.631 158.975 276.223 160.263 275.409C161.57 274.576 162.232 273.506 162.251 272.199C162.232 271.1 161.768 270.201 160.859 269.5C159.95 268.78 158.549 268.231 156.655 267.852L149.098 266.347C144.837 265.494 141.664 264.017 139.581 261.915C137.517 259.812 136.484 257.133 136.484 253.875C136.484 251.072 137.242 248.657 138.757 246.631C140.291 244.604 142.441 243.042 145.206 241.943C147.99 240.845 151.248 240.295 154.979 240.295C160.49 240.295 164.827 241.46 167.99 243.79C171.172 246.119 173.028 249.292 173.558 253.307ZM205.384 240.864V249.955H179.105V240.864H205.384ZM185.071 230.409H197.173V271.091C197.173 272.208 197.344 273.08 197.685 273.705C198.026 274.311 198.499 274.737 199.105 274.983C199.73 275.229 200.45 275.352 201.264 275.352C201.832 275.352 202.401 275.305 202.969 275.21C203.537 275.097 203.973 275.011 204.276 274.955L206.179 283.96C205.573 284.15 204.721 284.367 203.622 284.614C202.524 284.879 201.188 285.04 199.616 285.097C196.7 285.21 194.143 284.822 191.946 283.932C189.768 283.042 188.073 281.659 186.861 279.784C185.649 277.909 185.052 275.542 185.071 272.682V230.409ZM225.71 285.324C222.926 285.324 220.445 284.841 218.267 283.875C216.089 282.89 214.366 281.441 213.097 279.528C211.847 277.597 211.222 275.191 211.222 272.312C211.222 269.888 211.667 267.852 212.557 266.205C213.447 264.557 214.659 263.231 216.193 262.227C217.727 261.223 219.47 260.466 221.42 259.955C223.39 259.443 225.455 259.083 227.614 258.875C230.152 258.61 232.197 258.364 233.75 258.136C235.303 257.89 236.43 257.53 237.131 257.057C237.831 256.583 238.182 255.883 238.182 254.955V254.784C238.182 252.985 237.614 251.593 236.477 250.608C235.36 249.623 233.769 249.131 231.705 249.131C229.527 249.131 227.794 249.614 226.506 250.58C225.218 251.527 224.366 252.72 223.949 254.159L212.756 253.25C213.324 250.598 214.441 248.307 216.108 246.375C217.775 244.424 219.924 242.928 222.557 241.886C225.208 240.826 228.277 240.295 231.761 240.295C234.186 240.295 236.506 240.58 238.722 241.148C240.956 241.716 242.936 242.597 244.659 243.79C246.402 244.983 247.775 246.517 248.778 248.392C249.782 250.248 250.284 252.473 250.284 255.068V284.5H238.807V278.449H238.466C237.765 279.812 236.828 281.015 235.653 282.057C234.479 283.08 233.068 283.884 231.42 284.472C229.773 285.04 227.869 285.324 225.71 285.324ZM229.176 276.972C230.956 276.972 232.528 276.621 233.892 275.92C235.256 275.201 236.326 274.235 237.102 273.023C237.879 271.811 238.267 270.437 238.267 268.903V264.273C237.888 264.519 237.367 264.746 236.705 264.955C236.061 265.144 235.331 265.324 234.517 265.494C233.703 265.646 232.888 265.788 232.074 265.92C231.259 266.034 230.521 266.138 229.858 266.233C228.438 266.441 227.197 266.773 226.136 267.227C225.076 267.682 224.252 268.297 223.665 269.074C223.078 269.831 222.784 270.778 222.784 271.915C222.784 273.562 223.381 274.822 224.574 275.693C225.786 276.545 227.32 276.972 229.176 276.972ZM271.776 226.318V284.5H259.673V226.318H271.776ZM301.357 285.352C296.868 285.352 293.004 284.443 289.766 282.625C286.546 280.788 284.065 278.193 282.322 274.841C280.58 271.47 279.709 267.483 279.709 262.881C279.709 258.392 280.58 254.453 282.322 251.062C284.065 247.672 286.518 245.03 289.68 243.136C292.862 241.242 296.593 240.295 300.874 240.295C303.752 240.295 306.432 240.759 308.913 241.688C311.413 242.597 313.591 243.97 315.447 245.807C317.322 247.644 318.781 249.955 319.822 252.739C320.864 255.504 321.385 258.742 321.385 262.455V265.778H284.538V258.278H309.993C309.993 256.536 309.614 254.992 308.857 253.648C308.099 252.303 307.048 251.252 305.703 250.494C304.377 249.718 302.834 249.33 301.072 249.33C299.235 249.33 297.607 249.756 296.186 250.608C294.785 251.441 293.686 252.568 292.891 253.989C292.095 255.39 291.688 256.953 291.669 258.676V265.807C291.669 267.966 292.067 269.831 292.862 271.403C293.677 272.975 294.822 274.188 296.3 275.04C297.777 275.892 299.529 276.318 301.555 276.318C302.9 276.318 304.131 276.129 305.249 275.75C306.366 275.371 307.322 274.803 308.118 274.045C308.913 273.288 309.519 272.36 309.936 271.261L321.129 272C320.561 274.689 319.396 277.038 317.635 279.045C315.893 281.034 313.639 282.587 310.874 283.705C308.127 284.803 304.955 285.352 301.357 285.352ZM356.47 255.807V265.409H329.936V255.807H356.47ZM375.391 284.5L363.516 240.864H375.76L382.521 270.182H382.919L389.964 240.864H401.982L409.141 270.011H409.51L416.158 240.864H428.374L416.527 284.5H403.714L396.214 257.057H395.675L388.175 284.5H375.391ZM446.932 259.273V284.5H434.83V226.318H446.591V248.562H447.102C448.087 245.987 449.678 243.97 451.875 242.511C454.072 241.034 456.828 240.295 460.142 240.295C463.172 240.295 465.814 240.958 468.068 242.284C470.341 243.591 472.102 245.475 473.352 247.938C474.621 250.381 475.246 253.307 475.227 256.716V284.5H463.125V258.875C463.144 256.186 462.462 254.093 461.08 252.597C459.716 251.1 457.803 250.352 455.341 250.352C453.693 250.352 452.235 250.703 450.966 251.403C449.716 252.104 448.731 253.127 448.011 254.472C447.311 255.797 446.951 257.398 446.932 259.273ZM484.751 284.5V240.864H496.854V284.5H484.751ZM490.831 235.239C489.032 235.239 487.488 234.642 486.2 233.449C484.931 232.237 484.297 230.788 484.297 229.102C484.297 227.436 484.931 226.006 486.2 224.812C487.488 223.6 489.032 222.994 490.831 222.994C492.63 222.994 494.164 223.6 495.433 224.812C496.721 226.006 497.365 227.436 497.365 229.102C497.365 230.788 496.721 232.237 495.433 233.449C494.164 234.642 492.63 235.239 490.831 235.239ZM518.651 226.318V284.5H506.548V226.318H518.651ZM548.232 285.352C543.743 285.352 539.879 284.443 536.641 282.625C533.421 280.788 530.94 278.193 529.197 274.841C527.455 271.47 526.584 267.483 526.584 262.881C526.584 258.392 527.455 254.453 529.197 251.062C530.94 247.672 533.393 245.03 536.555 243.136C539.737 241.242 543.468 240.295 547.749 240.295C550.627 240.295 553.307 240.759 555.788 241.688C558.288 242.597 560.466 243.97 562.322 245.807C564.197 247.644 565.656 249.955 566.697 252.739C567.739 255.504 568.26 258.742 568.26 262.455V265.778H531.413V258.278H556.868C556.868 256.536 556.489 254.992 555.732 253.648C554.974 252.303 553.923 251.252 552.578 250.494C551.252 249.718 549.709 249.33 547.947 249.33C546.11 249.33 544.482 249.756 543.061 250.608C541.66 251.441 540.561 252.568 539.766 253.989C538.97 255.39 538.563 256.953 538.544 258.676V265.807C538.544 267.966 538.942 269.831 539.737 271.403C540.552 272.975 541.697 274.188 543.175 275.04C544.652 275.892 546.404 276.318 548.43 276.318C549.775 276.318 551.006 276.129 552.124 275.75C553.241 275.371 554.197 274.803 554.993 274.045C555.788 273.288 556.394 272.36 556.811 271.261L568.004 272C567.436 274.689 566.271 277.038 564.51 279.045C562.768 281.034 560.514 282.587 557.749 283.705C555.002 284.803 551.83 285.352 548.232 285.352ZM603.345 255.807V265.409H576.811V255.807H603.345ZM613.658 284.5V240.864H625.391V248.477H625.845C626.641 245.769 627.976 243.723 629.851 242.341C631.726 240.939 633.885 240.239 636.328 240.239C636.934 240.239 637.588 240.277 638.288 240.352C638.989 240.428 639.605 240.532 640.135 240.665V251.403C639.567 251.233 638.781 251.081 637.777 250.949C636.773 250.816 635.855 250.75 635.021 250.75C633.241 250.75 631.65 251.138 630.249 251.915C628.866 252.672 627.768 253.733 626.953 255.097C626.158 256.46 625.76 258.032 625.76 259.812V284.5H613.658ZM664.247 285.352C659.759 285.352 655.895 284.443 652.656 282.625C649.437 280.788 646.955 278.193 645.213 274.841C643.471 271.47 642.599 267.483 642.599 262.881C642.599 258.392 643.471 254.453 645.213 251.062C646.955 247.672 649.408 245.03 652.571 243.136C655.753 241.242 659.484 240.295 663.764 240.295C666.643 240.295 669.323 240.759 671.804 241.688C674.304 242.597 676.482 243.97 678.338 245.807C680.213 247.644 681.671 249.955 682.713 252.739C683.755 255.504 684.276 258.742 684.276 262.455V265.778H647.429V258.278H672.884C672.884 256.536 672.505 254.992 671.747 253.648C670.99 252.303 669.938 251.252 668.594 250.494C667.268 249.718 665.724 249.33 663.963 249.33C662.126 249.33 660.497 249.756 659.077 250.608C657.675 251.441 656.577 252.568 655.781 253.989C654.986 255.39 654.579 256.953 654.56 258.676V265.807C654.56 267.966 654.957 269.831 655.753 271.403C656.567 272.975 657.713 274.188 659.19 275.04C660.668 275.892 662.42 276.318 664.446 276.318C665.791 276.318 667.022 276.129 668.139 275.75C669.257 275.371 670.213 274.803 671.009 274.045C671.804 273.288 672.41 272.36 672.827 271.261L684.02 272C683.452 274.689 682.287 277.038 680.526 279.045C678.783 281.034 676.529 282.587 673.764 283.705C671.018 284.803 667.846 285.352 664.247 285.352ZM731.683 240.864L716.428 284.5H702.791L687.536 240.864H700.32L709.382 272.085H709.837L718.871 240.864H731.683ZM749.148 285.324C746.364 285.324 743.883 284.841 741.705 283.875C739.527 282.89 737.803 281.441 736.534 279.528C735.284 277.597 734.659 275.191 734.659 272.312C734.659 269.888 735.104 267.852 735.994 266.205C736.884 264.557 738.097 263.231 739.631 262.227C741.165 261.223 742.907 260.466 744.858 259.955C746.828 259.443 748.892 259.083 751.051 258.875C753.589 258.61 755.634 258.364 757.188 258.136C758.741 257.89 759.867 257.53 760.568 257.057C761.269 256.583 761.619 255.883 761.619 254.955V254.784C761.619 252.985 761.051 251.593 759.915 250.608C758.797 249.623 757.206 249.131 755.142 249.131C752.964 249.131 751.231 249.614 749.943 250.58C748.655 251.527 747.803 252.72 747.386 254.159L736.193 253.25C736.761 250.598 737.879 248.307 739.545 246.375C741.212 244.424 743.362 242.928 745.994 241.886C748.646 240.826 751.714 240.295 755.199 240.295C757.623 240.295 759.943 240.58 762.159 241.148C764.394 241.716 766.373 242.597 768.097 243.79C769.839 244.983 771.212 246.517 772.216 248.392C773.22 250.248 773.722 252.473 773.722 255.068V284.5H762.244V278.449H761.903C761.203 279.812 760.265 281.015 759.091 282.057C757.917 283.08 756.506 283.884 754.858 284.472C753.21 285.04 751.307 285.324 749.148 285.324ZM752.614 276.972C754.394 276.972 755.966 276.621 757.33 275.92C758.693 275.201 759.763 274.235 760.54 273.023C761.316 271.811 761.705 270.437 761.705 268.903V264.273C761.326 264.519 760.805 264.746 760.142 264.955C759.498 265.144 758.769 265.324 757.955 265.494C757.14 265.646 756.326 265.788 755.511 265.92C754.697 266.034 753.958 266.138 753.295 266.233C751.875 266.441 750.634 266.773 749.574 267.227C748.513 267.682 747.689 268.297 747.102 269.074C746.515 269.831 746.222 270.778 746.222 271.915C746.222 273.562 746.818 274.822 748.011 275.693C749.223 276.545 750.758 276.972 752.614 276.972ZM795.213 226.318V284.5H783.111V226.318H795.213ZM804.908 284.5V240.864H817.01V284.5H804.908ZM810.987 235.239C809.188 235.239 807.644 234.642 806.357 233.449C805.088 232.237 804.453 230.788 804.453 229.102C804.453 227.436 805.088 226.006 806.357 224.812C807.644 223.6 809.188 222.994 810.987 222.994C812.786 222.994 814.321 223.6 815.589 224.812C816.877 226.006 817.521 227.436 817.521 229.102C817.521 230.788 816.877 232.237 815.589 233.449C814.321 234.642 812.786 235.239 810.987 235.239ZM842.784 285.21C839.47 285.21 836.468 284.358 833.778 282.653C831.108 280.93 828.987 278.402 827.415 275.068C825.862 271.716 825.085 267.606 825.085 262.739C825.085 257.739 825.89 253.581 827.5 250.267C829.11 246.934 831.25 244.443 833.92 242.795C836.61 241.129 839.555 240.295 842.756 240.295C845.199 240.295 847.235 240.712 848.864 241.545C850.511 242.36 851.837 243.383 852.841 244.614C853.864 245.826 854.64 247.019 855.17 248.193H855.54V226.318H867.614V284.5H855.682V277.511H855.17C854.602 278.723 853.797 279.926 852.756 281.119C851.733 282.294 850.398 283.269 848.75 284.045C847.121 284.822 845.133 285.21 842.784 285.21ZM846.619 275.58C848.57 275.58 850.218 275.049 851.562 273.989C852.926 272.909 853.968 271.403 854.688 269.472C855.426 267.54 855.795 265.277 855.795 262.682C855.795 260.087 855.436 257.833 854.716 255.92C853.996 254.008 852.955 252.53 851.591 251.489C850.227 250.447 848.57 249.926 846.619 249.926C844.631 249.926 842.955 250.466 841.591 251.545C840.227 252.625 839.195 254.121 838.494 256.034C837.794 257.947 837.443 260.163 837.443 262.682C837.443 265.22 837.794 267.464 838.494 269.415C839.214 271.347 840.246 272.862 841.591 273.96C842.955 275.04 844.631 275.58 846.619 275.58ZM890.007 285.324C887.223 285.324 884.742 284.841 882.564 283.875C880.386 282.89 878.662 281.441 877.393 279.528C876.143 277.597 875.518 275.191 875.518 272.312C875.518 269.888 875.964 267.852 876.854 266.205C877.744 264.557 878.956 263.231 880.49 262.227C882.024 261.223 883.767 260.466 885.717 259.955C887.687 259.443 889.751 259.083 891.911 258.875C894.448 258.61 896.494 258.364 898.047 258.136C899.6 257.89 900.727 257.53 901.428 257.057C902.128 256.583 902.479 255.883 902.479 254.955V254.784C902.479 252.985 901.911 251.593 900.774 250.608C899.657 249.623 898.066 249.131 896.001 249.131C893.823 249.131 892.09 249.614 890.803 250.58C889.515 251.527 888.662 252.72 888.246 254.159L877.053 253.25C877.621 250.598 878.738 248.307 880.405 246.375C882.071 244.424 884.221 242.928 886.854 241.886C889.505 240.826 892.573 240.295 896.058 240.295C898.482 240.295 900.803 240.58 903.018 241.148C905.253 241.716 907.232 242.597 908.956 243.79C910.698 244.983 912.071 246.517 913.075 248.392C914.079 250.248 914.581 252.473 914.581 255.068V284.5H903.104V278.449H902.763C902.062 279.812 901.125 281.015 899.95 282.057C898.776 283.08 897.365 283.884 895.717 284.472C894.07 285.04 892.166 285.324 890.007 285.324ZM893.473 276.972C895.253 276.972 896.825 276.621 898.189 275.92C899.553 275.201 900.623 274.235 901.399 273.023C902.176 271.811 902.564 270.437 902.564 268.903V264.273C902.185 264.519 901.664 264.746 901.001 264.955C900.357 265.144 899.628 265.324 898.814 265.494C898 265.646 897.185 265.788 896.371 265.92C895.556 266.034 894.818 266.138 894.155 266.233C892.734 266.441 891.494 266.773 890.433 267.227C889.373 267.682 888.549 268.297 887.962 269.074C887.375 269.831 887.081 270.778 887.081 271.915C887.081 273.562 887.678 274.822 888.871 275.693C890.083 276.545 891.617 276.972 893.473 276.972ZM947.18 240.864V249.955H920.902V240.864H947.18ZM926.868 230.409H938.97V271.091C938.97 272.208 939.141 273.08 939.482 273.705C939.822 274.311 940.296 274.737 940.902 274.983C941.527 275.229 942.247 275.352 943.061 275.352C943.629 275.352 944.197 275.305 944.766 275.21C945.334 275.097 945.769 275.011 946.072 274.955L947.976 283.96C947.37 284.15 946.518 284.367 945.419 284.614C944.321 284.879 942.985 285.04 941.413 285.097C938.497 285.21 935.94 284.822 933.743 283.932C931.565 283.042 929.87 281.659 928.658 279.784C927.446 277.909 926.849 275.542 926.868 272.682V230.409ZM974.482 285.352C969.993 285.352 966.129 284.443 962.891 282.625C959.671 280.788 957.19 278.193 955.447 274.841C953.705 271.47 952.834 267.483 952.834 262.881C952.834 258.392 953.705 254.453 955.447 251.062C957.19 247.672 959.643 245.03 962.805 243.136C965.987 241.242 969.718 240.295 973.999 240.295C976.877 240.295 979.557 240.759 982.038 241.688C984.538 242.597 986.716 243.97 988.572 245.807C990.447 247.644 991.906 249.955 992.947 252.739C993.989 255.504 994.51 258.742 994.51 262.455V265.778H957.663V258.278H983.118C983.118 256.536 982.739 254.992 981.982 253.648C981.224 252.303 980.173 251.252 978.828 250.494C977.502 249.718 975.959 249.33 974.197 249.33C972.36 249.33 970.732 249.756 969.311 250.608C967.91 251.441 966.811 252.568 966.016 253.989C965.22 255.39 964.813 256.953 964.794 258.676V265.807C964.794 267.966 965.192 269.831 965.987 271.403C966.802 272.975 967.947 274.188 969.425 275.04C970.902 275.892 972.654 276.318 974.68 276.318C976.025 276.318 977.256 276.129 978.374 275.75C979.491 275.371 980.447 274.803 981.243 274.045C982.038 273.288 982.644 272.36 983.061 271.261L994.254 272C993.686 274.689 992.521 277.038 990.76 279.045C989.018 281.034 986.764 282.587 983.999 283.705C981.252 284.803 978.08 285.352 974.482 285.352Z" fill="#D8DEE9"/>
<g filter="url(#filter0_i_1316_2693)">
<rect x="266" y="368.5" width="204" height="46" rx="23" fill="#202227"/>
<path d="M305.531 388.703H303.094C303 388.182 302.826 387.724 302.57 387.328C302.315 386.932 302.003 386.596 301.633 386.32C301.263 386.044 300.849 385.836 300.391 385.695C299.938 385.555 299.456 385.484 298.945 385.484C298.023 385.484 297.198 385.716 296.469 386.18C295.745 386.643 295.172 387.323 294.75 388.219C294.333 389.115 294.125 390.208 294.125 391.5C294.125 392.802 294.333 393.901 294.75 394.797C295.172 395.693 295.747 396.37 296.477 396.828C297.206 397.286 298.026 397.516 298.938 397.516C299.443 397.516 299.922 397.448 300.375 397.312C300.833 397.172 301.247 396.966 301.617 396.695C301.987 396.424 302.299 396.094 302.555 395.703C302.815 395.307 302.995 394.854 303.094 394.344L305.531 394.352C305.401 395.138 305.148 395.862 304.773 396.523C304.404 397.18 303.927 397.747 303.344 398.227C302.766 398.701 302.104 399.068 301.359 399.328C300.615 399.589 299.802 399.719 298.922 399.719C297.536 399.719 296.302 399.391 295.219 398.734C294.135 398.073 293.281 397.128 292.656 395.898C292.036 394.669 291.727 393.203 291.727 391.5C291.727 389.792 292.039 388.326 292.664 387.102C293.289 385.872 294.143 384.93 295.227 384.273C296.31 383.612 297.542 383.281 298.922 383.281C299.771 383.281 300.563 383.404 301.297 383.648C302.036 383.888 302.701 384.242 303.289 384.711C303.878 385.174 304.365 385.742 304.75 386.414C305.135 387.081 305.396 387.844 305.531 388.703ZM311.725 399.766C310.964 399.766 310.277 399.625 309.662 399.344C309.048 399.057 308.561 398.643 308.201 398.102C307.847 397.56 307.67 396.896 307.67 396.109C307.67 395.432 307.8 394.875 308.061 394.437C308.321 394 308.673 393.654 309.115 393.398C309.558 393.143 310.053 392.951 310.6 392.82C311.146 392.69 311.704 392.591 312.271 392.523C312.99 392.44 313.574 392.372 314.021 392.32C314.469 392.263 314.795 392.172 314.998 392.047C315.201 391.922 315.303 391.719 315.303 391.437V391.383C315.303 390.701 315.11 390.172 314.725 389.797C314.344 389.422 313.777 389.234 313.021 389.234C312.235 389.234 311.615 389.409 311.162 389.758C310.714 390.102 310.404 390.484 310.232 390.906L308.037 390.406C308.298 389.677 308.678 389.089 309.178 388.641C309.683 388.187 310.264 387.859 310.92 387.656C311.576 387.448 312.266 387.344 312.99 387.344C313.469 387.344 313.977 387.401 314.514 387.516C315.055 387.625 315.561 387.828 316.029 388.125C316.503 388.422 316.891 388.846 317.193 389.398C317.495 389.945 317.646 390.656 317.646 391.531V399.5H315.365V397.859H315.271C315.12 398.161 314.894 398.458 314.592 398.75C314.29 399.042 313.902 399.284 313.428 399.477C312.954 399.669 312.386 399.766 311.725 399.766ZM312.232 397.891C312.878 397.891 313.43 397.763 313.889 397.508C314.352 397.253 314.704 396.919 314.943 396.508C315.188 396.091 315.311 395.646 315.311 395.172V393.625C315.227 393.708 315.066 393.786 314.826 393.859C314.592 393.927 314.324 393.987 314.021 394.039C313.719 394.086 313.425 394.13 313.139 394.172C312.852 394.208 312.613 394.24 312.42 394.266C311.967 394.323 311.553 394.419 311.178 394.555C310.808 394.69 310.511 394.885 310.287 395.141C310.068 395.391 309.959 395.724 309.959 396.141C309.959 396.719 310.173 397.156 310.6 397.453C311.027 397.745 311.571 397.891 312.232 397.891ZM325.813 399.742C324.651 399.742 323.651 399.479 322.813 398.953C321.979 398.422 321.339 397.69 320.891 396.758C320.443 395.826 320.219 394.758 320.219 393.555C320.219 392.336 320.448 391.26 320.906 390.328C321.365 389.391 322.01 388.659 322.844 388.133C323.677 387.607 324.659 387.344 325.789 387.344C326.701 387.344 327.513 387.513 328.227 387.852C328.94 388.185 329.516 388.654 329.953 389.258C330.396 389.862 330.659 390.568 330.742 391.375H328.469C328.344 390.812 328.057 390.328 327.609 389.922C327.167 389.516 326.573 389.312 325.828 389.312C325.177 389.312 324.607 389.484 324.117 389.828C323.633 390.167 323.255 390.651 322.984 391.281C322.714 391.906 322.578 392.646 322.578 393.5C322.578 394.375 322.711 395.13 322.977 395.766C323.242 396.401 323.617 396.893 324.102 397.242C324.591 397.591 325.167 397.766 325.828 397.766C326.271 397.766 326.672 397.685 327.031 397.523C327.396 397.357 327.701 397.12 327.945 396.812C328.195 396.505 328.37 396.135 328.469 395.703H330.742C330.659 396.479 330.406 397.172 329.984 397.781C329.563 398.391 328.997 398.87 328.289 399.219C327.586 399.568 326.76 399.742 325.813 399.742ZM335.576 392.375V399.5H333.24V383.5H335.545V389.453H335.693C335.975 388.807 336.404 388.294 336.982 387.914C337.561 387.534 338.316 387.344 339.248 387.344C340.071 387.344 340.79 387.513 341.404 387.852C342.024 388.19 342.503 388.695 342.842 389.367C343.186 390.034 343.357 390.867 343.357 391.867V399.5H341.021V392.148C341.021 391.268 340.795 390.586 340.342 390.102C339.889 389.612 339.258 389.367 338.451 389.367C337.899 389.367 337.404 389.484 336.967 389.719C336.535 389.953 336.193 390.297 335.943 390.75C335.699 391.198 335.576 391.74 335.576 392.375ZM351.646 399.742C350.464 399.742 349.446 399.49 348.592 398.984C347.743 398.474 347.087 397.758 346.623 396.836C346.165 395.909 345.936 394.823 345.936 393.578C345.936 392.349 346.165 391.266 346.623 390.328C347.087 389.391 347.732 388.659 348.561 388.133C349.394 387.607 350.368 387.344 351.482 387.344C352.16 387.344 352.816 387.456 353.451 387.68C354.087 387.904 354.657 388.255 355.162 388.734C355.667 389.214 356.066 389.836 356.357 390.602C356.649 391.362 356.795 392.286 356.795 393.375V394.203H347.256V392.453H354.506C354.506 391.839 354.381 391.294 354.131 390.82C353.881 390.341 353.529 389.964 353.076 389.687C352.628 389.411 352.102 389.273 351.498 389.273C350.842 389.273 350.269 389.435 349.779 389.758C349.295 390.076 348.92 390.492 348.654 391.008C348.394 391.518 348.264 392.073 348.264 392.672V394.039C348.264 394.841 348.404 395.523 348.686 396.086C348.972 396.648 349.37 397.078 349.881 397.375C350.391 397.667 350.988 397.812 351.67 397.812C352.113 397.812 352.516 397.75 352.881 397.625C353.245 397.495 353.561 397.302 353.826 397.047C354.092 396.792 354.295 396.477 354.436 396.102L356.646 396.5C356.469 397.151 356.152 397.721 355.693 398.211C355.24 398.695 354.67 399.073 353.982 399.344C353.3 399.609 352.521 399.742 351.646 399.742ZM366.457 391.727V393.75H359.363V391.727H366.457ZM383.047 388.703H380.609C380.516 388.182 380.341 387.724 380.086 387.328C379.831 386.932 379.518 386.596 379.148 386.32C378.779 386.044 378.365 385.836 377.906 385.695C377.453 385.555 376.971 385.484 376.461 385.484C375.539 385.484 374.714 385.716 373.984 386.18C373.26 386.643 372.688 387.323 372.266 388.219C371.849 389.115 371.641 390.208 371.641 391.5C371.641 392.802 371.849 393.901 372.266 394.797C372.688 395.693 373.263 396.37 373.992 396.828C374.721 397.286 375.542 397.516 376.453 397.516C376.958 397.516 377.438 397.448 377.891 397.312C378.349 397.172 378.763 396.966 379.133 396.695C379.503 396.424 379.815 396.094 380.07 395.703C380.331 395.307 380.51 394.854 380.609 394.344L383.047 394.352C382.917 395.138 382.664 395.862 382.289 396.523C381.919 397.18 381.443 397.747 380.859 398.227C380.281 398.701 379.62 399.068 378.875 399.328C378.13 399.589 377.318 399.719 376.438 399.719C375.052 399.719 373.818 399.391 372.734 398.734C371.651 398.073 370.797 397.128 370.172 395.898C369.552 394.669 369.242 393.203 369.242 391.5C369.242 389.792 369.555 388.326 370.18 387.102C370.805 385.872 371.659 384.93 372.742 384.273C373.826 383.612 375.057 383.281 376.438 383.281C377.286 383.281 378.078 383.404 378.813 383.648C379.552 383.888 380.216 384.242 380.805 384.711C381.393 385.174 381.88 385.742 382.266 386.414C382.651 387.081 382.911 387.844 383.047 388.703ZM390.803 399.742C389.678 399.742 388.696 399.484 387.857 398.969C387.019 398.453 386.368 397.732 385.904 396.805C385.441 395.878 385.209 394.794 385.209 393.555C385.209 392.31 385.441 391.221 385.904 390.289C386.368 389.357 387.019 388.633 387.857 388.117C388.696 387.602 389.678 387.344 390.803 387.344C391.928 387.344 392.91 387.602 393.748 388.117C394.587 388.633 395.238 389.357 395.701 390.289C396.165 391.221 396.396 392.31 396.396 393.555C396.396 394.794 396.165 395.878 395.701 396.805C395.238 397.732 394.587 398.453 393.748 398.969C392.91 399.484 391.928 399.742 390.803 399.742ZM390.811 397.781C391.54 397.781 392.144 397.589 392.623 397.203C393.102 396.818 393.456 396.305 393.686 395.664C393.92 395.023 394.037 394.318 394.037 393.547C394.037 392.781 393.92 392.078 393.686 391.437C393.456 390.792 393.102 390.273 392.623 389.883C392.144 389.492 391.54 389.297 390.811 389.297C390.076 389.297 389.467 389.492 388.982 389.883C388.503 390.273 388.146 390.792 387.912 391.437C387.683 392.078 387.568 392.781 387.568 393.547C387.568 394.318 387.683 395.023 387.912 395.664C388.146 396.305 388.503 396.818 388.982 397.203C389.467 397.589 390.076 397.781 390.811 397.781ZM401.34 392.375V399.5H399.004V387.5H401.246V389.453H401.395C401.671 388.818 402.103 388.307 402.691 387.922C403.285 387.536 404.033 387.344 404.934 387.344C405.751 387.344 406.467 387.516 407.082 387.859C407.697 388.198 408.173 388.703 408.512 389.375C408.85 390.047 409.02 390.878 409.02 391.867V399.5H406.684V392.148C406.684 391.279 406.457 390.599 406.004 390.109C405.551 389.615 404.928 389.367 404.137 389.367C403.595 389.367 403.113 389.484 402.691 389.719C402.275 389.953 401.944 390.297 401.699 390.75C401.46 391.198 401.34 391.74 401.34 392.375ZM417.754 387.5V389.375H411.199V387.5H417.754ZM412.957 384.625H415.293V395.977C415.293 396.43 415.361 396.771 415.496 397C415.632 397.224 415.806 397.378 416.02 397.461C416.238 397.539 416.475 397.578 416.73 397.578C416.918 397.578 417.082 397.565 417.223 397.539C417.363 397.513 417.473 397.492 417.551 397.477L417.973 399.406C417.837 399.458 417.645 399.51 417.395 399.563C417.145 399.62 416.832 399.651 416.457 399.656C415.842 399.667 415.27 399.557 414.738 399.328C414.207 399.099 413.777 398.745 413.449 398.266C413.121 397.786 412.957 397.185 412.957 396.461V384.625ZM420.338 399.5V387.5H422.596V389.406H422.721C422.939 388.76 423.325 388.253 423.877 387.883C424.434 387.508 425.064 387.32 425.768 387.32C425.913 387.32 426.085 387.326 426.283 387.336C426.486 387.346 426.645 387.359 426.76 387.375V389.609C426.666 389.583 426.499 389.555 426.26 389.523C426.02 389.487 425.781 389.469 425.541 389.469C424.989 389.469 424.497 389.586 424.064 389.82C423.637 390.049 423.299 390.37 423.049 390.781C422.799 391.187 422.674 391.651 422.674 392.172V399.5H420.338ZM433.406 399.742C432.281 399.742 431.299 399.484 430.461 398.969C429.622 398.453 428.971 397.732 428.508 396.805C428.044 395.878 427.812 394.794 427.812 393.555C427.812 392.31 428.044 391.221 428.508 390.289C428.971 389.357 429.622 388.633 430.461 388.117C431.299 387.602 432.281 387.344 433.406 387.344C434.531 387.344 435.513 387.602 436.352 388.117C437.19 388.633 437.841 389.357 438.305 390.289C438.768 391.221 439 392.31 439 393.555C439 394.794 438.768 395.878 438.305 396.805C437.841 397.732 437.19 398.453 436.352 398.969C435.513 399.484 434.531 399.742 433.406 399.742ZM433.414 397.781C434.143 397.781 434.747 397.589 435.227 397.203C435.706 396.818 436.06 396.305 436.289 395.664C436.523 395.023 436.641 394.318 436.641 393.547C436.641 392.781 436.523 392.078 436.289 391.437C436.06 390.792 435.706 390.273 435.227 389.883C434.747 389.492 434.143 389.297 433.414 389.297C432.68 389.297 432.07 389.492 431.586 389.883C431.107 390.273 430.75 390.792 430.516 391.437C430.286 392.078 430.172 392.781 430.172 393.547C430.172 394.318 430.286 395.023 430.516 395.664C430.75 396.305 431.107 396.818 431.586 397.203C432.07 397.589 432.68 397.781 433.414 397.781ZM443.943 383.5V399.5H441.607V383.5H443.943Z" fill="#81A1C1"/>
</g>
<g filter="url(#filter1_i_1316_2693)">
<rect x="494" y="368.5" width="205" height="46" rx="23" fill="#202227"/>
<path d="M528.738 387.703C528.655 386.964 528.311 386.391 527.707 385.984C527.103 385.573 526.342 385.367 525.426 385.367C524.77 385.367 524.202 385.471 523.723 385.68C523.243 385.883 522.871 386.164 522.605 386.523C522.345 386.878 522.215 387.281 522.215 387.734C522.215 388.115 522.303 388.443 522.48 388.719C522.663 388.995 522.9 389.227 523.191 389.414C523.488 389.596 523.806 389.75 524.145 389.875C524.483 389.995 524.809 390.094 525.121 390.172L526.684 390.578C527.194 390.703 527.717 390.872 528.254 391.086C528.79 391.299 529.288 391.581 529.746 391.93C530.204 392.279 530.574 392.711 530.855 393.227C531.142 393.742 531.285 394.359 531.285 395.078C531.285 395.984 531.051 396.789 530.582 397.492C530.118 398.195 529.444 398.75 528.559 399.156C527.678 399.563 526.613 399.766 525.363 399.766C524.165 399.766 523.129 399.576 522.254 399.195C521.379 398.815 520.694 398.276 520.199 397.578C519.704 396.875 519.431 396.042 519.379 395.078H521.801C521.848 395.656 522.035 396.138 522.363 396.523C522.697 396.904 523.121 397.187 523.637 397.375C524.158 397.557 524.728 397.648 525.348 397.648C526.03 397.648 526.637 397.542 527.168 397.328C527.704 397.109 528.126 396.807 528.434 396.422C528.741 396.031 528.895 395.576 528.895 395.055C528.895 394.581 528.759 394.193 528.488 393.891C528.223 393.589 527.861 393.339 527.402 393.141C526.949 392.943 526.436 392.768 525.863 392.617L523.973 392.102C522.691 391.753 521.676 391.24 520.926 390.562C520.181 389.885 519.809 388.99 519.809 387.875C519.809 386.953 520.059 386.148 520.559 385.461C521.059 384.773 521.736 384.24 522.59 383.859C523.444 383.474 524.408 383.281 525.48 383.281C526.564 383.281 527.52 383.471 528.348 383.852C529.181 384.232 529.837 384.755 530.316 385.422C530.796 386.083 531.046 386.844 531.066 387.703H528.738ZM539.584 387.5V389.375H533.029V387.5H539.584ZM534.787 384.625H537.123V395.977C537.123 396.43 537.191 396.771 537.326 397C537.462 397.224 537.636 397.378 537.85 397.461C538.068 397.539 538.305 397.578 538.561 397.578C538.748 397.578 538.912 397.565 539.053 397.539C539.193 397.513 539.303 397.492 539.381 397.477L539.803 399.406C539.667 399.458 539.475 399.51 539.225 399.563C538.975 399.62 538.662 399.651 538.287 399.656C537.673 399.667 537.1 399.557 536.568 399.328C536.037 399.099 535.607 398.745 535.279 398.266C534.951 397.786 534.787 397.185 534.787 396.461V384.625ZM545.66 399.766C544.9 399.766 544.212 399.625 543.598 399.344C542.983 399.057 542.496 398.643 542.137 398.102C541.783 397.56 541.605 396.896 541.605 396.109C541.605 395.432 541.736 394.875 541.996 394.437C542.257 394 542.608 393.654 543.051 393.398C543.493 393.143 543.988 392.951 544.535 392.82C545.082 392.69 545.639 392.591 546.207 392.523C546.926 392.44 547.509 392.372 547.957 392.32C548.405 392.263 548.73 392.172 548.934 392.047C549.137 391.922 549.238 391.719 549.238 391.437V391.383C549.238 390.701 549.046 390.172 548.66 389.797C548.28 389.422 547.712 389.234 546.957 389.234C546.171 389.234 545.551 389.409 545.098 389.758C544.65 390.102 544.34 390.484 544.168 390.906L541.973 390.406C542.233 389.677 542.613 389.089 543.113 388.641C543.618 388.187 544.199 387.859 544.855 387.656C545.512 387.448 546.202 387.344 546.926 387.344C547.405 387.344 547.913 387.401 548.449 387.516C548.991 387.625 549.496 387.828 549.965 388.125C550.439 388.422 550.827 388.846 551.129 389.398C551.431 389.945 551.582 390.656 551.582 391.531V399.5H549.301V397.859H549.207C549.056 398.161 548.829 398.458 548.527 398.75C548.225 399.042 547.837 399.284 547.363 399.477C546.889 399.669 546.322 399.766 545.66 399.766ZM546.168 397.891C546.814 397.891 547.366 397.763 547.824 397.508C548.288 397.253 548.639 396.919 548.879 396.508C549.124 396.091 549.246 395.646 549.246 395.172V393.625C549.163 393.708 549.001 393.786 548.762 393.859C548.527 393.927 548.259 393.987 547.957 394.039C547.655 394.086 547.361 394.13 547.074 394.172C546.788 394.208 546.548 394.24 546.355 394.266C545.902 394.323 545.488 394.419 545.113 394.555C544.743 394.69 544.447 394.885 544.223 395.141C544.004 395.391 543.895 395.724 543.895 396.141C543.895 396.719 544.108 397.156 544.535 397.453C544.962 397.745 545.507 397.891 546.168 397.891ZM557.029 383.5V399.5H554.693V383.5H557.029ZM565.344 399.742C564.161 399.742 563.143 399.49 562.289 398.984C561.44 398.474 560.784 397.758 560.32 396.836C559.862 395.909 559.633 394.823 559.633 393.578C559.633 392.349 559.862 391.266 560.32 390.328C560.784 389.391 561.43 388.659 562.258 388.133C563.091 387.607 564.065 387.344 565.18 387.344C565.857 387.344 566.513 387.456 567.148 387.68C567.784 387.904 568.354 388.255 568.859 388.734C569.365 389.214 569.763 389.836 570.055 390.602C570.346 391.362 570.492 392.286 570.492 393.375V394.203H560.953V392.453H568.203C568.203 391.839 568.078 391.294 567.828 390.82C567.578 390.341 567.227 389.964 566.773 389.687C566.326 389.411 565.799 389.273 565.195 389.273C564.539 389.273 563.966 389.435 563.477 389.758C562.992 390.076 562.617 390.492 562.352 391.008C562.091 391.518 561.961 392.073 561.961 392.672V394.039C561.961 394.841 562.102 395.523 562.383 396.086C562.669 396.648 563.068 397.078 563.578 397.375C564.089 397.667 564.685 397.812 565.367 397.812C565.81 397.812 566.214 397.75 566.578 397.625C566.943 397.495 567.258 397.302 567.523 397.047C567.789 396.792 567.992 396.477 568.133 396.102L570.344 396.5C570.167 397.151 569.849 397.721 569.391 398.211C568.938 398.695 568.367 399.073 567.68 399.344C566.997 399.609 566.219 399.742 565.344 399.742ZM578.906 399.5V387.5H581.164V389.406H581.289C581.508 388.76 581.893 388.253 582.445 387.883C583.003 387.508 583.633 387.32 584.336 387.32C584.482 387.32 584.654 387.326 584.852 387.336C585.055 387.346 585.214 387.359 585.328 387.375V389.609C585.234 389.583 585.068 389.555 584.828 389.523C584.589 389.487 584.349 389.469 584.109 389.469C583.557 389.469 583.065 389.586 582.633 389.82C582.206 390.049 581.867 390.37 581.617 390.781C581.367 391.187 581.242 391.651 581.242 392.172V399.5H578.906ZM592.092 399.742C590.91 399.742 589.891 399.49 589.037 398.984C588.188 398.474 587.532 397.758 587.068 396.836C586.61 395.909 586.381 394.823 586.381 393.578C586.381 392.349 586.61 391.266 587.068 390.328C587.532 389.391 588.178 388.659 589.006 388.133C589.839 387.607 590.813 387.344 591.928 387.344C592.605 387.344 593.261 387.456 593.896 387.68C594.532 387.904 595.102 388.255 595.607 388.734C596.113 389.214 596.511 389.836 596.803 390.602C597.094 391.362 597.24 392.286 597.24 393.375V394.203H587.701V392.453H594.951C594.951 391.839 594.826 391.294 594.576 390.82C594.326 390.341 593.975 389.964 593.521 389.687C593.074 389.411 592.548 389.273 591.943 389.273C591.287 389.273 590.714 389.435 590.225 389.758C589.74 390.076 589.365 390.492 589.1 391.008C588.839 391.518 588.709 392.073 588.709 392.672V394.039C588.709 394.841 588.85 395.523 589.131 396.086C589.417 396.648 589.816 397.078 590.326 397.375C590.837 397.667 591.433 397.812 592.115 397.812C592.558 397.812 592.962 397.75 593.326 397.625C593.691 397.495 594.006 397.302 594.271 397.047C594.537 396.792 594.74 396.477 594.881 396.102L597.092 396.5C596.915 397.151 596.597 397.721 596.139 398.211C595.686 398.695 595.115 399.073 594.428 399.344C593.745 399.609 592.967 399.742 592.092 399.742ZM608.824 390.43L606.707 390.805C606.618 390.534 606.478 390.276 606.285 390.031C606.098 389.786 605.842 389.586 605.52 389.43C605.197 389.273 604.793 389.195 604.309 389.195C603.647 389.195 603.095 389.344 602.652 389.641C602.21 389.932 601.988 390.31 601.988 390.773C601.988 391.174 602.137 391.497 602.434 391.742C602.73 391.987 603.21 392.187 603.871 392.344L605.777 392.781C606.882 393.036 607.704 393.43 608.246 393.961C608.788 394.492 609.059 395.182 609.059 396.031C609.059 396.75 608.85 397.391 608.434 397.953C608.022 398.51 607.447 398.948 606.707 399.266C605.973 399.583 605.121 399.742 604.152 399.742C602.809 399.742 601.712 399.456 600.863 398.883C600.014 398.305 599.493 397.484 599.301 396.422L601.559 396.078C601.699 396.667 601.988 397.112 602.426 397.414C602.863 397.711 603.434 397.859 604.137 397.859C604.902 397.859 605.514 397.701 605.973 397.383C606.431 397.06 606.66 396.667 606.66 396.203C606.66 395.828 606.52 395.513 606.238 395.258C605.962 395.003 605.538 394.81 604.965 394.68L602.934 394.234C601.814 393.979 600.986 393.573 600.449 393.016C599.918 392.458 599.652 391.753 599.652 390.898C599.652 390.19 599.85 389.57 600.246 389.039C600.642 388.508 601.189 388.094 601.887 387.797C602.585 387.495 603.384 387.344 604.285 387.344C605.582 387.344 606.603 387.625 607.348 388.187C608.092 388.745 608.585 389.492 608.824 390.43ZM611.627 404V387.5H613.908V389.445H614.104C614.239 389.195 614.434 388.906 614.689 388.578C614.945 388.25 615.299 387.964 615.752 387.719C616.205 387.469 616.804 387.344 617.549 387.344C618.518 387.344 619.382 387.589 620.143 388.078C620.903 388.568 621.499 389.273 621.932 390.195C622.369 391.117 622.588 392.227 622.588 393.523C622.588 394.82 622.372 395.932 621.939 396.859C621.507 397.781 620.913 398.492 620.158 398.992C619.403 399.487 618.541 399.734 617.572 399.734C616.843 399.734 616.247 399.612 615.783 399.367C615.325 399.122 614.965 398.836 614.705 398.508C614.445 398.18 614.244 397.888 614.104 397.633H613.963V404H611.627ZM613.916 393.5C613.916 394.344 614.038 395.083 614.283 395.719C614.528 396.354 614.882 396.852 615.346 397.211C615.809 397.565 616.377 397.742 617.049 397.742C617.747 397.742 618.33 397.557 618.799 397.187C619.268 396.812 619.622 396.305 619.861 395.664C620.106 395.023 620.229 394.302 620.229 393.5C620.229 392.708 620.109 391.997 619.869 391.367C619.635 390.737 619.281 390.24 618.807 389.875C618.338 389.51 617.752 389.328 617.049 389.328C616.372 389.328 615.799 389.503 615.33 389.852C614.867 390.201 614.515 390.687 614.275 391.312C614.036 391.937 613.916 392.667 613.916 393.5ZM630.26 399.742C629.135 399.742 628.153 399.484 627.314 398.969C626.476 398.453 625.825 397.732 625.361 396.805C624.898 395.878 624.666 394.794 624.666 393.555C624.666 392.31 624.898 391.221 625.361 390.289C625.825 389.357 626.476 388.633 627.314 388.117C628.153 387.602 629.135 387.344 630.26 387.344C631.385 387.344 632.367 387.602 633.205 388.117C634.044 388.633 634.695 389.357 635.158 390.289C635.622 391.221 635.854 392.31 635.854 393.555C635.854 394.794 635.622 395.878 635.158 396.805C634.695 397.732 634.044 398.453 633.205 398.969C632.367 399.484 631.385 399.742 630.26 399.742ZM630.268 397.781C630.997 397.781 631.601 397.589 632.08 397.203C632.559 396.818 632.913 396.305 633.143 395.664C633.377 395.023 633.494 394.318 633.494 393.547C633.494 392.781 633.377 392.078 633.143 391.437C632.913 390.792 632.559 390.273 632.08 389.883C631.601 389.492 630.997 389.297 630.268 389.297C629.533 389.297 628.924 389.492 628.439 389.883C627.96 390.273 627.604 390.792 627.369 391.437C627.14 392.078 627.025 392.781 627.025 393.547C627.025 394.318 627.14 395.023 627.369 395.664C627.604 396.305 627.96 396.818 628.439 397.203C628.924 397.589 629.533 397.781 630.268 397.781ZM640.797 392.375V399.5H638.461V387.5H640.703V389.453H640.852C641.128 388.818 641.56 388.307 642.148 387.922C642.742 387.536 643.49 387.344 644.391 387.344C645.208 387.344 645.924 387.516 646.539 387.859C647.154 388.198 647.63 388.703 647.969 389.375C648.307 390.047 648.477 390.878 648.477 391.867V399.5H646.141V392.148C646.141 391.279 645.914 390.599 645.461 390.109C645.008 389.615 644.385 389.367 643.594 389.367C643.052 389.367 642.57 389.484 642.148 389.719C641.732 389.953 641.401 390.297 641.156 390.75C640.917 391.198 640.797 391.74 640.797 392.375ZM660.602 390.43L658.484 390.805C658.396 390.534 658.255 390.276 658.063 390.031C657.875 389.786 657.62 389.586 657.297 389.43C656.974 389.273 656.57 389.195 656.086 389.195C655.424 389.195 654.872 389.344 654.43 389.641C653.987 389.932 653.766 390.31 653.766 390.773C653.766 391.174 653.914 391.497 654.211 391.742C654.508 391.987 654.987 392.187 655.648 392.344L657.555 392.781C658.659 393.036 659.482 393.43 660.023 393.961C660.565 394.492 660.836 395.182 660.836 396.031C660.836 396.75 660.628 397.391 660.211 397.953C659.799 398.51 659.224 398.948 658.484 399.266C657.75 399.583 656.898 399.742 655.93 399.742C654.586 399.742 653.49 399.456 652.641 398.883C651.792 398.305 651.271 397.484 651.078 396.422L653.336 396.078C653.477 396.667 653.766 397.112 654.203 397.414C654.641 397.711 655.211 397.859 655.914 397.859C656.68 397.859 657.292 397.701 657.75 397.383C658.208 397.06 658.437 396.667 658.437 396.203C658.437 395.828 658.297 395.513 658.016 395.258C657.74 395.003 657.315 394.81 656.742 394.68L654.711 394.234C653.591 393.979 652.763 393.573 652.227 393.016C651.695 392.458 651.43 391.753 651.43 390.898C651.43 390.19 651.628 389.57 652.023 389.039C652.419 388.508 652.966 388.094 653.664 387.797C654.362 387.495 655.161 387.344 656.063 387.344C657.359 387.344 658.38 387.625 659.125 388.187C659.87 388.745 660.362 389.492 660.602 390.43ZM668.576 399.742C667.394 399.742 666.376 399.49 665.521 398.984C664.673 398.474 664.016 397.758 663.553 396.836C663.094 395.909 662.865 394.823 662.865 393.578C662.865 392.349 663.094 391.266 663.553 390.328C664.016 389.391 664.662 388.659 665.49 388.133C666.324 387.607 667.298 387.344 668.412 387.344C669.089 387.344 669.745 387.456 670.381 387.68C671.016 387.904 671.587 388.255 672.092 388.734C672.597 389.214 672.995 389.836 673.287 390.602C673.579 391.362 673.725 392.286 673.725 393.375V394.203H664.186V392.453H671.436C671.436 391.839 671.311 391.294 671.061 390.82C670.811 390.341 670.459 389.964 670.006 389.687C669.558 389.411 669.032 389.273 668.428 389.273C667.771 389.273 667.199 389.435 666.709 389.758C666.225 390.076 665.85 390.492 665.584 391.008C665.324 391.518 665.193 392.073 665.193 392.672V394.039C665.193 394.841 665.334 395.523 665.615 396.086C665.902 396.648 666.3 397.078 666.811 397.375C667.321 397.667 667.917 397.812 668.6 397.812C669.042 397.812 669.446 397.75 669.811 397.625C670.175 397.495 670.49 397.302 670.756 397.047C671.021 396.792 671.225 396.477 671.365 396.102L673.576 396.5C673.399 397.151 673.081 397.721 672.623 398.211C672.17 398.695 671.6 399.073 670.912 399.344C670.23 399.609 669.451 399.742 668.576 399.742Z" fill="#81A1C1"/>
</g>
<g filter="url(#filter2_i_1316_2693)">
<rect x="723" y="368.5" width="141" height="46" rx="23" fill="#202227"/>
<path d="M748.675 399.5V387.5H750.917V389.453H751.065C751.315 388.792 751.724 388.276 752.292 387.906C752.86 387.531 753.539 387.344 754.331 387.344C755.133 387.344 755.805 387.531 756.347 387.906C756.894 388.281 757.297 388.797 757.558 389.453H757.683C757.969 388.812 758.425 388.302 759.05 387.922C759.675 387.536 760.42 387.344 761.284 387.344C762.373 387.344 763.261 387.685 763.948 388.367C764.641 389.049 764.987 390.078 764.987 391.453V399.5H762.651V391.672C762.651 390.859 762.43 390.271 761.987 389.906C761.545 389.542 761.016 389.359 760.401 389.359C759.641 389.359 759.05 389.594 758.628 390.062C758.206 390.526 757.995 391.122 757.995 391.852V399.5H755.667V391.523C755.667 390.872 755.464 390.349 755.058 389.953C754.651 389.557 754.123 389.359 753.472 389.359C753.029 389.359 752.62 389.477 752.245 389.711C751.875 389.94 751.576 390.26 751.347 390.672C751.123 391.083 751.011 391.56 751.011 392.102V399.5H748.675ZM771.61 399.766C770.85 399.766 770.162 399.625 769.548 399.344C768.933 399.057 768.446 398.643 768.087 398.102C767.733 397.56 767.556 396.896 767.556 396.109C767.556 395.432 767.686 394.875 767.946 394.437C768.207 394 768.558 393.654 769.001 393.398C769.444 393.143 769.938 392.951 770.485 392.82C771.032 392.69 771.59 392.591 772.157 392.523C772.876 392.44 773.459 392.372 773.907 392.32C774.355 392.263 774.681 392.172 774.884 392.047C775.087 391.922 775.188 391.719 775.188 391.437V391.383C775.188 390.701 774.996 390.172 774.61 389.797C774.23 389.422 773.662 389.234 772.907 389.234C772.121 389.234 771.501 389.409 771.048 389.758C770.6 390.102 770.29 390.484 770.118 390.906L767.923 390.406C768.183 389.677 768.563 389.089 769.063 388.641C769.569 388.187 770.149 387.859 770.806 387.656C771.462 387.448 772.152 387.344 772.876 387.344C773.355 387.344 773.863 387.401 774.399 387.516C774.941 387.625 775.446 387.828 775.915 388.125C776.389 388.422 776.777 388.846 777.079 389.398C777.381 389.945 777.532 390.656 777.532 391.531V399.5H775.251V397.859H775.157C775.006 398.161 774.78 398.458 774.478 398.75C774.175 399.042 773.787 399.284 773.313 399.477C772.84 399.669 772.272 399.766 771.61 399.766ZM772.118 397.891C772.764 397.891 773.316 397.763 773.774 397.508C774.238 397.253 774.59 396.919 774.829 396.508C775.074 396.091 775.196 395.646 775.196 395.172V393.625C775.113 393.708 774.951 393.786 774.712 393.859C774.478 393.927 774.209 393.987 773.907 394.039C773.605 394.086 773.311 394.13 773.024 394.172C772.738 394.208 772.498 394.24 772.306 394.266C771.853 394.323 771.438 394.419 771.063 394.555C770.694 394.69 770.397 394.885 770.173 395.141C769.954 395.391 769.845 395.724 769.845 396.141C769.845 396.719 770.058 397.156 770.485 397.453C770.912 397.745 771.457 397.891 772.118 397.891ZM782.487 387.5L785.136 392.172L787.808 387.5H790.362L786.62 393.5L790.394 399.5H787.839L785.136 395.016L782.44 399.5H779.878L783.612 393.5L779.925 387.5H782.487ZM799.337 391.727V393.75H792.243V391.727H799.337ZM805.942 399.766C805.182 399.766 804.494 399.625 803.88 399.344C803.265 399.057 802.778 398.643 802.419 398.102C802.065 397.56 801.888 396.896 801.888 396.109C801.888 395.432 802.018 394.875 802.278 394.437C802.539 394 802.89 393.654 803.333 393.398C803.776 393.143 804.271 392.951 804.817 392.82C805.364 392.69 805.922 392.591 806.489 392.523C807.208 392.44 807.791 392.372 808.239 392.32C808.687 392.263 809.013 392.172 809.216 392.047C809.419 391.922 809.521 391.719 809.521 391.437V391.383C809.521 390.701 809.328 390.172 808.942 389.797C808.562 389.422 807.994 389.234 807.239 389.234C806.453 389.234 805.833 389.409 805.38 389.758C804.932 390.102 804.622 390.484 804.45 390.906L802.255 390.406C802.515 389.677 802.896 389.089 803.396 388.641C803.901 388.187 804.481 387.859 805.138 387.656C805.794 387.448 806.484 387.344 807.208 387.344C807.687 387.344 808.195 387.401 808.731 387.516C809.273 387.625 809.778 387.828 810.247 388.125C810.721 388.422 811.109 388.846 811.411 389.398C811.713 389.945 811.864 390.656 811.864 391.531V399.5H809.583V397.859H809.489C809.338 398.161 809.112 398.458 808.81 398.75C808.507 399.042 808.119 399.284 807.646 399.477C807.172 399.669 806.604 399.766 805.942 399.766ZM806.45 397.891C807.096 397.891 807.648 397.763 808.106 397.508C808.57 397.253 808.922 396.919 809.161 396.508C809.406 396.091 809.528 395.646 809.528 395.172V393.625C809.445 393.708 809.284 393.786 809.044 393.859C808.81 393.927 808.541 393.987 808.239 394.039C807.937 394.086 807.643 394.13 807.356 394.172C807.07 394.208 806.83 394.24 806.638 394.266C806.185 394.323 805.771 394.419 805.396 394.555C805.026 394.69 804.729 394.885 804.505 395.141C804.286 395.391 804.177 395.724 804.177 396.141C804.177 396.719 804.39 397.156 804.817 397.453C805.244 397.745 805.789 397.891 806.45 397.891ZM820.007 404.25C819.054 404.25 818.233 404.125 817.546 403.875C816.864 403.625 816.306 403.294 815.874 402.883C815.442 402.471 815.119 402.021 814.905 401.531L816.913 400.703C817.054 400.932 817.241 401.174 817.476 401.43C817.715 401.69 818.038 401.911 818.444 402.094C818.856 402.276 819.384 402.367 820.03 402.367C820.916 402.367 821.647 402.151 822.226 401.719C822.804 401.292 823.093 400.609 823.093 399.672V397.312H822.944C822.804 397.568 822.601 397.852 822.335 398.164C822.075 398.477 821.715 398.747 821.257 398.977C820.799 399.206 820.202 399.32 819.468 399.32C818.52 399.32 817.666 399.099 816.905 398.656C816.15 398.208 815.551 397.549 815.108 396.68C814.671 395.805 814.452 394.729 814.452 393.453C814.452 392.177 814.668 391.083 815.101 390.172C815.538 389.26 816.137 388.562 816.897 388.078C817.658 387.589 818.52 387.344 819.483 387.344C820.228 387.344 820.83 387.469 821.288 387.719C821.746 387.964 822.103 388.25 822.358 388.578C822.619 388.906 822.819 389.195 822.96 389.445H823.132V387.5H825.421V399.766C825.421 400.797 825.181 401.643 824.702 402.305C824.223 402.966 823.575 403.456 822.757 403.773C821.944 404.091 821.028 404.25 820.007 404.25ZM819.983 397.383C820.655 397.383 821.223 397.227 821.687 396.914C822.155 396.596 822.509 396.143 822.749 395.555C822.994 394.961 823.116 394.25 823.116 393.422C823.116 392.615 822.996 391.904 822.757 391.289C822.517 390.674 822.166 390.195 821.702 389.852C821.239 389.503 820.666 389.328 819.983 389.328C819.28 389.328 818.694 389.51 818.226 389.875C817.757 390.234 817.403 390.724 817.163 391.344C816.929 391.964 816.812 392.656 816.812 393.422C816.812 394.208 816.931 394.898 817.171 395.492C817.41 396.086 817.765 396.549 818.233 396.883C818.707 397.216 819.291 397.383 819.983 397.383ZM833.726 399.742C832.543 399.742 831.525 399.49 830.671 398.984C829.822 398.474 829.166 397.758 828.702 396.836C828.244 395.909 828.015 394.823 828.015 393.578C828.015 392.349 828.244 391.266 828.702 390.328C829.166 389.391 829.812 388.659 830.64 388.133C831.473 387.607 832.447 387.344 833.562 387.344C834.239 387.344 834.895 387.456 835.53 387.68C836.166 387.904 836.736 388.255 837.241 388.734C837.746 389.214 838.145 389.836 838.437 390.602C838.728 391.362 838.874 392.286 838.874 393.375V394.203H829.335V392.453H836.585C836.585 391.839 836.46 391.294 836.21 390.82C835.96 390.341 835.608 389.964 835.155 389.687C834.707 389.411 834.181 389.273 833.577 389.273C832.921 389.273 832.348 389.435 831.858 389.758C831.374 390.076 830.999 390.492 830.733 391.008C830.473 391.518 830.343 392.073 830.343 392.672V394.039C830.343 394.841 830.483 395.523 830.765 396.086C831.051 396.648 831.45 397.078 831.96 397.375C832.47 397.667 833.067 397.812 833.749 397.812C834.192 397.812 834.595 397.75 834.96 397.625C835.325 397.495 835.64 397.302 835.905 397.047C836.171 396.792 836.374 396.477 836.515 396.102L838.726 396.5C838.549 397.151 838.231 397.721 837.772 398.211C837.319 398.695 836.749 399.073 836.062 399.344C835.379 399.609 834.601 399.742 833.726 399.742Z" fill="#81A1C1"/>
</g>
<g filter="url(#filter3_i_1316_2693)">
<rect x="413.5" y="443.5" width="303" height="46" rx="23" fill="#202227"/>
<path d="M439.57 474.5V458.5H445.43C446.565 458.5 447.505 458.687 448.25 459.062C448.995 459.432 449.552 459.935 449.922 460.57C450.292 461.201 450.477 461.911 450.477 462.703C450.477 463.37 450.354 463.932 450.109 464.391C449.865 464.844 449.536 465.208 449.125 465.484C448.719 465.755 448.271 465.953 447.781 466.078V466.234C448.313 466.26 448.831 466.432 449.336 466.75C449.846 467.062 450.268 467.508 450.602 468.086C450.935 468.664 451.102 469.367 451.102 470.195C451.102 471.013 450.909 471.747 450.523 472.398C450.143 473.044 449.555 473.557 448.758 473.937C447.961 474.312 446.943 474.5 445.703 474.5H439.57ZM441.984 472.43H445.469C446.625 472.43 447.453 472.206 447.953 471.758C448.453 471.31 448.703 470.75 448.703 470.078C448.703 469.573 448.576 469.109 448.32 468.687C448.065 468.266 447.701 467.93 447.227 467.68C446.758 467.43 446.201 467.305 445.555 467.305H441.984V472.43ZM441.984 465.422H445.219C445.76 465.422 446.247 465.318 446.68 465.109C447.117 464.901 447.464 464.609 447.719 464.234C447.979 463.854 448.109 463.406 448.109 462.891C448.109 462.229 447.878 461.674 447.414 461.227C446.951 460.779 446.24 460.555 445.281 460.555H441.984V465.422ZM457.27 474.766C456.509 474.766 455.822 474.625 455.207 474.344C454.592 474.057 454.105 473.643 453.746 473.102C453.392 472.56 453.215 471.896 453.215 471.109C453.215 470.432 453.345 469.875 453.605 469.437C453.866 469 454.217 468.654 454.66 468.398C455.103 468.143 455.598 467.951 456.145 467.82C456.691 467.69 457.249 467.591 457.816 467.523C458.535 467.44 459.118 467.372 459.566 467.32C460.014 467.263 460.34 467.172 460.543 467.047C460.746 466.922 460.848 466.719 460.848 466.437V466.383C460.848 465.701 460.655 465.172 460.27 464.797C459.889 464.422 459.322 464.234 458.566 464.234C457.78 464.234 457.16 464.409 456.707 464.758C456.259 465.102 455.949 465.484 455.777 465.906L453.582 465.406C453.842 464.677 454.223 464.089 454.723 463.641C455.228 463.187 455.809 462.859 456.465 462.656C457.121 462.448 457.811 462.344 458.535 462.344C459.014 462.344 459.522 462.401 460.059 462.516C460.6 462.625 461.105 462.828 461.574 463.125C462.048 463.422 462.436 463.846 462.738 464.398C463.04 464.945 463.191 465.656 463.191 466.531V474.5H460.91V472.859H460.816C460.665 473.161 460.439 473.458 460.137 473.75C459.835 474.042 459.447 474.284 458.973 474.477C458.499 474.669 457.931 474.766 457.27 474.766ZM457.777 472.891C458.423 472.891 458.975 472.763 459.434 472.508C459.897 472.253 460.249 471.919 460.488 471.508C460.733 471.091 460.855 470.646 460.855 470.172V468.625C460.772 468.708 460.611 468.786 460.371 468.859C460.137 468.927 459.868 468.987 459.566 469.039C459.264 469.086 458.97 469.13 458.684 469.172C458.397 469.208 458.158 469.24 457.965 469.266C457.512 469.323 457.098 469.419 456.723 469.555C456.353 469.69 456.056 469.885 455.832 470.141C455.613 470.391 455.504 470.724 455.504 471.141C455.504 471.719 455.717 472.156 456.145 472.453C456.572 472.745 457.116 472.891 457.777 472.891ZM471.357 474.742C470.196 474.742 469.196 474.479 468.357 473.953C467.524 473.422 466.883 472.69 466.436 471.758C465.988 470.826 465.764 469.758 465.764 468.555C465.764 467.336 465.993 466.26 466.451 465.328C466.91 464.391 467.555 463.659 468.389 463.133C469.222 462.607 470.204 462.344 471.334 462.344C472.245 462.344 473.058 462.513 473.771 462.852C474.485 463.185 475.061 463.654 475.498 464.258C475.941 464.862 476.204 465.568 476.287 466.375H474.014C473.889 465.812 473.602 465.328 473.154 464.922C472.712 464.516 472.118 464.312 471.373 464.312C470.722 464.312 470.152 464.484 469.662 464.828C469.178 465.167 468.8 465.651 468.529 466.281C468.258 466.906 468.123 467.646 468.123 468.5C468.123 469.375 468.256 470.13 468.521 470.766C468.787 471.401 469.162 471.893 469.646 472.242C470.136 472.591 470.712 472.766 471.373 472.766C471.816 472.766 472.217 472.685 472.576 472.523C472.941 472.357 473.245 472.12 473.49 471.812C473.74 471.505 473.915 471.135 474.014 470.703H476.287C476.204 471.479 475.951 472.172 475.529 472.781C475.107 473.391 474.542 473.87 473.834 474.219C473.131 474.568 472.305 474.742 471.357 474.742ZM480.934 470.43L480.918 467.578H481.324L486.105 462.5H488.902L483.449 468.281H483.082L480.934 470.43ZM478.785 474.5V458.5H481.121V474.5H478.785ZM486.363 474.5L482.066 468.797L483.676 467.164L489.23 474.5H486.363ZM495.568 479.25C494.615 479.25 493.795 479.125 493.107 478.875C492.425 478.625 491.868 478.294 491.436 477.883C491.003 477.471 490.68 477.021 490.467 476.531L492.475 475.703C492.615 475.932 492.803 476.174 493.037 476.43C493.277 476.69 493.6 476.911 494.006 477.094C494.417 477.276 494.946 477.367 495.592 477.367C496.477 477.367 497.209 477.151 497.787 476.719C498.365 476.292 498.654 475.609 498.654 474.672V472.312H498.506C498.365 472.568 498.162 472.852 497.896 473.164C497.636 473.477 497.277 473.747 496.818 473.977C496.36 474.206 495.764 474.32 495.029 474.32C494.081 474.32 493.227 474.099 492.467 473.656C491.712 473.208 491.113 472.549 490.67 471.68C490.232 470.805 490.014 469.729 490.014 468.453C490.014 467.177 490.23 466.083 490.662 465.172C491.1 464.26 491.699 463.562 492.459 463.078C493.219 462.589 494.081 462.344 495.045 462.344C495.79 462.344 496.391 462.469 496.85 462.719C497.308 462.964 497.665 463.25 497.92 463.578C498.18 463.906 498.381 464.195 498.521 464.445H498.693V462.5H500.982V474.766C500.982 475.797 500.743 476.643 500.264 477.305C499.785 477.966 499.136 478.456 498.318 478.773C497.506 479.091 496.589 479.25 495.568 479.25ZM495.545 472.383C496.217 472.383 496.785 472.227 497.248 471.914C497.717 471.596 498.071 471.143 498.311 470.555C498.555 469.961 498.678 469.25 498.678 468.422C498.678 467.615 498.558 466.904 498.318 466.289C498.079 465.674 497.727 465.195 497.264 464.852C496.8 464.503 496.227 464.328 495.545 464.328C494.842 464.328 494.256 464.51 493.787 464.875C493.318 465.234 492.964 465.724 492.725 466.344C492.49 466.964 492.373 467.656 492.373 468.422C492.373 469.208 492.493 469.898 492.732 470.492C492.972 471.086 493.326 471.549 493.795 471.883C494.269 472.216 494.852 472.383 495.545 472.383ZM504.115 474.5V462.5H506.373V464.406H506.498C506.717 463.76 507.102 463.253 507.654 462.883C508.212 462.508 508.842 462.32 509.545 462.32C509.691 462.32 509.863 462.326 510.061 462.336C510.264 462.346 510.423 462.359 510.537 462.375V464.609C510.443 464.583 510.277 464.555 510.037 464.523C509.798 464.487 509.558 464.469 509.318 464.469C508.766 464.469 508.274 464.586 507.842 464.82C507.415 465.049 507.076 465.37 506.826 465.781C506.576 466.187 506.451 466.651 506.451 467.172V474.5H504.115ZM517.184 474.742C516.059 474.742 515.077 474.484 514.238 473.969C513.4 473.453 512.749 472.732 512.285 471.805C511.822 470.878 511.59 469.794 511.59 468.555C511.59 467.31 511.822 466.221 512.285 465.289C512.749 464.357 513.4 463.633 514.238 463.117C515.077 462.602 516.059 462.344 517.184 462.344C518.309 462.344 519.29 462.602 520.129 463.117C520.967 463.633 521.618 464.357 522.082 465.289C522.546 466.221 522.777 467.31 522.777 468.555C522.777 469.794 522.546 470.878 522.082 471.805C521.618 472.732 520.967 473.453 520.129 473.969C519.29 474.484 518.309 474.742 517.184 474.742ZM517.191 472.781C517.921 472.781 518.525 472.589 519.004 472.203C519.483 471.818 519.837 471.305 520.066 470.664C520.301 470.023 520.418 469.318 520.418 468.547C520.418 467.781 520.301 467.078 520.066 466.437C519.837 465.792 519.483 465.273 519.004 464.883C518.525 464.492 517.921 464.297 517.191 464.297C516.457 464.297 515.848 464.492 515.363 464.883C514.884 465.273 514.527 465.792 514.293 466.437C514.064 467.078 513.949 467.781 513.949 468.547C513.949 469.318 514.064 470.023 514.293 470.664C514.527 471.305 514.884 471.818 515.363 472.203C515.848 472.589 516.457 472.781 517.191 472.781ZM532.986 469.523V462.5H535.33V474.5H533.033V472.422H532.908C532.632 473.063 532.189 473.596 531.58 474.023C530.976 474.445 530.223 474.656 529.322 474.656C528.551 474.656 527.869 474.487 527.275 474.148C526.687 473.805 526.223 473.297 525.885 472.625C525.551 471.953 525.385 471.122 525.385 470.133V462.5H527.721V469.852C527.721 470.669 527.947 471.32 528.4 471.805C528.854 472.289 529.442 472.531 530.166 472.531C530.604 472.531 531.038 472.422 531.471 472.203C531.908 471.984 532.27 471.654 532.557 471.211C532.848 470.768 532.992 470.206 532.986 469.523ZM540.805 467.375V474.5H538.469V462.5H540.711V464.453H540.859C541.135 463.818 541.568 463.307 542.156 462.922C542.75 462.536 543.497 462.344 544.398 462.344C545.216 462.344 545.932 462.516 546.547 462.859C547.161 463.198 547.638 463.703 547.977 464.375C548.315 465.047 548.484 465.878 548.484 466.867V474.5H546.148V467.148C546.148 466.279 545.922 465.599 545.469 465.109C545.016 464.615 544.393 464.367 543.602 464.367C543.06 464.367 542.578 464.484 542.156 464.719C541.74 464.953 541.409 465.297 541.164 465.75C540.924 466.198 540.805 466.74 540.805 467.375ZM556.109 474.734C555.141 474.734 554.276 474.487 553.516 473.992C552.76 473.492 552.167 472.781 551.734 471.859C551.307 470.932 551.094 469.82 551.094 468.523C551.094 467.227 551.31 466.117 551.742 465.195C552.18 464.273 552.779 463.568 553.539 463.078C554.299 462.589 555.161 462.344 556.125 462.344C556.87 462.344 557.469 462.469 557.922 462.719C558.38 462.964 558.734 463.25 558.984 463.578C559.24 463.906 559.438 464.195 559.578 464.445H559.719V458.5H562.055V474.5H559.773V472.633H559.578C559.438 472.888 559.234 473.18 558.969 473.508C558.708 473.836 558.349 474.122 557.891 474.367C557.432 474.612 556.839 474.734 556.109 474.734ZM556.625 472.742C557.297 472.742 557.865 472.565 558.328 472.211C558.797 471.852 559.151 471.354 559.391 470.719C559.635 470.083 559.758 469.344 559.758 468.5C559.758 467.667 559.638 466.937 559.398 466.312C559.159 465.687 558.807 465.201 558.344 464.852C557.88 464.503 557.307 464.328 556.625 464.328C555.922 464.328 555.336 464.51 554.867 464.875C554.398 465.24 554.044 465.737 553.805 466.367C553.57 466.997 553.453 467.708 553.453 468.5C553.453 469.302 553.573 470.023 553.813 470.664C554.052 471.305 554.406 471.812 554.875 472.187C555.349 472.557 555.932 472.742 556.625 472.742ZM571.211 474.5V462.5H573.469V464.406H573.594C573.813 463.76 574.198 463.253 574.75 462.883C575.307 462.508 575.938 462.32 576.641 462.32C576.786 462.32 576.958 462.326 577.156 462.336C577.359 462.346 577.518 462.359 577.633 462.375V464.609C577.539 464.583 577.372 464.555 577.133 464.523C576.893 464.487 576.654 464.469 576.414 464.469C575.862 464.469 575.37 464.586 574.938 464.82C574.51 465.049 574.172 465.37 573.922 465.781C573.672 466.187 573.547 466.651 573.547 467.172V474.5H571.211ZM584.396 474.742C583.214 474.742 582.196 474.49 581.342 473.984C580.493 473.474 579.837 472.758 579.373 471.836C578.915 470.909 578.686 469.823 578.686 468.578C578.686 467.349 578.915 466.266 579.373 465.328C579.837 464.391 580.482 463.659 581.311 463.133C582.144 462.607 583.118 462.344 584.232 462.344C584.91 462.344 585.566 462.456 586.201 462.68C586.837 462.904 587.407 463.255 587.912 463.734C588.417 464.214 588.816 464.836 589.107 465.602C589.399 466.362 589.545 467.286 589.545 468.375V469.203H580.006V467.453H587.256C587.256 466.839 587.131 466.294 586.881 465.82C586.631 465.341 586.279 464.964 585.826 464.687C585.378 464.411 584.852 464.273 584.248 464.273C583.592 464.273 583.019 464.435 582.529 464.758C582.045 465.076 581.67 465.492 581.404 466.008C581.144 466.518 581.014 467.073 581.014 467.672V469.039C581.014 469.841 581.154 470.523 581.436 471.086C581.722 471.648 582.12 472.078 582.631 472.375C583.141 472.667 583.738 472.812 584.42 472.812C584.863 472.812 585.266 472.75 585.631 472.625C585.995 472.495 586.311 472.302 586.576 472.047C586.842 471.792 587.045 471.477 587.186 471.102L589.396 471.5C589.219 472.151 588.902 472.721 588.443 473.211C587.99 473.695 587.42 474.073 586.732 474.344C586.05 474.609 585.271 474.742 584.396 474.742ZM602.059 462.5L597.707 474.5H595.207L590.848 462.5H593.355L596.395 471.734H596.52L599.551 462.5H602.059ZM607.402 474.766C606.642 474.766 605.954 474.625 605.34 474.344C604.725 474.057 604.238 473.643 603.879 473.102C603.525 472.56 603.348 471.896 603.348 471.109C603.348 470.432 603.478 469.875 603.738 469.437C603.999 469 604.35 468.654 604.793 468.398C605.236 468.143 605.73 467.951 606.277 467.82C606.824 467.69 607.382 467.591 607.949 467.523C608.668 467.44 609.251 467.372 609.699 467.32C610.147 467.263 610.473 467.172 610.676 467.047C610.879 466.922 610.98 466.719 610.98 466.437V466.383C610.98 465.701 610.788 465.172 610.402 464.797C610.022 464.422 609.454 464.234 608.699 464.234C607.913 464.234 607.293 464.409 606.84 464.758C606.392 465.102 606.082 465.484 605.91 465.906L603.715 465.406C603.975 464.677 604.355 464.089 604.855 463.641C605.361 463.187 605.941 462.859 606.598 462.656C607.254 462.448 607.944 462.344 608.668 462.344C609.147 462.344 609.655 462.401 610.191 462.516C610.733 462.625 611.238 462.828 611.707 463.125C612.181 463.422 612.569 463.846 612.871 464.398C613.173 464.945 613.324 465.656 613.324 466.531V474.5H611.043V472.859H610.949C610.798 473.161 610.572 473.458 610.27 473.75C609.967 474.042 609.579 474.284 609.105 474.477C608.632 474.669 608.064 474.766 607.402 474.766ZM607.91 472.891C608.556 472.891 609.108 472.763 609.566 472.508C610.03 472.253 610.382 471.919 610.621 471.508C610.866 471.091 610.988 470.646 610.988 470.172V468.625C610.905 468.708 610.743 468.786 610.504 468.859C610.27 468.927 610.001 468.987 609.699 469.039C609.397 469.086 609.103 469.13 608.816 469.172C608.53 469.208 608.29 469.24 608.098 469.266C607.645 469.323 607.23 469.419 606.855 469.555C606.486 469.69 606.189 469.885 605.965 470.141C605.746 470.391 605.637 470.724 605.637 471.141C605.637 471.719 605.85 472.156 606.277 472.453C606.704 472.745 607.249 472.891 607.91 472.891ZM618.771 458.5V474.5H616.436V458.5H618.771ZM621.914 474.5V462.5H624.25V474.5H621.914ZM623.094 460.648C622.688 460.648 622.339 460.513 622.047 460.242C621.76 459.966 621.617 459.638 621.617 459.258C621.617 458.872 621.76 458.544 622.047 458.273C622.339 457.997 622.688 457.859 623.094 457.859C623.5 457.859 623.846 457.997 624.133 458.273C624.424 458.544 624.57 458.872 624.57 459.258C624.57 459.638 624.424 459.966 624.133 460.242C623.846 460.513 623.5 460.648 623.094 460.648ZM631.885 474.734C630.916 474.734 630.051 474.487 629.291 473.992C628.536 473.492 627.942 472.781 627.51 471.859C627.083 470.932 626.869 469.82 626.869 468.523C626.869 467.227 627.085 466.117 627.518 465.195C627.955 464.273 628.554 463.568 629.314 463.078C630.075 462.589 630.937 462.344 631.9 462.344C632.645 462.344 633.244 462.469 633.697 462.719C634.156 462.964 634.51 463.25 634.76 463.578C635.015 463.906 635.213 464.195 635.354 464.445H635.494V458.5H637.83V474.5H635.549V472.633H635.354C635.213 472.888 635.01 473.18 634.744 473.508C634.484 473.836 634.124 474.122 633.666 474.367C633.208 474.612 632.614 474.734 631.885 474.734ZM632.4 472.742C633.072 472.742 633.64 472.565 634.104 472.211C634.572 471.852 634.926 471.354 635.166 470.719C635.411 470.083 635.533 469.344 635.533 468.5C635.533 467.667 635.413 466.937 635.174 466.312C634.934 465.687 634.583 465.201 634.119 464.852C633.656 464.503 633.083 464.328 632.4 464.328C631.697 464.328 631.111 464.51 630.643 464.875C630.174 465.24 629.82 465.737 629.58 466.367C629.346 466.997 629.229 467.708 629.229 468.5C629.229 469.302 629.348 470.023 629.588 470.664C629.827 471.305 630.182 471.812 630.65 472.187C631.124 472.557 631.708 472.742 632.4 472.742ZM644.656 474.766C643.896 474.766 643.208 474.625 642.594 474.344C641.979 474.057 641.492 473.643 641.133 473.102C640.779 472.56 640.602 471.896 640.602 471.109C640.602 470.432 640.732 469.875 640.992 469.437C641.253 469 641.604 468.654 642.047 468.398C642.49 468.143 642.984 467.951 643.531 467.82C644.078 467.69 644.635 467.591 645.203 467.523C645.922 467.44 646.505 467.372 646.953 467.32C647.401 467.263 647.727 467.172 647.93 467.047C648.133 466.922 648.234 466.719 648.234 466.437V466.383C648.234 465.701 648.042 465.172 647.656 464.797C647.276 464.422 646.708 464.234 645.953 464.234C645.167 464.234 644.547 464.409 644.094 464.758C643.646 465.102 643.336 465.484 643.164 465.906L640.969 465.406C641.229 464.677 641.609 464.089 642.109 463.641C642.615 463.187 643.195 462.859 643.852 462.656C644.508 462.448 645.198 462.344 645.922 462.344C646.401 462.344 646.909 462.401 647.445 462.516C647.987 462.625 648.492 462.828 648.961 463.125C649.435 463.422 649.823 463.846 650.125 464.398C650.427 464.945 650.578 465.656 650.578 466.531V474.5H648.297V472.859H648.203C648.052 473.161 647.826 473.458 647.523 473.75C647.221 474.042 646.833 474.284 646.359 474.477C645.885 474.669 645.318 474.766 644.656 474.766ZM645.164 472.891C645.81 472.891 646.362 472.763 646.82 472.508C647.284 472.253 647.635 471.919 647.875 471.508C648.12 471.091 648.242 470.646 648.242 470.172V468.625C648.159 468.708 647.997 468.786 647.758 468.859C647.523 468.927 647.255 468.987 646.953 469.039C646.651 469.086 646.357 469.13 646.07 469.172C645.784 469.208 645.544 469.24 645.352 469.266C644.898 469.323 644.484 469.419 644.109 469.555C643.74 469.69 643.443 469.885 643.219 470.141C643 470.391 642.891 470.724 642.891 471.141C642.891 471.719 643.104 472.156 643.531 472.453C643.958 472.745 644.503 472.891 645.164 472.891ZM659.291 462.5V464.375H652.736V462.5H659.291ZM654.494 459.625H656.83V470.977C656.83 471.43 656.898 471.771 657.033 472C657.169 472.224 657.343 472.378 657.557 472.461C657.775 472.539 658.012 472.578 658.268 472.578C658.455 472.578 658.619 472.565 658.76 472.539C658.9 472.513 659.01 472.492 659.088 472.477L659.51 474.406C659.374 474.458 659.182 474.51 658.932 474.563C658.682 474.62 658.369 474.651 657.994 474.656C657.38 474.667 656.807 474.557 656.275 474.328C655.744 474.099 655.314 473.745 654.986 473.266C654.658 472.786 654.494 472.185 654.494 471.461V459.625ZM661.875 474.5V462.5H664.211V474.5H661.875ZM663.055 460.648C662.648 460.648 662.299 460.513 662.008 460.242C661.721 459.966 661.578 459.638 661.578 459.258C661.578 458.872 661.721 458.544 662.008 458.273C662.299 457.997 662.648 457.859 663.055 457.859C663.461 457.859 663.807 457.997 664.094 458.273C664.385 458.544 664.531 458.872 664.531 459.258C664.531 459.638 664.385 459.966 664.094 460.242C663.807 460.513 663.461 460.648 663.055 460.648ZM672.408 474.742C671.283 474.742 670.301 474.484 669.463 473.969C668.624 473.453 667.973 472.732 667.51 471.805C667.046 470.878 666.814 469.794 666.814 468.555C666.814 467.31 667.046 466.221 667.51 465.289C667.973 464.357 668.624 463.633 669.463 463.117C670.301 462.602 671.283 462.344 672.408 462.344C673.533 462.344 674.515 462.602 675.354 463.117C676.192 463.633 676.843 464.357 677.307 465.289C677.77 466.221 678.002 467.31 678.002 468.555C678.002 469.794 677.77 470.878 677.307 471.805C676.843 472.732 676.192 473.453 675.354 473.969C674.515 474.484 673.533 474.742 672.408 474.742ZM672.416 472.781C673.145 472.781 673.749 472.589 674.229 472.203C674.708 471.818 675.062 471.305 675.291 470.664C675.525 470.023 675.643 469.318 675.643 468.547C675.643 467.781 675.525 467.078 675.291 466.437C675.062 465.792 674.708 465.273 674.229 464.883C673.749 464.492 673.145 464.297 672.416 464.297C671.682 464.297 671.072 464.492 670.588 464.883C670.109 465.273 669.752 465.792 669.518 466.437C669.288 467.078 669.174 467.781 669.174 468.547C669.174 469.318 669.288 470.023 669.518 470.664C669.752 471.305 670.109 471.818 670.588 472.203C671.072 472.589 671.682 472.781 672.416 472.781ZM682.945 467.375V474.5H680.609V462.5H682.852V464.453H683C683.276 463.818 683.708 463.307 684.297 462.922C684.891 462.536 685.638 462.344 686.539 462.344C687.357 462.344 688.073 462.516 688.688 462.859C689.302 463.198 689.779 463.703 690.117 464.375C690.456 465.047 690.625 465.878 690.625 466.867V474.5H688.289V467.148C688.289 466.279 688.063 465.599 687.609 465.109C687.156 464.615 686.534 464.367 685.742 464.367C685.201 464.367 684.719 464.484 684.297 464.719C683.88 464.953 683.549 465.297 683.305 465.75C683.065 466.198 682.945 466.74 682.945 467.375Z" fill="#81A1C1"/>
</g>
<path d="M41.22 564V548.727H43.487V551.034H43.6461C43.9245 550.278 44.4283 549.665 45.1575 549.195C45.8867 548.724 46.7086 548.489 47.6234 548.489C47.7958 548.489 48.0112 548.492 48.2697 548.499C48.5282 548.505 48.7238 548.515 48.8564 548.528V550.915C48.7768 550.895 48.5945 550.865 48.3095 550.825C48.0311 550.779 47.7361 550.756 47.4245 550.756C46.6821 550.756 46.0192 550.911 45.4359 551.223C44.8592 551.528 44.4018 551.952 44.0637 552.496C43.7323 553.033 43.5666 553.646 43.5666 554.335V564H41.22ZM51.9561 564V543.636H54.3027V551.153H54.5016C54.6739 550.888 54.9126 550.55 55.2175 550.139C55.5291 549.722 55.9732 549.35 56.5499 549.026C57.1332 548.694 57.9221 548.528 58.9164 548.528C60.2024 548.528 61.3359 548.85 62.3169 549.493C63.298 550.136 64.0636 551.047 64.6138 552.227C65.164 553.407 65.4391 554.799 65.4391 556.403C65.4391 558.021 65.164 559.423 64.6138 560.609C64.0636 561.789 63.3013 562.704 62.3269 563.354C61.3525 563.997 60.2289 564.318 58.9561 564.318C57.9751 564.318 57.1896 564.156 56.5996 563.831C56.0096 563.5 55.5556 563.125 55.2374 562.707C54.9192 562.283 54.6739 561.932 54.5016 561.653H54.2232V564H51.9561ZM54.263 556.364C54.263 557.517 54.432 558.535 54.7701 559.416C55.1081 560.291 55.602 560.977 56.2516 561.474C56.9012 561.965 57.6967 562.21 58.638 562.21C59.619 562.21 60.4377 561.952 61.0939 561.435C61.7568 560.911 62.254 560.208 62.5854 559.327C62.9235 558.438 63.0925 557.451 63.0925 556.364C63.0925 555.29 62.9268 554.322 62.5953 553.46C62.2705 552.592 61.7767 551.906 61.1138 551.402C60.4576 550.892 59.6323 550.636 58.638 550.636C57.6834 550.636 56.8813 550.878 56.2317 551.362C55.5821 551.839 55.0916 552.509 54.7601 553.371C54.4287 554.226 54.263 555.223 54.263 556.364ZM69.0286 564V548.727H71.3752V564H69.0286ZM70.2218 546.182C69.7644 546.182 69.37 546.026 69.0385 545.714C68.7137 545.403 68.5513 545.028 68.5513 544.591C68.5513 544.153 68.7137 543.779 69.0385 543.467C69.37 543.156 69.7644 543 70.2218 543C70.6792 543 71.0703 543.156 71.3951 543.467C71.7265 543.779 71.8922 544.153 71.8922 544.591C71.8922 545.028 71.7265 545.403 71.3951 545.714C71.0703 546.026 70.6792 546.182 70.2218 546.182ZM77.8606 558.432L77.8208 555.528H78.2981L84.9799 548.727H87.8833L80.764 555.926H80.5652L77.8606 558.432ZM75.6731 564V543.636H78.0197V564H75.6731ZM85.3777 564L79.4118 556.443L81.0822 554.812L88.3606 564H85.3777ZM95.3979 564.358C94.4301 564.358 93.5518 564.176 92.763 563.811C91.9741 563.44 91.3477 562.906 90.8837 562.21C90.4197 561.508 90.1877 560.659 90.1877 559.665C90.1877 558.79 90.36 558.08 90.7047 557.537C91.0494 556.987 91.5101 556.556 92.0868 556.244C92.6635 555.933 93.2999 555.701 93.9959 555.548C94.6986 555.389 95.4045 555.263 96.1138 555.17C97.0418 555.051 97.7942 554.962 98.3709 554.902C98.9543 554.836 99.3785 554.726 99.6436 554.574C99.9154 554.421 100.051 554.156 100.051 553.778V553.699C100.051 552.718 99.7828 551.955 99.2459 551.412C98.7156 550.868 97.9102 550.597 96.8297 550.597C95.7095 550.597 94.8311 550.842 94.1948 551.332C93.5584 551.823 93.111 552.347 92.8525 552.903L90.6252 552.108C91.0229 551.18 91.5532 550.457 92.2161 549.94C92.8856 549.417 93.6148 549.052 94.4036 548.847C95.199 548.634 95.9812 548.528 96.7502 548.528C97.2407 548.528 97.8042 548.588 98.4405 548.707C99.0835 548.82 99.7033 549.055 100.3 549.413C100.903 549.771 101.404 550.312 101.801 551.034C102.199 551.757 102.398 552.724 102.398 553.938V564H100.051V561.932H99.932C99.7729 562.263 99.5078 562.618 99.1365 562.996C98.7653 563.374 98.2715 563.695 97.655 563.96C97.0385 564.225 96.2862 564.358 95.3979 564.358ZM95.7559 562.25C96.6839 562.25 97.4661 562.068 98.1025 561.703C98.7454 561.339 99.2293 560.868 99.5542 560.291C99.8856 559.714 100.051 559.108 100.051 558.472V556.324C99.9519 556.443 99.7331 556.553 99.3951 556.652C99.0636 556.745 98.6792 556.828 98.2417 556.901C97.8108 556.967 97.3899 557.027 96.9789 557.08C96.5745 557.126 96.2464 557.166 95.9945 557.199C95.3846 557.278 94.8146 557.408 94.2843 557.587C93.7606 557.759 93.3364 558.021 93.0115 558.372C92.6934 558.717 92.5343 559.187 92.5343 559.784C92.5343 560.599 92.8359 561.216 93.4391 561.634C94.0489 562.045 94.8212 562.25 95.7559 562.25ZM108.391 564.159C107.901 564.159 107.48 563.983 107.128 563.632C106.777 563.281 106.601 562.86 106.601 562.369C106.601 561.879 106.777 561.458 107.128 561.107C107.48 560.755 107.901 560.58 108.391 560.58C108.882 560.58 109.303 560.755 109.654 561.107C110.005 561.458 110.181 561.879 110.181 562.369C110.181 562.694 110.098 562.992 109.932 563.264C109.773 563.536 109.558 563.755 109.286 563.92C109.021 564.08 108.723 564.159 108.391 564.159ZM120.596 564.318C119.165 564.318 117.932 563.98 116.898 563.304C115.863 562.628 115.068 561.696 114.511 560.51C113.954 559.323 113.676 557.968 113.676 556.443C113.676 554.892 113.961 553.523 114.531 552.337C115.108 551.143 115.91 550.212 116.937 549.543C117.971 548.866 119.178 548.528 120.557 548.528C121.631 548.528 122.598 548.727 123.46 549.125C124.322 549.523 125.028 550.08 125.578 550.795C126.128 551.511 126.47 552.347 126.602 553.301H124.256C124.077 552.605 123.679 551.989 123.062 551.452C122.452 550.908 121.631 550.636 120.596 550.636C119.682 550.636 118.88 550.875 118.19 551.352C117.507 551.823 116.974 552.489 116.589 553.351C116.211 554.206 116.023 555.21 116.023 556.364C116.023 557.544 116.208 558.571 116.579 559.446C116.957 560.321 117.488 561 118.17 561.484C118.86 561.968 119.668 562.21 120.596 562.21C121.206 562.21 121.76 562.104 122.257 561.892C122.754 561.68 123.175 561.375 123.52 560.977C123.864 560.58 124.11 560.102 124.256 559.545H126.602C126.47 560.447 126.141 561.259 125.618 561.982C125.101 562.697 124.415 563.268 123.559 563.692C122.711 564.109 121.723 564.318 120.596 564.318ZM136.237 564.318C134.858 564.318 133.648 563.99 132.608 563.334C131.574 562.678 130.765 561.759 130.182 560.58C129.605 559.4 129.317 558.021 129.317 556.443C129.317 554.852 129.605 553.464 130.182 552.277C130.765 551.09 131.574 550.169 132.608 549.513C133.648 548.857 134.858 548.528 136.237 548.528C137.616 548.528 138.822 548.857 139.856 549.513C140.897 550.169 141.706 551.09 142.282 552.277C142.866 553.464 143.157 554.852 143.157 556.443C143.157 558.021 142.866 559.4 142.282 560.58C141.706 561.759 140.897 562.678 139.856 563.334C138.822 563.99 137.616 564.318 136.237 564.318ZM136.237 562.21C137.284 562.21 138.146 561.942 138.822 561.405C139.498 560.868 139.999 560.162 140.324 559.287C140.648 558.412 140.811 557.464 140.811 556.443C140.811 555.422 140.648 554.471 140.324 553.589C139.999 552.708 139.498 551.995 138.822 551.452C138.146 550.908 137.284 550.636 136.237 550.636C135.19 550.636 134.328 550.908 133.652 551.452C132.976 551.995 132.475 552.708 132.15 553.589C131.826 554.471 131.663 555.422 131.663 556.443C131.663 557.464 131.826 558.412 132.15 559.287C132.475 560.162 132.976 560.868 133.652 561.405C134.328 561.942 135.19 562.21 136.237 562.21ZM146.74 564V548.727H149.007V551.114H149.205C149.524 550.298 150.037 549.665 150.747 549.214C151.456 548.757 152.308 548.528 153.302 548.528C154.31 548.528 155.148 548.757 155.818 549.214C156.494 549.665 157.021 550.298 157.399 551.114H157.558C157.949 550.325 158.535 549.698 159.318 549.234C160.1 548.764 161.038 548.528 162.132 548.528C163.497 548.528 164.614 548.956 165.482 549.811C166.351 550.66 166.785 551.982 166.785 553.778V564H164.438V553.778C164.438 552.652 164.13 551.846 163.514 551.362C162.897 550.878 162.171 550.636 161.336 550.636C160.262 550.636 159.43 550.961 158.84 551.611C158.25 552.254 157.955 553.069 157.955 554.057V564H155.569V553.54C155.569 552.671 155.287 551.972 154.724 551.442C154.16 550.905 153.435 550.636 152.546 550.636C151.936 550.636 151.366 550.799 150.836 551.124C150.312 551.448 149.888 551.899 149.563 552.476C149.245 553.046 149.086 553.705 149.086 554.455V564H146.74Z" fill="#D8DEE9"/>
<defs>
<filter id="filter0_i_1316_2693" x="266" y="368.5" width="204" height="47" filterUnits="userSpaceOnUse" color-interpolation-filters="sRGB">
<feFlood flood-opacity="0" result="BackgroundImageFix"/>
<feBlend mode="normal" in="SourceGraphic" in2="BackgroundImageFix" result="shape"/>
<feColorMatrix in="SourceAlpha" type="matrix" values="0 0 0 0 0 0 0 0 0 0 0 0 0 0 0 0 0 0 127 0" result="hardAlpha"/>
<feOffset dy="1"/>
<feGaussianBlur stdDeviation="0.5"/>
<feComposite in2="hardAlpha" operator="arithmetic" k2="-1" k3="1"/>
<feColorMatrix type="matrix" values="0 0 0 0 1 0 0 0 0 1 0 0 0 0 1 0 0 0 0.25 0"/>
<feBlend mode="normal" in2="shape" result="effect1_innerShadow_1316_2693"/>
</filter>
<filter id="filter1_i_1316_2693" x="494" y="368.5" width="205" height="47" filterUnits="userSpaceOnUse" color-interpolation-filters="sRGB">
<feFlood flood-opacity="0" result="BackgroundImageFix"/>
<feBlend mode="normal" in="SourceGraphic" in2="BackgroundImageFix" result="shape"/>
<feColorMatrix in="SourceAlpha" type="matrix" values="0 0 0 0 0 0 0 0 0 0 0 0 0 0 0 0 0 0 127 0" result="hardAlpha"/>
<feOffset dy="1"/>
<feGaussianBlur stdDeviation="0.5"/>
<feComposite in2="hardAlpha" operator="arithmetic" k2="-1" k3="1"/>
<feColorMatrix type="matrix" values="0 0 0 0 1 0 0 0 0 1 0 0 0 0 1 0 0 0 0.25 0"/>
<feBlend mode="normal" in2="shape" result="effect1_innerShadow_1316_2693"/>
</filter>
<filter id="filter2_i_1316_2693" x="723" y="368.5" width="141" height="47" filterUnits="userSpaceOnUse" color-interpolation-filters="sRGB">
<feFlood flood-opacity="0" result="BackgroundImageFix"/>
<feBlend mode="normal" in="SourceGraphic" in2="BackgroundImageFix" result="shape"/>
<feColorMatrix in="SourceAlpha" type="matrix" values="0 0 0 0 0 0 0 0 0 0 0 0 0 0 0 0 0 0 127 0" result="hardAlpha"/>
<feOffset dy="1"/>
<feGaussianBlur stdDeviation="0.5"/>
<feComposite in2="hardAlpha" operator="arithmetic" k2="-1" k3="1"/>
<feColorMatrix type="matrix" values="0 0 0 0 1 0 0 0 0 1 0 0 0 0 1 0 0 0 0.25 0"/>
<feBlend mode="normal" in2="shape" result="effect1_innerShadow_1316_2693"/>
</filter>
<filter id="filter3_i_1316_2693" x="413.5" y="443.5" width="303" height="47" filterUnits="userSpaceOnUse" color-interpolation-filters="sRGB">
<feFlood flood-opacity="0" result="BackgroundImageFix"/>
<feBlend mode="normal" in="SourceGraphic" in2="BackgroundImageFix" result="shape"/>
<feColorMatrix in="SourceAlpha" type="matrix" values="0 0 0 0 0 0 0 0 0 0 0 0 0 0 0 0 0 0 127 0" result="hardAlpha"/>
<feOffset dy="1"/>
<feGaussianBlur stdDeviation="0.5"/>
<feComposite in2="hardAlpha" operator="arithmetic" k2="-1" k3="1"/>
<feColorMatrix type="matrix" values="0 0 0 0 1 0 0 0 0 1 0 0 0 0 1 0 0 0 0.25 0"/>
<feBlend mode="normal" in2="shape" result="effect1_innerShadow_1316_2693"/>
</filter>
</defs>
</svg>
