<svg width="1130" height="600" viewBox="0 0 1130 600" fill="none" xmlns="http://www.w3.org/2000/svg">
<rect width="1130" height="600" fill="#2F3340"/>
<path d="M157.212 187.188H144.769C144.542 185.578 144.078 184.148 143.377 182.898C142.676 181.629 141.777 180.549 140.678 179.659C139.58 178.769 138.311 178.087 136.871 177.614C135.451 177.14 133.907 176.903 132.241 176.903C129.229 176.903 126.606 177.652 124.371 179.148C122.137 180.625 120.404 182.784 119.173 185.625C117.942 188.447 117.326 191.875 117.326 195.909C117.326 200.057 117.942 203.542 119.173 206.364C120.423 209.186 122.165 211.316 124.4 212.756C126.635 214.195 129.22 214.915 132.156 214.915C133.803 214.915 135.328 214.697 136.729 214.261C138.15 213.826 139.409 213.191 140.508 212.358C141.606 211.506 142.515 210.473 143.235 209.261C143.974 208.049 144.485 206.667 144.769 205.114L157.212 205.17C156.89 207.841 156.085 210.417 154.798 212.898C153.529 215.36 151.815 217.566 149.656 219.517C147.515 221.449 144.959 222.983 141.985 224.119C139.031 225.237 135.688 225.795 131.957 225.795C126.767 225.795 122.127 224.621 118.036 222.273C113.964 219.924 110.745 216.525 108.377 212.074C106.029 207.623 104.854 202.235 104.854 195.909C104.854 189.564 106.048 184.167 108.434 179.716C110.82 175.265 114.059 171.875 118.15 169.545C122.241 167.197 126.843 166.023 131.957 166.023C135.328 166.023 138.453 166.496 141.332 167.443C144.229 168.39 146.796 169.773 149.031 171.591C151.265 173.39 153.084 175.597 154.485 178.21C155.906 180.824 156.815 183.816 157.212 187.188ZM177.908 166.818V225H165.806V166.818H177.908ZM187.603 225V181.364H199.705V225H187.603ZM193.683 175.739C191.883 175.739 190.34 175.142 189.052 173.949C187.783 172.737 187.148 171.288 187.148 169.602C187.148 167.936 187.783 166.506 189.052 165.312C190.34 164.1 191.883 163.494 193.683 163.494C195.482 163.494 197.016 164.1 198.285 165.312C199.573 166.506 200.217 167.936 200.217 169.602C200.217 171.288 199.573 172.737 198.285 173.949C197.016 175.142 195.482 175.739 193.683 175.739ZM229.116 225.852C224.646 225.852 220.801 224.905 217.582 223.011C214.381 221.098 211.919 218.447 210.195 215.057C208.491 211.667 207.638 207.765 207.638 203.352C207.638 198.883 208.5 194.962 210.224 191.591C211.966 188.201 214.438 185.559 217.638 183.665C220.839 181.752 224.646 180.795 229.059 180.795C232.866 180.795 236.199 181.487 239.059 182.869C241.919 184.252 244.182 186.193 245.849 188.693C247.515 191.193 248.434 194.129 248.604 197.5H237.184C236.862 195.322 236.01 193.57 234.627 192.244C233.263 190.9 231.474 190.227 229.258 190.227C227.383 190.227 225.745 190.739 224.343 191.761C222.96 192.765 221.881 194.233 221.104 196.165C220.328 198.097 219.94 200.436 219.94 203.182C219.94 205.966 220.318 208.333 221.076 210.284C221.853 212.235 222.942 213.722 224.343 214.744C225.745 215.767 227.383 216.278 229.258 216.278C230.64 216.278 231.881 215.994 232.979 215.426C234.097 214.858 235.015 214.034 235.735 212.955C236.474 211.856 236.957 210.54 237.184 209.006H248.604C248.415 212.339 247.506 215.275 245.877 217.812C244.267 220.331 242.042 222.301 239.201 223.722C236.36 225.142 232.998 225.852 229.116 225.852ZM267.319 212.443L267.347 197.926H269.109L283.086 181.364H296.978L278.2 203.295H275.33L267.319 212.443ZM256.353 225V166.818H268.455V225H256.353ZM283.626 225L270.785 205.994L278.853 197.443L297.802 225H283.626ZM333.874 225.824C331.09 225.824 328.609 225.341 326.431 224.375C324.253 223.39 322.53 221.941 321.261 220.028C320.011 218.097 319.386 215.691 319.386 212.812C319.386 210.388 319.831 208.352 320.721 206.705C321.611 205.057 322.823 203.731 324.357 202.727C325.891 201.723 327.634 200.966 329.585 200.455C331.554 199.943 333.619 199.583 335.778 199.375C338.316 199.11 340.361 198.864 341.914 198.636C343.467 198.39 344.594 198.03 345.295 197.557C345.996 197.083 346.346 196.383 346.346 195.455V195.284C346.346 193.485 345.778 192.093 344.641 191.108C343.524 190.123 341.933 189.631 339.869 189.631C337.691 189.631 335.958 190.114 334.67 191.08C333.382 192.027 332.53 193.22 332.113 194.659L320.92 193.75C321.488 191.098 322.605 188.807 324.272 186.875C325.939 184.924 328.088 183.428 330.721 182.386C333.372 181.326 336.441 180.795 339.925 180.795C342.35 180.795 344.67 181.08 346.886 181.648C349.121 182.216 351.1 183.097 352.823 184.29C354.566 185.483 355.939 187.017 356.942 188.892C357.946 190.748 358.448 192.973 358.448 195.568V225H346.971V218.949H346.63C345.929 220.312 344.992 221.515 343.817 222.557C342.643 223.58 341.232 224.384 339.585 224.972C337.937 225.54 336.033 225.824 333.874 225.824ZM337.34 217.472C339.121 217.472 340.692 217.121 342.056 216.42C343.42 215.701 344.49 214.735 345.266 213.523C346.043 212.311 346.431 210.937 346.431 209.403V204.773C346.052 205.019 345.531 205.246 344.869 205.455C344.225 205.644 343.496 205.824 342.681 205.994C341.867 206.146 341.052 206.288 340.238 206.42C339.424 206.534 338.685 206.638 338.022 206.733C336.602 206.941 335.361 207.273 334.3 207.727C333.24 208.182 332.416 208.797 331.829 209.574C331.242 210.331 330.948 211.278 330.948 212.415C330.948 214.062 331.545 215.322 332.738 216.193C333.95 217.045 335.484 217.472 337.34 217.472ZM379.94 199.773V225H367.837V181.364H379.371V189.062H379.883C380.849 186.525 382.468 184.517 384.741 183.04C387.013 181.544 389.769 180.795 393.008 180.795C396.038 180.795 398.68 181.458 400.934 182.784C403.188 184.11 404.94 186.004 406.19 188.466C407.44 190.909 408.065 193.826 408.065 197.216V225H395.962V199.375C395.981 196.705 395.299 194.621 393.917 193.125C392.534 191.61 390.631 190.852 388.207 190.852C386.578 190.852 385.138 191.203 383.888 191.903C382.657 192.604 381.692 193.627 380.991 194.972C380.309 196.297 379.959 197.898 379.94 199.773ZM423.512 241.364C421.978 241.364 420.539 241.241 419.194 240.994C417.868 240.767 416.77 240.473 415.898 240.114L418.626 231.08C420.046 231.515 421.325 231.752 422.461 231.79C423.616 231.828 424.611 231.563 425.444 230.994C426.296 230.426 426.987 229.46 427.518 228.097L428.228 226.25L412.575 181.364H425.302L434.336 213.409H434.79L443.91 181.364H456.722L439.762 229.716C438.948 232.064 437.84 234.11 436.438 235.852C435.056 237.614 433.304 238.968 431.183 239.915C429.061 240.881 426.504 241.364 423.512 241.364ZM471.523 225L459.648 181.364H471.893L478.654 210.682H479.052L486.097 181.364H498.114L505.273 210.511H505.643L512.29 181.364H524.506L512.66 225H499.847L492.347 197.557H491.808L484.308 225H471.523ZM543.065 199.773V225H530.962V166.818H542.724V189.062H543.235C544.22 186.487 545.811 184.47 548.008 183.011C550.205 181.534 552.96 180.795 556.275 180.795C559.305 180.795 561.947 181.458 564.201 182.784C566.474 184.091 568.235 185.975 569.485 188.438C570.754 190.881 571.379 193.807 571.36 197.216V225H559.258V199.375C559.277 196.686 558.595 194.593 557.212 193.097C555.849 191.6 553.936 190.852 551.474 190.852C549.826 190.852 548.368 191.203 547.099 191.903C545.849 192.604 544.864 193.627 544.144 194.972C543.443 196.297 543.084 197.898 543.065 199.773ZM600.771 225.852C596.282 225.852 592.418 224.943 589.18 223.125C585.96 221.288 583.479 218.693 581.737 215.341C579.994 211.97 579.123 207.983 579.123 203.381C579.123 198.892 579.994 194.953 581.737 191.562C583.479 188.172 585.932 185.53 589.094 183.636C592.276 181.742 596.007 180.795 600.288 180.795C603.166 180.795 605.846 181.259 608.327 182.188C610.827 183.097 613.005 184.47 614.862 186.307C616.737 188.144 618.195 190.455 619.237 193.239C620.278 196.004 620.799 199.242 620.799 202.955V206.278H583.952V198.778H609.407C609.407 197.036 609.028 195.492 608.271 194.148C607.513 192.803 606.462 191.752 605.117 190.994C603.791 190.218 602.248 189.83 600.487 189.83C598.649 189.83 597.021 190.256 595.6 191.108C594.199 191.941 593.1 193.068 592.305 194.489C591.509 195.89 591.102 197.453 591.083 199.176V206.307C591.083 208.466 591.481 210.331 592.276 211.903C593.091 213.475 594.237 214.688 595.714 215.54C597.191 216.392 598.943 216.818 600.969 216.818C602.314 216.818 603.545 216.629 604.663 216.25C605.78 215.871 606.737 215.303 607.532 214.545C608.327 213.788 608.933 212.86 609.35 211.761L620.543 212.5C619.975 215.189 618.81 217.538 617.049 219.545C615.307 221.534 613.053 223.087 610.288 224.205C607.541 225.303 604.369 225.852 600.771 225.852ZM628.697 225V181.364H640.43V188.977H640.884C641.68 186.269 643.015 184.223 644.89 182.841C646.765 181.439 648.924 180.739 651.367 180.739C651.973 180.739 652.627 180.777 653.327 180.852C654.028 180.928 654.644 181.032 655.174 181.165V191.903C654.606 191.733 653.82 191.581 652.816 191.449C651.812 191.316 650.894 191.25 650.06 191.25C648.28 191.25 646.689 191.638 645.288 192.415C643.905 193.172 642.807 194.233 641.992 195.597C641.197 196.96 640.799 198.532 640.799 200.312V225H628.697ZM679.286 225.852C674.798 225.852 670.934 224.943 667.695 223.125C664.476 221.288 661.995 218.693 660.252 215.341C658.51 211.97 657.638 207.983 657.638 203.381C657.638 198.892 658.51 194.953 660.252 191.562C661.995 188.172 664.447 185.53 667.61 183.636C670.792 181.742 674.523 180.795 678.803 180.795C681.682 180.795 684.362 181.259 686.843 182.188C689.343 183.097 691.521 184.47 693.377 186.307C695.252 188.144 696.71 190.455 697.752 193.239C698.794 196.004 699.315 199.242 699.315 202.955V206.278H662.468V198.778H687.923C687.923 197.036 687.544 195.492 686.786 194.148C686.029 192.803 684.978 191.752 683.633 190.994C682.307 190.218 680.763 189.83 679.002 189.83C677.165 189.83 675.536 190.256 674.116 191.108C672.714 191.941 671.616 193.068 670.82 194.489C670.025 195.89 669.618 197.453 669.599 199.176V206.307C669.599 208.466 669.996 210.331 670.792 211.903C671.606 213.475 672.752 214.688 674.229 215.54C675.707 216.392 677.459 216.818 679.485 216.818C680.83 216.818 682.061 216.629 683.178 216.25C684.296 215.871 685.252 215.303 686.048 214.545C686.843 213.788 687.449 212.86 687.866 211.761L699.059 212.5C698.491 215.189 697.326 217.538 695.565 219.545C693.822 221.534 691.568 223.087 688.803 224.205C686.057 225.303 682.885 225.852 679.286 225.852ZM734.336 225L722.461 181.364H734.705L741.467 210.682H741.864L748.91 181.364H760.927L768.086 210.511H768.455L775.103 181.364H787.319L775.472 225H762.66L755.16 197.557H754.62L747.12 225H734.336ZM793.775 225V181.364H805.877V225H793.775ZM799.854 175.739C798.055 175.739 796.512 175.142 795.224 173.949C793.955 172.737 793.32 171.288 793.32 169.602C793.32 167.936 793.955 166.506 795.224 165.312C796.512 164.1 798.055 163.494 799.854 163.494C801.654 163.494 803.188 164.1 804.457 165.312C805.745 166.506 806.388 167.936 806.388 169.602C806.388 171.288 805.745 172.737 804.457 173.949C803.188 175.142 801.654 175.739 799.854 175.739ZM838.782 181.364V190.455H812.504V181.364H838.782ZM818.469 170.909H830.572V211.591C830.572 212.708 830.742 213.58 831.083 214.205C831.424 214.811 831.897 215.237 832.504 215.483C833.129 215.729 833.848 215.852 834.663 215.852C835.231 215.852 835.799 215.805 836.367 215.71C836.935 215.597 837.371 215.511 837.674 215.455L839.577 224.46C838.971 224.65 838.119 224.867 837.021 225.114C835.922 225.379 834.587 225.54 833.015 225.597C830.098 225.71 827.541 225.322 825.344 224.432C823.166 223.542 821.471 222.159 820.259 220.284C819.047 218.409 818.451 216.042 818.469 213.182V170.909ZM859.705 199.773V225H847.603V166.818H859.364V189.062H859.876C860.861 186.487 862.451 184.47 864.648 183.011C866.845 181.534 869.601 180.795 872.915 180.795C875.946 180.795 878.588 181.458 880.842 182.784C883.114 184.091 884.876 185.975 886.126 188.438C887.395 190.881 888.02 193.807 888.001 197.216V225H875.898V199.375C875.917 196.686 875.236 194.593 873.853 193.097C872.489 191.6 870.576 190.852 868.114 190.852C866.467 190.852 865.008 191.203 863.739 191.903C862.489 192.604 861.504 193.627 860.785 194.972C860.084 196.297 859.724 197.898 859.705 199.773ZM897.525 225V181.364H909.627V225H897.525ZM903.604 175.739C901.805 175.739 900.262 175.142 898.974 173.949C897.705 172.737 897.07 171.288 897.07 169.602C897.07 167.936 897.705 166.506 898.974 165.312C900.262 164.1 901.805 163.494 903.604 163.494C905.404 163.494 906.938 164.1 908.207 165.312C909.495 166.506 910.138 167.936 910.138 169.602C910.138 171.288 909.495 172.737 908.207 173.949C906.938 175.142 905.404 175.739 903.604 175.739ZM931.424 199.773V225H919.322V181.364H930.856V189.062H931.367C932.333 186.525 933.952 184.517 936.225 183.04C938.498 181.544 941.254 180.795 944.492 180.795C947.522 180.795 950.165 181.458 952.418 182.784C954.672 184.11 956.424 186.004 957.674 188.466C958.924 190.909 959.549 193.826 959.549 197.216V225H947.447V199.375C947.466 196.705 946.784 194.621 945.401 193.125C944.019 191.61 942.115 190.852 939.691 190.852C938.062 190.852 936.623 191.203 935.373 191.903C934.142 192.604 933.176 193.627 932.475 194.972C931.793 196.297 931.443 197.898 931.424 199.773ZM1000.05 225.824C997.262 225.824 994.781 225.341 992.603 224.375C990.425 223.39 988.701 221.941 987.433 220.028C986.183 218.097 985.558 215.691 985.558 212.812C985.558 210.388 986.003 208.352 986.893 206.705C987.783 205.057 988.995 203.731 990.529 202.727C992.063 201.723 993.806 200.966 995.756 200.455C997.726 199.943 999.79 199.583 1001.95 199.375C1004.49 199.11 1006.53 198.864 1008.09 198.636C1009.64 198.39 1010.77 198.03 1011.47 197.557C1012.17 197.083 1012.52 196.383 1012.52 195.455V195.284C1012.52 193.485 1011.95 192.093 1010.81 191.108C1009.7 190.123 1008.1 189.631 1006.04 189.631C1003.86 189.631 1002.13 190.114 1000.84 191.08C999.554 192.027 998.701 193.22 998.285 194.659L987.092 193.75C987.66 191.098 988.777 188.807 990.444 186.875C992.111 184.924 994.26 183.428 996.893 182.386C999.544 181.326 1002.61 180.795 1006.1 180.795C1008.52 180.795 1010.84 181.08 1013.06 181.648C1015.29 182.216 1017.27 183.097 1019 184.29C1020.74 185.483 1022.11 187.017 1023.11 188.892C1024.12 190.748 1024.62 192.973 1024.62 195.568V225H1013.14V218.949H1012.8C1012.1 220.312 1011.16 221.515 1009.99 222.557C1008.82 223.58 1007.4 224.384 1005.76 224.972C1004.11 225.54 1002.21 225.824 1000.05 225.824ZM1003.51 217.472C1005.29 217.472 1006.86 217.121 1008.23 216.42C1009.59 215.701 1010.66 214.735 1011.44 213.523C1012.21 212.311 1012.6 210.937 1012.6 209.403V204.773C1012.22 205.019 1011.7 205.246 1011.04 205.455C1010.4 205.644 1009.67 205.824 1008.85 205.994C1008.04 206.146 1007.22 206.288 1006.41 206.42C1005.6 206.534 1004.86 206.638 1004.19 206.733C1002.77 206.941 1001.53 207.273 1000.47 207.727C999.412 208.182 998.588 208.797 998.001 209.574C997.414 210.331 997.12 211.278 997.12 212.415C997.12 214.062 997.717 215.322 998.91 216.193C1000.12 217.045 1001.66 217.472 1003.51 217.472ZM224.18 322L212.305 278.364H224.549L231.31 307.682H231.708L238.754 278.364H250.771L257.93 307.511H258.299L264.947 278.364H277.163L265.316 322H252.504L245.004 294.557H244.464L236.964 322H224.18ZM283.619 322V278.364H295.721V322H283.619ZM289.698 272.739C287.899 272.739 286.355 272.142 285.067 270.949C283.799 269.737 283.164 268.288 283.164 266.602C283.164 264.936 283.799 263.506 285.067 262.312C286.355 261.1 287.899 260.494 289.698 260.494C291.497 260.494 293.031 261.1 294.3 262.312C295.588 263.506 296.232 264.936 296.232 266.602C296.232 268.288 295.588 269.737 294.3 270.949C293.031 272.142 291.497 272.739 289.698 272.739ZM317.518 296.773V322H305.415V278.364H316.95V286.062H317.461C318.427 283.525 320.046 281.517 322.319 280.04C324.592 278.544 327.347 277.795 330.586 277.795C333.616 277.795 336.258 278.458 338.512 279.784C340.766 281.11 342.518 283.004 343.768 285.466C345.018 287.909 345.643 290.826 345.643 294.216V322H333.54V296.375C333.559 293.705 332.878 291.621 331.495 290.125C330.112 288.61 328.209 287.852 325.785 287.852C324.156 287.852 322.717 288.203 321.467 288.903C320.236 289.604 319.27 290.627 318.569 291.972C317.887 293.297 317.537 294.898 317.518 296.773ZM371.261 322.71C367.946 322.71 364.944 321.858 362.255 320.153C359.585 318.43 357.463 315.902 355.891 312.568C354.338 309.216 353.562 305.106 353.562 300.239C353.562 295.239 354.367 291.081 355.977 287.767C357.586 284.434 359.727 281.943 362.397 280.295C365.086 278.629 368.031 277.795 371.232 277.795C373.675 277.795 375.711 278.212 377.34 279.045C378.988 279.86 380.314 280.883 381.317 282.114C382.34 283.326 383.117 284.519 383.647 285.693H384.016V263.818H396.09V322H384.158V315.011H383.647C383.079 316.223 382.274 317.426 381.232 318.619C380.21 319.794 378.874 320.769 377.227 321.545C375.598 322.322 373.609 322.71 371.261 322.71ZM375.096 313.08C377.047 313.08 378.694 312.549 380.039 311.489C381.403 310.409 382.444 308.903 383.164 306.972C383.903 305.04 384.272 302.777 384.272 300.182C384.272 297.587 383.912 295.333 383.192 293.42C382.473 291.508 381.431 290.03 380.067 288.989C378.704 287.947 377.047 287.426 375.096 287.426C373.107 287.426 371.431 287.966 370.067 289.045C368.704 290.125 367.672 291.621 366.971 293.534C366.27 295.447 365.92 297.663 365.92 300.182C365.92 302.72 366.27 304.964 366.971 306.915C367.691 308.847 368.723 310.362 370.067 311.46C371.431 312.54 373.107 313.08 375.096 313.08ZM425.756 322.852C421.344 322.852 417.527 321.915 414.308 320.04C411.107 318.146 408.635 315.513 406.893 312.142C405.15 308.752 404.279 304.822 404.279 300.352C404.279 295.845 405.15 291.905 406.893 288.534C408.635 285.144 411.107 282.511 414.308 280.636C417.527 278.742 421.344 277.795 425.756 277.795C430.169 277.795 433.976 278.742 437.177 280.636C440.397 282.511 442.878 285.144 444.62 288.534C446.362 291.905 447.234 295.845 447.234 300.352C447.234 304.822 446.362 308.752 444.62 312.142C442.878 315.513 440.397 318.146 437.177 320.04C433.976 321.915 430.169 322.852 425.756 322.852ZM425.813 313.477C427.821 313.477 429.497 312.909 430.842 311.773C432.186 310.617 433.2 309.045 433.881 307.057C434.582 305.068 434.933 302.805 434.933 300.267C434.933 297.729 434.582 295.466 433.881 293.477C433.2 291.489 432.186 289.917 430.842 288.761C429.497 287.606 427.821 287.028 425.813 287.028C423.787 287.028 422.082 287.606 420.7 288.761C419.336 289.917 418.304 291.489 417.603 293.477C416.921 295.466 416.58 297.729 416.58 300.267C416.58 302.805 416.921 305.068 417.603 307.057C418.304 309.045 419.336 310.617 420.7 311.773C422.082 312.909 423.787 313.477 425.813 313.477ZM462.617 322L450.742 278.364H462.987L469.748 307.682H470.146L477.191 278.364H489.208L496.367 307.511H496.737L503.384 278.364H515.6L503.754 322H490.941L483.441 294.557H482.901L475.401 322H462.617ZM563.782 278.364V287.455H537.504V278.364H563.782ZM543.469 267.909H555.572V308.591C555.572 309.708 555.742 310.58 556.083 311.205C556.424 311.811 556.897 312.237 557.504 312.483C558.129 312.729 558.848 312.852 559.663 312.852C560.231 312.852 560.799 312.805 561.367 312.71C561.935 312.597 562.371 312.511 562.674 312.455L564.577 321.46C563.971 321.65 563.119 321.867 562.021 322.114C560.922 322.379 559.587 322.54 558.015 322.597C555.098 322.71 552.541 322.322 550.344 321.432C548.166 320.542 546.471 319.159 545.259 317.284C544.047 315.409 543.451 313.042 543.469 310.182V267.909ZM590.913 322.852C586.5 322.852 582.683 321.915 579.464 320.04C576.263 318.146 573.791 315.513 572.049 312.142C570.307 308.752 569.435 304.822 569.435 300.352C569.435 295.845 570.307 291.905 572.049 288.534C573.791 285.144 576.263 282.511 579.464 280.636C582.683 278.742 586.5 277.795 590.913 277.795C595.326 277.795 599.132 278.742 602.333 280.636C605.553 282.511 608.034 285.144 609.776 288.534C611.519 291.905 612.39 295.845 612.39 300.352C612.39 304.822 611.519 308.752 609.776 312.142C608.034 315.513 605.553 318.146 602.333 320.04C599.132 321.915 595.326 322.852 590.913 322.852ZM590.969 313.477C592.977 313.477 594.653 312.909 595.998 311.773C597.343 310.617 598.356 309.045 599.038 307.057C599.738 305.068 600.089 302.805 600.089 300.267C600.089 297.729 599.738 295.466 599.038 293.477C598.356 291.489 597.343 289.917 595.998 288.761C594.653 287.606 592.977 287.028 590.969 287.028C588.943 287.028 587.238 287.606 585.856 288.761C584.492 289.917 583.46 291.489 582.759 293.477C582.077 295.466 581.737 297.729 581.737 300.267C581.737 302.805 582.077 305.068 582.759 307.057C583.46 309.045 584.492 310.617 585.856 311.773C587.238 312.909 588.943 313.477 590.969 313.477ZM638.775 322V278.364H650.309V286.062H650.82C651.729 283.506 653.245 281.489 655.366 280.011C657.487 278.534 660.025 277.795 662.979 277.795C665.972 277.795 668.519 278.544 670.621 280.04C672.724 281.517 674.125 283.525 674.826 286.062H675.281C676.171 283.562 677.781 281.564 680.11 280.068C682.459 278.553 685.233 277.795 688.434 277.795C692.506 277.795 695.811 279.093 698.349 281.688C700.906 284.263 702.184 287.919 702.184 292.653V322H690.11V295.04C690.11 292.616 689.466 290.797 688.178 289.585C686.89 288.373 685.281 287.767 683.349 287.767C681.152 287.767 679.438 288.468 678.207 289.869C676.976 291.252 676.36 293.08 676.36 295.352V322H664.627V294.784C664.627 292.644 664.012 290.939 662.781 289.67C661.568 288.402 659.968 287.767 657.979 287.767C656.635 287.767 655.423 288.108 654.343 288.79C653.282 289.453 652.44 290.39 651.815 291.602C651.19 292.795 650.877 294.197 650.877 295.807V322H638.775ZM731.46 322.852C727.047 322.852 723.23 321.915 720.011 320.04C716.81 318.146 714.338 315.513 712.596 312.142C710.853 308.752 709.982 304.822 709.982 300.352C709.982 295.845 710.853 291.905 712.596 288.534C714.338 285.144 716.81 282.511 720.011 280.636C723.23 278.742 727.047 277.795 731.46 277.795C735.872 277.795 739.679 278.742 742.88 280.636C746.1 282.511 748.581 285.144 750.323 288.534C752.066 291.905 752.937 295.845 752.937 300.352C752.937 304.822 752.066 308.752 750.323 312.142C748.581 315.513 746.1 318.146 742.88 320.04C739.679 321.915 735.872 322.852 731.46 322.852ZM731.516 313.477C733.524 313.477 735.2 312.909 736.545 311.773C737.889 310.617 738.903 309.045 739.585 307.057C740.285 305.068 740.636 302.805 740.636 300.267C740.636 297.729 740.285 295.466 739.585 293.477C738.903 291.489 737.889 289.917 736.545 288.761C735.2 287.606 733.524 287.028 731.516 287.028C729.49 287.028 727.785 287.606 726.403 288.761C725.039 289.917 724.007 291.489 723.306 293.477C722.624 295.466 722.283 297.729 722.283 300.267C722.283 302.805 722.624 305.068 723.306 307.057C724.007 309.045 725.039 310.617 726.403 311.773C727.785 312.909 729.49 313.477 731.516 313.477ZM800.082 278.364L784.826 322H771.19L755.934 278.364H768.718L777.781 309.585H778.235L787.269 278.364H800.082ZM824.755 322.852C820.266 322.852 816.403 321.943 813.164 320.125C809.944 318.288 807.463 315.693 805.721 312.341C803.978 308.97 803.107 304.983 803.107 300.381C803.107 295.892 803.978 291.953 805.721 288.562C807.463 285.172 809.916 282.53 813.079 280.636C816.261 278.742 819.992 277.795 824.272 277.795C827.151 277.795 829.831 278.259 832.312 279.188C834.812 280.097 836.99 281.47 838.846 283.307C840.721 285.144 842.179 287.455 843.221 290.239C844.263 293.004 844.783 296.242 844.783 299.955V303.278H807.937V295.778H833.391C833.391 294.036 833.013 292.492 832.255 291.148C831.497 289.803 830.446 288.752 829.102 287.994C827.776 287.218 826.232 286.83 824.471 286.83C822.634 286.83 821.005 287.256 819.585 288.108C818.183 288.941 817.085 290.068 816.289 291.489C815.494 292.89 815.086 294.453 815.067 296.176V303.307C815.067 305.466 815.465 307.331 816.261 308.903C817.075 310.475 818.221 311.688 819.698 312.54C821.175 313.392 822.927 313.818 824.954 313.818C826.299 313.818 827.53 313.629 828.647 313.25C829.764 312.871 830.721 312.303 831.516 311.545C832.312 310.788 832.918 309.86 833.335 308.761L844.528 309.5C843.96 312.189 842.795 314.538 841.033 316.545C839.291 318.534 837.037 320.087 834.272 321.205C831.526 322.303 828.353 322.852 824.755 322.852ZM871.197 322V278.364H883.299V322H871.197ZM877.276 272.739C875.477 272.739 873.933 272.142 872.646 270.949C871.377 269.737 870.742 268.288 870.742 266.602C870.742 264.936 871.377 263.506 872.646 262.312C873.933 261.1 875.477 260.494 877.276 260.494C879.076 260.494 880.61 261.1 881.879 262.312C883.166 263.506 883.81 264.936 883.81 266.602C883.81 268.288 883.166 269.737 881.879 270.949C880.61 272.142 879.076 272.739 877.276 272.739ZM916.204 278.364V287.455H889.925V278.364H916.204ZM895.891 267.909H907.994V308.591C907.994 309.708 908.164 310.58 908.505 311.205C908.846 311.811 909.319 312.237 909.925 312.483C910.55 312.729 911.27 312.852 912.085 312.852C912.653 312.852 913.221 312.805 913.789 312.71C914.357 312.597 914.793 312.511 915.096 312.455L916.999 321.46C916.393 321.65 915.541 321.867 914.442 322.114C913.344 322.379 912.009 322.54 910.437 322.597C907.52 322.71 904.963 322.322 902.766 321.432C900.588 320.542 898.893 319.159 897.681 317.284C896.469 315.409 895.872 313.042 895.891 310.182V267.909Z" fill="#D8DEE9"/>
<g filter="url(#filter0_i_1902_17)">
<rect x="290" y="406" width="124" height="46" rx="23" fill="#202227"/>
<path d="M315.812 437V425H318.054V426.953H318.202C318.452 426.292 318.861 425.776 319.429 425.406C319.996 425.031 320.676 424.844 321.468 424.844C322.27 424.844 322.942 425.031 323.483 425.406C324.03 425.781 324.434 426.297 324.694 426.953H324.819C325.106 426.312 325.562 425.802 326.187 425.422C326.812 425.036 327.556 424.844 328.421 424.844C329.509 424.844 330.397 425.185 331.085 425.867C331.778 426.549 332.124 427.578 332.124 428.953V437H329.788V429.172C329.788 428.359 329.567 427.771 329.124 427.406C328.681 427.042 328.153 426.859 327.538 426.859C326.778 426.859 326.187 427.094 325.765 427.562C325.343 428.026 325.132 428.622 325.132 429.352V437H322.804V429.023C322.804 428.372 322.601 427.849 322.194 427.453C321.788 427.057 321.259 426.859 320.608 426.859C320.166 426.859 319.757 426.977 319.382 427.211C319.012 427.44 318.713 427.76 318.483 428.172C318.259 428.583 318.147 429.06 318.147 429.602V437H315.812ZM338.747 437.266C337.987 437.266 337.299 437.125 336.685 436.844C336.07 436.557 335.583 436.143 335.224 435.602C334.869 435.06 334.692 434.396 334.692 433.609C334.692 432.932 334.823 432.375 335.083 431.937C335.343 431.5 335.695 431.154 336.138 430.898C336.58 430.643 337.075 430.451 337.622 430.32C338.169 430.19 338.726 430.091 339.294 430.023C340.013 429.94 340.596 429.872 341.044 429.82C341.492 429.763 341.817 429.672 342.021 429.547C342.224 429.422 342.325 429.219 342.325 428.937V428.883C342.325 428.201 342.132 427.672 341.747 427.297C341.367 426.922 340.799 426.734 340.044 426.734C339.257 426.734 338.638 426.909 338.185 427.258C337.737 427.602 337.427 427.984 337.255 428.406L335.06 427.906C335.32 427.177 335.7 426.589 336.2 426.141C336.705 425.687 337.286 425.359 337.942 425.156C338.599 424.948 339.289 424.844 340.013 424.844C340.492 424.844 341 424.901 341.536 425.016C342.078 425.125 342.583 425.328 343.052 425.625C343.526 425.922 343.914 426.346 344.216 426.898C344.518 427.445 344.669 428.156 344.669 429.031V437H342.388V435.359H342.294C342.143 435.661 341.916 435.958 341.614 436.25C341.312 436.542 340.924 436.784 340.45 436.977C339.976 437.169 339.409 437.266 338.747 437.266ZM339.255 435.391C339.901 435.391 340.453 435.263 340.911 435.008C341.375 434.753 341.726 434.419 341.966 434.008C342.211 433.591 342.333 433.146 342.333 432.672V431.125C342.25 431.208 342.088 431.286 341.849 431.359C341.614 431.427 341.346 431.487 341.044 431.539C340.742 431.586 340.448 431.63 340.161 431.672C339.875 431.708 339.635 431.74 339.442 431.766C338.989 431.823 338.575 431.919 338.2 432.055C337.83 432.19 337.534 432.385 337.31 432.641C337.091 432.891 336.981 433.224 336.981 433.641C336.981 434.219 337.195 434.656 337.622 434.953C338.049 435.245 338.593 435.391 339.255 435.391ZM352.835 437.242C351.674 437.242 350.674 436.979 349.835 436.453C349.002 435.922 348.361 435.19 347.913 434.258C347.465 433.326 347.241 432.258 347.241 431.055C347.241 429.836 347.47 428.76 347.929 427.828C348.387 426.891 349.033 426.159 349.866 425.633C350.7 425.107 351.681 424.844 352.812 424.844C353.723 424.844 354.535 425.013 355.249 425.352C355.963 425.685 356.538 426.154 356.976 426.758C357.418 427.362 357.681 428.068 357.765 428.875H355.491C355.366 428.312 355.08 427.828 354.632 427.422C354.189 427.016 353.595 426.812 352.851 426.812C352.2 426.812 351.629 426.984 351.14 427.328C350.655 427.667 350.278 428.151 350.007 428.781C349.736 429.406 349.601 430.146 349.601 431C349.601 431.875 349.733 432.63 349.999 433.266C350.265 433.901 350.64 434.393 351.124 434.742C351.614 435.091 352.189 435.266 352.851 435.266C353.293 435.266 353.694 435.185 354.054 435.023C354.418 434.857 354.723 434.62 354.968 434.312C355.218 434.005 355.392 433.635 355.491 433.203H357.765C357.681 433.979 357.429 434.672 357.007 435.281C356.585 435.891 356.02 436.37 355.312 436.719C354.608 437.068 353.783 437.242 352.835 437.242ZM374.349 429C374.349 430.708 374.036 432.177 373.411 433.406C372.786 434.63 371.929 435.573 370.841 436.234C369.757 436.891 368.526 437.219 367.146 437.219C365.76 437.219 364.523 436.891 363.435 436.234C362.351 435.573 361.497 434.628 360.872 433.398C360.247 432.169 359.935 430.703 359.935 429C359.935 427.292 360.247 425.826 360.872 424.602C361.497 423.372 362.351 422.43 363.435 421.773C364.523 421.112 365.76 420.781 367.146 420.781C368.526 420.781 369.757 421.112 370.841 421.773C371.929 422.43 372.786 423.372 373.411 424.602C374.036 425.826 374.349 427.292 374.349 429ZM371.958 429C371.958 427.698 371.747 426.602 371.325 425.711C370.909 424.815 370.336 424.138 369.606 423.68C368.882 423.216 368.062 422.984 367.146 422.984C366.224 422.984 365.401 423.216 364.677 423.68C363.953 424.138 363.38 424.815 362.958 425.711C362.541 426.602 362.333 427.698 362.333 429C362.333 430.302 362.541 431.401 362.958 432.297C363.38 433.187 363.953 433.865 364.677 434.328C365.401 434.786 366.224 435.016 367.146 435.016C368.062 435.016 368.882 434.786 369.606 434.328C370.336 433.865 370.909 433.187 371.325 432.297C371.747 431.401 371.958 430.302 371.958 429ZM386.085 425.203C386.002 424.464 385.658 423.891 385.054 423.484C384.45 423.073 383.689 422.867 382.772 422.867C382.116 422.867 381.549 422.971 381.069 423.18C380.59 423.383 380.218 423.664 379.952 424.023C379.692 424.378 379.562 424.781 379.562 425.234C379.562 425.615 379.65 425.943 379.827 426.219C380.009 426.495 380.246 426.727 380.538 426.914C380.835 427.096 381.153 427.25 381.491 427.375C381.83 427.495 382.155 427.594 382.468 427.672L384.03 428.078C384.541 428.203 385.064 428.372 385.601 428.586C386.137 428.799 386.634 429.081 387.093 429.43C387.551 429.779 387.921 430.211 388.202 430.727C388.489 431.242 388.632 431.859 388.632 432.578C388.632 433.484 388.397 434.289 387.929 434.992C387.465 435.695 386.791 436.25 385.905 436.656C385.025 437.063 383.96 437.266 382.71 437.266C381.512 437.266 380.476 437.076 379.601 436.695C378.726 436.315 378.041 435.776 377.546 435.078C377.051 434.375 376.778 433.542 376.726 432.578H379.147C379.194 433.156 379.382 433.638 379.71 434.023C380.043 434.404 380.468 434.687 380.983 434.875C381.504 435.057 382.075 435.148 382.694 435.148C383.377 435.148 383.983 435.042 384.515 434.828C385.051 434.609 385.473 434.307 385.78 433.922C386.088 433.531 386.241 433.076 386.241 432.555C386.241 432.081 386.106 431.693 385.835 431.391C385.569 431.089 385.207 430.839 384.749 430.641C384.296 430.443 383.783 430.268 383.21 430.117L381.319 429.602C380.038 429.253 379.022 428.74 378.272 428.062C377.528 427.385 377.155 426.49 377.155 425.375C377.155 424.453 377.405 423.648 377.905 422.961C378.405 422.273 379.082 421.74 379.937 421.359C380.791 420.974 381.754 420.781 382.827 420.781C383.91 420.781 384.866 420.971 385.694 421.352C386.528 421.732 387.184 422.255 387.663 422.922C388.142 423.583 388.392 424.344 388.413 425.203H386.085Z" fill="#81A1C1"/>
</g>
<g filter="url(#filter1_i_1902_17)">
<rect x="438" y="406" width="175" height="46" rx="23" fill="#202227"/>
<path d="M463.793 437V421H469.496C470.741 421 471.772 421.227 472.59 421.68C473.408 422.133 474.02 422.753 474.426 423.539C474.832 424.32 475.035 425.201 475.035 426.18C475.035 427.164 474.829 428.049 474.418 428.836C474.012 429.617 473.397 430.237 472.574 430.695C471.757 431.148 470.728 431.375 469.488 431.375H465.566V429.328H469.27C470.056 429.328 470.694 429.193 471.184 428.922C471.673 428.646 472.033 428.271 472.262 427.797C472.491 427.323 472.605 426.784 472.605 426.18C472.605 425.576 472.491 425.039 472.262 424.57C472.033 424.102 471.671 423.734 471.176 423.469C470.686 423.203 470.04 423.07 469.238 423.07H466.207V437H463.793ZM477.678 437V425H479.936V426.906H480.061C480.279 426.26 480.665 425.753 481.217 425.383C481.774 425.008 482.404 424.82 483.107 424.82C483.253 424.82 483.425 424.826 483.623 424.836C483.826 424.846 483.985 424.859 484.1 424.875V427.109C484.006 427.083 483.839 427.055 483.6 427.023C483.36 426.987 483.12 426.969 482.881 426.969C482.329 426.969 481.837 427.086 481.404 427.32C480.977 427.549 480.639 427.87 480.389 428.281C480.139 428.687 480.014 429.151 480.014 429.672V437H477.678ZM490.746 437.242C489.621 437.242 488.639 436.984 487.801 436.469C486.962 435.953 486.311 435.232 485.848 434.305C485.384 433.378 485.152 432.294 485.152 431.055C485.152 429.81 485.384 428.721 485.848 427.789C486.311 426.857 486.962 426.133 487.801 425.617C488.639 425.102 489.621 424.844 490.746 424.844C491.871 424.844 492.853 425.102 493.691 425.617C494.53 426.133 495.181 426.857 495.645 427.789C496.108 428.721 496.34 429.81 496.34 431.055C496.34 432.294 496.108 433.378 495.645 434.305C495.181 435.232 494.53 435.953 493.691 436.469C492.853 436.984 491.871 437.242 490.746 437.242ZM490.754 435.281C491.483 435.281 492.087 435.089 492.566 434.703C493.046 434.318 493.4 433.805 493.629 433.164C493.863 432.523 493.98 431.818 493.98 431.047C493.98 430.281 493.863 429.578 493.629 428.937C493.4 428.292 493.046 427.773 492.566 427.383C492.087 426.992 491.483 426.797 490.754 426.797C490.02 426.797 489.41 426.992 488.926 427.383C488.447 427.773 488.09 428.292 487.855 428.937C487.626 429.578 487.512 430.281 487.512 431.047C487.512 431.818 487.626 432.523 487.855 433.164C488.09 433.805 488.447 434.318 488.926 434.703C489.41 435.089 490.02 435.281 490.754 435.281ZM503.439 437.234C502.471 437.234 501.606 436.987 500.846 436.492C500.09 435.992 499.497 435.281 499.064 434.359C498.637 433.432 498.424 432.32 498.424 431.023C498.424 429.727 498.64 428.617 499.072 427.695C499.51 426.773 500.109 426.068 500.869 425.578C501.63 425.089 502.492 424.844 503.455 424.844C504.2 424.844 504.799 424.969 505.252 425.219C505.71 425.464 506.064 425.75 506.314 426.078C506.57 426.406 506.768 426.695 506.908 426.945H507.049V421H509.385V437H507.104V435.133H506.908C506.768 435.388 506.564 435.68 506.299 436.008C506.038 436.336 505.679 436.622 505.221 436.867C504.762 437.112 504.169 437.234 503.439 437.234ZM503.955 435.242C504.627 435.242 505.195 435.065 505.658 434.711C506.127 434.352 506.481 433.854 506.721 433.219C506.965 432.583 507.088 431.844 507.088 431C507.088 430.167 506.968 429.437 506.729 428.812C506.489 428.187 506.137 427.701 505.674 427.352C505.21 427.003 504.637 426.828 503.955 426.828C503.252 426.828 502.666 427.01 502.197 427.375C501.729 427.74 501.374 428.237 501.135 428.867C500.9 429.497 500.783 430.208 500.783 431C500.783 431.802 500.903 432.523 501.143 433.164C501.382 433.805 501.736 434.312 502.205 434.687C502.679 435.057 503.262 435.242 503.955 435.242ZM520.32 432.023V425H522.664V437H520.367V434.922H520.242C519.966 435.563 519.523 436.096 518.914 436.523C518.31 436.945 517.557 437.156 516.656 437.156C515.885 437.156 515.203 436.987 514.609 436.648C514.021 436.305 513.557 435.797 513.219 435.125C512.885 434.453 512.719 433.622 512.719 432.633V425H515.055V432.352C515.055 433.169 515.281 433.82 515.734 434.305C516.188 434.789 516.776 435.031 517.5 435.031C517.938 435.031 518.372 434.922 518.805 434.703C519.242 434.484 519.604 434.154 519.891 433.711C520.182 433.268 520.326 432.706 520.32 432.023ZM530.857 437.242C529.696 437.242 528.696 436.979 527.857 436.453C527.024 435.922 526.383 435.19 525.936 434.258C525.488 433.326 525.264 432.258 525.264 431.055C525.264 429.836 525.493 428.76 525.951 427.828C526.41 426.891 527.055 426.159 527.889 425.633C528.722 425.107 529.704 424.844 530.834 424.844C531.745 424.844 532.558 425.013 533.271 425.352C533.985 425.685 534.561 426.154 534.998 426.758C535.441 427.362 535.704 428.068 535.787 428.875H533.514C533.389 428.312 533.102 427.828 532.654 427.422C532.212 427.016 531.618 426.812 530.873 426.812C530.222 426.812 529.652 426.984 529.162 427.328C528.678 427.667 528.3 428.151 528.029 428.781C527.758 429.406 527.623 430.146 527.623 431C527.623 431.875 527.756 432.63 528.021 433.266C528.287 433.901 528.662 434.393 529.146 434.742C529.636 435.091 530.212 435.266 530.873 435.266C531.316 435.266 531.717 435.185 532.076 435.023C532.441 434.857 532.745 434.62 532.99 434.312C533.24 434.005 533.415 433.635 533.514 433.203H535.787C535.704 433.979 535.451 434.672 535.029 435.281C534.607 435.891 534.042 436.37 533.334 436.719C532.631 437.068 531.805 437.242 530.857 437.242ZM543.887 425V426.875H537.332V425H543.887ZM539.09 422.125H541.426V433.477C541.426 433.93 541.493 434.271 541.629 434.5C541.764 434.724 541.939 434.878 542.152 434.961C542.371 435.039 542.608 435.078 542.863 435.078C543.051 435.078 543.215 435.065 543.355 435.039C543.496 435.013 543.605 434.992 543.684 434.977L544.105 436.906C543.97 436.958 543.777 437.01 543.527 437.063C543.277 437.12 542.965 437.151 542.59 437.156C541.975 437.167 541.402 437.057 540.871 436.828C540.34 436.599 539.91 436.245 539.582 435.766C539.254 435.286 539.09 434.685 539.09 433.961V422.125ZM546.471 437V425H548.807V437H546.471ZM547.65 423.148C547.244 423.148 546.895 423.013 546.604 422.742C546.317 422.466 546.174 422.138 546.174 421.758C546.174 421.372 546.317 421.044 546.604 420.773C546.895 420.497 547.244 420.359 547.65 420.359C548.057 420.359 548.403 420.497 548.689 420.773C548.981 421.044 549.127 421.372 549.127 421.758C549.127 422.138 548.981 422.466 548.689 422.742C548.403 423.013 548.057 423.148 547.65 423.148ZM562.215 425L557.863 437H555.363L551.004 425H553.512L556.551 434.234H556.676L559.707 425H562.215ZM564.41 437V425H566.746V437H564.41ZM565.59 423.148C565.184 423.148 564.835 423.013 564.543 422.742C564.257 422.466 564.113 422.138 564.113 421.758C564.113 421.372 564.257 421.044 564.543 420.773C564.835 420.497 565.184 420.359 565.59 420.359C565.996 420.359 566.342 420.497 566.629 420.773C566.921 421.044 567.066 421.372 567.066 421.758C567.066 422.138 566.921 422.466 566.629 422.742C566.342 423.013 565.996 423.148 565.59 423.148ZM575.49 425V426.875H568.936V425H575.49ZM570.693 422.125H573.029V433.477C573.029 433.93 573.097 434.271 573.232 434.5C573.368 434.724 573.542 434.878 573.756 434.961C573.975 435.039 574.212 435.078 574.467 435.078C574.654 435.078 574.818 435.065 574.959 435.039C575.1 435.013 575.209 434.992 575.287 434.977L575.709 436.906C575.574 436.958 575.381 437.01 575.131 437.063C574.881 437.12 574.568 437.151 574.193 437.156C573.579 437.167 573.006 437.057 572.475 436.828C571.943 436.599 571.514 436.245 571.186 435.766C570.857 435.286 570.693 434.685 570.693 433.961V422.125ZM579.551 441.5C579.202 441.5 578.884 441.471 578.598 441.414C578.311 441.362 578.098 441.305 577.957 441.242L578.52 439.328C578.947 439.443 579.327 439.492 579.66 439.477C579.993 439.461 580.288 439.336 580.543 439.102C580.803 438.867 581.033 438.484 581.23 437.953L581.52 437.156L577.129 425H579.629L582.668 434.312H582.793L585.832 425H588.34L583.395 438.602C583.165 439.227 582.874 439.755 582.52 440.188C582.165 440.625 581.743 440.953 581.254 441.172C580.764 441.391 580.197 441.5 579.551 441.5Z" fill="#81A1C1"/>
</g>
<g filter="url(#filter2_i_1902_17)">
<rect x="637" y="406" width="203" height="46" rx="23" fill="#202227"/>
<path d="M663 437V421H665.414V427.953H673.391V421H675.813V437H673.391V430.023H665.414V437H663ZM679.141 437V425H681.477V437H679.141ZM680.32 423.148C679.914 423.148 679.565 423.013 679.273 422.742C678.987 422.466 678.844 422.138 678.844 421.758C678.844 421.372 678.987 421.044 679.273 420.773C679.565 420.497 679.914 420.359 680.32 420.359C680.727 420.359 681.073 420.497 681.359 420.773C681.651 421.044 681.797 421.372 681.797 421.758C681.797 422.138 681.651 422.466 681.359 422.742C681.073 423.013 680.727 423.148 680.32 423.148ZM689.111 437.234C688.143 437.234 687.278 436.987 686.518 436.492C685.762 435.992 685.169 435.281 684.736 434.359C684.309 433.432 684.096 432.32 684.096 431.023C684.096 429.727 684.312 428.617 684.744 427.695C685.182 426.773 685.781 426.068 686.541 425.578C687.301 425.089 688.163 424.844 689.127 424.844C689.872 424.844 690.471 424.969 690.924 425.219C691.382 425.464 691.736 425.75 691.986 426.078C692.242 426.406 692.439 426.695 692.58 426.945H692.721V421H695.057V437H692.775V435.133H692.58C692.439 435.388 692.236 435.68 691.971 436.008C691.71 436.336 691.351 436.622 690.893 436.867C690.434 437.112 689.84 437.234 689.111 437.234ZM689.627 435.242C690.299 435.242 690.867 435.065 691.33 434.711C691.799 434.352 692.153 433.854 692.393 433.219C692.637 432.583 692.76 431.844 692.76 431C692.76 430.167 692.64 429.437 692.4 428.812C692.161 428.187 691.809 427.701 691.346 427.352C690.882 427.003 690.309 426.828 689.627 426.828C688.924 426.828 688.338 427.01 687.869 427.375C687.4 427.74 687.046 428.237 686.807 428.867C686.572 429.497 686.455 430.208 686.455 431C686.455 431.802 686.575 432.523 686.814 433.164C687.054 433.805 687.408 434.312 687.877 434.687C688.351 435.057 688.934 435.242 689.627 435.242ZM702.883 437.234C701.914 437.234 701.049 436.987 700.289 436.492C699.534 435.992 698.94 435.281 698.508 434.359C698.081 433.432 697.867 432.32 697.867 431.023C697.867 429.727 698.083 428.617 698.516 427.695C698.953 426.773 699.552 426.068 700.313 425.578C701.073 425.089 701.935 424.844 702.898 424.844C703.643 424.844 704.242 424.969 704.695 425.219C705.154 425.464 705.508 425.75 705.758 426.078C706.013 426.406 706.211 426.695 706.352 426.945H706.492V421H708.828V437H706.547V435.133H706.352C706.211 435.388 706.008 435.68 705.742 436.008C705.482 436.336 705.122 436.622 704.664 436.867C704.206 437.112 703.612 437.234 702.883 437.234ZM703.398 435.242C704.07 435.242 704.638 435.065 705.102 434.711C705.57 434.352 705.924 433.854 706.164 433.219C706.409 432.583 706.531 431.844 706.531 431C706.531 430.167 706.411 429.437 706.172 428.812C705.932 428.187 705.581 427.701 705.117 427.352C704.654 427.003 704.081 426.828 703.398 426.828C702.695 426.828 702.109 427.01 701.641 427.375C701.172 427.74 700.818 428.237 700.578 428.867C700.344 429.497 700.227 430.208 700.227 431C700.227 431.802 700.346 432.523 700.586 433.164C700.826 433.805 701.18 434.312 701.648 434.687C702.122 435.057 702.706 435.242 703.398 435.242ZM717.334 437.242C716.152 437.242 715.133 436.99 714.279 436.484C713.43 435.974 712.774 435.258 712.311 434.336C711.852 433.409 711.623 432.323 711.623 431.078C711.623 429.849 711.852 428.766 712.311 427.828C712.774 426.891 713.42 426.159 714.248 425.633C715.081 425.107 716.055 424.844 717.17 424.844C717.847 424.844 718.503 424.956 719.139 425.18C719.774 425.404 720.344 425.755 720.85 426.234C721.355 426.714 721.753 427.336 722.045 428.102C722.337 428.862 722.482 429.786 722.482 430.875V431.703H712.943V429.953H720.193C720.193 429.339 720.068 428.794 719.818 428.32C719.568 427.841 719.217 427.464 718.764 427.187C718.316 426.911 717.79 426.773 717.186 426.773C716.529 426.773 715.956 426.935 715.467 427.258C714.982 427.576 714.607 427.992 714.342 428.508C714.081 429.018 713.951 429.573 713.951 430.172V431.539C713.951 432.341 714.092 433.023 714.373 433.586C714.66 434.148 715.058 434.578 715.568 434.875C716.079 435.167 716.675 435.312 717.357 435.312C717.8 435.312 718.204 435.25 718.568 435.125C718.933 434.995 719.248 434.802 719.514 434.547C719.779 434.292 719.982 433.977 720.123 433.602L722.334 434C722.157 434.651 721.839 435.221 721.381 435.711C720.928 436.195 720.357 436.573 719.67 436.844C718.988 437.109 718.209 437.242 717.334 437.242ZM727.41 429.875V437H725.074V425H727.316V426.953H727.465C727.741 426.318 728.173 425.807 728.762 425.422C729.355 425.036 730.103 424.844 731.004 424.844C731.822 424.844 732.538 425.016 733.152 425.359C733.767 425.698 734.243 426.203 734.582 426.875C734.921 427.547 735.09 428.378 735.09 429.367V437H732.754V429.648C732.754 428.779 732.527 428.099 732.074 427.609C731.621 427.115 730.999 426.867 730.207 426.867C729.665 426.867 729.184 426.984 728.762 427.219C728.345 427.453 728.014 427.797 727.77 428.25C727.53 428.698 727.41 429.24 727.41 429.875ZM753.037 427.93L750.92 428.305C750.831 428.034 750.691 427.776 750.498 427.531C750.311 427.286 750.055 427.086 749.732 426.93C749.41 426.773 749.006 426.695 748.521 426.695C747.86 426.695 747.308 426.844 746.865 427.141C746.423 427.432 746.201 427.81 746.201 428.273C746.201 428.674 746.35 428.997 746.646 429.242C746.943 429.487 747.423 429.687 748.084 429.844L749.99 430.281C751.094 430.536 751.917 430.93 752.459 431.461C753.001 431.992 753.271 432.682 753.271 433.531C753.271 434.25 753.063 434.891 752.646 435.453C752.235 436.01 751.66 436.448 750.92 436.766C750.186 437.083 749.334 437.242 748.365 437.242C747.021 437.242 745.925 436.956 745.076 436.383C744.227 435.805 743.706 434.984 743.514 433.922L745.771 433.578C745.912 434.167 746.201 434.612 746.639 434.914C747.076 435.211 747.646 435.359 748.35 435.359C749.115 435.359 749.727 435.201 750.186 434.883C750.644 434.56 750.873 434.167 750.873 433.703C750.873 433.328 750.732 433.013 750.451 432.758C750.175 432.503 749.751 432.31 749.178 432.18L747.146 431.734C746.027 431.479 745.199 431.073 744.662 430.516C744.131 429.958 743.865 429.253 743.865 428.398C743.865 427.69 744.063 427.07 744.459 426.539C744.855 426.008 745.402 425.594 746.1 425.297C746.798 424.995 747.597 424.844 748.498 424.844C749.795 424.844 750.816 425.125 751.561 425.687C752.305 426.245 752.798 426.992 753.037 427.93ZM761.012 437.242C759.829 437.242 758.811 436.99 757.957 436.484C757.108 435.974 756.452 435.258 755.988 434.336C755.53 433.409 755.301 432.323 755.301 431.078C755.301 429.849 755.53 428.766 755.988 427.828C756.452 426.891 757.098 426.159 757.926 425.633C758.759 425.107 759.733 424.844 760.848 424.844C761.525 424.844 762.181 424.956 762.816 425.18C763.452 425.404 764.022 425.755 764.527 426.234C765.033 426.714 765.431 427.336 765.723 428.102C766.014 428.862 766.16 429.786 766.16 430.875V431.703H756.621V429.953H763.871C763.871 429.339 763.746 428.794 763.496 428.32C763.246 427.841 762.895 427.464 762.441 427.187C761.993 426.911 761.467 426.773 760.863 426.773C760.207 426.773 759.634 426.935 759.145 427.258C758.66 427.576 758.285 427.992 758.02 428.508C757.759 429.018 757.629 429.573 757.629 430.172V431.539C757.629 432.341 757.77 433.023 758.051 433.586C758.337 434.148 758.736 434.578 759.246 434.875C759.757 435.167 760.353 435.312 761.035 435.312C761.478 435.312 761.882 435.25 762.246 435.125C762.611 434.995 762.926 434.802 763.191 434.547C763.457 434.292 763.66 433.977 763.801 433.602L766.012 434C765.835 434.651 765.517 435.221 765.059 435.711C764.605 436.195 764.035 436.573 763.348 436.844C762.665 437.109 761.887 437.242 761.012 437.242ZM774.354 425V426.875H767.799V425H774.354ZM769.557 422.125H771.893V433.477C771.893 433.93 771.96 434.271 772.096 434.5C772.231 434.724 772.406 434.878 772.619 434.961C772.838 435.039 773.075 435.078 773.33 435.078C773.518 435.078 773.682 435.065 773.822 435.039C773.963 435.013 774.072 434.992 774.15 434.977L774.572 436.906C774.437 436.958 774.244 437.01 773.994 437.063C773.744 437.12 773.432 437.151 773.057 437.156C772.442 437.167 771.869 437.057 771.338 436.828C770.807 436.599 770.377 436.245 770.049 435.766C769.721 435.286 769.557 434.685 769.557 433.961V422.125ZM782.539 425V426.875H775.984V425H782.539ZM777.742 422.125H780.078V433.477C780.078 433.93 780.146 434.271 780.281 434.5C780.417 434.724 780.591 434.878 780.805 434.961C781.023 435.039 781.26 435.078 781.516 435.078C781.703 435.078 781.867 435.065 782.008 435.039C782.148 435.013 782.258 434.992 782.336 434.977L782.758 436.906C782.622 436.958 782.43 437.01 782.18 437.063C781.93 437.12 781.617 437.151 781.242 437.156C780.628 437.167 780.055 437.057 779.523 436.828C778.992 436.599 778.563 436.245 778.234 435.766C777.906 435.286 777.742 434.685 777.742 433.961V422.125ZM785.123 437V425H787.459V437H785.123ZM786.303 423.148C785.896 423.148 785.548 423.013 785.256 422.742C784.969 422.466 784.826 422.138 784.826 421.758C784.826 421.372 784.969 421.044 785.256 420.773C785.548 420.497 785.896 420.359 786.303 420.359C786.709 420.359 787.055 420.497 787.342 420.773C787.633 421.044 787.779 421.372 787.779 421.758C787.779 422.138 787.633 422.466 787.342 422.742C787.055 423.013 786.709 423.148 786.303 423.148ZM792.938 429.875V437H790.602V425H792.844V426.953H792.992C793.268 426.318 793.701 425.807 794.289 425.422C794.883 425.036 795.63 424.844 796.531 424.844C797.349 424.844 798.065 425.016 798.68 425.359C799.294 425.698 799.771 426.203 800.109 426.875C800.448 427.547 800.617 428.378 800.617 429.367V437H798.281V429.648C798.281 428.779 798.055 428.099 797.602 427.609C797.148 427.115 796.526 426.867 795.734 426.867C795.193 426.867 794.711 426.984 794.289 427.219C793.872 427.453 793.542 427.797 793.297 428.25C793.057 428.698 792.938 429.24 792.938 429.875ZM808.781 441.75C807.828 441.75 807.008 441.625 806.32 441.375C805.638 441.125 805.081 440.794 804.648 440.383C804.216 439.971 803.893 439.521 803.68 439.031L805.688 438.203C805.828 438.432 806.016 438.674 806.25 438.93C806.49 439.19 806.813 439.411 807.219 439.594C807.63 439.776 808.159 439.867 808.805 439.867C809.69 439.867 810.422 439.651 811 439.219C811.578 438.792 811.867 438.109 811.867 437.172V434.812H811.719C811.578 435.068 811.375 435.352 811.109 435.664C810.849 435.977 810.49 436.247 810.031 436.477C809.573 436.706 808.977 436.82 808.242 436.82C807.294 436.82 806.44 436.599 805.68 436.156C804.924 435.708 804.326 435.049 803.883 434.18C803.445 433.305 803.227 432.229 803.227 430.953C803.227 429.677 803.443 428.583 803.875 427.672C804.313 426.76 804.911 426.062 805.672 425.578C806.432 425.089 807.294 424.844 808.258 424.844C809.003 424.844 809.604 424.969 810.062 425.219C810.521 425.464 810.878 425.75 811.133 426.078C811.393 426.406 811.594 426.695 811.734 426.945H811.906V425H814.195V437.266C814.195 438.297 813.956 439.143 813.477 439.805C812.997 440.466 812.349 440.956 811.531 441.273C810.719 441.591 809.802 441.75 808.781 441.75ZM808.758 434.883C809.43 434.883 809.997 434.727 810.461 434.414C810.93 434.096 811.284 433.643 811.523 433.055C811.768 432.461 811.891 431.75 811.891 430.922C811.891 430.115 811.771 429.404 811.531 428.789C811.292 428.174 810.94 427.695 810.477 427.352C810.013 427.003 809.44 426.828 808.758 426.828C808.055 426.828 807.469 427.01 807 427.375C806.531 427.734 806.177 428.224 805.938 428.844C805.703 429.464 805.586 430.156 805.586 430.922C805.586 431.708 805.706 432.398 805.945 432.992C806.185 433.586 806.539 434.049 807.008 434.383C807.482 434.716 808.065 434.883 808.758 434.883Z" fill="#81A1C1"/>
</g>
<path d="M41.22 564V548.727H43.487V551.034H43.6461C43.9245 550.278 44.4283 549.665 45.1575 549.195C45.8867 548.724 46.7086 548.489 47.6234 548.489C47.7958 548.489 48.0112 548.492 48.2697 548.499C48.5282 548.505 48.7238 548.515 48.8564 548.528V550.915C48.7768 550.895 48.5945 550.865 48.3095 550.825C48.0311 550.779 47.7361 550.756 47.4245 550.756C46.6821 550.756 46.0192 550.911 45.4359 551.223C44.8592 551.528 44.4018 551.952 44.0637 552.496C43.7323 553.033 43.5666 553.646 43.5666 554.335V564H41.22ZM51.9561 564V543.636H54.3027V551.153H54.5016C54.6739 550.888 54.9126 550.55 55.2175 550.139C55.5291 549.722 55.9732 549.35 56.5499 549.026C57.1332 548.694 57.9221 548.528 58.9164 548.528C60.2024 548.528 61.3359 548.85 62.3169 549.493C63.298 550.136 64.0636 551.047 64.6138 552.227C65.164 553.407 65.4391 554.799 65.4391 556.403C65.4391 558.021 65.164 559.423 64.6138 560.609C64.0636 561.789 63.3013 562.704 62.3269 563.354C61.3525 563.997 60.2289 564.318 58.9561 564.318C57.9751 564.318 57.1896 564.156 56.5996 563.831C56.0096 563.5 55.5556 563.125 55.2374 562.707C54.9192 562.283 54.6739 561.932 54.5016 561.653H54.2232V564H51.9561ZM54.263 556.364C54.263 557.517 54.432 558.535 54.7701 559.416C55.1081 560.291 55.602 560.977 56.2516 561.474C56.9012 561.965 57.6967 562.21 58.638 562.21C59.619 562.21 60.4377 561.952 61.0939 561.435C61.7568 560.911 62.254 560.208 62.5854 559.327C62.9235 558.438 63.0925 557.451 63.0925 556.364C63.0925 555.29 62.9268 554.322 62.5953 553.46C62.2705 552.592 61.7767 551.906 61.1138 551.402C60.4576 550.892 59.6323 550.636 58.638 550.636C57.6834 550.636 56.8813 550.878 56.2317 551.362C55.5821 551.839 55.0916 552.509 54.7601 553.371C54.4287 554.226 54.263 555.223 54.263 556.364ZM69.0286 564V548.727H71.3752V564H69.0286ZM70.2218 546.182C69.7644 546.182 69.37 546.026 69.0385 545.714C68.7137 545.403 68.5513 545.028 68.5513 544.591C68.5513 544.153 68.7137 543.779 69.0385 543.467C69.37 543.156 69.7644 543 70.2218 543C70.6792 543 71.0703 543.156 71.3951 543.467C71.7265 543.779 71.8922 544.153 71.8922 544.591C71.8922 545.028 71.7265 545.403 71.3951 545.714C71.0703 546.026 70.6792 546.182 70.2218 546.182ZM77.8606 558.432L77.8208 555.528H78.2981L84.9799 548.727H87.8833L80.764 555.926H80.5652L77.8606 558.432ZM75.6731 564V543.636H78.0197V564H75.6731ZM85.3777 564L79.4118 556.443L81.0822 554.812L88.3606 564H85.3777ZM95.3979 564.358C94.4301 564.358 93.5518 564.176 92.763 563.811C91.9741 563.44 91.3477 562.906 90.8837 562.21C90.4197 561.508 90.1877 560.659 90.1877 559.665C90.1877 558.79 90.36 558.08 90.7047 557.537C91.0494 556.987 91.5101 556.556 92.0868 556.244C92.6635 555.933 93.2999 555.701 93.9959 555.548C94.6986 555.389 95.4045 555.263 96.1138 555.17C97.0418 555.051 97.7942 554.962 98.3709 554.902C98.9543 554.836 99.3785 554.726 99.6436 554.574C99.9154 554.421 100.051 554.156 100.051 553.778V553.699C100.051 552.718 99.7828 551.955 99.2459 551.412C98.7156 550.868 97.9102 550.597 96.8297 550.597C95.7095 550.597 94.8311 550.842 94.1948 551.332C93.5584 551.823 93.111 552.347 92.8525 552.903L90.6252 552.108C91.0229 551.18 91.5532 550.457 92.2161 549.94C92.8856 549.417 93.6148 549.052 94.4036 548.847C95.199 548.634 95.9812 548.528 96.7502 548.528C97.2407 548.528 97.8042 548.588 98.4405 548.707C99.0835 548.82 99.7033 549.055 100.3 549.413C100.903 549.771 101.404 550.312 101.801 551.034C102.199 551.757 102.398 552.724 102.398 553.938V564H100.051V561.932H99.932C99.7729 562.263 99.5078 562.618 99.1365 562.996C98.7653 563.374 98.2715 563.695 97.655 563.96C97.0385 564.225 96.2862 564.358 95.3979 564.358ZM95.7559 562.25C96.6839 562.25 97.4661 562.068 98.1025 561.703C98.7454 561.339 99.2293 560.868 99.5542 560.291C99.8856 559.714 100.051 559.108 100.051 558.472V556.324C99.9519 556.443 99.7331 556.553 99.3951 556.652C99.0636 556.745 98.6792 556.828 98.2417 556.901C97.8108 556.967 97.3899 557.027 96.9789 557.08C96.5745 557.126 96.2464 557.166 95.9945 557.199C95.3846 557.278 94.8146 557.408 94.2843 557.587C93.7606 557.759 93.3364 558.021 93.0115 558.372C92.6934 558.717 92.5343 559.187 92.5343 559.784C92.5343 560.599 92.8359 561.216 93.4391 561.634C94.0489 562.045 94.8212 562.25 95.7559 562.25ZM108.391 564.159C107.901 564.159 107.48 563.983 107.128 563.632C106.777 563.281 106.601 562.86 106.601 562.369C106.601 561.879 106.777 561.458 107.128 561.107C107.48 560.755 107.901 560.58 108.391 560.58C108.882 560.58 109.303 560.755 109.654 561.107C110.005 561.458 110.181 561.879 110.181 562.369C110.181 562.694 110.098 562.992 109.932 563.264C109.773 563.536 109.558 563.755 109.286 563.92C109.021 564.08 108.723 564.159 108.391 564.159ZM120.596 564.318C119.165 564.318 117.932 563.98 116.898 563.304C115.863 562.628 115.068 561.696 114.511 560.51C113.954 559.323 113.676 557.968 113.676 556.443C113.676 554.892 113.961 553.523 114.531 552.337C115.108 551.143 115.91 550.212 116.937 549.543C117.971 548.866 119.178 548.528 120.557 548.528C121.631 548.528 122.598 548.727 123.46 549.125C124.322 549.523 125.028 550.08 125.578 550.795C126.128 551.511 126.47 552.347 126.602 553.301H124.256C124.077 552.605 123.679 551.989 123.062 551.452C122.452 550.908 121.631 550.636 120.596 550.636C119.682 550.636 118.88 550.875 118.19 551.352C117.507 551.823 116.974 552.489 116.589 553.351C116.211 554.206 116.023 555.21 116.023 556.364C116.023 557.544 116.208 558.571 116.579 559.446C116.957 560.321 117.488 561 118.17 561.484C118.86 561.968 119.668 562.21 120.596 562.21C121.206 562.21 121.76 562.104 122.257 561.892C122.754 561.68 123.175 561.375 123.52 560.977C123.864 560.58 124.11 560.102 124.256 559.545H126.602C126.47 560.447 126.141 561.259 125.618 561.982C125.101 562.697 124.415 563.268 123.559 563.692C122.711 564.109 121.723 564.318 120.596 564.318ZM136.237 564.318C134.858 564.318 133.648 563.99 132.608 563.334C131.574 562.678 130.765 561.759 130.182 560.58C129.605 559.4 129.317 558.021 129.317 556.443C129.317 554.852 129.605 553.464 130.182 552.277C130.765 551.09 131.574 550.169 132.608 549.513C133.648 548.857 134.858 548.528 136.237 548.528C137.616 548.528 138.822 548.857 139.856 549.513C140.897 550.169 141.706 551.09 142.282 552.277C142.866 553.464 143.157 554.852 143.157 556.443C143.157 558.021 142.866 559.4 142.282 560.58C141.706 561.759 140.897 562.678 139.856 563.334C138.822 563.99 137.616 564.318 136.237 564.318ZM136.237 562.21C137.284 562.21 138.146 561.942 138.822 561.405C139.498 560.868 139.999 560.162 140.324 559.287C140.648 558.412 140.811 557.464 140.811 556.443C140.811 555.422 140.648 554.471 140.324 553.589C139.999 552.708 139.498 551.995 138.822 551.452C138.146 550.908 137.284 550.636 136.237 550.636C135.19 550.636 134.328 550.908 133.652 551.452C132.976 551.995 132.475 552.708 132.15 553.589C131.826 554.471 131.663 555.422 131.663 556.443C131.663 557.464 131.826 558.412 132.15 559.287C132.475 560.162 132.976 560.868 133.652 561.405C134.328 561.942 135.19 562.21 136.237 562.21ZM146.74 564V548.727H149.007V551.114H149.205C149.524 550.298 150.037 549.665 150.747 549.214C151.456 548.757 152.308 548.528 153.302 548.528C154.31 548.528 155.148 548.757 155.818 549.214C156.494 549.665 157.021 550.298 157.399 551.114H157.558C157.949 550.325 158.535 549.698 159.318 549.234C160.1 548.764 161.038 548.528 162.132 548.528C163.497 548.528 164.614 548.956 165.482 549.811C166.351 550.66 166.785 551.982 166.785 553.778V564H164.438V553.778C164.438 552.652 164.13 551.846 163.514 551.362C162.897 550.878 162.171 550.636 161.336 550.636C160.262 550.636 159.43 550.961 158.84 551.611C158.25 552.254 157.955 553.069 157.955 554.057V564H155.569V553.54C155.569 552.671 155.287 551.972 154.724 551.442C154.16 550.905 153.435 550.636 152.546 550.636C151.936 550.636 151.366 550.799 150.836 551.124C150.312 551.448 149.888 551.899 149.563 552.476C149.245 553.046 149.086 553.705 149.086 554.455V564H146.74Z" fill="#D8DEE9"/>
<defs>
<filter id="filter0_i_1902_17" x="290" y="406" width="124" height="47" filterUnits="userSpaceOnUse" color-interpolation-filters="sRGB">
<feFlood flood-opacity="0" result="BackgroundImageFix"/>
<feBlend mode="normal" in="SourceGraphic" in2="BackgroundImageFix" result="shape"/>
<feColorMatrix in="SourceAlpha" type="matrix" values="0 0 0 0 0 0 0 0 0 0 0 0 0 0 0 0 0 0 127 0" result="hardAlpha"/>
<feOffset dy="1"/>
<feGaussianBlur stdDeviation="0.5"/>
<feComposite in2="hardAlpha" operator="arithmetic" k2="-1" k3="1"/>
<feColorMatrix type="matrix" values="0 0 0 0 1 0 0 0 0 1 0 0 0 0 1 0 0 0 0.25 0"/>
<feBlend mode="normal" in2="shape" result="effect1_innerShadow_1902_17"/>
</filter>
<filter id="filter1_i_1902_17" x="438" y="406" width="175" height="47" filterUnits="userSpaceOnUse" color-interpolation-filters="sRGB">
<feFlood flood-opacity="0" result="BackgroundImageFix"/>
<feBlend mode="normal" in="SourceGraphic" in2="BackgroundImageFix" result="shape"/>
<feColorMatrix in="SourceAlpha" type="matrix" values="0 0 0 0 0 0 0 0 0 0 0 0 0 0 0 0 0 0 127 0" result="hardAlpha"/>
<feOffset dy="1"/>
<feGaussianBlur stdDeviation="0.5"/>
<feComposite in2="hardAlpha" operator="arithmetic" k2="-1" k3="1"/>
<feColorMatrix type="matrix" values="0 0 0 0 1 0 0 0 0 1 0 0 0 0 1 0 0 0 0.25 0"/>
<feBlend mode="normal" in2="shape" result="effect1_innerShadow_1902_17"/>
</filter>
<filter id="filter2_i_1902_17" x="637" y="406" width="203" height="47" filterUnits="userSpaceOnUse" color-interpolation-filters="sRGB">
<feFlood flood-opacity="0" result="BackgroundImageFix"/>
<feBlend mode="normal" in="SourceGraphic" in2="BackgroundImageFix" result="shape"/>
<feColorMatrix in="SourceAlpha" type="matrix" values="0 0 0 0 0 0 0 0 0 0 0 0 0 0 0 0 0 0 127 0" result="hardAlpha"/>
<feOffset dy="1"/>
<feGaussianBlur stdDeviation="0.5"/>
<feComposite in2="hardAlpha" operator="arithmetic" k2="-1" k3="1"/>
<feColorMatrix type="matrix" values="0 0 0 0 1 0 0 0 0 1 0 0 0 0 1 0 0 0 0.25 0"/>
<feBlend mode="normal" in2="shape" result="effect1_innerShadow_1902_17"/>
</filter>
</defs>
</svg>
