<svg width="1384" height="192" viewBox="0 0 1384 192" fill="none" xmlns="http://www.w3.org/2000/svg">
<path d="M336 0H661.656L696 96.5L661.656 192H336L367.775 96.5L336 0Z" fill="#2F3340"/>
<path d="M336 0H661.656L696 96.5L661.656 192H336L367.775 96.5L336 0Z" fill="#2F3340"/>
<path d="M336 0H661.656L696 96.5L661.656 192H336L367.775 96.5L336 0Z" fill="#2F3340"/>
<path d="M336 0H661.656L696 96.5L661.656 192H336L367.775 96.5L336 0Z" fill="#2F3340"/>
<path d="M336 0H661.656L696 96.5L661.656 192H336L367.775 96.5L336 0Z" fill="#2F3340"/>
<path d="M336 0H661.656L696 96.5L661.656 192H336L367.775 96.5L336 0Z" fill="#2F3340"/>
<rect width="289" height="192" transform="translate(371)" fill="#2F3340"/>
<path d="M433.967 87.5V67.1364H447.45V70.6861H438.273V75.5384H446.555V79.0881H438.273V87.5H433.967ZM450.02 87.5V72.2273H454.127V74.892H454.286C454.564 73.9441 455.032 73.2282 455.688 72.7443C456.344 72.2538 457.1 72.0085 457.955 72.0085C458.167 72.0085 458.396 72.0218 458.641 72.0483C458.886 72.0748 459.102 72.1113 459.287 72.1577V75.9162C459.089 75.8565 458.814 75.8035 458.462 75.7571C458.111 75.7107 457.789 75.6875 457.498 75.6875C456.875 75.6875 456.318 75.8234 455.827 76.0952C455.343 76.3603 454.959 76.7315 454.674 77.2088C454.395 77.6861 454.256 78.2363 454.256 78.8594V87.5H450.02ZM467.727 87.7983C466.156 87.7983 464.803 87.4801 463.67 86.8438C462.543 86.2008 461.675 85.2926 461.065 84.1193C460.455 82.9394 460.15 81.544 460.15 79.9332C460.15 78.3622 460.455 76.9834 461.065 75.7969C461.675 74.6103 462.533 73.6856 463.64 73.0227C464.754 72.3598 466.06 72.0284 467.558 72.0284C468.565 72.0284 469.503 72.1908 470.372 72.5156C471.247 72.8338 472.009 73.3144 472.659 73.9574C473.315 74.6004 473.825 75.4091 474.19 76.3835C474.554 77.3513 474.737 78.4848 474.737 79.7841V80.9474H461.84V78.3224H470.749C470.749 77.7126 470.617 77.1723 470.352 76.7017C470.087 76.2311 469.719 75.8632 469.248 75.598C468.784 75.3262 468.244 75.1903 467.627 75.1903C466.984 75.1903 466.414 75.3395 465.917 75.6378C465.427 75.9295 465.042 76.3239 464.764 76.821C464.485 77.3116 464.343 77.8584 464.336 78.4616V80.9574C464.336 81.7131 464.475 82.366 464.754 82.9162C465.039 83.4664 465.44 83.8906 465.957 84.1889C466.474 84.4872 467.087 84.6364 467.796 84.6364C468.267 84.6364 468.698 84.5701 469.089 84.4375C469.48 84.3049 469.815 84.1061 470.093 83.8409C470.372 83.5758 470.584 83.2509 470.73 82.8665L474.647 83.125C474.448 84.0663 474.041 84.8883 473.424 85.5909C472.814 86.2869 472.026 86.8305 471.058 87.2216C470.097 87.6061 468.986 87.7983 467.727 87.7983ZM490.208 76.5824L486.33 76.821C486.264 76.4896 486.122 76.1913 485.903 75.9261C485.684 75.6544 485.396 75.4389 485.038 75.2798C484.686 75.1141 484.266 75.0312 483.775 75.0312C483.119 75.0312 482.565 75.1705 482.115 75.4489C481.664 75.7206 481.438 76.0852 481.438 76.5426C481.438 76.9072 481.584 77.2154 481.876 77.4673C482.168 77.7192 482.668 77.9214 483.377 78.0739L486.142 78.6307C487.626 78.9356 488.733 79.4261 489.463 80.1023C490.192 80.7784 490.556 81.6667 490.556 82.767C490.556 83.768 490.261 84.6463 489.671 85.402C489.088 86.1577 488.286 86.7476 487.265 87.1719C486.251 87.5895 485.081 87.7983 483.755 87.7983C481.733 87.7983 480.123 87.3774 478.923 86.5355C477.73 85.687 477.03 84.5336 476.825 83.0753L480.991 82.8565C481.117 83.473 481.422 83.9437 481.906 84.2685C482.39 84.5866 483.009 84.7457 483.765 84.7457C484.508 84.7457 485.104 84.6032 485.555 84.3182C486.012 84.0265 486.244 83.652 486.251 83.1946C486.244 82.8101 486.082 82.4953 485.764 82.25C485.445 81.9981 484.955 81.8059 484.292 81.6733L481.647 81.1463C480.156 80.848 479.045 80.331 478.316 79.5952C477.594 78.8594 477.232 77.9214 477.232 76.7812C477.232 75.8002 477.498 74.955 478.028 74.2457C478.565 73.5365 479.317 72.9896 480.285 72.6051C481.259 72.2206 482.4 72.0284 483.705 72.0284C485.634 72.0284 487.152 72.4361 488.259 73.2514C489.373 74.0668 490.023 75.1771 490.208 76.5824ZM497.459 78.6705V87.5H493.224V67.1364H497.34V74.9219H497.519C497.864 74.0204 498.421 73.3144 499.189 72.804C499.958 72.2869 500.923 72.0284 502.083 72.0284C503.144 72.0284 504.068 72.2604 504.857 72.7244C505.653 73.1818 506.269 73.8414 506.706 74.7031C507.151 75.5582 507.369 76.5824 507.363 77.7756V87.5H503.127V78.5312C503.134 77.59 502.895 76.8575 502.411 76.3338C501.934 75.8101 501.264 75.5483 500.403 75.5483C499.826 75.5483 499.315 75.6709 498.871 75.9162C498.434 76.1615 498.089 76.5194 497.837 76.9901C497.592 77.4541 497.466 78.0142 497.459 78.6705ZM524.077 87.7983C522.513 87.7983 521.167 87.4669 520.04 86.804C518.92 86.1345 518.058 85.2064 517.455 84.0199C516.858 82.8333 516.56 81.4678 516.56 79.9233C516.56 78.3589 516.862 76.9867 517.465 75.8068C518.075 74.6203 518.94 73.6955 520.06 73.0327C521.18 72.3632 522.513 72.0284 524.057 72.0284C525.39 72.0284 526.556 72.2704 527.557 72.7543C528.558 73.2382 529.35 73.9176 529.934 74.7926C530.517 75.6676 530.839 76.6951 530.898 77.875H526.901C526.788 77.1127 526.49 76.4995 526.006 76.0355C525.529 75.5649 524.903 75.3295 524.127 75.3295C523.471 75.3295 522.897 75.5085 522.407 75.8665C521.923 76.2178 521.545 76.7315 521.273 77.4077C521.001 78.0838 520.866 78.9025 520.866 79.8636C520.866 80.8381 520.998 81.6667 521.263 82.3494C521.535 83.0322 521.916 83.5526 522.407 83.9105C522.897 84.2685 523.471 84.4474 524.127 84.4474C524.611 84.4474 525.045 84.348 525.43 84.1491C525.821 83.9503 526.142 83.6619 526.394 83.2841C526.653 82.8996 526.822 82.4389 526.901 81.902H530.898C530.832 83.0687 530.514 84.0961 529.944 84.9844C529.38 85.866 528.601 86.5554 527.607 87.0526C526.613 87.5497 525.436 87.7983 524.077 87.7983ZM537.965 87.7884C536.991 87.7884 536.123 87.6193 535.36 87.2812C534.598 86.9366 533.995 86.4295 533.551 85.7599C533.113 85.0838 532.894 84.242 532.894 83.2344C532.894 82.3859 533.05 81.6733 533.362 81.0966C533.673 80.5199 534.097 80.0559 534.634 79.7045C535.171 79.3532 535.781 79.0881 536.464 78.9091C537.153 78.7301 537.876 78.6042 538.632 78.5312C539.52 78.4384 540.236 78.3523 540.779 78.2727C541.323 78.1866 541.717 78.0606 541.963 77.8949C542.208 77.7292 542.33 77.4839 542.33 77.1591V77.0994C542.33 76.4697 542.132 75.9825 541.734 75.6378C541.343 75.2931 540.786 75.1207 540.063 75.1207C539.301 75.1207 538.695 75.2898 538.244 75.6278C537.793 75.9593 537.495 76.3769 537.349 76.8807L533.431 76.5625C533.63 75.6345 534.021 74.8324 534.605 74.1562C535.188 73.4735 535.94 72.9498 536.862 72.5852C537.79 72.214 538.864 72.0284 540.083 72.0284C540.932 72.0284 541.744 72.1278 542.519 72.3267C543.302 72.5256 543.994 72.8338 544.597 73.2514C545.207 73.669 545.688 74.206 546.039 74.8622C546.391 75.5118 546.566 76.2907 546.566 77.1989V87.5H542.549V85.3821H542.43C542.185 85.8594 541.856 86.2803 541.445 86.6449C541.035 87.0028 540.541 87.2846 539.964 87.4901C539.387 87.6889 538.721 87.7884 537.965 87.7884ZM539.178 84.8651C539.802 84.8651 540.352 84.7424 540.829 84.4972C541.306 84.2453 541.681 83.9072 541.953 83.483C542.224 83.0587 542.36 82.5781 542.36 82.0412V80.4205C542.228 80.5066 542.045 80.5862 541.813 80.6591C541.588 80.7254 541.333 80.7884 541.048 80.848C540.763 80.901 540.478 80.9508 540.193 80.9972C539.908 81.0369 539.649 81.0734 539.417 81.1065C538.92 81.1795 538.486 81.2955 538.115 81.4545C537.743 81.6136 537.455 81.8291 537.249 82.1009C537.044 82.366 536.941 82.6974 536.941 83.0952C536.941 83.6719 537.15 84.1127 537.568 84.4176C537.992 84.7159 538.529 84.8651 539.178 84.8651ZM556.753 87.7983C555.189 87.7983 553.843 87.4669 552.716 86.804C551.596 86.1345 550.734 85.2064 550.131 84.0199C549.534 82.8333 549.236 81.4678 549.236 79.9233C549.236 78.3589 549.538 76.9867 550.141 75.8068C550.751 74.6203 551.616 73.6955 552.736 73.0327C553.856 72.3632 555.189 72.0284 556.733 72.0284C558.066 72.0284 559.232 72.2704 560.233 72.7543C561.234 73.2382 562.026 73.9176 562.61 74.7926C563.193 75.6676 563.514 76.6951 563.574 77.875H559.577C559.464 77.1127 559.166 76.4995 558.682 76.0355C558.205 75.5649 557.578 75.3295 556.803 75.3295C556.146 75.3295 555.573 75.5085 555.083 75.8665C554.599 76.2178 554.221 76.7315 553.949 77.4077C553.677 78.0838 553.541 78.9025 553.541 79.8636C553.541 80.8381 553.674 81.6667 553.939 82.3494C554.211 83.0322 554.592 83.5526 555.083 83.9105C555.573 84.2685 556.146 84.4474 556.803 84.4474C557.287 84.4474 557.721 84.348 558.105 84.1491C558.496 83.9503 558.818 83.6619 559.07 83.2841C559.328 82.8996 559.497 82.4389 559.577 81.902H563.574C563.508 83.0687 563.19 84.0961 562.619 84.9844C562.056 85.866 561.277 86.5554 560.283 87.0526C559.289 87.5497 558.112 87.7983 556.753 87.7983ZM570.522 78.6705V87.5H566.286V67.1364H570.403V74.9219H570.581C570.926 74.0204 571.483 73.3144 572.252 72.804C573.021 72.2869 573.985 72.0284 575.145 72.0284C576.206 72.0284 577.131 72.2604 577.92 72.7244C578.715 73.1818 579.331 73.8414 579.769 74.7031C580.213 75.5582 580.432 76.5824 580.425 77.7756V87.5H576.189V78.5312C576.196 77.59 575.957 76.8575 575.474 76.3338C574.996 75.8101 574.327 75.5483 573.465 75.5483C572.888 75.5483 572.378 75.6709 571.934 75.9162C571.496 76.1615 571.152 76.5194 570.9 76.9901C570.654 77.4541 570.528 78.0142 570.522 78.6705ZM590.719 87.7983C589.148 87.7983 587.796 87.4801 586.662 86.8438C585.535 86.2008 584.667 85.2926 584.057 84.1193C583.447 82.9394 583.142 81.544 583.142 79.9332C583.142 78.3622 583.447 76.9834 584.057 75.7969C584.667 74.6103 585.525 73.6856 586.632 73.0227C587.746 72.3598 589.052 72.0284 590.55 72.0284C591.557 72.0284 592.495 72.1908 593.364 72.5156C594.239 72.8338 595.001 73.3144 595.651 73.9574C596.307 74.6004 596.817 75.4091 597.182 76.3835C597.547 77.3513 597.729 78.4848 597.729 79.7841V80.9474H584.833V78.3224H593.742C593.742 77.7126 593.609 77.1723 593.344 76.7017C593.079 76.2311 592.711 75.8632 592.24 75.598C591.776 75.3262 591.236 75.1903 590.619 75.1903C589.977 75.1903 589.406 75.3395 588.909 75.6378C588.419 75.9295 588.034 76.3239 587.756 76.821C587.477 77.3116 587.335 77.8584 587.328 78.4616V80.9574C587.328 81.7131 587.468 82.366 587.746 82.9162C588.031 83.4664 588.432 83.8906 588.949 84.1889C589.466 84.4872 590.079 84.6364 590.789 84.6364C591.259 84.6364 591.69 84.5701 592.081 84.4375C592.472 84.3049 592.807 84.1061 593.085 83.8409C593.364 83.5758 593.576 83.2509 593.722 82.8665L597.639 83.125C597.441 84.0663 597.033 84.8883 596.416 85.5909C595.807 86.2869 595.018 86.8305 594.05 87.2216C593.089 87.6061 591.978 87.7983 590.719 87.7983Z" fill="#D8DEE9"/>
<path d="M437.008 125.739C435.724 125.739 434.63 125.389 433.727 124.69C432.823 123.986 432.133 122.966 431.656 121.631C431.178 120.29 430.94 118.67 430.94 116.773C430.94 114.886 431.178 113.276 431.656 111.94C432.138 110.599 432.832 109.577 433.735 108.872C434.644 108.162 435.735 107.807 437.008 107.807C438.281 107.807 439.369 108.162 440.272 108.872C441.181 109.577 441.874 110.599 442.352 111.94C442.835 113.276 443.076 114.886 443.076 116.773C443.076 118.67 442.837 120.29 442.36 121.631C441.883 122.966 441.192 123.986 440.289 124.69C439.386 125.389 438.292 125.739 437.008 125.739ZM437.008 123.864C438.281 123.864 439.269 123.25 439.974 122.023C440.678 120.795 441.031 119.045 441.031 116.773C441.031 115.261 440.869 113.974 440.545 112.912C440.227 111.849 439.766 111.04 439.164 110.483C438.567 109.926 437.849 109.648 437.008 109.648C435.746 109.648 434.761 110.27 434.05 111.514C433.34 112.753 432.985 114.506 432.985 116.773C432.985 118.284 433.144 119.568 433.462 120.625C433.781 121.682 434.238 122.486 434.835 123.037C435.437 123.588 436.161 123.864 437.008 123.864ZM460.599 115.835V117.71H452.962V115.835H460.599ZM476.649 125.739C475.933 125.727 475.217 125.591 474.501 125.33C473.786 125.068 473.132 124.628 472.541 124.009C471.95 123.384 471.476 122.54 471.118 121.477C470.76 120.409 470.581 119.068 470.581 117.455C470.581 115.909 470.726 114.54 471.016 113.347C471.305 112.148 471.726 111.139 472.277 110.321C472.828 109.497 473.493 108.872 474.271 108.446C475.055 108.02 475.939 107.807 476.922 107.807C477.899 107.807 478.768 108.003 479.53 108.395C480.297 108.781 480.922 109.321 481.405 110.014C481.888 110.707 482.2 111.506 482.342 112.409H480.263C480.07 111.625 479.695 110.974 479.138 110.457C478.581 109.94 477.842 109.682 476.922 109.682C475.57 109.682 474.504 110.27 473.726 111.446C472.953 112.622 472.564 114.273 472.558 116.398H472.695C473.013 115.915 473.391 115.503 473.828 115.162C474.271 114.815 474.76 114.548 475.294 114.361C475.828 114.173 476.393 114.08 476.99 114.08C477.99 114.08 478.905 114.33 479.734 114.83C480.564 115.324 481.229 116.009 481.729 116.884C482.229 117.753 482.479 118.75 482.479 119.875C482.479 120.955 482.237 121.943 481.754 122.841C481.271 123.733 480.592 124.443 479.717 124.972C478.848 125.494 477.825 125.75 476.649 125.739ZM476.649 123.864C477.365 123.864 478.007 123.685 478.575 123.327C479.149 122.969 479.601 122.489 479.93 121.886C480.266 121.284 480.433 120.614 480.433 119.875C480.433 119.153 480.271 118.497 479.947 117.906C479.629 117.31 479.189 116.835 478.626 116.483C478.07 116.131 477.433 115.955 476.717 115.955C476.178 115.955 475.675 116.062 475.209 116.278C474.743 116.489 474.334 116.778 473.982 117.148C473.635 117.517 473.362 117.94 473.163 118.418C472.964 118.889 472.865 119.386 472.865 119.909C472.865 120.602 473.027 121.25 473.351 121.852C473.68 122.455 474.129 122.94 474.697 123.31C475.271 123.679 475.922 123.864 476.649 123.864ZM491.523 125.739C490.239 125.739 489.146 125.389 488.242 124.69C487.339 123.986 486.648 122.966 486.171 121.631C485.694 120.29 485.455 118.67 485.455 116.773C485.455 114.886 485.694 113.276 486.171 111.94C486.654 110.599 487.347 109.577 488.251 108.872C489.16 108.162 490.251 107.807 491.523 107.807C492.796 107.807 493.884 108.162 494.788 108.872C495.697 109.577 496.39 110.599 496.867 111.94C497.35 113.276 497.592 114.886 497.592 116.773C497.592 118.67 497.353 120.29 496.876 121.631C496.398 122.966 495.708 123.986 494.805 124.69C493.901 125.389 492.808 125.739 491.523 125.739ZM491.523 123.864C492.796 123.864 493.785 123.25 494.489 122.023C495.194 120.795 495.546 119.045 495.546 116.773C495.546 115.261 495.384 113.974 495.06 112.912C494.742 111.849 494.282 111.04 493.68 110.483C493.083 109.926 492.364 109.648 491.523 109.648C490.262 109.648 489.276 110.27 488.566 111.514C487.856 112.753 487.501 114.506 487.501 116.773C487.501 118.284 487.66 119.568 487.978 120.625C488.296 121.682 488.754 122.486 489.35 123.037C489.952 123.588 490.677 123.864 491.523 123.864ZM516.887 115.341L515.08 115.852C514.967 115.551 514.799 115.259 514.577 114.974C514.362 114.685 514.066 114.446 513.691 114.259C513.316 114.071 512.836 113.977 512.251 113.977C511.45 113.977 510.782 114.162 510.248 114.531C509.719 114.895 509.455 115.358 509.455 115.92C509.455 116.42 509.637 116.815 510.001 117.105C510.364 117.395 510.933 117.636 511.705 117.83L513.648 118.307C514.819 118.591 515.691 119.026 516.265 119.611C516.839 120.19 517.126 120.937 517.126 121.852C517.126 122.602 516.91 123.273 516.478 123.864C516.052 124.455 515.455 124.92 514.688 125.261C513.921 125.602 513.029 125.773 512.012 125.773C510.677 125.773 509.572 125.483 508.697 124.903C507.822 124.324 507.268 123.477 507.035 122.364L508.944 121.886C509.126 122.591 509.469 123.119 509.975 123.472C510.487 123.824 511.154 124 511.978 124C512.915 124 513.66 123.801 514.211 123.403C514.768 123 515.046 122.517 515.046 121.955C515.046 121.5 514.887 121.119 514.569 120.812C514.251 120.5 513.762 120.267 513.103 120.114L510.921 119.602C509.722 119.318 508.842 118.878 508.279 118.281C507.722 117.679 507.444 116.926 507.444 116.023C507.444 115.284 507.651 114.631 508.066 114.062C508.487 113.494 509.058 113.048 509.779 112.724C510.506 112.401 511.33 112.239 512.251 112.239C513.546 112.239 514.563 112.523 515.302 113.091C516.046 113.659 516.575 114.409 516.887 115.341ZM525.642 125.773C524.381 125.773 523.293 125.494 522.378 124.938C521.469 124.375 520.767 123.591 520.273 122.585C519.784 121.574 519.54 120.398 519.54 119.057C519.54 117.716 519.784 116.534 520.273 115.511C520.767 114.483 521.455 113.682 522.335 113.108C523.222 112.528 524.256 112.239 525.438 112.239C526.119 112.239 526.793 112.352 527.457 112.58C528.122 112.807 528.727 113.176 529.273 113.688C529.818 114.193 530.253 114.864 530.577 115.699C530.901 116.534 531.062 117.562 531.062 118.784V119.636H520.972V117.898H529.017C529.017 117.159 528.869 116.5 528.574 115.92C528.284 115.341 527.869 114.884 527.33 114.548C526.795 114.213 526.165 114.045 525.438 114.045C524.636 114.045 523.943 114.244 523.358 114.642C522.778 115.034 522.332 115.545 522.02 116.176C521.707 116.807 521.551 117.483 521.551 118.205V119.364C521.551 120.352 521.722 121.19 522.062 121.878C522.409 122.56 522.889 123.08 523.503 123.438C524.116 123.79 524.83 123.966 525.642 123.966C526.17 123.966 526.648 123.892 527.074 123.744C527.506 123.591 527.878 123.364 528.19 123.062C528.503 122.756 528.744 122.375 528.915 121.92L530.858 122.466C530.653 123.125 530.31 123.705 529.827 124.205C529.344 124.699 528.747 125.085 528.037 125.364C527.327 125.636 526.528 125.773 525.642 125.773ZM539.44 125.773C538.213 125.773 537.156 125.483 536.27 124.903C535.384 124.324 534.702 123.526 534.224 122.509C533.747 121.491 533.509 120.33 533.509 119.023C533.509 117.693 533.753 116.52 534.241 115.503C534.736 114.48 535.423 113.682 536.304 113.108C537.19 112.528 538.224 112.239 539.406 112.239C540.327 112.239 541.156 112.409 541.895 112.75C542.634 113.091 543.239 113.568 543.71 114.182C544.182 114.795 544.474 115.511 544.588 116.33H542.577C542.423 115.733 542.082 115.205 541.554 114.744C541.031 114.278 540.327 114.045 539.44 114.045C538.656 114.045 537.969 114.25 537.378 114.659C536.793 115.062 536.335 115.634 536.006 116.372C535.682 117.105 535.52 117.966 535.52 118.955C535.52 119.966 535.679 120.847 535.997 121.597C536.321 122.347 536.776 122.929 537.361 123.344C537.952 123.759 538.645 123.966 539.44 123.966C539.963 123.966 540.438 123.875 540.864 123.693C541.29 123.511 541.651 123.25 541.946 122.909C542.241 122.568 542.452 122.159 542.577 121.682H544.588C544.474 122.455 544.193 123.151 543.744 123.77C543.301 124.384 542.713 124.872 541.98 125.236C541.253 125.594 540.406 125.773 539.44 125.773ZM552.847 125.773C551.665 125.773 550.628 125.491 549.736 124.929C548.849 124.366 548.156 123.58 547.656 122.568C547.162 121.557 546.915 120.375 546.915 119.023C546.915 117.659 547.162 116.469 547.656 115.452C548.156 114.435 548.849 113.645 549.736 113.082C550.628 112.52 551.665 112.239 552.847 112.239C554.028 112.239 555.063 112.52 555.949 113.082C556.841 113.645 557.534 114.435 558.028 115.452C558.528 116.469 558.778 117.659 558.778 119.023C558.778 120.375 558.528 121.557 558.028 122.568C557.534 123.58 556.841 124.366 555.949 124.929C555.063 125.491 554.028 125.773 552.847 125.773ZM552.847 123.966C553.744 123.966 554.483 123.736 555.062 123.276C555.642 122.815 556.071 122.21 556.349 121.46C556.628 120.71 556.767 119.898 556.767 119.023C556.767 118.148 556.628 117.332 556.349 116.577C556.071 115.821 555.642 115.21 555.062 114.744C554.483 114.278 553.744 114.045 552.847 114.045C551.949 114.045 551.21 114.278 550.631 114.744C550.051 115.21 549.622 115.821 549.344 116.577C549.065 117.332 548.926 118.148 548.926 119.023C548.926 119.898 549.065 120.71 549.344 121.46C549.622 122.21 550.051 122.815 550.631 123.276C551.21 123.736 551.949 123.966 552.847 123.966ZM563.86 117.625V125.5H561.849V112.409H563.792V114.455H563.962C564.269 113.79 564.735 113.256 565.36 112.852C565.985 112.443 566.792 112.239 567.781 112.239C568.667 112.239 569.442 112.42 570.107 112.784C570.772 113.142 571.289 113.688 571.658 114.42C572.028 115.148 572.212 116.068 572.212 117.182V125.5H570.201V117.318C570.201 116.29 569.934 115.489 569.4 114.915C568.866 114.335 568.133 114.045 567.201 114.045C566.559 114.045 565.985 114.185 565.479 114.463C564.979 114.741 564.585 115.148 564.295 115.682C564.005 116.216 563.86 116.864 563.86 117.625ZM580.831 125.773C579.74 125.773 578.777 125.497 577.942 124.946C577.107 124.389 576.453 123.605 575.982 122.594C575.51 121.577 575.274 120.375 575.274 118.989C575.274 117.614 575.51 116.42 575.982 115.409C576.453 114.398 577.109 113.616 577.95 113.065C578.791 112.514 579.763 112.239 580.865 112.239C581.717 112.239 582.391 112.381 582.885 112.665C583.385 112.943 583.766 113.261 584.027 113.619C584.294 113.972 584.501 114.261 584.649 114.489H584.82V108.045H586.831V125.5H584.888V123.489H584.649C584.501 123.727 584.291 124.028 584.018 124.392C583.746 124.75 583.357 125.071 582.851 125.355C582.345 125.634 581.672 125.773 580.831 125.773ZM581.104 123.966C581.911 123.966 582.592 123.756 583.149 123.335C583.706 122.909 584.129 122.321 584.419 121.571C584.709 120.815 584.854 119.943 584.854 118.955C584.854 117.977 584.712 117.122 584.428 116.389C584.143 115.651 583.723 115.077 583.166 114.668C582.609 114.253 581.922 114.045 581.104 114.045C580.251 114.045 579.541 114.264 578.973 114.702C578.411 115.134 577.987 115.722 577.703 116.466C577.425 117.205 577.286 118.034 577.286 118.955C577.286 119.886 577.428 120.733 577.712 121.494C578.001 122.25 578.428 122.852 578.99 123.301C579.558 123.744 580.263 123.966 581.104 123.966ZM600.067 115.341L598.26 115.852C598.146 115.551 597.979 115.259 597.757 114.974C597.541 114.685 597.246 114.446 596.871 114.259C596.496 114.071 596.016 113.977 595.43 113.977C594.629 113.977 593.962 114.162 593.428 114.531C592.899 114.895 592.635 115.358 592.635 115.92C592.635 116.42 592.817 116.815 593.18 117.105C593.544 117.395 594.112 117.636 594.885 117.83L596.828 118.307C597.999 118.591 598.871 119.026 599.445 119.611C600.018 120.19 600.305 120.937 600.305 121.852C600.305 122.602 600.089 123.273 599.658 123.864C599.232 124.455 598.635 124.92 597.868 125.261C597.101 125.602 596.209 125.773 595.192 125.773C593.857 125.773 592.751 125.483 591.876 124.903C591.001 124.324 590.447 123.477 590.214 122.364L592.124 121.886C592.305 122.591 592.649 123.119 593.155 123.472C593.666 123.824 594.334 124 595.158 124C596.095 124 596.839 123.801 597.391 123.403C597.947 123 598.226 122.517 598.226 121.955C598.226 121.5 598.067 121.119 597.749 120.812C597.43 120.5 596.942 120.267 596.283 120.114L594.101 119.602C592.902 119.318 592.021 118.878 591.459 118.281C590.902 117.679 590.624 116.926 590.624 116.023C590.624 115.284 590.831 114.631 591.246 114.062C591.666 113.494 592.237 113.048 592.959 112.724C593.686 112.401 594.51 112.239 595.43 112.239C596.726 112.239 597.743 112.523 598.482 113.091C599.226 113.659 599.754 114.409 600.067 115.341Z" fill="#D8DEE9"/>
<path d="M669 0H1015.13L1049 96.5486L1015.13 192H669L702.909 96L669 0Z" fill="#2F3340"/>
<path d="M669 0H1015.13L1049 96.5486L1015.13 192H669L702.909 96L669 0Z" fill="#2F3340"/>
<path d="M669 0H1015.13L1049 96.5486L1015.13 192H669L702.909 96L669 0Z" fill="#2F3340"/>
<path d="M669 0H1015.13L1049 96.5486L1015.13 192H669L702.909 96L669 0Z" fill="#2F3340"/>
<path d="M669 0H1015.13L1049 96.5486L1015.13 192H669L702.909 96L669 0Z" fill="#2F3340"/>
<path d="M669 0H1015.13L1049 96.5486L1015.13 192H669L702.909 96L669 0Z" fill="#2F3340"/>
<rect width="305" height="192" transform="translate(706)" fill="#2F3340"/>
<path d="M765.209 55.9929C765.13 55.1908 764.788 54.5677 764.185 54.1236C763.582 53.6794 762.763 53.4574 761.729 53.4574C761.027 53.4574 760.433 53.5568 759.949 53.7557C759.465 53.9479 759.094 54.2164 758.836 54.5611C758.584 54.9058 758.458 55.2969 758.458 55.7344C758.445 56.099 758.521 56.4171 758.687 56.6889C758.859 56.9607 759.094 57.196 759.393 57.3949C759.691 57.5871 760.036 57.7562 760.427 57.902C760.818 58.0412 761.235 58.1605 761.68 58.2599L763.509 58.6974C764.397 58.8963 765.213 59.1615 765.955 59.4929C766.698 59.8243 767.34 60.232 767.884 60.7159C768.428 61.1998 768.849 61.7699 769.147 62.4261C769.452 63.0824 769.608 63.8348 769.614 64.6832C769.608 65.9295 769.289 67.0099 768.66 67.9247C768.037 68.8329 767.135 69.5388 765.955 70.0426C764.782 70.5398 763.367 70.7884 761.709 70.7884C760.065 70.7884 758.634 70.5365 757.414 70.0327C756.201 69.5289 755.253 68.7831 754.57 67.7955C753.894 66.8011 753.539 65.5715 753.506 64.1065H757.672C757.719 64.7893 757.914 65.3594 758.259 65.8168C758.61 66.2675 759.078 66.6089 759.661 66.8409C760.251 67.0663 760.917 67.179 761.66 67.179C762.389 67.179 763.022 67.0729 763.559 66.8608C764.102 66.6487 764.523 66.3537 764.822 65.9759C765.12 65.598 765.269 65.1638 765.269 64.6733C765.269 64.2159 765.133 63.8314 764.861 63.5199C764.596 63.2083 764.205 62.9432 763.688 62.7244C763.178 62.5057 762.551 62.3068 761.809 62.1278L759.591 61.571C757.875 61.1534 756.519 60.5005 755.525 59.6122C754.53 58.724 754.037 57.5275 754.043 56.0227C754.037 54.7898 754.365 53.7126 755.028 52.7912C755.697 51.8698 756.615 51.1506 757.782 50.6335C758.948 50.1165 760.274 49.858 761.759 49.858C763.27 49.858 764.59 50.1165 765.716 50.6335C766.85 51.1506 767.732 51.8698 768.361 52.7912C768.991 53.7126 769.316 54.7798 769.336 55.9929H765.209ZM780.554 55.2273V58.4091H771.357V55.2273H780.554ZM773.445 51.5682H777.681V65.8068C777.681 66.1979 777.74 66.5028 777.86 66.7216C777.979 66.9337 778.145 67.0829 778.357 67.169C778.575 67.2552 778.827 67.2983 779.112 67.2983C779.311 67.2983 779.51 67.2817 779.709 67.2486C779.908 67.2088 780.06 67.179 780.166 67.1591L780.833 70.3111C780.62 70.3774 780.322 70.4536 779.938 70.5398C779.553 70.6326 779.086 70.6889 778.536 70.7088C777.515 70.7486 776.62 70.6127 775.851 70.3011C775.089 69.9896 774.495 69.5057 774.071 68.8494C773.647 68.1932 773.438 67.3646 773.445 66.3636V51.5682ZM787.669 70.7884C786.694 70.7884 785.826 70.6193 785.063 70.2812C784.301 69.9366 783.698 69.4295 783.254 68.7599C782.816 68.0838 782.597 67.242 782.597 66.2344C782.597 65.3859 782.753 64.6733 783.065 64.0966C783.376 63.5199 783.801 63.0559 784.338 62.7045C784.874 62.3532 785.484 62.0881 786.167 61.9091C786.856 61.7301 787.579 61.6042 788.335 61.5312C789.223 61.4384 789.939 61.3523 790.482 61.2727C791.026 61.1866 791.42 61.0606 791.666 60.8949C791.911 60.7292 792.034 60.4839 792.034 60.1591V60.0994C792.034 59.4697 791.835 58.9825 791.437 58.6378C791.046 58.2931 790.489 58.1207 789.767 58.1207C789.004 58.1207 788.398 58.2898 787.947 58.6278C787.496 58.9593 787.198 59.3769 787.052 59.8807L783.134 59.5625C783.333 58.6345 783.724 57.8324 784.308 57.1562C784.891 56.4735 785.643 55.9498 786.565 55.5852C787.493 55.214 788.567 55.0284 789.786 55.0284C790.635 55.0284 791.447 55.1278 792.222 55.3267C793.005 55.5256 793.697 55.8338 794.301 56.2514C794.91 56.669 795.391 57.206 795.742 57.8622C796.094 58.5118 796.269 59.2907 796.269 60.1989V70.5H792.252V68.3821H792.133C791.888 68.8594 791.56 69.2803 791.149 69.6449C790.738 70.0028 790.244 70.2846 789.667 70.4901C789.09 70.6889 788.424 70.7884 787.669 70.7884ZM788.882 67.8651C789.505 67.8651 790.055 67.7424 790.532 67.4972C791.009 67.2453 791.384 66.9072 791.656 66.483C791.927 66.0587 792.063 65.5781 792.063 65.0412V63.4205C791.931 63.5066 791.749 63.5862 791.517 63.6591C791.291 63.7254 791.036 63.7884 790.751 63.848C790.466 63.901 790.181 63.9508 789.896 63.9972C789.611 64.0369 789.352 64.0734 789.12 64.1065C788.623 64.1795 788.189 64.2955 787.818 64.4545C787.446 64.6136 787.158 64.8291 786.953 65.1009C786.747 65.366 786.644 65.6974 786.644 66.0952C786.644 66.6719 786.853 67.1127 787.271 67.4176C787.695 67.7159 788.232 67.8651 788.882 67.8651ZM803.791 50.1364V70.5H799.556V50.1364H803.791ZM814.145 70.7983C812.574 70.7983 811.221 70.4801 810.088 69.8438C808.961 69.2008 808.093 68.2926 807.483 67.1193C806.873 65.9394 806.568 64.544 806.568 62.9332C806.568 61.3622 806.873 59.9834 807.483 58.7969C808.093 57.6103 808.951 56.6856 810.058 56.0227C811.172 55.3598 812.478 55.0284 813.976 55.0284C814.983 55.0284 815.921 55.1908 816.79 55.5156C817.665 55.8338 818.427 56.3144 819.077 56.9574C819.733 57.6004 820.243 58.4091 820.608 59.3835C820.972 60.3513 821.155 61.4848 821.155 62.7841V63.9474H808.258V61.3224H817.167C817.167 60.7126 817.035 60.1723 816.77 59.7017C816.505 59.2311 816.137 58.8632 815.666 58.598C815.202 58.3262 814.662 58.1903 814.045 58.1903C813.402 58.1903 812.832 58.3395 812.335 58.6378C811.845 58.9295 811.46 59.3239 811.182 59.821C810.903 60.3116 810.761 60.8584 810.754 61.4616V63.9574C810.754 64.7131 810.893 65.366 811.172 65.9162C811.457 66.4664 811.858 66.8906 812.375 67.1889C812.892 67.4872 813.505 67.6364 814.214 67.6364C814.685 67.6364 815.116 67.5701 815.507 67.4375C815.898 67.3049 816.233 67.1061 816.511 66.8409C816.79 66.5758 817.002 66.2509 817.148 65.8665L821.065 66.125C820.866 67.0663 820.459 67.8883 819.842 68.5909C819.232 69.2869 818.443 69.8305 817.476 70.2216C816.515 70.6061 815.404 70.7983 814.145 70.7983ZM837.3 70.7983C835.735 70.7983 834.39 70.4669 833.263 69.804C832.143 69.1345 831.281 68.2064 830.678 67.0199C830.081 65.8333 829.783 64.4678 829.783 62.9233C829.783 61.3589 830.084 59.9867 830.688 58.8068C831.298 57.6203 832.163 56.6955 833.283 56.0327C834.403 55.3632 835.735 55.0284 837.28 55.0284C838.612 55.0284 839.779 55.2704 840.78 55.7543C841.781 56.2382 842.573 56.9176 843.156 57.7926C843.74 58.6676 844.061 59.6951 844.121 60.875H840.124C840.011 60.1127 839.713 59.4995 839.229 59.0355C838.752 58.5649 838.125 58.3295 837.35 58.3295C836.693 58.3295 836.12 58.5085 835.629 58.8665C835.146 59.2178 834.768 59.7315 834.496 60.4077C834.224 61.0838 834.088 61.9025 834.088 62.8636C834.088 63.8381 834.221 64.6667 834.486 65.3494C834.758 66.0322 835.139 66.5526 835.629 66.9105C836.12 67.2685 836.693 67.4474 837.35 67.4474C837.834 67.4474 838.268 67.348 838.652 67.1491C839.043 66.9503 839.365 66.6619 839.617 66.2841C839.875 65.8996 840.044 65.4389 840.124 64.902H844.121C844.055 66.0687 843.736 67.0961 843.166 67.9844C842.603 68.866 841.824 69.5554 840.83 70.0526C839.835 70.5497 838.659 70.7983 837.3 70.7983ZM851.188 70.7884C850.214 70.7884 849.345 70.6193 848.583 70.2812C847.821 69.9366 847.217 69.4295 846.773 68.7599C846.336 68.0838 846.117 67.242 846.117 66.2344C846.117 65.3859 846.273 64.6733 846.584 64.0966C846.896 63.5199 847.32 63.0559 847.857 62.7045C848.394 62.3532 849.004 62.0881 849.687 61.9091C850.376 61.7301 851.099 61.6042 851.854 61.5312C852.742 61.4384 853.458 61.3523 854.002 61.2727C854.546 61.1866 854.94 61.0606 855.185 60.8949C855.43 60.7292 855.553 60.4839 855.553 60.1591V60.0994C855.553 59.4697 855.354 58.9825 854.956 58.6378C854.565 58.2931 854.009 58.1207 853.286 58.1207C852.524 58.1207 851.917 58.2898 851.466 58.6278C851.016 58.9593 850.717 59.3769 850.572 59.8807L846.654 59.5625C846.853 58.6345 847.244 57.8324 847.827 57.1562C848.411 56.4735 849.163 55.9498 850.084 55.5852C851.012 55.214 852.086 55.0284 853.306 55.0284C854.154 55.0284 854.966 55.1278 855.742 55.3267C856.524 55.5256 857.217 55.8338 857.82 56.2514C858.43 56.669 858.911 57.206 859.262 57.8622C859.613 58.5118 859.789 59.2907 859.789 60.1989V70.5H855.772V68.3821H855.653C855.407 68.8594 855.079 69.2803 854.668 69.6449C854.257 70.0028 853.763 70.2846 853.187 70.4901C852.61 70.6889 851.944 70.7884 851.188 70.7884ZM852.401 67.8651C853.024 67.8651 853.574 67.7424 854.052 67.4972C854.529 67.2453 854.903 66.9072 855.175 66.483C855.447 66.0587 855.583 65.5781 855.583 65.0412V63.4205C855.45 63.5066 855.268 63.5862 855.036 63.6591C854.811 63.7254 854.555 63.7884 854.27 63.848C853.985 63.901 853.7 63.9508 853.415 63.9972C853.13 64.0369 852.872 64.0734 852.64 64.1065C852.143 64.1795 851.708 64.2955 851.337 64.4545C850.966 64.6136 850.678 64.8291 850.472 65.1009C850.267 65.366 850.164 65.6974 850.164 66.0952C850.164 66.6719 850.373 67.1127 850.79 67.4176C851.215 67.7159 851.751 67.8651 852.401 67.8651ZM869.976 70.7983C868.411 70.7983 867.066 70.4669 865.939 69.804C864.818 69.1345 863.957 68.2064 863.354 67.0199C862.757 65.8333 862.459 64.4678 862.459 62.9233C862.459 61.3589 862.76 59.9867 863.363 58.8068C863.973 57.6203 864.838 56.6955 865.959 56.0327C867.079 55.3632 868.411 55.0284 869.956 55.0284C871.288 55.0284 872.455 55.2704 873.456 55.7543C874.457 56.2382 875.249 56.9176 875.832 57.7926C876.416 58.6676 876.737 59.6951 876.797 60.875H872.8C872.687 60.1127 872.389 59.4995 871.905 59.0355C871.427 58.5649 870.801 58.3295 870.025 58.3295C869.369 58.3295 868.796 58.5085 868.305 58.8665C867.821 59.2178 867.443 59.7315 867.172 60.4077C866.9 61.0838 866.764 61.9025 866.764 62.8636C866.764 63.8381 866.897 64.6667 867.162 65.3494C867.434 66.0322 867.815 66.5526 868.305 66.9105C868.796 67.2685 869.369 67.4474 870.025 67.4474C870.509 67.4474 870.943 67.348 871.328 67.1491C871.719 66.9503 872.041 66.6619 872.292 66.2841C872.551 65.8996 872.72 65.4389 872.8 64.902H876.797C876.73 66.0687 876.412 67.0961 875.842 67.9844C875.279 68.866 874.5 69.5554 873.506 70.0526C872.511 70.5497 871.335 70.7983 869.976 70.7983ZM883.744 61.6705V70.5H879.509V50.1364H883.625V57.9219H883.804C884.149 57.0204 884.706 56.3144 885.475 55.804C886.244 55.2869 887.208 55.0284 888.368 55.0284C889.429 55.0284 890.353 55.2604 891.142 55.7244C891.938 56.1818 892.554 56.8414 892.992 57.7031C893.436 58.5582 893.655 59.5824 893.648 60.7756V70.5H889.412V61.5312C889.419 60.59 889.18 59.8575 888.696 59.3338C888.219 58.8101 887.549 58.5483 886.688 58.5483C886.111 58.5483 885.601 58.6709 885.156 58.9162C884.719 59.1615 884.374 59.5194 884.122 59.9901C883.877 60.4541 883.751 61.0142 883.744 61.6705ZM903.942 70.7983C902.371 70.7983 901.018 70.4801 899.885 69.8438C898.758 69.2008 897.89 68.2926 897.28 67.1193C896.67 65.9394 896.365 64.544 896.365 62.9332C896.365 61.3622 896.67 59.9834 897.28 58.7969C897.89 57.6103 898.748 56.6856 899.855 56.0227C900.969 55.3598 902.274 55.0284 903.773 55.0284C904.78 55.0284 905.718 55.1908 906.586 55.5156C907.461 55.8338 908.224 56.3144 908.873 56.9574C909.53 57.6004 910.04 58.4091 910.405 59.3835C910.769 60.3513 910.952 61.4848 910.952 62.7841V63.9474H898.055V61.3224H906.964C906.964 60.7126 906.832 60.1723 906.567 59.7017C906.301 59.2311 905.934 58.8632 905.463 58.598C904.999 58.3262 904.459 58.1903 903.842 58.1903C903.199 58.1903 902.629 58.3395 902.132 58.6378C901.641 58.9295 901.257 59.3239 900.979 59.821C900.7 60.3116 900.558 60.8584 900.551 61.4616V63.9574C900.551 64.7131 900.69 65.366 900.969 65.9162C901.254 66.4664 901.655 66.8906 902.172 67.1889C902.689 67.4872 903.302 67.6364 904.011 67.6364C904.482 67.6364 904.913 67.5701 905.304 67.4375C905.695 67.3049 906.03 67.1061 906.308 66.8409C906.586 66.5758 906.799 66.2509 906.944 65.8665L910.862 66.125C910.663 67.0663 910.256 67.8883 909.639 68.5909C909.029 69.2869 908.24 69.8305 907.273 70.2216C906.311 70.6061 905.201 70.7983 903.942 70.7983ZM920.276 70.5V50.1364H924.512V57.7926H924.641C924.826 57.3816 925.095 56.964 925.446 56.5398C925.804 56.1089 926.268 55.7509 926.838 55.4659C927.415 55.1742 928.131 55.0284 928.986 55.0284C930.1 55.0284 931.127 55.3201 932.068 55.9034C933.01 56.4801 933.762 57.3518 934.325 58.5185C934.889 59.6785 935.171 61.1335 935.171 62.8835C935.171 64.5871 934.896 66.0256 934.345 67.1989C933.802 68.3655 933.059 69.2505 932.118 69.8537C931.183 70.4503 930.136 70.7486 928.976 70.7486C928.154 70.7486 927.455 70.6127 926.878 70.3409C926.308 70.0691 925.841 69.7277 925.476 69.3168C925.111 68.8991 924.833 68.4782 924.641 68.054H924.452V70.5H920.276ZM924.422 62.8636C924.422 63.7718 924.548 64.5639 924.8 65.2401C925.052 65.9162 925.416 66.4432 925.894 66.821C926.371 67.1922 926.951 67.3778 927.634 67.3778C928.323 67.3778 928.906 67.1889 929.384 66.8111C929.861 66.4266 930.222 65.8963 930.468 65.2202C930.719 64.5374 930.845 63.7519 930.845 62.8636C930.845 61.982 930.723 61.2064 930.477 60.5369C930.232 59.8674 929.871 59.3437 929.394 58.9659C928.916 58.5881 928.33 58.3991 927.634 58.3991C926.944 58.3991 926.361 58.5814 925.884 58.946C925.413 59.3106 925.052 59.8277 924.8 60.4972C924.548 61.1667 924.422 61.9555 924.422 62.8636ZM947.791 63.9972V55.2273H952.027V70.5H947.96V67.7259H947.801C947.456 68.6207 946.883 69.34 946.081 69.8835C945.285 70.4271 944.314 70.6989 943.167 70.6989C942.147 70.6989 941.248 70.4669 940.473 70.0028C939.697 69.5388 939.091 68.8793 938.653 68.0241C938.222 67.169 938.004 66.1449 937.997 64.9517V55.2273H942.233V64.196C942.239 65.0975 942.481 65.8101 942.959 66.3338C943.436 66.8575 944.076 67.1193 944.878 67.1193C945.388 67.1193 945.865 67.0033 946.309 66.7713C946.754 66.5327 947.112 66.1813 947.383 65.7173C947.662 65.2533 947.798 64.6799 947.791 63.9972ZM963.539 55.2273V58.4091H954.341V55.2273H963.539ZM956.429 51.5682H960.665V65.8068C960.665 66.1979 960.725 66.5028 960.844 66.7216C960.963 66.9337 961.129 67.0829 961.341 67.169C961.56 67.2552 961.812 67.2983 962.097 67.2983C962.296 67.2983 962.494 67.2817 962.693 67.2486C962.892 67.2088 963.045 67.179 963.151 67.1591L963.817 70.3111C963.605 70.3774 963.307 70.4536 962.922 70.5398C962.538 70.6326 962.07 70.6889 961.52 70.7088C960.499 70.7486 959.604 70.6127 958.835 70.3011C958.073 69.9896 957.48 69.5057 957.056 68.8494C956.631 68.1932 956.423 67.3646 956.429 66.3636V51.5682ZM779.061 104.5V89.2273H783.168V91.892H783.327C783.605 90.9441 784.073 90.2282 784.729 89.7443C785.385 89.2538 786.141 89.0085 786.996 89.0085C787.208 89.0085 787.437 89.0218 787.682 89.0483C787.927 89.0748 788.143 89.1113 788.328 89.1577V92.9162C788.13 92.8565 787.855 92.8035 787.503 92.7571C787.152 92.7107 786.83 92.6875 786.539 92.6875C785.916 92.6875 785.359 92.8234 784.868 93.0952C784.384 93.3603 784 93.7315 783.715 94.2088C783.436 94.6861 783.297 95.2363 783.297 95.8594V104.5H779.061ZM796.768 104.798C795.197 104.798 793.844 104.48 792.711 103.844C791.584 103.201 790.716 102.293 790.106 101.119C789.496 99.9394 789.191 98.544 789.191 96.9332C789.191 95.3622 789.496 93.9834 790.106 92.7969C790.716 91.6103 791.574 90.6856 792.681 90.0227C793.795 89.3598 795.101 89.0284 796.599 89.0284C797.606 89.0284 798.544 89.1908 799.413 89.5156C800.288 89.8338 801.05 90.3144 801.7 90.9574C802.356 91.6004 802.866 92.4091 803.231 93.3835C803.595 94.3513 803.778 95.4848 803.778 96.7841V97.9474H790.881V95.3224H799.79C799.79 94.7126 799.658 94.1723 799.393 93.7017C799.128 93.2311 798.76 92.8632 798.289 92.598C797.825 92.3262 797.285 92.1903 796.668 92.1903C796.025 92.1903 795.455 92.3395 794.958 92.6378C794.468 92.9295 794.083 93.3239 793.805 93.821C793.526 94.3116 793.384 94.8584 793.377 95.4616V97.9574C793.377 98.7131 793.516 99.366 793.795 99.9162C794.08 100.466 794.481 100.891 794.998 101.189C795.515 101.487 796.128 101.636 796.837 101.636C797.308 101.636 797.739 101.57 798.13 101.438C798.521 101.305 798.856 101.106 799.134 100.841C799.413 100.576 799.625 100.251 799.771 99.8665L803.688 100.125C803.489 101.066 803.082 101.888 802.465 102.591C801.855 103.287 801.067 103.83 800.099 104.222C799.138 104.606 798.027 104.798 796.768 104.798ZM820.37 89.2273L815.031 104.5H810.258L804.919 89.2273H809.393L812.565 100.155H812.724L815.886 89.2273H820.37ZM826.483 104.788C825.509 104.788 824.64 104.619 823.878 104.281C823.116 103.937 822.512 103.429 822.068 102.76C821.631 102.084 821.412 101.242 821.412 100.234C821.412 99.3859 821.568 98.6733 821.879 98.0966C822.191 97.5199 822.615 97.0559 823.152 96.7045C823.689 96.3532 824.299 96.0881 824.982 95.9091C825.671 95.7301 826.393 95.6042 827.149 95.5312C828.037 95.4384 828.753 95.3523 829.297 95.2727C829.84 95.1866 830.235 95.0606 830.48 94.8949C830.725 94.7292 830.848 94.4839 830.848 94.1591V94.0994C830.848 93.4697 830.649 92.9825 830.251 92.6378C829.86 92.2931 829.304 92.1207 828.581 92.1207C827.819 92.1207 827.212 92.2898 826.761 92.6278C826.311 92.9593 826.012 93.3769 825.866 93.8807L821.949 93.5625C822.148 92.6345 822.539 91.8324 823.122 91.1562C823.705 90.4735 824.458 89.9498 825.379 89.5852C826.307 89.214 827.381 89.0284 828.601 89.0284C829.449 89.0284 830.261 89.1278 831.037 89.3267C831.819 89.5256 832.512 89.8338 833.115 90.2514C833.725 90.669 834.205 91.206 834.557 91.8622C834.908 92.5118 835.084 93.2907 835.084 94.1989V104.5H831.067V102.382H830.947C830.702 102.859 830.374 103.28 829.963 103.645C829.552 104.003 829.058 104.285 828.482 104.49C827.905 104.689 827.239 104.788 826.483 104.788ZM827.696 101.865C828.319 101.865 828.869 101.742 829.347 101.497C829.824 101.245 830.198 100.907 830.47 100.483C830.742 100.059 830.878 99.5781 830.878 99.0412V97.4205C830.745 97.5066 830.563 97.5862 830.331 97.6591C830.106 97.7254 829.85 97.7884 829.565 97.848C829.28 97.901 828.995 97.9508 828.71 97.9972C828.425 98.0369 828.167 98.0734 827.935 98.1065C827.438 98.1795 827.003 98.2955 826.632 98.4545C826.261 98.6136 825.973 98.8291 825.767 99.1009C825.562 99.366 825.459 99.6974 825.459 100.095C825.459 100.672 825.668 101.113 826.085 101.418C826.509 101.716 827.046 101.865 827.696 101.865ZM842.606 84.1364V104.5H838.37V84.1364H842.606ZM845.999 104.5V89.2273H850.235V104.5H845.999ZM848.127 87.2585C847.497 87.2585 846.957 87.0497 846.506 86.6321C846.062 86.2079 845.84 85.7008 845.84 85.1108C845.84 84.5275 846.062 84.027 846.506 83.6094C846.957 83.1851 847.497 82.973 848.127 82.973C848.757 82.973 849.293 83.1851 849.738 83.6094C850.188 84.027 850.414 84.5275 850.414 85.1108C850.414 85.7008 850.188 86.2079 849.738 86.6321C849.293 87.0497 848.757 87.2585 848.127 87.2585ZM859.256 104.749C858.096 104.749 857.045 104.45 856.104 103.854C855.169 103.25 854.427 102.366 853.876 101.199C853.333 100.026 853.061 98.5871 853.061 96.8835C853.061 95.1335 853.343 93.6785 853.906 92.5185C854.47 91.3518 855.219 90.4801 856.153 89.9034C857.095 89.3201 858.125 89.0284 859.246 89.0284C860.101 89.0284 860.813 89.1742 861.384 89.4659C861.96 89.7509 862.424 90.1089 862.776 90.5398C863.134 90.964 863.405 91.3816 863.591 91.7926H863.72V84.1364H867.946V104.5H863.77V102.054H863.591C863.392 102.478 863.11 102.899 862.746 103.317C862.388 103.728 861.92 104.069 861.344 104.341C860.774 104.613 860.078 104.749 859.256 104.749ZM860.598 101.378C861.281 101.378 861.857 101.192 862.328 100.821C862.805 100.443 863.17 99.9162 863.422 99.2401C863.68 98.5639 863.81 97.7718 863.81 96.8636C863.81 95.9555 863.684 95.1667 863.432 94.4972C863.18 93.8277 862.815 93.3106 862.338 92.946C861.861 92.5814 861.281 92.3991 860.598 92.3991C859.902 92.3991 859.315 92.5881 858.838 92.9659C858.361 93.3437 858 93.8674 857.754 94.5369C857.509 95.2064 857.386 95.982 857.386 96.8636C857.386 97.7519 857.509 98.5374 857.754 99.2202C858.006 99.8963 858.367 100.427 858.838 100.811C859.315 101.189 859.902 101.378 860.598 101.378ZM875.784 104.788C874.809 104.788 873.941 104.619 873.179 104.281C872.416 103.937 871.813 103.429 871.369 102.76C870.931 102.084 870.713 101.242 870.713 100.234C870.713 99.3859 870.868 98.6733 871.18 98.0966C871.492 97.5199 871.916 97.0559 872.453 96.7045C872.99 96.3532 873.6 96.0881 874.282 95.9091C874.972 95.7301 875.694 95.6042 876.45 95.5312C877.338 95.4384 878.054 95.3523 878.598 95.2727C879.141 95.1866 879.536 95.0606 879.781 94.8949C880.026 94.7292 880.149 94.4839 880.149 94.1591V94.0994C880.149 93.4697 879.95 92.9825 879.552 92.6378C879.161 92.2931 878.604 92.1207 877.882 92.1207C877.119 92.1207 876.513 92.2898 876.062 92.6278C875.611 92.9593 875.313 93.3769 875.167 93.8807L871.25 93.5625C871.449 92.6345 871.84 91.8324 872.423 91.1562C873.006 90.4735 873.759 89.9498 874.68 89.5852C875.608 89.214 876.682 89.0284 877.902 89.0284C878.75 89.0284 879.562 89.1278 880.338 89.3267C881.12 89.5256 881.813 89.8338 882.416 90.2514C883.026 90.669 883.506 91.206 883.858 91.8622C884.209 92.5118 884.385 93.2907 884.385 94.1989V104.5H880.368V102.382H880.248C880.003 102.859 879.675 103.28 879.264 103.645C878.853 104.003 878.359 104.285 877.782 104.49C877.206 104.689 876.539 104.788 875.784 104.788ZM876.997 101.865C877.62 101.865 878.17 101.742 878.647 101.497C879.125 101.245 879.499 100.907 879.771 100.483C880.043 100.059 880.179 99.5781 880.179 99.0412V97.4205C880.046 97.5066 879.864 97.5862 879.632 97.6591C879.406 97.7254 879.151 97.7884 878.866 97.848C878.581 97.901 878.296 97.9508 878.011 97.9972C877.726 98.0369 877.467 98.0734 877.235 98.1065C876.738 98.1795 876.304 98.2955 875.933 98.4545C875.562 98.6136 875.273 98.8291 875.068 99.1009C874.862 99.366 874.76 99.6974 874.76 100.095C874.76 100.672 874.968 101.113 875.386 101.418C875.81 101.716 876.347 101.865 876.997 101.865ZM895.794 89.2273V92.4091H886.597V89.2273H895.794ZM888.685 85.5682H892.921V99.8068C892.921 100.198 892.98 100.503 893.1 100.722C893.219 100.934 893.385 101.083 893.597 101.169C893.816 101.255 894.068 101.298 894.353 101.298C894.551 101.298 894.75 101.282 894.949 101.249C895.148 101.209 895.301 101.179 895.407 101.159L896.073 104.311C895.861 104.377 895.562 104.454 895.178 104.54C894.793 104.633 894.326 104.689 893.776 104.709C892.755 104.749 891.86 104.613 891.091 104.301C890.329 103.99 889.736 103.506 889.311 102.849C888.887 102.193 888.678 101.365 888.685 100.364V85.5682ZM898.554 104.5V89.2273H902.789V104.5H898.554ZM900.681 87.2585C900.052 87.2585 899.511 87.0497 899.061 86.6321C898.617 86.2079 898.395 85.7008 898.395 85.1108C898.395 84.5275 898.617 84.027 899.061 83.6094C899.511 83.1851 900.052 82.973 900.681 82.973C901.311 82.973 901.848 83.1851 902.292 83.6094C902.743 84.027 902.968 84.5275 902.968 85.1108C902.968 85.7008 902.743 86.2079 902.292 86.6321C901.848 87.0497 901.311 87.2585 900.681 87.2585ZM910.418 95.6705V104.5H906.183V89.2273H910.219V91.9219H910.398C910.737 91.0336 911.303 90.331 912.099 89.8139C912.894 89.2902 913.859 89.0284 914.992 89.0284C916.053 89.0284 916.978 89.2604 917.766 89.7244C918.555 90.1884 919.168 90.8513 919.606 91.7131C920.043 92.5682 920.262 93.589 920.262 94.7756V104.5H916.026V95.5312C916.033 94.5966 915.794 93.8674 915.31 93.3438C914.826 92.8134 914.16 92.5483 913.312 92.5483C912.742 92.5483 912.238 92.6709 911.8 92.9162C911.37 93.1615 911.031 93.5194 910.786 93.9901C910.548 94.4541 910.425 95.0142 910.418 95.6705ZM930.481 110.545C929.109 110.545 927.932 110.357 926.951 109.979C925.977 109.607 925.201 109.1 924.625 108.457C924.048 107.814 923.673 107.092 923.501 106.29L927.419 105.763C927.538 106.068 927.727 106.353 927.985 106.618C928.244 106.883 928.585 107.095 929.01 107.254C929.44 107.42 929.964 107.503 930.581 107.503C931.502 107.503 932.261 107.277 932.858 106.827C933.461 106.383 933.762 105.637 933.762 104.589V101.795H933.583C933.398 102.22 933.119 102.621 932.748 102.999C932.377 103.376 931.9 103.685 931.316 103.923C930.733 104.162 930.037 104.281 929.228 104.281C928.082 104.281 927.038 104.016 926.096 103.486C925.162 102.949 924.416 102.13 923.859 101.03C923.309 99.9228 923.034 98.5241 923.034 96.8338C923.034 95.1037 923.315 93.6586 923.879 92.4986C924.442 91.3385 925.191 90.4702 926.126 89.8935C927.067 89.3168 928.098 89.0284 929.218 89.0284C930.074 89.0284 930.789 89.1742 931.366 89.4659C931.943 89.7509 932.407 90.1089 932.758 90.5398C933.116 90.964 933.391 91.3816 933.583 91.7926H933.743V89.2273H937.949V104.649C937.949 105.948 937.63 107.036 936.994 107.911C936.358 108.786 935.476 109.442 934.349 109.879C933.229 110.323 931.94 110.545 930.481 110.545ZM930.571 101.099C931.253 101.099 931.83 100.93 932.301 100.592C932.778 100.248 933.143 99.7571 933.395 99.1207C933.653 98.4777 933.782 97.7088 933.782 96.8139C933.782 95.919 933.656 95.1435 933.404 94.4872C933.153 93.8243 932.788 93.3106 932.311 92.946C931.833 92.5814 931.253 92.3991 930.571 92.3991C929.875 92.3991 929.288 92.5881 928.811 92.9659C928.333 93.3371 927.972 93.8542 927.727 94.517C927.482 95.1799 927.359 95.9455 927.359 96.8139C927.359 97.6955 927.482 98.4579 927.727 99.1009C927.979 99.7372 928.34 100.231 928.811 100.582C929.288 100.927 929.875 101.099 930.571 101.099Z" fill="#D8DEE9"/>
<path d="M767.266 142.739C766.55 142.727 765.835 142.591 765.119 142.33C764.403 142.068 763.749 141.628 763.158 141.009C762.567 140.384 762.093 139.54 761.735 138.477C761.377 137.409 761.198 136.068 761.198 134.455C761.198 132.909 761.343 131.54 761.633 130.347C761.923 129.148 762.343 128.139 762.894 127.321C763.445 126.497 764.11 125.872 764.888 125.446C765.673 125.02 766.556 124.807 767.539 124.807C768.516 124.807 769.386 125.003 770.147 125.395C770.914 125.781 771.539 126.321 772.022 127.014C772.505 127.707 772.817 128.506 772.96 129.409H770.88C770.687 128.625 770.312 127.974 769.755 127.457C769.198 126.94 768.46 126.682 767.539 126.682C766.187 126.682 765.121 127.27 764.343 128.446C763.57 129.622 763.181 131.273 763.175 133.398H763.312C763.63 132.915 764.008 132.503 764.445 132.162C764.888 131.815 765.377 131.548 765.911 131.361C766.445 131.173 767.011 131.08 767.607 131.08C768.607 131.08 769.522 131.33 770.352 131.83C771.181 132.324 771.846 133.009 772.346 133.884C772.846 134.753 773.096 135.75 773.096 136.875C773.096 137.955 772.854 138.943 772.371 139.841C771.888 140.733 771.21 141.443 770.335 141.972C769.465 142.494 768.442 142.75 767.266 142.739ZM767.266 140.864C767.982 140.864 768.624 140.685 769.192 140.327C769.766 139.969 770.218 139.489 770.548 138.886C770.883 138.284 771.05 137.614 771.05 136.875C771.05 136.153 770.888 135.497 770.565 134.906C770.246 134.31 769.806 133.835 769.244 133.483C768.687 133.131 768.05 132.955 767.335 132.955C766.795 132.955 766.292 133.062 765.826 133.278C765.36 133.489 764.951 133.778 764.599 134.148C764.252 134.517 763.979 134.94 763.781 135.418C763.582 135.889 763.482 136.386 763.482 136.909C763.482 137.602 763.644 138.25 763.968 138.852C764.298 139.455 764.746 139.94 765.315 140.31C765.888 140.679 766.539 140.864 767.266 140.864ZM782.141 142.739C780.857 142.739 779.763 142.389 778.859 141.69C777.956 140.986 777.266 139.966 776.788 138.631C776.311 137.29 776.072 135.67 776.072 133.773C776.072 131.886 776.311 130.276 776.788 128.94C777.271 127.599 777.964 126.577 778.868 125.872C779.777 125.162 780.868 124.807 782.141 124.807C783.413 124.807 784.501 125.162 785.405 125.872C786.314 126.577 787.007 127.599 787.484 128.94C787.967 130.276 788.209 131.886 788.209 133.773C788.209 135.67 787.97 137.29 787.493 138.631C787.016 139.966 786.325 140.986 785.422 141.69C784.518 142.389 783.425 142.739 782.141 142.739ZM782.141 140.864C783.413 140.864 784.402 140.25 785.107 139.023C785.811 137.795 786.163 136.045 786.163 133.773C786.163 132.261 786.001 130.974 785.678 129.912C785.359 128.849 784.899 128.04 784.297 127.483C783.7 126.926 782.982 126.648 782.141 126.648C780.879 126.648 779.893 127.27 779.183 128.514C778.473 129.753 778.118 131.506 778.118 133.773C778.118 135.284 778.277 136.568 778.595 137.625C778.913 138.682 779.371 139.486 779.967 140.037C780.57 140.588 781.294 140.864 782.141 140.864ZM805.732 132.835V134.71H798.095V132.835H805.732ZM822.123 125.045V142.5H820.009V127.261H819.907L815.646 130.091V127.943L820.009 125.045H822.123ZM827.143 142.5V140.966L832.904 134.659C833.58 133.92 834.137 133.278 834.575 132.733C835.012 132.182 835.336 131.665 835.546 131.182C835.762 130.693 835.87 130.182 835.87 129.648C835.87 129.034 835.722 128.503 835.427 128.054C835.137 127.605 834.739 127.259 834.234 127.014C833.728 126.77 833.16 126.648 832.529 126.648C831.859 126.648 831.273 126.787 830.773 127.065C830.279 127.338 829.896 127.722 829.623 128.216C829.356 128.71 829.222 129.29 829.222 129.955H827.211C827.211 128.932 827.447 128.034 827.918 127.261C828.39 126.489 829.032 125.886 829.844 125.455C830.663 125.023 831.58 124.807 832.597 124.807C833.62 124.807 834.526 125.023 835.316 125.455C836.106 125.886 836.725 126.469 837.174 127.202C837.623 127.935 837.847 128.75 837.847 129.648C837.847 130.29 837.731 130.918 837.498 131.531C837.271 132.139 836.873 132.818 836.305 133.568C835.742 134.312 834.961 135.222 833.961 136.295L830.04 140.489V140.625H838.154V142.5H827.143ZM847.367 142.739C846.083 142.739 844.989 142.389 844.086 141.69C843.183 140.986 842.492 139.966 842.015 138.631C841.538 137.29 841.299 135.67 841.299 133.773C841.299 131.886 841.538 130.276 842.015 128.94C842.498 127.599 843.191 126.577 844.094 125.872C845.004 125.162 846.094 124.807 847.367 124.807C848.64 124.807 849.728 125.162 850.631 125.872C851.54 126.577 852.234 127.599 852.711 128.94C853.194 130.276 853.435 131.886 853.435 133.773C853.435 135.67 853.197 137.29 852.719 138.631C852.242 139.966 851.552 140.986 850.648 141.69C849.745 142.389 848.651 142.739 847.367 142.739ZM847.367 140.864C848.64 140.864 849.629 140.25 850.333 139.023C851.038 137.795 851.39 136.045 851.39 133.773C851.39 132.261 851.228 130.974 850.904 129.912C850.586 128.849 850.126 128.04 849.523 127.483C848.927 126.926 848.208 126.648 847.367 126.648C846.106 126.648 845.12 127.27 844.41 128.514C843.7 129.753 843.344 131.506 843.344 133.773C843.344 135.284 843.504 136.568 843.822 137.625C844.14 138.682 844.597 139.486 845.194 140.037C845.796 140.588 846.521 140.864 847.367 140.864ZM872.731 132.341L870.924 132.852C870.81 132.551 870.643 132.259 870.421 131.974C870.205 131.685 869.91 131.446 869.535 131.259C869.16 131.071 868.68 130.977 868.094 130.977C867.293 130.977 866.626 131.162 866.092 131.531C865.563 131.895 865.299 132.358 865.299 132.92C865.299 133.42 865.481 133.815 865.844 134.105C866.208 134.395 866.776 134.636 867.549 134.83L869.492 135.307C870.663 135.591 871.535 136.026 872.109 136.611C872.683 137.19 872.969 137.937 872.969 138.852C872.969 139.602 872.754 140.273 872.322 140.864C871.896 141.455 871.299 141.92 870.532 142.261C869.765 142.602 868.873 142.773 867.856 142.773C866.521 142.773 865.415 142.483 864.54 141.903C863.665 141.324 863.112 140.477 862.879 139.364L864.788 138.886C864.969 139.591 865.313 140.119 865.819 140.472C866.33 140.824 866.998 141 867.822 141C868.759 141 869.504 140.801 870.055 140.403C870.612 140 870.89 139.517 870.89 138.955C870.89 138.5 870.731 138.119 870.413 137.812C870.094 137.5 869.606 137.267 868.947 137.114L866.765 136.602C865.566 136.318 864.685 135.878 864.123 135.281C863.566 134.679 863.288 133.926 863.288 133.023C863.288 132.284 863.495 131.631 863.91 131.062C864.33 130.494 864.901 130.048 865.623 129.724C866.35 129.401 867.174 129.239 868.094 129.239C869.39 129.239 870.407 129.523 871.146 130.091C871.89 130.659 872.418 131.409 872.731 132.341ZM881.486 142.773C880.224 142.773 879.136 142.494 878.222 141.938C877.312 141.375 876.611 140.591 876.116 139.585C875.628 138.574 875.384 137.398 875.384 136.057C875.384 134.716 875.628 133.534 876.116 132.511C876.611 131.483 877.298 130.682 878.179 130.108C879.065 129.528 880.099 129.239 881.281 129.239C881.963 129.239 882.636 129.352 883.301 129.58C883.966 129.807 884.571 130.176 885.116 130.688C885.662 131.193 886.097 131.864 886.42 132.699C886.744 133.534 886.906 134.562 886.906 135.784V136.636H876.815V134.898H884.861C884.861 134.159 884.713 133.5 884.418 132.92C884.128 132.341 883.713 131.884 883.173 131.548C882.639 131.213 882.009 131.045 881.281 131.045C880.48 131.045 879.787 131.244 879.202 131.642C878.622 132.034 878.176 132.545 877.864 133.176C877.551 133.807 877.395 134.483 877.395 135.205V136.364C877.395 137.352 877.565 138.19 877.906 138.878C878.253 139.56 878.733 140.08 879.347 140.438C879.96 140.79 880.673 140.966 881.486 140.966C882.014 140.966 882.491 140.892 882.918 140.744C883.349 140.591 883.722 140.364 884.034 140.062C884.347 139.756 884.588 139.375 884.759 138.92L886.702 139.466C886.497 140.125 886.153 140.705 885.67 141.205C885.188 141.699 884.591 142.085 883.881 142.364C883.17 142.636 882.372 142.773 881.486 142.773ZM895.284 142.773C894.057 142.773 893 142.483 892.114 141.903C891.227 141.324 890.545 140.526 890.068 139.509C889.591 138.491 889.352 137.33 889.352 136.023C889.352 134.693 889.597 133.52 890.085 132.503C890.58 131.48 891.267 130.682 892.148 130.108C893.034 129.528 894.068 129.239 895.25 129.239C896.17 129.239 897 129.409 897.739 129.75C898.477 130.091 899.082 130.568 899.554 131.182C900.026 131.795 900.318 132.511 900.432 133.33H898.42C898.267 132.733 897.926 132.205 897.398 131.744C896.875 131.278 896.17 131.045 895.284 131.045C894.5 131.045 893.813 131.25 893.222 131.659C892.636 132.062 892.179 132.634 891.849 133.372C891.526 134.105 891.364 134.966 891.364 135.955C891.364 136.966 891.523 137.847 891.841 138.597C892.165 139.347 892.619 139.929 893.205 140.344C893.795 140.759 894.489 140.966 895.284 140.966C895.807 140.966 896.281 140.875 896.707 140.693C897.134 140.511 897.494 140.25 897.79 139.909C898.085 139.568 898.295 139.159 898.42 138.682H900.432C900.318 139.455 900.037 140.151 899.588 140.77C899.145 141.384 898.557 141.872 897.824 142.236C897.097 142.594 896.25 142.773 895.284 142.773ZM908.69 142.773C907.509 142.773 906.472 142.491 905.58 141.929C904.693 141.366 904 140.58 903.5 139.568C903.006 138.557 902.759 137.375 902.759 136.023C902.759 134.659 903.006 133.469 903.5 132.452C904 131.435 904.693 130.645 905.58 130.082C906.472 129.52 907.509 129.239 908.69 129.239C909.872 129.239 910.906 129.52 911.793 130.082C912.685 130.645 913.378 131.435 913.872 132.452C914.372 133.469 914.622 134.659 914.622 136.023C914.622 137.375 914.372 138.557 913.872 139.568C913.378 140.58 912.685 141.366 911.793 141.929C910.906 142.491 909.872 142.773 908.69 142.773ZM908.69 140.966C909.588 140.966 910.327 140.736 910.906 140.276C911.486 139.815 911.915 139.21 912.193 138.46C912.472 137.71 912.611 136.898 912.611 136.023C912.611 135.148 912.472 134.332 912.193 133.577C911.915 132.821 911.486 132.21 910.906 131.744C910.327 131.278 909.588 131.045 908.69 131.045C907.793 131.045 907.054 131.278 906.474 131.744C905.895 132.21 905.466 132.821 905.188 133.577C904.909 134.332 904.77 135.148 904.77 136.023C904.77 136.898 904.909 137.71 905.188 138.46C905.466 139.21 905.895 139.815 906.474 140.276C907.054 140.736 907.793 140.966 908.69 140.966ZM919.704 134.625V142.5H917.692V129.409H919.636V131.455H919.806C920.113 130.79 920.579 130.256 921.204 129.852C921.829 129.443 922.636 129.239 923.624 129.239C924.511 129.239 925.286 129.42 925.951 129.784C926.616 130.142 927.133 130.688 927.502 131.42C927.871 132.148 928.056 133.068 928.056 134.182V142.5H926.045V134.318C926.045 133.29 925.778 132.489 925.244 131.915C924.71 131.335 923.977 131.045 923.045 131.045C922.403 131.045 921.829 131.185 921.323 131.463C920.823 131.741 920.428 132.148 920.138 132.682C919.849 133.216 919.704 133.864 919.704 134.625ZM936.675 142.773C935.584 142.773 934.621 142.497 933.786 141.946C932.95 141.389 932.297 140.605 931.825 139.594C931.354 138.577 931.118 137.375 931.118 135.989C931.118 134.614 931.354 133.42 931.825 132.409C932.297 131.398 932.953 130.616 933.794 130.065C934.635 129.514 935.607 129.239 936.709 129.239C937.561 129.239 938.234 129.381 938.729 129.665C939.229 129.943 939.609 130.261 939.871 130.619C940.138 130.972 940.345 131.261 940.493 131.489H940.663V125.045H942.675V142.5H940.732V140.489H940.493C940.345 140.727 940.135 141.028 939.862 141.392C939.589 141.75 939.2 142.071 938.695 142.355C938.189 142.634 937.516 142.773 936.675 142.773ZM936.947 140.966C937.754 140.966 938.436 140.756 938.993 140.335C939.55 139.909 939.973 139.321 940.263 138.571C940.553 137.815 940.697 136.943 940.697 135.955C940.697 134.977 940.555 134.122 940.271 133.389C939.987 132.651 939.567 132.077 939.01 131.668C938.453 131.253 937.766 131.045 936.947 131.045C936.095 131.045 935.385 131.264 934.817 131.702C934.254 132.134 933.831 132.722 933.547 133.466C933.268 134.205 933.129 135.034 933.129 135.955C933.129 136.886 933.271 137.733 933.555 138.494C933.845 139.25 934.271 139.852 934.834 140.301C935.402 140.744 936.107 140.966 936.947 140.966ZM955.911 132.341L954.104 132.852C953.99 132.551 953.822 132.259 953.601 131.974C953.385 131.685 953.089 131.446 952.714 131.259C952.339 131.071 951.859 130.977 951.274 130.977C950.473 130.977 949.805 131.162 949.271 131.531C948.743 131.895 948.479 132.358 948.479 132.92C948.479 133.42 948.661 133.815 949.024 134.105C949.388 134.395 949.956 134.636 950.729 134.83L952.672 135.307C953.842 135.591 954.714 136.026 955.288 136.611C955.862 137.19 956.149 137.937 956.149 138.852C956.149 139.602 955.933 140.273 955.501 140.864C955.075 141.455 954.479 141.92 953.712 142.261C952.945 142.602 952.053 142.773 951.036 142.773C949.7 142.773 948.595 142.483 947.72 141.903C946.845 141.324 946.291 140.477 946.058 139.364L947.967 138.886C948.149 139.591 948.493 140.119 948.999 140.472C949.51 140.824 950.178 141 951.001 141C951.939 141 952.683 140.801 953.234 140.403C953.791 140 954.07 139.517 954.07 138.955C954.07 138.5 953.911 138.119 953.592 137.812C953.274 137.5 952.786 137.267 952.126 137.114L949.945 136.602C948.746 136.318 947.865 135.878 947.303 135.281C946.746 134.679 946.467 133.926 946.467 133.023C946.467 132.284 946.675 131.631 947.089 131.062C947.51 130.494 948.081 130.048 948.803 129.724C949.53 129.401 950.354 129.239 951.274 129.239C952.57 129.239 953.587 129.523 954.325 130.091C955.07 130.659 955.598 131.409 955.911 132.341Z" fill="#D8DEE9"/>
<path d="M1023 0H1383V96.5486V192H1023L1057.23 96L1023 0Z" fill="#2F3340"/>
<path d="M1023 0H1383V96.5486V192H1023L1057.23 96L1023 0Z" fill="#2F3340"/>
<path d="M1023 0H1383V96.5486V192H1023L1057.23 96L1023 0Z" fill="#2F3340"/>
<path d="M1023 0H1383V96.5486V192H1023L1057.23 96L1023 0Z" fill="#2F3340"/>
<path d="M1023 0H1383V96.5486V192H1023L1057.23 96L1023 0Z" fill="#2F3340"/>
<path d="M1023 0H1383V96.5486V192H1023L1057.23 96L1023 0Z" fill="#2F3340"/>
<rect width="322.193" height="192" transform="translate(1061)" fill="#2F3340"/>
<path d="M1143.04 74.2656H1138.69C1138.61 73.7022 1138.44 73.2017 1138.2 72.7642C1137.95 72.3201 1137.64 71.9422 1137.25 71.6307C1136.87 71.3191 1136.43 71.0805 1135.92 70.9148C1135.42 70.7491 1134.88 70.6662 1134.3 70.6662C1133.25 70.6662 1132.33 70.928 1131.55 71.4517C1130.76 71.9687 1130.16 72.7244 1129.73 73.7188C1129.3 74.7064 1129.08 75.9062 1129.08 77.3182C1129.08 78.7699 1129.3 79.9896 1129.73 80.9773C1130.16 81.965 1130.77 82.7107 1131.56 83.2145C1132.34 83.7183 1133.24 83.9702 1134.27 83.9702C1134.85 83.9702 1135.38 83.8939 1135.87 83.7415C1136.37 83.589 1136.81 83.367 1137.19 83.0753C1137.58 82.777 1137.9 82.4157 1138.15 81.9915C1138.41 81.5672 1138.59 81.0833 1138.69 80.5398L1143.04 80.5597C1142.93 81.4943 1142.65 82.3958 1142.2 83.2642C1141.75 84.1259 1141.15 84.8982 1140.4 85.581C1139.65 86.2571 1138.75 86.794 1137.71 87.1918C1136.68 87.5829 1135.51 87.7784 1134.2 87.7784C1132.38 87.7784 1130.76 87.3674 1129.33 86.5455C1127.9 85.7235 1126.78 84.5336 1125.95 82.9759C1125.13 81.4181 1124.72 79.5322 1124.72 77.3182C1124.72 75.0975 1125.13 73.2083 1125.97 71.6506C1126.8 70.0928 1127.94 68.9062 1129.37 68.0909C1130.8 67.2689 1132.41 66.858 1134.2 66.858C1135.38 66.858 1136.47 67.0237 1137.48 67.3551C1138.5 67.6866 1139.39 68.1705 1140.18 68.8068C1140.96 69.4366 1141.6 70.2088 1142.09 71.1236C1142.58 72.0384 1142.9 73.0857 1143.04 74.2656ZM1150.4 87.7884C1149.43 87.7884 1148.56 87.6193 1147.8 87.2812C1147.04 86.9366 1146.43 86.4295 1145.99 85.7599C1145.55 85.0838 1145.33 84.242 1145.33 83.2344C1145.33 82.3859 1145.49 81.6733 1145.8 81.0966C1146.11 80.5199 1146.54 80.0559 1147.07 79.7045C1147.61 79.3532 1148.22 79.0881 1148.9 78.9091C1149.59 78.7301 1150.31 78.6042 1151.07 78.5312C1151.96 78.4384 1152.67 78.3523 1153.22 78.2727C1153.76 78.1866 1154.16 78.0606 1154.4 77.8949C1154.65 77.7292 1154.77 77.4839 1154.77 77.1591V77.0994C1154.77 76.4697 1154.57 75.9825 1154.17 75.6378C1153.78 75.2931 1153.22 75.1207 1152.5 75.1207C1151.74 75.1207 1151.13 75.2898 1150.68 75.6278C1150.23 75.9593 1149.93 76.3769 1149.79 76.8807L1145.87 76.5625C1146.07 75.6345 1146.46 74.8324 1147.04 74.1562C1147.63 73.4735 1148.38 72.9498 1149.3 72.5852C1150.23 72.214 1151.3 72.0284 1152.52 72.0284C1153.37 72.0284 1154.18 72.1278 1154.96 72.3267C1155.74 72.5256 1156.43 72.8338 1157.04 73.2514C1157.65 73.669 1158.13 74.206 1158.48 74.8622C1158.83 75.5118 1159 76.2907 1159 77.1989V87.5H1154.99V85.3821H1154.87C1154.62 85.8594 1154.29 86.2803 1153.88 86.6449C1153.47 87.0028 1152.98 87.2846 1152.4 87.4901C1151.83 87.6889 1151.16 87.7884 1150.4 87.7884ZM1151.62 84.8651C1152.24 84.8651 1152.79 84.7424 1153.27 84.4972C1153.74 84.2453 1154.12 83.9072 1154.39 83.483C1154.66 83.0587 1154.8 82.5781 1154.8 82.0412V80.4205C1154.67 80.5066 1154.48 80.5862 1154.25 80.6591C1154.03 80.7254 1153.77 80.7884 1153.49 80.848C1153.2 80.901 1152.92 80.9508 1152.63 80.9972C1152.35 81.0369 1152.09 81.0734 1151.86 81.1065C1151.36 81.1795 1150.92 81.2955 1150.55 81.4545C1150.18 81.6136 1149.89 81.8291 1149.69 82.1009C1149.48 82.366 1149.38 82.6974 1149.38 83.0952C1149.38 83.6719 1149.59 84.1127 1150.01 84.4176C1150.43 84.7159 1150.97 84.8651 1151.62 84.8651ZM1169.19 87.7983C1167.63 87.7983 1166.28 87.4669 1165.15 86.804C1164.03 86.1345 1163.17 85.2064 1162.57 84.0199C1161.97 82.8333 1161.67 81.4678 1161.67 79.9233C1161.67 78.3589 1161.98 76.9867 1162.58 75.8068C1163.19 74.6203 1164.05 73.6955 1165.17 73.0327C1166.29 72.3632 1167.63 72.0284 1169.17 72.0284C1170.5 72.0284 1171.67 72.2704 1172.67 72.7543C1173.67 73.2382 1174.46 73.9176 1175.05 74.7926C1175.63 75.6676 1175.95 76.6951 1176.01 77.875H1172.02C1171.9 77.1127 1171.6 76.4995 1171.12 76.0355C1170.64 75.5649 1170.02 75.3295 1169.24 75.3295C1168.58 75.3295 1168.01 75.5085 1167.52 75.8665C1167.04 76.2178 1166.66 76.7315 1166.39 77.4077C1166.12 78.0838 1165.98 78.9025 1165.98 79.8636C1165.98 80.8381 1166.11 81.6667 1166.38 82.3494C1166.65 83.0322 1167.03 83.5526 1167.52 83.9105C1168.01 84.2685 1168.58 84.4474 1169.24 84.4474C1169.72 84.4474 1170.16 84.348 1170.54 84.1491C1170.93 83.9503 1171.26 83.6619 1171.51 83.2841C1171.77 82.8996 1171.94 82.4389 1172.02 81.902H1176.01C1175.95 83.0687 1175.63 84.0961 1175.06 84.9844C1174.49 85.866 1173.72 86.5554 1172.72 87.0526C1171.73 87.5497 1170.55 87.7983 1169.19 87.7983ZM1182.96 78.6705V87.5H1178.72V67.1364H1182.84V74.9219H1183.02C1183.36 74.0204 1183.92 73.3144 1184.69 72.804C1185.46 72.2869 1186.42 72.0284 1187.58 72.0284C1188.64 72.0284 1189.57 72.2604 1190.36 72.7244C1191.15 73.1818 1191.77 73.8414 1192.21 74.7031C1192.65 75.5582 1192.87 76.5824 1192.86 77.7756V87.5H1188.63V78.5312C1188.63 77.59 1188.4 76.8575 1187.91 76.3338C1187.43 75.8101 1186.77 75.5483 1185.9 75.5483C1185.33 75.5483 1184.82 75.6709 1184.37 75.9162C1183.93 76.1615 1183.59 76.5194 1183.34 76.9901C1183.09 77.4541 1182.97 78.0142 1182.96 78.6705ZM1203.16 87.7983C1201.59 87.7983 1200.23 87.4801 1199.1 86.8438C1197.97 86.2008 1197.11 85.2926 1196.5 84.1193C1195.89 82.9394 1195.58 81.544 1195.58 79.9332C1195.58 78.3622 1195.89 76.9834 1196.5 75.7969C1197.11 74.6103 1197.96 73.6856 1199.07 73.0227C1200.18 72.3598 1201.49 72.0284 1202.99 72.0284C1204 72.0284 1204.93 72.1908 1205.8 72.5156C1206.68 72.8338 1207.44 73.3144 1208.09 73.9574C1208.75 74.6004 1209.26 75.4091 1209.62 76.3835C1209.98 77.3513 1210.17 78.4848 1210.17 79.7841V80.9474H1197.27V78.3224H1206.18C1206.18 77.7126 1206.05 77.1723 1205.78 76.7017C1205.52 76.2311 1205.15 75.8632 1204.68 75.598C1204.21 75.3262 1203.67 75.1903 1203.06 75.1903C1202.41 75.1903 1201.84 75.3395 1201.35 75.6378C1200.86 75.9295 1200.47 76.3239 1200.19 76.821C1199.92 77.3116 1199.77 77.8584 1199.77 78.4616V80.9574C1199.77 81.7131 1199.91 82.366 1200.18 82.9162C1200.47 83.4664 1200.87 83.8906 1201.39 84.1889C1201.9 84.4872 1202.52 84.6364 1203.23 84.6364C1203.7 84.6364 1204.13 84.5701 1204.52 84.4375C1204.91 84.3049 1205.25 84.1061 1205.52 83.8409C1205.8 83.5758 1206.01 83.2509 1206.16 82.8665L1210.08 83.125C1209.88 84.0663 1209.47 84.8883 1208.85 85.5909C1208.24 86.2869 1207.46 86.8305 1206.49 87.2216C1205.53 87.6061 1204.42 87.7983 1203.16 87.7983ZM1226.37 87.7983C1224.8 87.7983 1223.45 87.4801 1222.32 86.8438C1221.19 86.2008 1220.32 85.2926 1219.71 84.1193C1219.1 82.9394 1218.8 81.544 1218.8 79.9332C1218.8 78.3622 1219.1 76.9834 1219.71 75.7969C1220.32 74.6103 1221.18 73.6856 1222.29 73.0227C1223.4 72.3598 1224.7 72.0284 1226.2 72.0284C1227.21 72.0284 1228.15 72.1908 1229.02 72.5156C1229.89 72.8338 1230.65 73.3144 1231.3 73.9574C1231.96 74.6004 1232.47 75.4091 1232.84 76.3835C1233.2 77.3513 1233.38 78.4848 1233.38 79.7841V80.9474H1220.49V78.3224H1229.39C1229.39 77.7126 1229.26 77.1723 1229 76.7017C1228.73 76.2311 1228.36 75.8632 1227.89 75.598C1227.43 75.3262 1226.89 75.1903 1226.27 75.1903C1225.63 75.1903 1225.06 75.3395 1224.56 75.6378C1224.07 75.9295 1223.69 76.3239 1223.41 76.821C1223.13 77.3116 1222.99 77.8584 1222.98 78.4616V80.9574C1222.98 81.7131 1223.12 82.366 1223.4 82.9162C1223.68 83.4664 1224.09 83.8906 1224.6 84.1889C1225.12 84.4872 1225.73 84.6364 1226.44 84.6364C1226.91 84.6364 1227.34 84.5701 1227.73 84.4375C1228.13 84.3049 1228.46 84.1061 1228.74 83.8409C1229.02 83.5758 1229.23 83.2509 1229.37 82.8665L1233.29 83.125C1233.09 84.0663 1232.69 84.8883 1232.07 85.5909C1231.46 86.2869 1230.67 86.8305 1229.7 87.2216C1228.74 87.6061 1227.63 87.7983 1226.37 87.7983ZM1239.41 72.2273L1242.22 77.5668L1245.09 72.2273H1249.44L1245.01 79.8636L1249.55 87.5H1245.23L1242.22 82.2202L1239.25 87.5H1234.88L1239.41 79.8636L1235.04 72.2273H1239.41ZM1251.95 93.2273V72.2273H1256.13V74.7926H1256.32C1256.5 74.3816 1256.77 73.964 1257.12 73.5398C1257.48 73.1089 1257.94 72.7509 1258.51 72.4659C1259.09 72.1742 1259.81 72.0284 1260.66 72.0284C1261.77 72.0284 1262.8 72.3201 1263.74 72.9034C1264.68 73.4801 1265.44 74.3518 1266 75.5185C1266.56 76.6785 1266.85 78.1335 1266.85 79.8835C1266.85 81.5871 1266.57 83.0256 1266.02 84.1989C1265.48 85.3655 1264.73 86.2505 1263.79 86.8537C1262.86 87.4503 1261.81 87.7486 1260.65 87.7486C1259.83 87.7486 1259.13 87.6127 1258.55 87.3409C1257.98 87.0691 1257.52 86.7277 1257.15 86.3168C1256.79 85.8991 1256.51 85.4782 1256.32 85.054H1256.19V93.2273H1251.95ZM1256.1 79.8636C1256.1 80.7718 1256.22 81.5639 1256.48 82.2401C1256.73 82.9162 1257.09 83.4432 1257.57 83.821C1258.05 84.1922 1258.63 84.3778 1259.31 84.3778C1260 84.3778 1260.58 84.1889 1261.06 83.8111C1261.54 83.4266 1261.9 82.8963 1262.14 82.2202C1262.39 81.5374 1262.52 80.7519 1262.52 79.8636C1262.52 78.982 1262.4 78.2064 1262.15 77.5369C1261.91 76.8674 1261.55 76.3437 1261.07 75.9659C1260.59 75.5881 1260 75.3991 1259.31 75.3991C1258.62 75.3991 1258.04 75.5814 1257.56 75.946C1257.09 76.3106 1256.73 76.8277 1256.48 77.4972C1256.22 78.1667 1256.1 78.9555 1256.1 79.8636ZM1269.67 87.5V72.2273H1273.91V87.5H1269.67ZM1271.8 70.2585C1271.17 70.2585 1270.63 70.0497 1270.18 69.6321C1269.73 69.2079 1269.51 68.7008 1269.51 68.1108C1269.51 67.5275 1269.73 67.027 1270.18 66.6094C1270.63 66.1851 1271.17 65.973 1271.8 65.973C1272.43 65.973 1272.96 66.1851 1273.41 66.6094C1273.86 67.027 1274.08 67.5275 1274.08 68.1108C1274.08 68.7008 1273.86 69.2079 1273.41 69.6321C1272.96 70.0497 1272.43 70.2585 1271.8 70.2585ZM1277.3 87.5V72.2273H1281.41V74.892H1281.56C1281.84 73.9441 1282.31 73.2282 1282.97 72.7443C1283.62 72.2538 1284.38 72.0085 1285.23 72.0085C1285.45 72.0085 1285.67 72.0218 1285.92 72.0483C1286.16 72.0748 1286.38 72.1113 1286.57 72.1577V75.9162C1286.37 75.8565 1286.09 75.8035 1285.74 75.7571C1285.39 75.7107 1285.07 75.6875 1284.78 75.6875C1284.15 75.6875 1283.6 75.8234 1283.11 76.0952C1282.62 76.3603 1282.24 76.7315 1281.95 77.2088C1281.67 77.6861 1281.53 78.2363 1281.53 78.8594V87.5H1277.3ZM1295 87.7983C1293.43 87.7983 1292.08 87.4801 1290.95 86.8438C1289.82 86.2008 1288.95 85.2926 1288.34 84.1193C1287.73 82.9394 1287.43 81.544 1287.43 79.9332C1287.43 78.3622 1287.73 76.9834 1288.34 75.7969C1288.95 74.6103 1289.81 73.6856 1290.92 73.0227C1292.03 72.3598 1293.34 72.0284 1294.84 72.0284C1295.84 72.0284 1296.78 72.1908 1297.65 72.5156C1298.52 72.8338 1299.29 73.3144 1299.94 73.9574C1300.59 74.6004 1301.1 75.4091 1301.47 76.3835C1301.83 77.3513 1302.01 78.4848 1302.01 79.7841V80.9474H1289.12V78.3224H1298.03C1298.03 77.7126 1297.9 77.1723 1297.63 76.7017C1297.36 76.2311 1297 75.8632 1296.53 75.598C1296.06 75.3262 1295.52 75.1903 1294.91 75.1903C1294.26 75.1903 1293.69 75.3395 1293.2 75.6378C1292.7 75.9295 1292.32 76.3239 1292.04 76.821C1291.76 77.3116 1291.62 77.8584 1291.61 78.4616V80.9574C1291.61 81.7131 1291.75 82.366 1292.03 82.9162C1292.32 83.4664 1292.72 83.8906 1293.24 84.1889C1293.75 84.4872 1294.37 84.6364 1295.07 84.6364C1295.55 84.6364 1295.98 84.5701 1296.37 84.4375C1296.76 84.3049 1297.09 84.1061 1297.37 83.8409C1297.65 83.5758 1297.86 83.2509 1298.01 82.8665L1301.93 83.125C1301.73 84.0663 1301.32 84.8883 1300.7 85.5909C1300.09 86.2869 1299.3 86.8305 1298.34 87.2216C1297.37 87.6061 1296.26 87.7983 1295 87.7983ZM1310.41 87.7486C1309.25 87.7486 1308.2 87.4503 1307.25 86.8537C1306.32 86.2505 1305.58 85.3655 1305.03 84.1989C1304.48 83.0256 1304.21 81.5871 1304.21 79.8835C1304.21 78.1335 1304.49 76.6785 1305.06 75.5185C1305.62 74.3518 1306.37 73.4801 1307.3 72.9034C1308.25 72.3201 1309.28 72.0284 1310.4 72.0284C1311.25 72.0284 1311.96 72.1742 1312.53 72.4659C1313.11 72.7509 1313.58 73.1089 1313.93 73.5398C1314.28 73.964 1314.56 74.3816 1314.74 74.7926H1314.87V67.1364H1319.1V87.5H1314.92V85.054H1314.74C1314.54 85.4782 1314.26 85.8991 1313.9 86.3168C1313.54 86.7277 1313.07 87.0691 1312.49 87.3409C1311.92 87.6127 1311.23 87.7486 1310.41 87.7486ZM1311.75 84.3778C1312.43 84.3778 1313.01 84.1922 1313.48 83.821C1313.96 83.4432 1314.32 82.9162 1314.57 82.2401C1314.83 81.5639 1314.96 80.7718 1314.96 79.8636C1314.96 78.9555 1314.83 78.1667 1314.58 77.4972C1314.33 76.8277 1313.97 76.3106 1313.49 75.946C1313.01 75.5814 1312.43 75.3991 1311.75 75.3991C1311.05 75.3991 1310.47 75.5881 1309.99 75.9659C1309.51 76.3437 1309.15 76.8674 1308.91 77.5369C1308.66 78.2064 1308.54 78.982 1308.54 79.8636C1308.54 80.7519 1308.66 81.5374 1308.91 82.2202C1309.16 82.8963 1309.52 83.4266 1309.99 83.8111C1310.47 84.1889 1311.05 84.3778 1311.75 84.3778Z" fill="#D8DEE9"/>
<path d="M1150.55 108.045V125.5H1148.44V110.261H1148.34L1144.07 113.091V110.943L1148.44 108.045H1150.55ZM1155.57 125.5V123.966L1161.33 117.659C1162.01 116.92 1162.57 116.278 1163 115.733C1163.44 115.182 1163.76 114.665 1163.97 114.182C1164.19 113.693 1164.3 113.182 1164.3 112.648C1164.3 112.034 1164.15 111.503 1163.86 111.054C1163.57 110.605 1163.17 110.259 1162.66 110.014C1162.16 109.77 1161.59 109.648 1160.96 109.648C1160.29 109.648 1159.7 109.787 1159.2 110.065C1158.71 110.338 1158.32 110.722 1158.05 111.216C1157.78 111.71 1157.65 112.29 1157.65 112.955H1155.64C1155.64 111.932 1155.88 111.034 1156.35 110.261C1156.82 109.489 1157.46 108.886 1158.27 108.455C1159.09 108.023 1160.01 107.807 1161.03 107.807C1162.05 107.807 1162.95 108.023 1163.74 108.455C1164.53 108.886 1165.15 109.469 1165.6 110.202C1166.05 110.935 1166.28 111.75 1166.28 112.648C1166.28 113.29 1166.16 113.918 1165.93 114.531C1165.7 115.139 1165.3 115.818 1164.73 116.568C1164.17 117.312 1163.39 118.222 1162.39 119.295L1158.47 123.489V123.625H1166.58V125.5H1155.57ZM1175.8 125.739C1174.51 125.739 1173.42 125.389 1172.51 124.69C1171.61 123.986 1170.92 122.966 1170.44 121.631C1169.97 120.29 1169.73 118.67 1169.73 116.773C1169.73 114.886 1169.97 113.276 1170.44 111.94C1170.93 110.599 1171.62 109.577 1172.52 108.872C1173.43 108.162 1174.52 107.807 1175.8 107.807C1177.07 107.807 1178.16 108.162 1179.06 108.872C1179.97 109.577 1180.66 110.599 1181.14 111.94C1181.62 113.276 1181.86 114.886 1181.86 116.773C1181.86 118.67 1181.63 120.29 1181.15 121.631C1180.67 122.966 1179.98 123.986 1179.08 124.69C1178.17 125.389 1177.08 125.739 1175.8 125.739ZM1175.8 123.864C1177.07 123.864 1178.06 123.25 1178.76 122.023C1179.47 120.795 1179.82 119.045 1179.82 116.773C1179.82 115.261 1179.66 113.974 1179.33 112.912C1179.01 111.849 1178.55 111.04 1177.95 110.483C1177.36 109.926 1176.64 109.648 1175.8 109.648C1174.53 109.648 1173.55 110.27 1172.84 111.514C1172.13 112.753 1171.77 114.506 1171.77 116.773C1171.77 118.284 1171.93 119.568 1172.25 120.625C1172.57 121.682 1173.03 122.486 1173.62 123.037C1174.22 123.588 1174.95 123.864 1175.8 123.864ZM1190.25 122.432V111.182H1192.16V122.432H1190.25ZM1185.58 117.761V115.852H1196.83V117.761H1185.58ZM1216.98 115.341L1215.17 115.852C1215.06 115.551 1214.89 115.259 1214.67 114.974C1214.45 114.685 1214.16 114.446 1213.78 114.259C1213.41 114.071 1212.93 113.977 1212.34 113.977C1211.54 113.977 1210.87 114.162 1210.34 114.531C1209.81 114.895 1209.55 115.358 1209.55 115.92C1209.55 116.42 1209.73 116.815 1210.09 117.105C1210.46 117.395 1211.03 117.636 1211.8 117.83L1213.74 118.307C1214.91 118.591 1215.78 119.026 1216.36 119.611C1216.93 120.19 1217.22 120.937 1217.22 121.852C1217.22 122.602 1217 123.273 1216.57 123.864C1216.14 124.455 1215.55 124.92 1214.78 125.261C1214.01 125.602 1213.12 125.773 1212.1 125.773C1210.77 125.773 1209.66 125.483 1208.79 124.903C1207.91 124.324 1207.36 123.477 1207.13 122.364L1209.04 121.886C1209.22 122.591 1209.56 123.119 1210.07 123.472C1210.58 123.824 1211.25 124 1212.07 124C1213.01 124 1213.75 123.801 1214.3 123.403C1214.86 123 1215.14 122.517 1215.14 121.955C1215.14 121.5 1214.98 121.119 1214.66 120.812C1214.34 120.5 1213.85 120.267 1213.2 120.114L1211.01 119.602C1209.81 119.318 1208.93 118.878 1208.37 118.281C1207.81 117.679 1207.54 116.926 1207.54 116.023C1207.54 115.284 1207.74 114.631 1208.16 114.062C1208.58 113.494 1209.15 113.048 1209.87 112.724C1210.6 112.401 1211.42 112.239 1212.34 112.239C1213.64 112.239 1214.66 112.523 1215.39 113.091C1216.14 113.659 1216.67 114.409 1216.98 115.341ZM1225.73 125.773C1224.47 125.773 1223.39 125.494 1222.47 124.938C1221.56 124.375 1220.86 123.591 1220.37 122.585C1219.88 121.574 1219.63 120.398 1219.63 119.057C1219.63 117.716 1219.88 116.534 1220.37 115.511C1220.86 114.483 1221.55 113.682 1222.43 113.108C1223.31 112.528 1224.35 112.239 1225.53 112.239C1226.21 112.239 1226.89 112.352 1227.55 112.58C1228.21 112.807 1228.82 113.176 1229.37 113.688C1229.91 114.193 1230.35 114.864 1230.67 115.699C1230.99 116.534 1231.16 117.562 1231.16 118.784V119.636H1221.06V117.898H1229.11C1229.11 117.159 1228.96 116.5 1228.67 115.92C1228.38 115.341 1227.96 114.884 1227.42 114.548C1226.89 114.213 1226.26 114.045 1225.53 114.045C1224.73 114.045 1224.04 114.244 1223.45 114.642C1222.87 115.034 1222.42 115.545 1222.11 116.176C1221.8 116.807 1221.64 117.483 1221.64 118.205V119.364C1221.64 120.352 1221.81 121.19 1222.16 121.878C1222.5 122.56 1222.98 123.08 1223.6 123.438C1224.21 123.79 1224.92 123.966 1225.73 123.966C1226.26 123.966 1226.74 123.892 1227.17 123.744C1227.6 123.591 1227.97 123.364 1228.28 123.062C1228.6 122.756 1228.84 122.375 1229.01 121.92L1230.95 122.466C1230.75 123.125 1230.4 123.705 1229.92 124.205C1229.44 124.699 1228.84 125.085 1228.13 125.364C1227.42 125.636 1226.62 125.773 1225.73 125.773ZM1239.53 125.773C1238.31 125.773 1237.25 125.483 1236.36 124.903C1235.48 124.324 1234.79 123.526 1234.32 122.509C1233.84 121.491 1233.6 120.33 1233.6 119.023C1233.6 117.693 1233.85 116.52 1234.33 115.503C1234.83 114.48 1235.52 113.682 1236.4 113.108C1237.28 112.528 1238.32 112.239 1239.5 112.239C1240.42 112.239 1241.25 112.409 1241.99 112.75C1242.73 113.091 1243.33 113.568 1243.8 114.182C1244.27 114.795 1244.57 115.511 1244.68 116.33H1242.67C1242.52 115.733 1242.17 115.205 1241.65 114.744C1241.12 114.278 1240.42 114.045 1239.53 114.045C1238.75 114.045 1238.06 114.25 1237.47 114.659C1236.89 115.062 1236.43 115.634 1236.1 116.372C1235.77 117.105 1235.61 117.966 1235.61 118.955C1235.61 119.966 1235.77 120.847 1236.09 121.597C1236.41 122.347 1236.87 122.929 1237.45 123.344C1238.04 123.759 1238.74 123.966 1239.53 123.966C1240.06 123.966 1240.53 123.875 1240.96 123.693C1241.38 123.511 1241.74 123.25 1242.04 122.909C1242.33 122.568 1242.54 122.159 1242.67 121.682H1244.68C1244.57 122.455 1244.29 123.151 1243.84 123.77C1243.39 124.384 1242.81 124.872 1242.07 125.236C1241.35 125.594 1240.5 125.773 1239.53 125.773ZM1252.94 125.773C1251.76 125.773 1250.72 125.491 1249.83 124.929C1248.94 124.366 1248.25 123.58 1247.75 122.568C1247.25 121.557 1247.01 120.375 1247.01 119.023C1247.01 117.659 1247.25 116.469 1247.75 115.452C1248.25 114.435 1248.94 113.645 1249.83 113.082C1250.72 112.52 1251.76 112.239 1252.94 112.239C1254.12 112.239 1255.16 112.52 1256.04 113.082C1256.93 113.645 1257.63 114.435 1258.12 115.452C1258.62 116.469 1258.87 117.659 1258.87 119.023C1258.87 120.375 1258.62 121.557 1258.12 122.568C1257.63 123.58 1256.93 124.366 1256.04 124.929C1255.16 125.491 1254.12 125.773 1252.94 125.773ZM1252.94 123.966C1253.84 123.966 1254.58 123.736 1255.16 123.276C1255.73 122.815 1256.16 122.21 1256.44 121.46C1256.72 120.71 1256.86 119.898 1256.86 119.023C1256.86 118.148 1256.72 117.332 1256.44 116.577C1256.16 115.821 1255.73 115.21 1255.16 114.744C1254.58 114.278 1253.84 114.045 1252.94 114.045C1252.04 114.045 1251.3 114.278 1250.72 114.744C1250.14 115.21 1249.71 115.821 1249.44 116.577C1249.16 117.332 1249.02 118.148 1249.02 119.023C1249.02 119.898 1249.16 120.71 1249.44 121.46C1249.71 122.21 1250.14 122.815 1250.72 123.276C1251.3 123.736 1252.04 123.966 1252.94 123.966ZM1263.95 117.625V125.5H1261.94V112.409H1263.88V114.455H1264.05C1264.36 113.79 1264.83 113.256 1265.45 112.852C1266.08 112.443 1266.88 112.239 1267.87 112.239C1268.76 112.239 1269.54 112.42 1270.2 112.784C1270.86 113.142 1271.38 113.688 1271.75 114.42C1272.12 115.148 1272.3 116.068 1272.3 117.182V125.5H1270.29V117.318C1270.29 116.29 1270.03 115.489 1269.49 114.915C1268.96 114.335 1268.23 114.045 1267.29 114.045C1266.65 114.045 1266.08 114.185 1265.57 114.463C1265.07 114.741 1264.68 115.148 1264.39 115.682C1264.1 116.216 1263.95 116.864 1263.95 117.625ZM1280.92 125.773C1279.83 125.773 1278.87 125.497 1278.03 124.946C1277.2 124.389 1276.55 123.605 1276.07 122.594C1275.6 121.577 1275.37 120.375 1275.37 118.989C1275.37 117.614 1275.6 116.42 1276.07 115.409C1276.55 114.398 1277.2 113.616 1278.04 113.065C1278.88 112.514 1279.86 112.239 1280.96 112.239C1281.81 112.239 1282.48 112.381 1282.98 112.665C1283.48 112.943 1283.86 113.261 1284.12 113.619C1284.39 113.972 1284.59 114.261 1284.74 114.489H1284.91V108.045H1286.92V125.5H1284.98V123.489H1284.74C1284.59 123.727 1284.38 124.028 1284.11 124.392C1283.84 124.75 1283.45 125.071 1282.94 125.355C1282.44 125.634 1281.76 125.773 1280.92 125.773ZM1281.2 123.966C1282 123.966 1282.68 123.756 1283.24 123.335C1283.8 122.909 1284.22 122.321 1284.51 121.571C1284.8 120.815 1284.95 119.943 1284.95 118.955C1284.95 117.977 1284.8 117.122 1284.52 116.389C1284.24 115.651 1283.82 115.077 1283.26 114.668C1282.7 114.253 1282.01 114.045 1281.2 114.045C1280.34 114.045 1279.63 114.264 1279.07 114.702C1278.5 115.134 1278.08 115.722 1277.8 116.466C1277.52 117.205 1277.38 118.034 1277.38 118.955C1277.38 119.886 1277.52 120.733 1277.8 121.494C1278.09 122.25 1278.52 122.852 1279.08 123.301C1279.65 123.744 1280.36 123.966 1281.2 123.966ZM1300.16 115.341L1298.35 115.852C1298.24 115.551 1298.07 115.259 1297.85 114.974C1297.63 114.685 1297.34 114.446 1296.96 114.259C1296.59 114.071 1296.11 113.977 1295.52 113.977C1294.72 113.977 1294.05 114.162 1293.52 114.531C1292.99 114.895 1292.73 115.358 1292.73 115.92C1292.73 116.42 1292.91 116.815 1293.27 117.105C1293.64 117.395 1294.2 117.636 1294.98 117.83L1296.92 118.307C1298.09 118.591 1298.96 119.026 1299.54 119.611C1300.11 120.19 1300.4 120.937 1300.4 121.852C1300.4 122.602 1300.18 123.273 1299.75 123.864C1299.32 124.455 1298.73 124.92 1297.96 125.261C1297.19 125.602 1296.3 125.773 1295.28 125.773C1293.95 125.773 1292.84 125.483 1291.97 124.903C1291.09 124.324 1290.54 123.477 1290.31 122.364L1292.22 121.886C1292.4 122.591 1292.74 123.119 1293.25 123.472C1293.76 123.824 1294.43 124 1295.25 124C1296.19 124 1296.93 123.801 1297.48 123.403C1298.04 123 1298.32 122.517 1298.32 121.955C1298.32 121.5 1298.16 121.119 1297.84 120.812C1297.52 120.5 1297.03 120.267 1296.38 120.114L1294.19 119.602C1292.99 119.318 1292.11 118.878 1291.55 118.281C1290.99 117.679 1290.72 116.926 1290.72 116.023C1290.72 115.284 1290.92 114.631 1291.34 114.062C1291.76 113.494 1292.33 113.048 1293.05 112.724C1293.78 112.401 1294.6 112.239 1295.52 112.239C1296.82 112.239 1297.84 112.523 1298.57 113.091C1299.32 113.659 1299.85 114.409 1300.16 115.341Z" fill="#D8DEE9"/>
<path d="M0 0H327.913L360 96.5486L327.913 192H0V96V0Z" fill="#2F3340"/>
<path d="M0 0H327.913L360 96.5486L327.913 192H0V96V0Z" fill="#2F3340"/>
<path d="M0 0H327.913L360 96.5486L327.913 192H0V96V0Z" fill="#2F3340"/>
<path d="M0 0H327.913L360 96.5486L327.913 192H0V96V0Z" fill="#2F3340"/>
<path d="M0 0H327.913L360 96.5486L327.913 192H0V96V0Z" fill="#2F3340"/>
<path d="M0 0H327.913L360 96.5486L327.913 192H0V96V0Z" fill="#2F3340"/>
<path d="M135.023 68.6364V89H131.305L122.445 76.1832H122.296V89H117.991V68.6364H121.769L130.559 81.4432H130.738V68.6364H135.023ZM145.401 89.2983C143.857 89.2983 142.521 88.9702 141.394 88.3139C140.274 87.651 139.409 86.7296 138.799 85.5497C138.189 84.3632 137.884 82.9877 137.884 81.4233C137.884 79.8456 138.189 78.4669 138.799 77.2869C139.409 76.1004 140.274 75.179 141.394 74.5227C142.521 73.8598 143.857 73.5284 145.401 73.5284C146.946 73.5284 148.278 73.8598 149.399 74.5227C150.526 75.179 151.394 76.1004 152.004 77.2869C152.614 78.4669 152.919 79.8456 152.919 81.4233C152.919 82.9877 152.614 84.3632 152.004 85.5497C151.394 86.7296 150.526 87.651 149.399 88.3139C148.278 88.9702 146.946 89.2983 145.401 89.2983ZM145.421 86.017C146.124 86.017 146.711 85.8182 147.181 85.4205C147.652 85.0161 148.007 84.4659 148.245 83.7699C148.49 83.0739 148.613 82.2817 148.613 81.3935C148.613 80.5052 148.49 79.7131 148.245 79.017C148.007 78.321 147.652 77.7708 147.181 77.3665C146.711 76.9621 146.124 76.7599 145.421 76.7599C144.712 76.7599 144.115 76.9621 143.632 77.3665C143.154 77.7708 142.793 78.321 142.548 79.017C142.309 79.7131 142.19 80.5052 142.19 81.3935C142.19 82.2817 142.309 83.0739 142.548 83.7699C142.793 84.4659 143.154 85.0161 143.632 85.4205C144.115 85.8182 144.712 86.017 145.421 86.017ZM169.054 89.2983C167.489 89.2983 166.144 88.9669 165.017 88.304C163.897 87.6345 163.035 86.7064 162.432 85.5199C161.835 84.3333 161.537 82.9678 161.537 81.4233C161.537 79.8589 161.838 78.4867 162.442 77.3068C163.051 76.1203 163.916 75.1955 165.037 74.5327C166.157 73.8632 167.489 73.5284 169.034 73.5284C170.366 73.5284 171.533 73.7704 172.534 74.2543C173.535 74.7382 174.327 75.4176 174.91 76.2926C175.494 77.1676 175.815 78.1951 175.875 79.375H171.878C171.765 78.6127 171.467 77.9995 170.983 77.5355C170.506 77.0649 169.879 76.8295 169.104 76.8295C168.447 76.8295 167.874 77.0085 167.383 77.3665C166.899 77.7178 166.522 78.2315 166.25 78.9077C165.978 79.5838 165.842 80.4025 165.842 81.3636C165.842 82.3381 165.975 83.1667 166.24 83.8494C166.512 84.5322 166.893 85.0526 167.383 85.4105C167.874 85.7685 168.447 85.9474 169.104 85.9474C169.587 85.9474 170.022 85.848 170.406 85.6491C170.797 85.4503 171.119 85.1619 171.371 84.7841C171.629 84.3996 171.798 83.9389 171.878 83.402H175.875C175.809 84.5687 175.49 85.5961 174.92 86.4844C174.357 87.366 173.578 88.0554 172.584 88.5526C171.589 89.0497 170.413 89.2983 169.054 89.2983ZM182.942 89.2884C181.968 89.2884 181.099 89.1193 180.337 88.7812C179.575 88.4366 178.971 87.9295 178.527 87.2599C178.09 86.5838 177.871 85.742 177.871 84.7344C177.871 83.8859 178.027 83.1733 178.338 82.5966C178.65 82.0199 179.074 81.5559 179.611 81.2045C180.148 80.8532 180.758 80.5881 181.441 80.4091C182.13 80.2301 182.852 80.1042 183.608 80.0312C184.496 79.9384 185.212 79.8523 185.756 79.7727C186.299 79.6866 186.694 79.5606 186.939 79.3949C187.184 79.2292 187.307 78.9839 187.307 78.6591V78.5994C187.307 77.9697 187.108 77.4825 186.71 77.1378C186.319 76.7931 185.762 76.6207 185.04 76.6207C184.278 76.6207 183.671 76.7898 183.22 77.1278C182.77 77.4593 182.471 77.8769 182.325 78.3807L178.408 78.0625C178.607 77.1345 178.998 76.3324 179.581 75.6562C180.164 74.9735 180.917 74.4498 181.838 74.0852C182.766 73.714 183.84 73.5284 185.06 73.5284C185.908 73.5284 186.72 73.6278 187.496 73.8267C188.278 74.0256 188.971 74.3338 189.574 74.7514C190.184 75.169 190.664 75.706 191.016 76.3622C191.367 77.0118 191.543 77.7907 191.543 78.6989V89H187.526V86.8821H187.406C187.161 87.3594 186.833 87.7803 186.422 88.1449C186.011 88.5028 185.517 88.7846 184.941 88.9901C184.364 89.1889 183.698 89.2884 182.942 89.2884ZM184.155 86.3651C184.778 86.3651 185.328 86.2424 185.806 85.9972C186.283 85.7453 186.657 85.4072 186.929 84.983C187.201 84.5587 187.337 84.0781 187.337 83.5412V81.9205C187.204 82.0066 187.022 82.0862 186.79 82.1591C186.565 82.2254 186.309 82.2884 186.024 82.348C185.739 82.401 185.454 82.4508 185.169 82.4972C184.884 82.5369 184.626 82.5734 184.394 82.6065C183.896 82.6795 183.462 82.7955 183.091 82.9545C182.72 83.1136 182.432 83.3291 182.226 83.6009C182.021 83.866 181.918 84.1974 181.918 84.5952C181.918 85.1719 182.127 85.6127 182.544 85.9176C182.968 86.2159 183.505 86.3651 184.155 86.3651ZM201.73 89.2983C200.165 89.2983 198.82 88.9669 197.693 88.304C196.572 87.6345 195.711 86.7064 195.107 85.5199C194.511 84.3333 194.213 82.9678 194.213 81.4233C194.213 79.8589 194.514 78.4867 195.117 77.3068C195.727 76.1203 196.592 75.1955 197.713 74.5327C198.833 73.8632 200.165 73.5284 201.71 73.5284C203.042 73.5284 204.209 73.7704 205.21 74.2543C206.211 74.7382 207.003 75.4176 207.586 76.2926C208.169 77.1676 208.491 78.1951 208.551 79.375H204.553C204.441 78.6127 204.142 77.9995 203.659 77.5355C203.181 77.0649 202.555 76.8295 201.779 76.8295C201.123 76.8295 200.55 77.0085 200.059 77.3665C199.575 77.7178 199.197 78.2315 198.926 78.9077C198.654 79.5838 198.518 80.4025 198.518 81.3636C198.518 82.3381 198.651 83.1667 198.916 83.8494C199.187 84.5322 199.569 85.0526 200.059 85.4105C200.55 85.7685 201.123 85.9474 201.779 85.9474C202.263 85.9474 202.697 85.848 203.082 85.6491C203.473 85.4503 203.794 85.1619 204.046 84.7841C204.305 84.3996 204.474 83.9389 204.553 83.402H208.551C208.484 84.5687 208.166 85.5961 207.596 86.4844C207.033 87.366 206.254 88.0554 205.259 88.5526C204.265 89.0497 203.088 89.2983 201.73 89.2983ZM215.498 80.1705V89H211.263V68.6364H215.379V76.4219H215.558C215.903 75.5204 216.46 74.8144 217.229 74.304C217.997 73.7869 218.962 73.5284 220.122 73.5284C221.183 73.5284 222.107 73.7604 222.896 74.2244C223.692 74.6818 224.308 75.3414 224.746 76.2031C225.19 77.0582 225.408 78.0824 225.402 79.2756V89H221.166V80.0312C221.173 79.09 220.934 78.3575 220.45 77.8338C219.973 77.3101 219.303 77.0483 218.442 77.0483C217.865 77.0483 217.354 77.1709 216.91 77.4162C216.473 77.6615 216.128 78.0194 215.876 78.4901C215.631 78.9541 215.505 79.5142 215.498 80.1705ZM235.695 89.2983C234.124 89.2983 232.772 88.9801 231.639 88.3438C230.512 87.7008 229.643 86.7926 229.034 85.6193C228.424 84.4394 228.119 83.044 228.119 81.4332C228.119 79.8622 228.424 78.4834 229.034 77.2969C229.643 76.1103 230.502 75.1856 231.609 74.5227C232.722 73.8598 234.028 73.5284 235.526 73.5284C236.534 73.5284 237.472 73.6908 238.34 74.0156C239.215 74.3338 239.978 74.8144 240.627 75.4574C241.284 76.1004 241.794 76.9091 242.159 77.8835C242.523 78.8513 242.705 79.9848 242.705 81.2841V82.4474H229.809V79.8224H238.718C238.718 79.2126 238.586 78.6723 238.32 78.2017C238.055 77.7311 237.687 77.3632 237.217 77.098C236.753 76.8262 236.213 76.6903 235.596 76.6903C234.953 76.6903 234.383 76.8395 233.886 77.1378C233.395 77.4295 233.011 77.8239 232.732 78.321C232.454 78.8116 232.311 79.3584 232.305 79.9616V82.4574C232.305 83.2131 232.444 83.866 232.722 84.4162C233.008 84.9664 233.409 85.3906 233.926 85.6889C234.443 85.9872 235.056 86.1364 235.765 86.1364C236.236 86.1364 236.667 86.0701 237.058 85.9375C237.449 85.8049 237.784 85.6061 238.062 85.3409C238.34 85.0758 238.552 84.7509 238.698 84.3665L242.616 84.625C242.417 85.5663 242.009 86.3883 241.393 87.0909C240.783 87.7869 239.994 88.3305 239.026 88.7216C238.065 89.1061 236.955 89.2983 235.695 89.2983ZM125.247 123.288C124.272 123.288 123.404 123.119 122.642 122.781C121.879 122.437 121.276 121.929 120.832 121.26C120.394 120.584 120.176 119.742 120.176 118.734C120.176 117.886 120.331 117.173 120.643 116.597C120.954 116.02 121.379 115.556 121.916 115.205C122.453 114.853 123.062 114.588 123.745 114.409C124.435 114.23 125.157 114.104 125.913 114.031C126.801 113.938 127.517 113.852 128.061 113.773C128.604 113.687 128.999 113.561 129.244 113.395C129.489 113.229 129.612 112.984 129.612 112.659V112.599C129.612 111.97 129.413 111.482 129.015 111.138C128.624 110.793 128.067 110.621 127.345 110.621C126.582 110.621 125.976 110.79 125.525 111.128C125.074 111.459 124.776 111.877 124.63 112.381L120.713 112.062C120.911 111.134 121.302 110.332 121.886 109.656C122.469 108.973 123.222 108.45 124.143 108.085C125.071 107.714 126.145 107.528 127.365 107.528C128.213 107.528 129.025 107.628 129.801 107.827C130.583 108.026 131.276 108.334 131.879 108.751C132.489 109.169 132.969 109.706 133.32 110.362C133.672 111.012 133.847 111.791 133.847 112.699V123H129.83V120.882H129.711C129.466 121.359 129.138 121.78 128.727 122.145C128.316 122.503 127.822 122.785 127.245 122.99C126.669 123.189 126.002 123.288 125.247 123.288ZM126.46 120.365C127.083 120.365 127.633 120.242 128.11 119.997C128.588 119.745 128.962 119.407 129.234 118.983C129.506 118.559 129.642 118.078 129.642 117.541V115.92C129.509 116.007 129.327 116.086 129.095 116.159C128.869 116.225 128.614 116.288 128.329 116.348C128.044 116.401 127.759 116.451 127.474 116.497C127.189 116.537 126.93 116.573 126.698 116.607C126.201 116.679 125.767 116.795 125.396 116.955C125.025 117.114 124.736 117.329 124.531 117.601C124.325 117.866 124.222 118.197 124.222 118.595C124.222 119.172 124.431 119.613 124.849 119.918C125.273 120.216 125.81 120.365 126.46 120.365ZM150.825 107.727L145.486 123H140.713L135.374 107.727H139.848L143.02 118.655H143.179L146.341 107.727H150.825ZM156.938 123.288C155.964 123.288 155.095 123.119 154.333 122.781C153.571 122.437 152.967 121.929 152.523 121.26C152.086 120.584 151.867 119.742 151.867 118.734C151.867 117.886 152.023 117.173 152.334 116.597C152.646 116.02 153.07 115.556 153.607 115.205C154.144 114.853 154.754 114.588 155.437 114.409C156.126 114.23 156.849 114.104 157.604 114.031C158.492 113.938 159.208 113.852 159.752 113.773C160.296 113.687 160.69 113.561 160.935 113.395C161.18 113.229 161.303 112.984 161.303 112.659V112.599C161.303 111.97 161.104 111.482 160.706 111.138C160.315 110.793 159.759 110.621 159.036 110.621C158.274 110.621 157.667 110.79 157.216 111.128C156.766 111.459 156.467 111.877 156.322 112.381L152.404 112.062C152.603 111.134 152.994 110.332 153.577 109.656C154.161 108.973 154.913 108.45 155.834 108.085C156.762 107.714 157.836 107.528 159.056 107.528C159.904 107.528 160.716 107.628 161.492 107.827C162.274 108.026 162.967 108.334 163.57 108.751C164.18 109.169 164.661 109.706 165.012 110.362C165.363 111.012 165.539 111.791 165.539 112.699V123H161.522V120.882H161.403C161.157 121.359 160.829 121.78 160.418 122.145C160.007 122.503 159.513 122.785 158.937 122.99C158.36 123.189 157.694 123.288 156.938 123.288ZM158.151 120.365C158.774 120.365 159.324 120.242 159.802 119.997C160.279 119.745 160.653 119.407 160.925 118.983C161.197 118.559 161.333 118.078 161.333 117.541V115.92C161.2 116.007 161.018 116.086 160.786 116.159C160.561 116.225 160.305 116.288 160.02 116.348C159.735 116.401 159.45 116.451 159.165 116.497C158.88 116.537 158.622 116.573 158.39 116.607C157.893 116.679 157.458 116.795 157.087 116.955C156.716 117.114 156.428 117.329 156.222 117.601C156.017 117.866 155.914 118.197 155.914 118.595C155.914 119.172 156.123 119.613 156.54 119.918C156.965 120.216 157.501 120.365 158.151 120.365ZM168.825 123V107.727H173.061V123H168.825ZM170.953 105.759C170.323 105.759 169.783 105.55 169.332 105.132C168.888 104.708 168.666 104.201 168.666 103.611C168.666 103.027 168.888 102.527 169.332 102.109C169.783 101.685 170.323 101.473 170.953 101.473C171.583 101.473 172.12 101.685 172.564 102.109C173.015 102.527 173.24 103.027 173.24 103.611C173.24 104.201 173.015 104.708 172.564 105.132C172.12 105.55 171.583 105.759 170.953 105.759ZM180.69 102.636V123H176.454V102.636H180.69ZM188.438 123.288C187.464 123.288 186.595 123.119 185.833 122.781C185.071 122.437 184.467 121.929 184.023 121.26C183.586 120.584 183.367 119.742 183.367 118.734C183.367 117.886 183.523 117.173 183.834 116.597C184.146 116.02 184.57 115.556 185.107 115.205C185.644 114.853 186.254 114.588 186.937 114.409C187.626 114.23 188.349 114.104 189.104 114.031C189.992 113.938 190.708 113.852 191.252 113.773C191.796 113.687 192.19 113.561 192.435 113.395C192.68 113.229 192.803 112.984 192.803 112.659V112.599C192.803 111.97 192.604 111.482 192.206 111.138C191.815 110.793 191.259 110.621 190.536 110.621C189.774 110.621 189.167 110.79 188.716 111.128C188.266 111.459 187.967 111.877 187.822 112.381L183.904 112.062C184.103 111.134 184.494 110.332 185.077 109.656C185.661 108.973 186.413 108.45 187.334 108.085C188.262 107.714 189.336 107.528 190.556 107.528C191.404 107.528 192.216 107.628 192.992 107.827C193.774 108.026 194.467 108.334 195.07 108.751C195.68 109.169 196.161 109.706 196.512 110.362C196.863 111.012 197.039 111.791 197.039 112.699V123H193.022V120.882H192.903C192.657 121.359 192.329 121.78 191.918 122.145C191.507 122.503 191.013 122.785 190.437 122.99C189.86 123.189 189.194 123.288 188.438 123.288ZM189.651 120.365C190.274 120.365 190.824 120.242 191.302 119.997C191.779 119.745 192.153 119.407 192.425 118.983C192.697 118.559 192.833 118.078 192.833 117.541V115.92C192.7 116.007 192.518 116.086 192.286 116.159C192.061 116.225 191.805 116.288 191.52 116.348C191.235 116.401 190.95 116.451 190.665 116.497C190.38 116.537 190.122 116.573 189.89 116.607C189.393 116.679 188.958 116.795 188.587 116.955C188.216 117.114 187.928 117.329 187.722 117.601C187.517 117.866 187.414 118.197 187.414 118.595C187.414 119.172 187.623 119.613 188.04 119.918C188.465 120.216 189.001 120.365 189.651 120.365ZM200.405 123V102.636H204.64V110.293H204.77C204.955 109.882 205.224 109.464 205.575 109.04C205.933 108.609 206.397 108.251 206.967 107.966C207.544 107.674 208.26 107.528 209.115 107.528C210.229 107.528 211.256 107.82 212.197 108.403C213.139 108.98 213.891 109.852 214.454 111.018C215.018 112.179 215.3 113.634 215.3 115.384C215.3 117.087 215.024 118.526 214.474 119.699C213.931 120.866 213.188 121.75 212.247 122.354C211.312 122.95 210.265 123.249 209.105 123.249C208.283 123.249 207.584 123.113 207.007 122.841C206.437 122.569 205.97 122.228 205.605 121.817C205.24 121.399 204.962 120.978 204.77 120.554H204.581V123H200.405ZM204.551 115.364C204.551 116.272 204.677 117.064 204.929 117.74C205.181 118.416 205.545 118.943 206.023 119.321C206.5 119.692 207.08 119.878 207.763 119.878C208.452 119.878 209.035 119.689 209.513 119.311C209.99 118.927 210.351 118.396 210.596 117.72C210.848 117.037 210.974 116.252 210.974 115.364C210.974 114.482 210.852 113.706 210.606 113.037C210.361 112.367 210 111.844 209.523 111.466C209.045 111.088 208.459 110.899 207.763 110.899C207.073 110.899 206.49 111.081 206.013 111.446C205.542 111.811 205.181 112.328 204.929 112.997C204.677 113.667 204.551 114.455 204.551 115.364ZM222.362 102.636V123H218.126V102.636H222.362ZM232.715 123.298C231.144 123.298 229.792 122.98 228.658 122.344C227.531 121.701 226.663 120.793 226.053 119.619C225.443 118.439 225.138 117.044 225.138 115.433C225.138 113.862 225.443 112.483 226.053 111.297C226.663 110.11 227.521 109.186 228.628 108.523C229.742 107.86 231.048 107.528 232.546 107.528C233.554 107.528 234.492 107.691 235.36 108.016C236.235 108.334 236.997 108.814 237.647 109.457C238.303 110.1 238.814 110.909 239.178 111.884C239.543 112.851 239.725 113.985 239.725 115.284V116.447H226.829V113.822H235.738C235.738 113.213 235.605 112.672 235.34 112.202C235.075 111.731 234.707 111.363 234.236 111.098C233.772 110.826 233.232 110.69 232.616 110.69C231.973 110.69 231.403 110.839 230.905 111.138C230.415 111.429 230.03 111.824 229.752 112.321C229.474 112.812 229.331 113.358 229.324 113.962V116.457C229.324 117.213 229.464 117.866 229.742 118.416C230.027 118.966 230.428 119.391 230.945 119.689C231.462 119.987 232.075 120.136 232.785 120.136C233.255 120.136 233.686 120.07 234.077 119.938C234.468 119.805 234.803 119.606 235.081 119.341C235.36 119.076 235.572 118.751 235.718 118.366L239.635 118.625C239.437 119.566 239.029 120.388 238.412 121.091C237.803 121.787 237.014 122.33 236.046 122.722C235.085 123.106 233.974 123.298 232.715 123.298Z" fill="#D8DEE9"/>
</svg>
