<svg width="1138" height="608" viewBox="0 0 1138 608" fill="none" xmlns="http://www.w3.org/2000/svg">
<g filter="url(#filter0_d_1316_2693)">
<rect width="1130" height="600" transform="translate(4)" fill="#2F3340"/>
<path d="M176.312 158.409C176.312 164.754 175.109 170.152 172.704 174.602C170.317 179.053 167.06 182.453 162.931 184.801C158.821 187.131 154.2 188.295 149.067 188.295C143.897 188.295 139.257 187.121 135.147 184.773C131.037 182.424 127.789 179.025 125.403 174.574C123.016 170.123 121.823 164.735 121.823 158.409C121.823 152.064 123.016 146.667 125.403 142.216C127.789 137.765 131.037 134.375 135.147 132.045C139.257 129.697 143.897 128.523 149.067 128.523C154.2 128.523 158.821 129.697 162.931 132.045C167.06 134.375 170.317 137.765 172.704 142.216C175.109 146.667 176.312 152.064 176.312 158.409ZM163.84 158.409C163.84 154.299 163.225 150.833 161.994 148.011C160.781 145.189 159.067 143.049 156.852 141.591C154.636 140.133 152.041 139.403 149.067 139.403C146.094 139.403 143.499 140.133 141.283 141.591C139.067 143.049 137.344 145.189 136.113 148.011C134.901 150.833 134.295 154.299 134.295 158.409C134.295 162.519 134.901 165.985 136.113 168.807C137.344 171.629 139.067 173.769 141.283 175.227C143.499 176.686 146.094 177.415 149.067 177.415C152.041 177.415 154.636 176.686 156.852 175.227C159.067 173.769 160.781 171.629 161.994 168.807C163.225 165.985 163.84 162.519 163.84 158.409ZM185.197 203.864V143.864H197.129V151.193H197.668C198.199 150.019 198.966 148.826 199.969 147.614C200.992 146.383 202.318 145.36 203.947 144.545C205.594 143.712 207.64 143.295 210.083 143.295C213.265 143.295 216.201 144.129 218.89 145.795C221.579 147.443 223.729 149.934 225.339 153.267C226.949 156.581 227.754 160.739 227.754 165.739C227.754 170.606 226.968 174.716 225.396 178.068C223.843 181.402 221.721 183.93 219.032 185.653C216.362 187.358 213.369 188.21 210.055 188.21C207.706 188.21 205.708 187.822 204.06 187.045C202.432 186.269 201.096 185.294 200.055 184.119C199.013 182.926 198.218 181.723 197.668 180.511H197.299V203.864H185.197ZM197.043 165.682C197.043 168.277 197.403 170.54 198.123 172.472C198.843 174.403 199.884 175.909 201.248 176.989C202.612 178.049 204.269 178.58 206.219 178.58C208.189 178.58 209.856 178.04 211.219 176.96C212.583 175.862 213.615 174.347 214.316 172.415C215.036 170.464 215.396 168.22 215.396 165.682C215.396 163.163 215.045 160.947 214.344 159.034C213.644 157.121 212.612 155.625 211.248 154.545C209.884 153.466 208.208 152.926 206.219 152.926C204.25 152.926 202.583 153.447 201.219 154.489C199.875 155.53 198.843 157.008 198.123 158.92C197.403 160.833 197.043 163.087 197.043 165.682ZM259.032 143.864V152.955H232.754V143.864H259.032ZM238.719 133.409H250.822V174.091C250.822 175.208 250.992 176.08 251.333 176.705C251.674 177.311 252.147 177.737 252.754 177.983C253.379 178.229 254.098 178.352 254.913 178.352C255.481 178.352 256.049 178.305 256.617 178.21C257.185 178.097 257.621 178.011 257.924 177.955L259.827 186.96C259.221 187.15 258.369 187.367 257.271 187.614C256.172 187.879 254.837 188.04 253.265 188.097C250.348 188.21 247.791 187.822 245.594 186.932C243.416 186.042 241.721 184.659 240.509 182.784C239.297 180.909 238.701 178.542 238.719 175.682V133.409ZM266.915 187.5V143.864H279.018V187.5H266.915ZM272.995 138.239C271.196 138.239 269.652 137.642 268.364 136.449C267.095 135.237 266.461 133.788 266.461 132.102C266.461 130.436 267.095 129.006 268.364 127.812C269.652 126.6 271.196 125.994 272.995 125.994C274.794 125.994 276.328 126.6 277.597 127.812C278.885 129.006 279.529 130.436 279.529 132.102C279.529 133.788 278.885 135.237 277.597 136.449C276.328 137.642 274.794 138.239 272.995 138.239ZM288.712 187.5V143.864H300.246V151.562H300.758C301.667 149.006 303.182 146.989 305.303 145.511C307.424 144.034 309.962 143.295 312.917 143.295C315.909 143.295 318.457 144.044 320.559 145.54C322.661 147.017 324.063 149.025 324.763 151.562H325.218C326.108 149.062 327.718 147.064 330.048 145.568C332.396 144.053 335.171 143.295 338.371 143.295C342.443 143.295 345.748 144.593 348.286 147.188C350.843 149.763 352.121 153.419 352.121 158.153V187.5H340.048V160.54C340.048 158.116 339.404 156.297 338.116 155.085C336.828 153.873 335.218 153.267 333.286 153.267C331.089 153.267 329.375 153.968 328.144 155.369C326.913 156.752 326.298 158.58 326.298 160.852V187.5H314.565V160.284C314.565 158.144 313.949 156.439 312.718 155.17C311.506 153.902 309.906 153.267 307.917 153.267C306.572 153.267 305.36 153.608 304.281 154.29C303.22 154.953 302.377 155.89 301.752 157.102C301.127 158.295 300.815 159.697 300.815 161.307V187.5H288.712ZM361.681 187.5V143.864H373.783V187.5H361.681ZM367.761 138.239C365.961 138.239 364.418 137.642 363.13 136.449C361.861 135.237 361.227 133.788 361.227 132.102C361.227 130.436 361.861 129.006 363.13 127.812C364.418 126.6 365.961 125.994 367.761 125.994C369.56 125.994 371.094 126.6 372.363 127.812C373.651 129.006 374.295 130.436 374.295 132.102C374.295 133.788 373.651 135.237 372.363 136.449C371.094 137.642 369.56 138.239 367.761 138.239ZM383.251 187.5V180.284L404.614 153.835V153.523H383.989V143.864H419.188V151.733L399.131 177.528V177.841H419.927V187.5H383.251ZM447.817 188.352C443.329 188.352 439.465 187.443 436.227 185.625C433.007 183.788 430.526 181.193 428.783 177.841C427.041 174.47 426.17 170.483 426.17 165.881C426.17 161.392 427.041 157.453 428.783 154.062C430.526 150.672 432.978 148.03 436.141 146.136C439.323 144.242 443.054 143.295 447.335 143.295C450.213 143.295 452.893 143.759 455.374 144.688C457.874 145.597 460.052 146.97 461.908 148.807C463.783 150.644 465.242 152.955 466.283 155.739C467.325 158.504 467.846 161.742 467.846 165.455V168.778H430.999V161.278H456.454C456.454 159.536 456.075 157.992 455.317 156.648C454.56 155.303 453.509 154.252 452.164 153.494C450.838 152.718 449.295 152.33 447.533 152.33C445.696 152.33 444.067 152.756 442.647 153.608C441.246 154.441 440.147 155.568 439.352 156.989C438.556 158.39 438.149 159.953 438.13 161.676V168.807C438.13 170.966 438.528 172.831 439.323 174.403C440.138 175.975 441.283 177.188 442.761 178.04C444.238 178.892 445.99 179.318 448.016 179.318C449.361 179.318 450.592 179.129 451.71 178.75C452.827 178.371 453.783 177.803 454.579 177.045C455.374 176.288 455.98 175.36 456.397 174.261L467.59 175C467.022 177.689 465.857 180.038 464.096 182.045C462.353 184.034 460.1 185.587 457.335 186.705C454.588 187.803 451.416 188.352 447.817 188.352ZM545.822 149.688H533.379C533.151 148.078 532.687 146.648 531.987 145.398C531.286 144.129 530.386 143.049 529.288 142.159C528.189 141.269 526.92 140.587 525.481 140.114C524.06 139.64 522.517 139.403 520.85 139.403C517.839 139.403 515.216 140.152 512.981 141.648C510.746 143.125 509.013 145.284 507.782 148.125C506.551 150.947 505.935 154.375 505.935 158.409C505.935 162.557 506.551 166.042 507.782 168.864C509.032 171.686 510.774 173.816 513.009 175.256C515.244 176.695 517.829 177.415 520.765 177.415C522.413 177.415 523.937 177.197 525.339 176.761C526.759 176.326 528.019 175.691 529.117 174.858C530.216 174.006 531.125 172.973 531.844 171.761C532.583 170.549 533.094 169.167 533.379 167.614L545.822 167.67C545.5 170.341 544.695 172.917 543.407 175.398C542.138 177.86 540.424 180.066 538.265 182.017C536.125 183.949 533.568 185.483 530.594 186.619C527.64 187.737 524.297 188.295 520.566 188.295C515.377 188.295 510.737 187.121 506.646 184.773C502.574 182.424 499.354 179.025 496.987 174.574C494.638 170.123 493.464 164.735 493.464 158.409C493.464 152.064 494.657 146.667 497.043 142.216C499.43 137.765 502.668 134.375 506.759 132.045C510.85 129.697 515.452 128.523 520.566 128.523C523.937 128.523 527.062 128.996 529.941 129.943C532.839 130.89 535.405 132.273 537.64 134.091C539.875 135.89 541.693 138.097 543.094 140.71C544.515 143.324 545.424 146.316 545.822 149.688ZM566.859 188.324C564.075 188.324 561.594 187.841 559.415 186.875C557.237 185.89 555.514 184.441 554.245 182.528C552.995 180.597 552.37 178.191 552.37 175.312C552.37 172.888 552.815 170.852 553.705 169.205C554.595 167.557 555.808 166.231 557.342 165.227C558.876 164.223 560.618 163.466 562.569 162.955C564.539 162.443 566.603 162.083 568.762 161.875C571.3 161.61 573.345 161.364 574.898 161.136C576.451 160.89 577.578 160.53 578.279 160.057C578.98 159.583 579.33 158.883 579.33 157.955V157.784C579.33 155.985 578.762 154.593 577.626 153.608C576.508 152.623 574.917 152.131 572.853 152.131C570.675 152.131 568.942 152.614 567.654 153.58C566.366 154.527 565.514 155.72 565.097 157.159L553.904 156.25C554.472 153.598 555.59 151.307 557.256 149.375C558.923 147.424 561.073 145.928 563.705 144.886C566.357 143.826 569.425 143.295 572.91 143.295C575.334 143.295 577.654 143.58 579.87 144.148C582.105 144.716 584.084 145.597 585.808 146.79C587.55 147.983 588.923 149.517 589.927 151.392C590.931 153.248 591.433 155.473 591.433 158.068V187.5H579.955V181.449H579.614C578.914 182.812 577.976 184.015 576.802 185.057C575.628 186.08 574.217 186.884 572.569 187.472C570.921 188.04 569.018 188.324 566.859 188.324ZM570.325 179.972C572.105 179.972 573.677 179.621 575.04 178.92C576.404 178.201 577.474 177.235 578.251 176.023C579.027 174.811 579.415 173.437 579.415 171.903V167.273C579.037 167.519 578.516 167.746 577.853 167.955C577.209 168.144 576.48 168.324 575.665 168.494C574.851 168.646 574.037 168.788 573.222 168.92C572.408 169.034 571.669 169.138 571.006 169.233C569.586 169.441 568.345 169.773 567.285 170.227C566.224 170.682 565.4 171.297 564.813 172.074C564.226 172.831 563.933 173.778 563.933 174.915C563.933 176.562 564.529 177.822 565.722 178.693C566.934 179.545 568.469 179.972 570.325 179.972ZM620.538 188.352C616.068 188.352 612.223 187.405 609.004 185.511C605.803 183.598 603.341 180.947 601.617 177.557C599.913 174.167 599.06 170.265 599.06 165.852C599.06 161.383 599.922 157.462 601.646 154.091C603.388 150.701 605.86 148.059 609.06 146.165C612.261 144.252 616.068 143.295 620.481 143.295C624.288 143.295 627.621 143.987 630.481 145.369C633.341 146.752 635.604 148.693 637.271 151.193C638.937 153.693 639.856 156.629 640.026 160H628.606C628.284 157.822 627.432 156.07 626.049 154.744C624.685 153.4 622.896 152.727 620.68 152.727C618.805 152.727 617.166 153.239 615.765 154.261C614.382 155.265 613.303 156.733 612.526 158.665C611.75 160.597 611.362 162.936 611.362 165.682C611.362 168.466 611.74 170.833 612.498 172.784C613.274 174.735 614.363 176.222 615.765 177.244C617.166 178.267 618.805 178.778 620.68 178.778C622.062 178.778 623.303 178.494 624.401 177.926C625.519 177.358 626.437 176.534 627.157 175.455C627.896 174.356 628.379 173.04 628.606 171.506H640.026C639.837 174.839 638.928 177.775 637.299 180.312C635.689 182.831 633.464 184.801 630.623 186.222C627.782 187.642 624.42 188.352 620.538 188.352ZM659.877 162.273V187.5H647.775V129.318H659.536V151.562H660.048C661.032 148.987 662.623 146.97 664.82 145.511C667.017 144.034 669.773 143.295 673.087 143.295C676.118 143.295 678.76 143.958 681.013 145.284C683.286 146.591 685.048 148.475 686.298 150.938C687.567 153.381 688.192 156.307 688.173 159.716V187.5H676.07V161.875C676.089 159.186 675.407 157.093 674.025 155.597C672.661 154.1 670.748 153.352 668.286 153.352C666.638 153.352 665.18 153.703 663.911 154.403C662.661 155.104 661.676 156.127 660.957 157.472C660.256 158.797 659.896 160.398 659.877 162.273ZM697.697 187.5V143.864H709.799V187.5H697.697ZM703.776 138.239C701.977 138.239 700.433 137.642 699.146 136.449C697.877 135.237 697.242 133.788 697.242 132.102C697.242 130.436 697.877 129.006 699.146 127.812C700.433 126.6 701.977 125.994 703.776 125.994C705.576 125.994 707.11 126.6 708.379 127.812C709.666 129.006 710.31 130.436 710.31 132.102C710.31 133.788 709.666 135.237 708.379 136.449C707.11 137.642 705.576 138.239 703.776 138.239ZM731.596 162.273V187.5H719.494V143.864H731.028V151.562H731.539C732.505 149.025 734.124 147.017 736.397 145.54C738.67 144.044 741.425 143.295 744.664 143.295C747.694 143.295 750.336 143.958 752.59 145.284C754.844 146.61 756.596 148.504 757.846 150.966C759.096 153.409 759.721 156.326 759.721 159.716V187.5H747.619V161.875C747.638 159.205 746.956 157.121 745.573 155.625C744.191 154.11 742.287 153.352 739.863 153.352C738.234 153.352 736.795 153.703 735.545 154.403C734.314 155.104 733.348 156.127 732.647 157.472C731.965 158.797 731.615 160.398 731.596 162.273ZM788.918 204.773C784.998 204.773 781.636 204.233 778.833 203.153C776.049 202.093 773.833 200.644 772.185 198.807C770.538 196.97 769.468 194.905 768.975 192.614L780.168 191.108C780.509 191.979 781.049 192.794 781.788 193.551C782.526 194.309 783.502 194.915 784.714 195.369C785.945 195.843 787.441 196.08 789.202 196.08C791.835 196.08 794.004 195.436 795.708 194.148C797.432 192.879 798.293 190.748 798.293 187.756V179.773H797.782C797.252 180.985 796.456 182.131 795.396 183.21C794.335 184.29 792.971 185.17 791.305 185.852C789.638 186.534 787.649 186.875 785.339 186.875C782.062 186.875 779.079 186.117 776.39 184.602C773.719 183.068 771.589 180.729 769.998 177.585C768.426 174.422 767.64 170.426 767.64 165.597C767.64 160.653 768.445 156.525 770.055 153.21C771.665 149.896 773.805 147.415 776.475 145.767C779.165 144.119 782.11 143.295 785.31 143.295C787.754 143.295 789.799 143.712 791.447 144.545C793.094 145.36 794.42 146.383 795.424 147.614C796.447 148.826 797.233 150.019 797.782 151.193H798.237V143.864H810.254V187.926C810.254 191.638 809.344 194.744 807.526 197.244C805.708 199.744 803.189 201.619 799.969 202.869C796.769 204.138 793.085 204.773 788.918 204.773ZM789.174 177.784C791.125 177.784 792.772 177.301 794.117 176.335C795.481 175.35 796.522 173.949 797.242 172.131C797.981 170.294 798.35 168.097 798.35 165.54C798.35 162.983 797.99 160.767 797.271 158.892C796.551 156.998 795.509 155.53 794.146 154.489C792.782 153.447 791.125 152.926 789.174 152.926C787.185 152.926 785.509 153.466 784.146 154.545C782.782 155.606 781.75 157.083 781.049 158.977C780.348 160.871 779.998 163.059 779.998 165.54C779.998 168.059 780.348 170.237 781.049 172.074C781.769 173.892 782.801 175.303 784.146 176.307C785.509 177.292 787.185 177.784 789.174 177.784ZM851.724 187.5L835.076 129.318H848.513L858.144 169.744H858.627L869.252 129.318H880.758L891.354 169.83H891.866L901.496 129.318H914.934L898.286 187.5H886.298L875.218 149.46H874.763L863.712 187.5H851.724ZM921.29 187.5V143.864H933.393V187.5H921.29ZM927.37 138.239C925.571 138.239 924.027 137.642 922.739 136.449C921.47 135.237 920.836 133.788 920.836 132.102C920.836 130.436 921.47 129.006 922.739 127.812C924.027 126.6 925.571 125.994 927.37 125.994C929.169 125.994 930.703 126.6 931.972 127.812C933.26 129.006 933.904 130.436 933.904 132.102C933.904 133.788 933.26 135.237 931.972 136.449C930.703 137.642 929.169 138.239 927.37 138.239ZM966.298 143.864V152.955H940.019V143.864H966.298ZM945.985 133.409H958.087V174.091C958.087 175.208 958.258 176.08 958.599 176.705C958.94 177.311 959.413 177.737 960.019 177.983C960.644 178.229 961.364 178.352 962.178 178.352C962.746 178.352 963.315 178.305 963.883 178.21C964.451 178.097 964.887 178.011 965.19 177.955L967.093 186.96C966.487 187.15 965.635 187.367 964.536 187.614C963.438 187.879 962.103 188.04 960.531 188.097C957.614 188.21 955.057 187.822 952.86 186.932C950.682 186.042 948.987 184.659 947.775 182.784C946.563 180.909 945.966 178.542 945.985 175.682V133.409ZM987.221 162.273V187.5H975.119V129.318H986.88V151.562H987.391C988.376 148.987 989.967 146.97 992.164 145.511C994.361 144.034 997.117 143.295 1000.43 143.295C1003.46 143.295 1006.1 143.958 1008.36 145.284C1010.63 146.591 1012.39 148.475 1013.64 150.938C1014.91 153.381 1015.54 156.307 1015.52 159.716V187.5H1003.41V161.875C1003.43 159.186 1002.75 157.093 1001.37 155.597C1000 154.1 998.092 153.352 995.63 153.352C993.982 153.352 992.524 153.703 991.255 154.403C990.005 155.104 989.02 156.127 988.3 157.472C987.6 158.797 987.24 160.398 987.221 162.273ZM177.558 253.307L166.479 253.989C166.289 253.042 165.882 252.189 165.257 251.432C164.632 250.655 163.808 250.04 162.786 249.585C161.782 249.112 160.579 248.875 159.178 248.875C157.303 248.875 155.721 249.273 154.433 250.068C153.145 250.845 152.501 251.886 152.501 253.193C152.501 254.235 152.918 255.116 153.751 255.835C154.585 256.555 156.015 257.133 158.041 257.568L165.939 259.159C170.181 260.03 173.344 261.432 175.428 263.364C177.511 265.295 178.553 267.833 178.553 270.977C178.553 273.837 177.71 276.347 176.024 278.506C174.357 280.665 172.066 282.35 169.149 283.562C166.251 284.756 162.909 285.352 159.121 285.352C153.344 285.352 148.742 284.15 145.314 281.744C141.905 279.32 139.907 276.025 139.32 271.858L151.223 271.233C151.583 272.994 152.454 274.339 153.837 275.267C155.219 276.176 156.99 276.631 159.149 276.631C161.27 276.631 162.975 276.223 164.263 275.409C165.57 274.576 166.232 273.506 166.251 272.199C166.232 271.1 165.768 270.201 164.859 269.5C163.95 268.78 162.549 268.231 160.655 267.852L153.098 266.347C148.837 265.494 145.664 264.017 143.581 261.915C141.517 259.812 140.484 257.133 140.484 253.875C140.484 251.072 141.242 248.657 142.757 246.631C144.291 244.604 146.441 243.042 149.206 241.943C151.99 240.845 155.248 240.295 158.979 240.295C164.49 240.295 168.827 241.46 171.99 243.79C175.172 246.119 177.028 249.292 177.558 253.307ZM209.384 240.864V249.955H183.105V240.864H209.384ZM189.071 230.409H201.173V271.091C201.173 272.208 201.344 273.08 201.685 273.705C202.026 274.311 202.499 274.737 203.105 274.983C203.73 275.229 204.45 275.352 205.264 275.352C205.832 275.352 206.401 275.305 206.969 275.21C207.537 275.097 207.973 275.011 208.276 274.955L210.179 283.96C209.573 284.15 208.721 284.367 207.622 284.614C206.524 284.879 205.188 285.04 203.616 285.097C200.7 285.21 198.143 284.822 195.946 283.932C193.768 283.042 192.073 281.659 190.861 279.784C189.649 277.909 189.052 275.542 189.071 272.682V230.409ZM229.71 285.324C226.926 285.324 224.445 284.841 222.267 283.875C220.089 282.89 218.366 281.441 217.097 279.528C215.847 277.597 215.222 275.191 215.222 272.312C215.222 269.888 215.667 267.852 216.557 266.205C217.447 264.557 218.659 263.231 220.193 262.227C221.727 261.223 223.47 260.466 225.42 259.955C227.39 259.443 229.455 259.083 231.614 258.875C234.152 258.61 236.197 258.364 237.75 258.136C239.303 257.89 240.43 257.53 241.131 257.057C241.831 256.583 242.182 255.883 242.182 254.955V254.784C242.182 252.985 241.614 251.593 240.477 250.608C239.36 249.623 237.769 249.131 235.705 249.131C233.527 249.131 231.794 249.614 230.506 250.58C229.218 251.527 228.366 252.72 227.949 254.159L216.756 253.25C217.324 250.598 218.441 248.307 220.108 246.375C221.775 244.424 223.924 242.928 226.557 241.886C229.208 240.826 232.277 240.295 235.761 240.295C238.186 240.295 240.506 240.58 242.722 241.148C244.956 241.716 246.936 242.597 248.659 243.79C250.402 244.983 251.775 246.517 252.778 248.392C253.782 250.248 254.284 252.473 254.284 255.068V284.5H242.807V278.449H242.466C241.765 279.812 240.828 281.015 239.653 282.057C238.479 283.08 237.068 283.884 235.42 284.472C233.773 285.04 231.869 285.324 229.71 285.324ZM233.176 276.972C234.956 276.972 236.528 276.621 237.892 275.92C239.256 275.201 240.326 274.235 241.102 273.023C241.879 271.811 242.267 270.437 242.267 268.903V264.273C241.888 264.519 241.367 264.746 240.705 264.955C240.061 265.144 239.331 265.324 238.517 265.494C237.703 265.646 236.888 265.788 236.074 265.92C235.259 266.034 234.521 266.138 233.858 266.233C232.438 266.441 231.197 266.773 230.136 267.227C229.076 267.682 228.252 268.297 227.665 269.074C227.078 269.831 226.784 270.778 226.784 271.915C226.784 273.562 227.381 274.822 228.574 275.693C229.786 276.545 231.32 276.972 233.176 276.972ZM275.776 226.318V284.5H263.673V226.318H275.776ZM305.357 285.352C300.868 285.352 297.004 284.443 293.766 282.625C290.546 280.788 288.065 278.193 286.322 274.841C284.58 271.47 283.709 267.483 283.709 262.881C283.709 258.392 284.58 254.453 286.322 251.062C288.065 247.672 290.518 245.03 293.68 243.136C296.862 241.242 300.593 240.295 304.874 240.295C307.752 240.295 310.432 240.759 312.913 241.688C315.413 242.597 317.591 243.97 319.447 245.807C321.322 247.644 322.781 249.955 323.822 252.739C324.864 255.504 325.385 258.742 325.385 262.455V265.778H288.538V258.278H313.993C313.993 256.536 313.614 254.992 312.857 253.648C312.099 252.303 311.048 251.252 309.703 250.494C308.377 249.718 306.834 249.33 305.072 249.33C303.235 249.33 301.607 249.756 300.186 250.608C298.785 251.441 297.686 252.568 296.891 253.989C296.095 255.39 295.688 256.953 295.669 258.676V265.807C295.669 267.966 296.067 269.831 296.862 271.403C297.677 272.975 298.822 274.188 300.3 275.04C301.777 275.892 303.529 276.318 305.555 276.318C306.9 276.318 308.131 276.129 309.249 275.75C310.366 275.371 311.322 274.803 312.118 274.045C312.913 273.288 313.519 272.36 313.936 271.261L325.129 272C324.561 274.689 323.396 277.038 321.635 279.045C319.893 281.034 317.639 282.587 314.874 283.705C312.127 284.803 308.955 285.352 305.357 285.352ZM360.47 255.807V265.409H333.936V255.807H360.47ZM379.391 284.5L367.516 240.864H379.76L386.521 270.182H386.919L393.964 240.864H405.982L413.141 270.011H413.51L420.158 240.864H432.374L420.527 284.5H407.714L400.214 257.057H399.675L392.175 284.5H379.391ZM450.932 259.273V284.5H438.83V226.318H450.591V248.562H451.102C452.087 245.987 453.678 243.97 455.875 242.511C458.072 241.034 460.828 240.295 464.142 240.295C467.172 240.295 469.814 240.958 472.068 242.284C474.341 243.591 476.102 245.475 477.352 247.938C478.621 250.381 479.246 253.307 479.227 256.716V284.5H467.125V258.875C467.144 256.186 466.462 254.093 465.08 252.597C463.716 251.1 461.803 250.352 459.341 250.352C457.693 250.352 456.235 250.703 454.966 251.403C453.716 252.104 452.731 253.127 452.011 254.472C451.311 255.797 450.951 257.398 450.932 259.273ZM488.751 284.5V240.864H500.854V284.5H488.751ZM494.831 235.239C493.032 235.239 491.488 234.642 490.2 233.449C488.931 232.237 488.297 230.788 488.297 229.102C488.297 227.436 488.931 226.006 490.2 224.812C491.488 223.6 493.032 222.994 494.831 222.994C496.63 222.994 498.164 223.6 499.433 224.812C500.721 226.006 501.365 227.436 501.365 229.102C501.365 230.788 500.721 232.237 499.433 233.449C498.164 234.642 496.63 235.239 494.831 235.239ZM522.651 226.318V284.5H510.548V226.318H522.651ZM552.232 285.352C547.743 285.352 543.879 284.443 540.641 282.625C537.421 280.788 534.94 278.193 533.197 274.841C531.455 271.47 530.584 267.483 530.584 262.881C530.584 258.392 531.455 254.453 533.197 251.062C534.94 247.672 537.393 245.03 540.555 243.136C543.737 241.242 547.468 240.295 551.749 240.295C554.627 240.295 557.307 240.759 559.788 241.688C562.288 242.597 564.466 243.97 566.322 245.807C568.197 247.644 569.656 249.955 570.697 252.739C571.739 255.504 572.26 258.742 572.26 262.455V265.778H535.413V258.278H560.868C560.868 256.536 560.489 254.992 559.732 253.648C558.974 252.303 557.923 251.252 556.578 250.494C555.252 249.718 553.709 249.33 551.947 249.33C550.11 249.33 548.482 249.756 547.061 250.608C545.66 251.441 544.561 252.568 543.766 253.989C542.97 255.39 542.563 256.953 542.544 258.676V265.807C542.544 267.966 542.942 269.831 543.737 271.403C544.552 272.975 545.697 274.188 547.175 275.04C548.652 275.892 550.404 276.318 552.43 276.318C553.775 276.318 555.006 276.129 556.124 275.75C557.241 275.371 558.197 274.803 558.993 274.045C559.788 273.288 560.394 272.36 560.811 271.261L572.004 272C571.436 274.689 570.271 277.038 568.51 279.045C566.768 281.034 564.514 282.587 561.749 283.705C559.002 284.803 555.83 285.352 552.232 285.352ZM607.345 255.807V265.409H580.811V255.807H607.345ZM617.658 284.5V240.864H629.391V248.477H629.845C630.641 245.769 631.976 243.723 633.851 242.341C635.726 240.939 637.885 240.239 640.328 240.239C640.934 240.239 641.588 240.277 642.288 240.352C642.989 240.428 643.605 240.532 644.135 240.665V251.403C643.567 251.233 642.781 251.081 641.777 250.949C640.773 250.816 639.855 250.75 639.021 250.75C637.241 250.75 635.65 251.138 634.249 251.915C632.866 252.672 631.768 253.733 630.953 255.097C630.158 256.46 629.76 258.032 629.76 259.812V284.5H617.658ZM668.247 285.352C663.759 285.352 659.895 284.443 656.656 282.625C653.437 280.788 650.955 278.193 649.213 274.841C647.471 271.47 646.599 267.483 646.599 262.881C646.599 258.392 647.471 254.453 649.213 251.062C650.955 247.672 653.408 245.03 656.571 243.136C659.753 241.242 663.484 240.295 667.764 240.295C670.643 240.295 673.323 240.759 675.804 241.688C678.304 242.597 680.482 243.97 682.338 245.807C684.213 247.644 685.671 249.955 686.713 252.739C687.755 255.504 688.276 258.742 688.276 262.455V265.778H651.429V258.278H676.884C676.884 256.536 676.505 254.992 675.747 253.648C674.99 252.303 673.938 251.252 672.594 250.494C671.268 249.718 669.724 249.33 667.963 249.33C666.126 249.33 664.497 249.756 663.077 250.608C661.675 251.441 660.577 252.568 659.781 253.989C658.986 255.39 658.579 256.953 658.56 258.676V265.807C658.56 267.966 658.957 269.831 659.753 271.403C660.567 272.975 661.713 274.188 663.19 275.04C664.668 275.892 666.42 276.318 668.446 276.318C669.791 276.318 671.022 276.129 672.139 275.75C673.257 275.371 674.213 274.803 675.009 274.045C675.804 273.288 676.41 272.36 676.827 271.261L688.02 272C687.452 274.689 686.287 277.038 684.526 279.045C682.783 281.034 680.529 282.587 677.764 283.705C675.018 284.803 671.846 285.352 668.247 285.352ZM735.683 240.864L720.428 284.5H706.791L691.536 240.864H704.32L713.382 272.085H713.837L722.871 240.864H735.683ZM753.148 285.324C750.364 285.324 747.883 284.841 745.705 283.875C743.527 282.89 741.803 281.441 740.534 279.528C739.284 277.597 738.659 275.191 738.659 272.312C738.659 269.888 739.104 267.852 739.994 266.205C740.884 264.557 742.097 263.231 743.631 262.227C745.165 261.223 746.907 260.466 748.858 259.955C750.828 259.443 752.892 259.083 755.051 258.875C757.589 258.61 759.634 258.364 761.188 258.136C762.741 257.89 763.867 257.53 764.568 257.057C765.269 256.583 765.619 255.883 765.619 254.955V254.784C765.619 252.985 765.051 251.593 763.915 250.608C762.797 249.623 761.206 249.131 759.142 249.131C756.964 249.131 755.231 249.614 753.943 250.58C752.655 251.527 751.803 252.72 751.386 254.159L740.193 253.25C740.761 250.598 741.879 248.307 743.545 246.375C745.212 244.424 747.362 242.928 749.994 241.886C752.646 240.826 755.714 240.295 759.199 240.295C761.623 240.295 763.943 240.58 766.159 241.148C768.394 241.716 770.373 242.597 772.097 243.79C773.839 244.983 775.212 246.517 776.216 248.392C777.22 250.248 777.722 252.473 777.722 255.068V284.5H766.244V278.449H765.903C765.203 279.812 764.265 281.015 763.091 282.057C761.917 283.08 760.506 283.884 758.858 284.472C757.21 285.04 755.307 285.324 753.148 285.324ZM756.614 276.972C758.394 276.972 759.966 276.621 761.33 275.92C762.693 275.201 763.763 274.235 764.54 273.023C765.316 271.811 765.705 270.437 765.705 268.903V264.273C765.326 264.519 764.805 264.746 764.142 264.955C763.498 265.144 762.769 265.324 761.955 265.494C761.14 265.646 760.326 265.788 759.511 265.92C758.697 266.034 757.958 266.138 757.295 266.233C755.875 266.441 754.634 266.773 753.574 267.227C752.513 267.682 751.689 268.297 751.102 269.074C750.515 269.831 750.222 270.778 750.222 271.915C750.222 273.562 750.818 274.822 752.011 275.693C753.223 276.545 754.758 276.972 756.614 276.972ZM799.213 226.318V284.5H787.111V226.318H799.213ZM808.908 284.5V240.864H821.01V284.5H808.908ZM814.987 235.239C813.188 235.239 811.644 234.642 810.357 233.449C809.088 232.237 808.453 230.788 808.453 229.102C808.453 227.436 809.088 226.006 810.357 224.812C811.644 223.6 813.188 222.994 814.987 222.994C816.786 222.994 818.321 223.6 819.589 224.812C820.877 226.006 821.521 227.436 821.521 229.102C821.521 230.788 820.877 232.237 819.589 233.449C818.321 234.642 816.786 235.239 814.987 235.239ZM846.784 285.21C843.47 285.21 840.468 284.358 837.778 282.653C835.108 280.93 832.987 278.402 831.415 275.068C829.862 271.716 829.085 267.606 829.085 262.739C829.085 257.739 829.89 253.581 831.5 250.267C833.11 246.934 835.25 244.443 837.92 242.795C840.61 241.129 843.555 240.295 846.756 240.295C849.199 240.295 851.235 240.712 852.864 241.545C854.511 242.36 855.837 243.383 856.841 244.614C857.864 245.826 858.64 247.019 859.17 248.193H859.54V226.318H871.614V284.5H859.682V277.511H859.17C858.602 278.723 857.797 279.926 856.756 281.119C855.733 282.294 854.398 283.269 852.75 284.045C851.121 284.822 849.133 285.21 846.784 285.21ZM850.619 275.58C852.57 275.58 854.218 275.049 855.562 273.989C856.926 272.909 857.968 271.403 858.688 269.472C859.426 267.54 859.795 265.277 859.795 262.682C859.795 260.087 859.436 257.833 858.716 255.92C857.996 254.008 856.955 252.53 855.591 251.489C854.227 250.447 852.57 249.926 850.619 249.926C848.631 249.926 846.955 250.466 845.591 251.545C844.227 252.625 843.195 254.121 842.494 256.034C841.794 257.947 841.443 260.163 841.443 262.682C841.443 265.22 841.794 267.464 842.494 269.415C843.214 271.347 844.246 272.862 845.591 273.96C846.955 275.04 848.631 275.58 850.619 275.58ZM894.007 285.324C891.223 285.324 888.742 284.841 886.564 283.875C884.386 282.89 882.662 281.441 881.393 279.528C880.143 277.597 879.518 275.191 879.518 272.312C879.518 269.888 879.964 267.852 880.854 266.205C881.744 264.557 882.956 263.231 884.49 262.227C886.024 261.223 887.767 260.466 889.717 259.955C891.687 259.443 893.751 259.083 895.911 258.875C898.448 258.61 900.494 258.364 902.047 258.136C903.6 257.89 904.727 257.53 905.428 257.057C906.128 256.583 906.479 255.883 906.479 254.955V254.784C906.479 252.985 905.911 251.593 904.774 250.608C903.657 249.623 902.066 249.131 900.001 249.131C897.823 249.131 896.09 249.614 894.803 250.58C893.515 251.527 892.662 252.72 892.246 254.159L881.053 253.25C881.621 250.598 882.738 248.307 884.405 246.375C886.071 244.424 888.221 242.928 890.854 241.886C893.505 240.826 896.573 240.295 900.058 240.295C902.482 240.295 904.803 240.58 907.018 241.148C909.253 241.716 911.232 242.597 912.956 243.79C914.698 244.983 916.071 246.517 917.075 248.392C918.079 250.248 918.581 252.473 918.581 255.068V284.5H907.104V278.449H906.763C906.062 279.812 905.125 281.015 903.95 282.057C902.776 283.08 901.365 283.884 899.717 284.472C898.07 285.04 896.166 285.324 894.007 285.324ZM897.473 276.972C899.253 276.972 900.825 276.621 902.189 275.92C903.553 275.201 904.623 274.235 905.399 273.023C906.176 271.811 906.564 270.437 906.564 268.903V264.273C906.185 264.519 905.664 264.746 905.001 264.955C904.357 265.144 903.628 265.324 902.814 265.494C902 265.646 901.185 265.788 900.371 265.92C899.556 266.034 898.818 266.138 898.155 266.233C896.734 266.441 895.494 266.773 894.433 267.227C893.373 267.682 892.549 268.297 891.962 269.074C891.375 269.831 891.081 270.778 891.081 271.915C891.081 273.562 891.678 274.822 892.871 275.693C894.083 276.545 895.617 276.972 897.473 276.972ZM951.18 240.864V249.955H924.902V240.864H951.18ZM930.868 230.409H942.97V271.091C942.97 272.208 943.141 273.08 943.482 273.705C943.822 274.311 944.296 274.737 944.902 274.983C945.527 275.229 946.247 275.352 947.061 275.352C947.629 275.352 948.197 275.305 948.766 275.21C949.334 275.097 949.769 275.011 950.072 274.955L951.976 283.96C951.37 284.15 950.518 284.367 949.419 284.614C948.321 284.879 946.985 285.04 945.413 285.097C942.497 285.21 939.94 284.822 937.743 283.932C935.565 283.042 933.87 281.659 932.658 279.784C931.446 277.909 930.849 275.542 930.868 272.682V230.409ZM978.482 285.352C973.993 285.352 970.129 284.443 966.891 282.625C963.671 280.788 961.19 278.193 959.447 274.841C957.705 271.47 956.834 267.483 956.834 262.881C956.834 258.392 957.705 254.453 959.447 251.062C961.19 247.672 963.643 245.03 966.805 243.136C969.987 241.242 973.718 240.295 977.999 240.295C980.877 240.295 983.557 240.759 986.038 241.688C988.538 242.597 990.716 243.97 992.572 245.807C994.447 247.644 995.906 249.955 996.947 252.739C997.989 255.504 998.51 258.742 998.51 262.455V265.778H961.663V258.278H987.118C987.118 256.536 986.739 254.992 985.982 253.648C985.224 252.303 984.173 251.252 982.828 250.494C981.502 249.718 979.959 249.33 978.197 249.33C976.36 249.33 974.732 249.756 973.311 250.608C971.91 251.441 970.811 252.568 970.016 253.989C969.22 255.39 968.813 256.953 968.794 258.676V265.807C968.794 267.966 969.192 269.831 969.987 271.403C970.802 272.975 971.947 274.188 973.425 275.04C974.902 275.892 976.654 276.318 978.68 276.318C980.025 276.318 981.256 276.129 982.374 275.75C983.491 275.371 984.447 274.803 985.243 274.045C986.038 273.288 986.644 272.36 987.061 271.261L998.254 272C997.686 274.689 996.521 277.038 994.76 279.045C993.018 281.034 990.764 282.587 987.999 283.705C985.252 284.803 982.08 285.352 978.482 285.352Z" fill="#D8DEE9"/>
<g filter="url(#filter1_i_1316_2693)">
<rect x="270" y="368.5" width="204" height="46" rx="23" fill="#202227"/>
<path d="M309.531 388.703H307.094C307 388.182 306.826 387.724 306.57 387.328C306.315 386.932 306.003 386.596 305.633 386.32C305.263 386.044 304.849 385.836 304.391 385.695C303.938 385.555 303.456 385.484 302.945 385.484C302.023 385.484 301.198 385.716 300.469 386.18C299.745 386.643 299.172 387.323 298.75 388.219C298.333 389.115 298.125 390.208 298.125 391.5C298.125 392.802 298.333 393.901 298.75 394.797C299.172 395.693 299.747 396.37 300.477 396.828C301.206 397.286 302.026 397.516 302.938 397.516C303.443 397.516 303.922 397.448 304.375 397.312C304.833 397.172 305.247 396.966 305.617 396.695C305.987 396.424 306.299 396.094 306.555 395.703C306.815 395.307 306.995 394.854 307.094 394.344L309.531 394.352C309.401 395.138 309.148 395.862 308.773 396.523C308.404 397.18 307.927 397.747 307.344 398.227C306.766 398.701 306.104 399.068 305.359 399.328C304.615 399.589 303.802 399.719 302.922 399.719C301.536 399.719 300.302 399.391 299.219 398.734C298.135 398.073 297.281 397.128 296.656 395.898C296.036 394.669 295.727 393.203 295.727 391.5C295.727 389.792 296.039 388.326 296.664 387.102C297.289 385.872 298.143 384.93 299.227 384.273C300.31 383.612 301.542 383.281 302.922 383.281C303.771 383.281 304.563 383.404 305.297 383.648C306.036 383.888 306.701 384.242 307.289 384.711C307.878 385.174 308.365 385.742 308.75 386.414C309.135 387.081 309.396 387.844 309.531 388.703ZM315.725 399.766C314.964 399.766 314.277 399.625 313.662 399.344C313.048 399.057 312.561 398.643 312.201 398.102C311.847 397.56 311.67 396.896 311.67 396.109C311.67 395.432 311.8 394.875 312.061 394.437C312.321 394 312.673 393.654 313.115 393.398C313.558 393.143 314.053 392.951 314.6 392.82C315.146 392.69 315.704 392.591 316.271 392.523C316.99 392.44 317.574 392.372 318.021 392.32C318.469 392.263 318.795 392.172 318.998 392.047C319.201 391.922 319.303 391.719 319.303 391.437V391.383C319.303 390.701 319.11 390.172 318.725 389.797C318.344 389.422 317.777 389.234 317.021 389.234C316.235 389.234 315.615 389.409 315.162 389.758C314.714 390.102 314.404 390.484 314.232 390.906L312.037 390.406C312.298 389.677 312.678 389.089 313.178 388.641C313.683 388.187 314.264 387.859 314.92 387.656C315.576 387.448 316.266 387.344 316.99 387.344C317.469 387.344 317.977 387.401 318.514 387.516C319.055 387.625 319.561 387.828 320.029 388.125C320.503 388.422 320.891 388.846 321.193 389.398C321.495 389.945 321.646 390.656 321.646 391.531V399.5H319.365V397.859H319.271C319.12 398.161 318.894 398.458 318.592 398.75C318.29 399.042 317.902 399.284 317.428 399.477C316.954 399.669 316.386 399.766 315.725 399.766ZM316.232 397.891C316.878 397.891 317.43 397.763 317.889 397.508C318.352 397.253 318.704 396.919 318.943 396.508C319.188 396.091 319.311 395.646 319.311 395.172V393.625C319.227 393.708 319.066 393.786 318.826 393.859C318.592 393.927 318.324 393.987 318.021 394.039C317.719 394.086 317.425 394.13 317.139 394.172C316.852 394.208 316.613 394.24 316.42 394.266C315.967 394.323 315.553 394.419 315.178 394.555C314.808 394.69 314.511 394.885 314.287 395.141C314.068 395.391 313.959 395.724 313.959 396.141C313.959 396.719 314.173 397.156 314.6 397.453C315.027 397.745 315.571 397.891 316.232 397.891ZM329.813 399.742C328.651 399.742 327.651 399.479 326.813 398.953C325.979 398.422 325.339 397.69 324.891 396.758C324.443 395.826 324.219 394.758 324.219 393.555C324.219 392.336 324.448 391.26 324.906 390.328C325.365 389.391 326.01 388.659 326.844 388.133C327.677 387.607 328.659 387.344 329.789 387.344C330.701 387.344 331.513 387.513 332.227 387.852C332.94 388.185 333.516 388.654 333.953 389.258C334.396 389.862 334.659 390.568 334.742 391.375H332.469C332.344 390.812 332.057 390.328 331.609 389.922C331.167 389.516 330.573 389.312 329.828 389.312C329.177 389.312 328.607 389.484 328.117 389.828C327.633 390.167 327.255 390.651 326.984 391.281C326.714 391.906 326.578 392.646 326.578 393.5C326.578 394.375 326.711 395.13 326.977 395.766C327.242 396.401 327.617 396.893 328.102 397.242C328.591 397.591 329.167 397.766 329.828 397.766C330.271 397.766 330.672 397.685 331.031 397.523C331.396 397.357 331.701 397.12 331.945 396.812C332.195 396.505 332.37 396.135 332.469 395.703H334.742C334.659 396.479 334.406 397.172 333.984 397.781C333.563 398.391 332.997 398.87 332.289 399.219C331.586 399.568 330.76 399.742 329.813 399.742ZM339.576 392.375V399.5H337.24V383.5H339.545V389.453H339.693C339.975 388.807 340.404 388.294 340.982 387.914C341.561 387.534 342.316 387.344 343.248 387.344C344.071 387.344 344.79 387.513 345.404 387.852C346.024 388.19 346.503 388.695 346.842 389.367C347.186 390.034 347.357 390.867 347.357 391.867V399.5H345.021V392.148C345.021 391.268 344.795 390.586 344.342 390.102C343.889 389.612 343.258 389.367 342.451 389.367C341.899 389.367 341.404 389.484 340.967 389.719C340.535 389.953 340.193 390.297 339.943 390.75C339.699 391.198 339.576 391.74 339.576 392.375ZM355.646 399.742C354.464 399.742 353.446 399.49 352.592 398.984C351.743 398.474 351.087 397.758 350.623 396.836C350.165 395.909 349.936 394.823 349.936 393.578C349.936 392.349 350.165 391.266 350.623 390.328C351.087 389.391 351.732 388.659 352.561 388.133C353.394 387.607 354.368 387.344 355.482 387.344C356.16 387.344 356.816 387.456 357.451 387.68C358.087 387.904 358.657 388.255 359.162 388.734C359.667 389.214 360.066 389.836 360.357 390.602C360.649 391.362 360.795 392.286 360.795 393.375V394.203H351.256V392.453H358.506C358.506 391.839 358.381 391.294 358.131 390.82C357.881 390.341 357.529 389.964 357.076 389.687C356.628 389.411 356.102 389.273 355.498 389.273C354.842 389.273 354.269 389.435 353.779 389.758C353.295 390.076 352.92 390.492 352.654 391.008C352.394 391.518 352.264 392.073 352.264 392.672V394.039C352.264 394.841 352.404 395.523 352.686 396.086C352.972 396.648 353.37 397.078 353.881 397.375C354.391 397.667 354.988 397.812 355.67 397.812C356.113 397.812 356.516 397.75 356.881 397.625C357.245 397.495 357.561 397.302 357.826 397.047C358.092 396.792 358.295 396.477 358.436 396.102L360.646 396.5C360.469 397.151 360.152 397.721 359.693 398.211C359.24 398.695 358.67 399.073 357.982 399.344C357.3 399.609 356.521 399.742 355.646 399.742ZM370.457 391.727V393.75H363.363V391.727H370.457ZM387.047 388.703H384.609C384.516 388.182 384.341 387.724 384.086 387.328C383.831 386.932 383.518 386.596 383.148 386.32C382.779 386.044 382.365 385.836 381.906 385.695C381.453 385.555 380.971 385.484 380.461 385.484C379.539 385.484 378.714 385.716 377.984 386.18C377.26 386.643 376.688 387.323 376.266 388.219C375.849 389.115 375.641 390.208 375.641 391.5C375.641 392.802 375.849 393.901 376.266 394.797C376.688 395.693 377.263 396.37 377.992 396.828C378.721 397.286 379.542 397.516 380.453 397.516C380.958 397.516 381.438 397.448 381.891 397.312C382.349 397.172 382.763 396.966 383.133 396.695C383.503 396.424 383.815 396.094 384.07 395.703C384.331 395.307 384.51 394.854 384.609 394.344L387.047 394.352C386.917 395.138 386.664 395.862 386.289 396.523C385.919 397.18 385.443 397.747 384.859 398.227C384.281 398.701 383.62 399.068 382.875 399.328C382.13 399.589 381.318 399.719 380.438 399.719C379.052 399.719 377.818 399.391 376.734 398.734C375.651 398.073 374.797 397.128 374.172 395.898C373.552 394.669 373.242 393.203 373.242 391.5C373.242 389.792 373.555 388.326 374.18 387.102C374.805 385.872 375.659 384.93 376.742 384.273C377.826 383.612 379.057 383.281 380.438 383.281C381.286 383.281 382.078 383.404 382.813 383.648C383.552 383.888 384.216 384.242 384.805 384.711C385.393 385.174 385.88 385.742 386.266 386.414C386.651 387.081 386.911 387.844 387.047 388.703ZM394.803 399.742C393.678 399.742 392.696 399.484 391.857 398.969C391.019 398.453 390.368 397.732 389.904 396.805C389.441 395.878 389.209 394.794 389.209 393.555C389.209 392.31 389.441 391.221 389.904 390.289C390.368 389.357 391.019 388.633 391.857 388.117C392.696 387.602 393.678 387.344 394.803 387.344C395.928 387.344 396.91 387.602 397.748 388.117C398.587 388.633 399.238 389.357 399.701 390.289C400.165 391.221 400.396 392.31 400.396 393.555C400.396 394.794 400.165 395.878 399.701 396.805C399.238 397.732 398.587 398.453 397.748 398.969C396.91 399.484 395.928 399.742 394.803 399.742ZM394.811 397.781C395.54 397.781 396.144 397.589 396.623 397.203C397.102 396.818 397.456 396.305 397.686 395.664C397.92 395.023 398.037 394.318 398.037 393.547C398.037 392.781 397.92 392.078 397.686 391.437C397.456 390.792 397.102 390.273 396.623 389.883C396.144 389.492 395.54 389.297 394.811 389.297C394.076 389.297 393.467 389.492 392.982 389.883C392.503 390.273 392.146 390.792 391.912 391.437C391.683 392.078 391.568 392.781 391.568 393.547C391.568 394.318 391.683 395.023 391.912 395.664C392.146 396.305 392.503 396.818 392.982 397.203C393.467 397.589 394.076 397.781 394.811 397.781ZM405.34 392.375V399.5H403.004V387.5H405.246V389.453H405.395C405.671 388.818 406.103 388.307 406.691 387.922C407.285 387.536 408.033 387.344 408.934 387.344C409.751 387.344 410.467 387.516 411.082 387.859C411.697 388.198 412.173 388.703 412.512 389.375C412.85 390.047 413.02 390.878 413.02 391.867V399.5H410.684V392.148C410.684 391.279 410.457 390.599 410.004 390.109C409.551 389.615 408.928 389.367 408.137 389.367C407.595 389.367 407.113 389.484 406.691 389.719C406.275 389.953 405.944 390.297 405.699 390.75C405.46 391.198 405.34 391.74 405.34 392.375ZM421.754 387.5V389.375H415.199V387.5H421.754ZM416.957 384.625H419.293V395.977C419.293 396.43 419.361 396.771 419.496 397C419.632 397.224 419.806 397.378 420.02 397.461C420.238 397.539 420.475 397.578 420.73 397.578C420.918 397.578 421.082 397.565 421.223 397.539C421.363 397.513 421.473 397.492 421.551 397.477L421.973 399.406C421.837 399.458 421.645 399.51 421.395 399.563C421.145 399.62 420.832 399.651 420.457 399.656C419.842 399.667 419.27 399.557 418.738 399.328C418.207 399.099 417.777 398.745 417.449 398.266C417.121 397.786 416.957 397.185 416.957 396.461V384.625ZM424.338 399.5V387.5H426.596V389.406H426.721C426.939 388.76 427.325 388.253 427.877 387.883C428.434 387.508 429.064 387.32 429.768 387.32C429.913 387.32 430.085 387.326 430.283 387.336C430.486 387.346 430.645 387.359 430.76 387.375V389.609C430.666 389.583 430.499 389.555 430.26 389.523C430.02 389.487 429.781 389.469 429.541 389.469C428.989 389.469 428.497 389.586 428.064 389.82C427.637 390.049 427.299 390.37 427.049 390.781C426.799 391.187 426.674 391.651 426.674 392.172V399.5H424.338ZM437.406 399.742C436.281 399.742 435.299 399.484 434.461 398.969C433.622 398.453 432.971 397.732 432.508 396.805C432.044 395.878 431.812 394.794 431.812 393.555C431.812 392.31 432.044 391.221 432.508 390.289C432.971 389.357 433.622 388.633 434.461 388.117C435.299 387.602 436.281 387.344 437.406 387.344C438.531 387.344 439.513 387.602 440.352 388.117C441.19 388.633 441.841 389.357 442.305 390.289C442.768 391.221 443 392.31 443 393.555C443 394.794 442.768 395.878 442.305 396.805C441.841 397.732 441.19 398.453 440.352 398.969C439.513 399.484 438.531 399.742 437.406 399.742ZM437.414 397.781C438.143 397.781 438.747 397.589 439.227 397.203C439.706 396.818 440.06 396.305 440.289 395.664C440.523 395.023 440.641 394.318 440.641 393.547C440.641 392.781 440.523 392.078 440.289 391.437C440.06 390.792 439.706 390.273 439.227 389.883C438.747 389.492 438.143 389.297 437.414 389.297C436.68 389.297 436.07 389.492 435.586 389.883C435.107 390.273 434.75 390.792 434.516 391.437C434.286 392.078 434.172 392.781 434.172 393.547C434.172 394.318 434.286 395.023 434.516 395.664C434.75 396.305 435.107 396.818 435.586 397.203C436.07 397.589 436.68 397.781 437.414 397.781ZM447.943 383.5V399.5H445.607V383.5H447.943Z" fill="#81A1C1"/>
</g>
<g filter="url(#filter2_i_1316_2693)">
<rect x="498" y="368.5" width="205" height="46" rx="23" fill="#202227"/>
<path d="M532.738 387.703C532.655 386.964 532.311 386.391 531.707 385.984C531.103 385.573 530.342 385.367 529.426 385.367C528.77 385.367 528.202 385.471 527.723 385.68C527.243 385.883 526.871 386.164 526.605 386.523C526.345 386.878 526.215 387.281 526.215 387.734C526.215 388.115 526.303 388.443 526.48 388.719C526.663 388.995 526.9 389.227 527.191 389.414C527.488 389.596 527.806 389.75 528.145 389.875C528.483 389.995 528.809 390.094 529.121 390.172L530.684 390.578C531.194 390.703 531.717 390.872 532.254 391.086C532.79 391.299 533.288 391.581 533.746 391.93C534.204 392.279 534.574 392.711 534.855 393.227C535.142 393.742 535.285 394.359 535.285 395.078C535.285 395.984 535.051 396.789 534.582 397.492C534.118 398.195 533.444 398.75 532.559 399.156C531.678 399.563 530.613 399.766 529.363 399.766C528.165 399.766 527.129 399.576 526.254 399.195C525.379 398.815 524.694 398.276 524.199 397.578C523.704 396.875 523.431 396.042 523.379 395.078H525.801C525.848 395.656 526.035 396.138 526.363 396.523C526.697 396.904 527.121 397.187 527.637 397.375C528.158 397.557 528.728 397.648 529.348 397.648C530.03 397.648 530.637 397.542 531.168 397.328C531.704 397.109 532.126 396.807 532.434 396.422C532.741 396.031 532.895 395.576 532.895 395.055C532.895 394.581 532.759 394.193 532.488 393.891C532.223 393.589 531.861 393.339 531.402 393.141C530.949 392.943 530.436 392.768 529.863 392.617L527.973 392.102C526.691 391.753 525.676 391.24 524.926 390.562C524.181 389.885 523.809 388.99 523.809 387.875C523.809 386.953 524.059 386.148 524.559 385.461C525.059 384.773 525.736 384.24 526.59 383.859C527.444 383.474 528.408 383.281 529.48 383.281C530.564 383.281 531.52 383.471 532.348 383.852C533.181 384.232 533.837 384.755 534.316 385.422C534.796 386.083 535.046 386.844 535.066 387.703H532.738ZM543.584 387.5V389.375H537.029V387.5H543.584ZM538.787 384.625H541.123V395.977C541.123 396.43 541.191 396.771 541.326 397C541.462 397.224 541.636 397.378 541.85 397.461C542.068 397.539 542.305 397.578 542.561 397.578C542.748 397.578 542.912 397.565 543.053 397.539C543.193 397.513 543.303 397.492 543.381 397.477L543.803 399.406C543.667 399.458 543.475 399.51 543.225 399.563C542.975 399.62 542.662 399.651 542.287 399.656C541.673 399.667 541.1 399.557 540.568 399.328C540.037 399.099 539.607 398.745 539.279 398.266C538.951 397.786 538.787 397.185 538.787 396.461V384.625ZM549.66 399.766C548.9 399.766 548.212 399.625 547.598 399.344C546.983 399.057 546.496 398.643 546.137 398.102C545.783 397.56 545.605 396.896 545.605 396.109C545.605 395.432 545.736 394.875 545.996 394.437C546.257 394 546.608 393.654 547.051 393.398C547.493 393.143 547.988 392.951 548.535 392.82C549.082 392.69 549.639 392.591 550.207 392.523C550.926 392.44 551.509 392.372 551.957 392.32C552.405 392.263 552.73 392.172 552.934 392.047C553.137 391.922 553.238 391.719 553.238 391.437V391.383C553.238 390.701 553.046 390.172 552.66 389.797C552.28 389.422 551.712 389.234 550.957 389.234C550.171 389.234 549.551 389.409 549.098 389.758C548.65 390.102 548.34 390.484 548.168 390.906L545.973 390.406C546.233 389.677 546.613 389.089 547.113 388.641C547.618 388.187 548.199 387.859 548.855 387.656C549.512 387.448 550.202 387.344 550.926 387.344C551.405 387.344 551.913 387.401 552.449 387.516C552.991 387.625 553.496 387.828 553.965 388.125C554.439 388.422 554.827 388.846 555.129 389.398C555.431 389.945 555.582 390.656 555.582 391.531V399.5H553.301V397.859H553.207C553.056 398.161 552.829 398.458 552.527 398.75C552.225 399.042 551.837 399.284 551.363 399.477C550.889 399.669 550.322 399.766 549.66 399.766ZM550.168 397.891C550.814 397.891 551.366 397.763 551.824 397.508C552.288 397.253 552.639 396.919 552.879 396.508C553.124 396.091 553.246 395.646 553.246 395.172V393.625C553.163 393.708 553.001 393.786 552.762 393.859C552.527 393.927 552.259 393.987 551.957 394.039C551.655 394.086 551.361 394.13 551.074 394.172C550.788 394.208 550.548 394.24 550.355 394.266C549.902 394.323 549.488 394.419 549.113 394.555C548.743 394.69 548.447 394.885 548.223 395.141C548.004 395.391 547.895 395.724 547.895 396.141C547.895 396.719 548.108 397.156 548.535 397.453C548.962 397.745 549.507 397.891 550.168 397.891ZM561.029 383.5V399.5H558.693V383.5H561.029ZM569.344 399.742C568.161 399.742 567.143 399.49 566.289 398.984C565.44 398.474 564.784 397.758 564.32 396.836C563.862 395.909 563.633 394.823 563.633 393.578C563.633 392.349 563.862 391.266 564.32 390.328C564.784 389.391 565.43 388.659 566.258 388.133C567.091 387.607 568.065 387.344 569.18 387.344C569.857 387.344 570.513 387.456 571.148 387.68C571.784 387.904 572.354 388.255 572.859 388.734C573.365 389.214 573.763 389.836 574.055 390.602C574.346 391.362 574.492 392.286 574.492 393.375V394.203H564.953V392.453H572.203C572.203 391.839 572.078 391.294 571.828 390.82C571.578 390.341 571.227 389.964 570.773 389.687C570.326 389.411 569.799 389.273 569.195 389.273C568.539 389.273 567.966 389.435 567.477 389.758C566.992 390.076 566.617 390.492 566.352 391.008C566.091 391.518 565.961 392.073 565.961 392.672V394.039C565.961 394.841 566.102 395.523 566.383 396.086C566.669 396.648 567.068 397.078 567.578 397.375C568.089 397.667 568.685 397.812 569.367 397.812C569.81 397.812 570.214 397.75 570.578 397.625C570.943 397.495 571.258 397.302 571.523 397.047C571.789 396.792 571.992 396.477 572.133 396.102L574.344 396.5C574.167 397.151 573.849 397.721 573.391 398.211C572.938 398.695 572.367 399.073 571.68 399.344C570.997 399.609 570.219 399.742 569.344 399.742ZM582.906 399.5V387.5H585.164V389.406H585.289C585.508 388.76 585.893 388.253 586.445 387.883C587.003 387.508 587.633 387.32 588.336 387.32C588.482 387.32 588.654 387.326 588.852 387.336C589.055 387.346 589.214 387.359 589.328 387.375V389.609C589.234 389.583 589.068 389.555 588.828 389.523C588.589 389.487 588.349 389.469 588.109 389.469C587.557 389.469 587.065 389.586 586.633 389.82C586.206 390.049 585.867 390.37 585.617 390.781C585.367 391.187 585.242 391.651 585.242 392.172V399.5H582.906ZM596.092 399.742C594.91 399.742 593.891 399.49 593.037 398.984C592.188 398.474 591.532 397.758 591.068 396.836C590.61 395.909 590.381 394.823 590.381 393.578C590.381 392.349 590.61 391.266 591.068 390.328C591.532 389.391 592.178 388.659 593.006 388.133C593.839 387.607 594.813 387.344 595.928 387.344C596.605 387.344 597.261 387.456 597.896 387.68C598.532 387.904 599.102 388.255 599.607 388.734C600.113 389.214 600.511 389.836 600.803 390.602C601.094 391.362 601.24 392.286 601.24 393.375V394.203H591.701V392.453H598.951C598.951 391.839 598.826 391.294 598.576 390.82C598.326 390.341 597.975 389.964 597.521 389.687C597.074 389.411 596.548 389.273 595.943 389.273C595.287 389.273 594.714 389.435 594.225 389.758C593.74 390.076 593.365 390.492 593.1 391.008C592.839 391.518 592.709 392.073 592.709 392.672V394.039C592.709 394.841 592.85 395.523 593.131 396.086C593.417 396.648 593.816 397.078 594.326 397.375C594.837 397.667 595.433 397.812 596.115 397.812C596.558 397.812 596.962 397.75 597.326 397.625C597.691 397.495 598.006 397.302 598.271 397.047C598.537 396.792 598.74 396.477 598.881 396.102L601.092 396.5C600.915 397.151 600.597 397.721 600.139 398.211C599.686 398.695 599.115 399.073 598.428 399.344C597.745 399.609 596.967 399.742 596.092 399.742ZM612.824 390.43L610.707 390.805C610.618 390.534 610.478 390.276 610.285 390.031C610.098 389.786 609.842 389.586 609.52 389.43C609.197 389.273 608.793 389.195 608.309 389.195C607.647 389.195 607.095 389.344 606.652 389.641C606.21 389.932 605.988 390.31 605.988 390.773C605.988 391.174 606.137 391.497 606.434 391.742C606.73 391.987 607.21 392.187 607.871 392.344L609.777 392.781C610.882 393.036 611.704 393.43 612.246 393.961C612.788 394.492 613.059 395.182 613.059 396.031C613.059 396.75 612.85 397.391 612.434 397.953C612.022 398.51 611.447 398.948 610.707 399.266C609.973 399.583 609.121 399.742 608.152 399.742C606.809 399.742 605.712 399.456 604.863 398.883C604.014 398.305 603.493 397.484 603.301 396.422L605.559 396.078C605.699 396.667 605.988 397.112 606.426 397.414C606.863 397.711 607.434 397.859 608.137 397.859C608.902 397.859 609.514 397.701 609.973 397.383C610.431 397.06 610.66 396.667 610.66 396.203C610.66 395.828 610.52 395.513 610.238 395.258C609.962 395.003 609.538 394.81 608.965 394.68L606.934 394.234C605.814 393.979 604.986 393.573 604.449 393.016C603.918 392.458 603.652 391.753 603.652 390.898C603.652 390.19 603.85 389.57 604.246 389.039C604.642 388.508 605.189 388.094 605.887 387.797C606.585 387.495 607.384 387.344 608.285 387.344C609.582 387.344 610.603 387.625 611.348 388.187C612.092 388.745 612.585 389.492 612.824 390.43ZM615.627 404V387.5H617.908V389.445H618.104C618.239 389.195 618.434 388.906 618.689 388.578C618.945 388.25 619.299 387.964 619.752 387.719C620.205 387.469 620.804 387.344 621.549 387.344C622.518 387.344 623.382 387.589 624.143 388.078C624.903 388.568 625.499 389.273 625.932 390.195C626.369 391.117 626.588 392.227 626.588 393.523C626.588 394.82 626.372 395.932 625.939 396.859C625.507 397.781 624.913 398.492 624.158 398.992C623.403 399.487 622.541 399.734 621.572 399.734C620.843 399.734 620.247 399.612 619.783 399.367C619.325 399.122 618.965 398.836 618.705 398.508C618.445 398.18 618.244 397.888 618.104 397.633H617.963V404H615.627ZM617.916 393.5C617.916 394.344 618.038 395.083 618.283 395.719C618.528 396.354 618.882 396.852 619.346 397.211C619.809 397.565 620.377 397.742 621.049 397.742C621.747 397.742 622.33 397.557 622.799 397.187C623.268 396.812 623.622 396.305 623.861 395.664C624.106 395.023 624.229 394.302 624.229 393.5C624.229 392.708 624.109 391.997 623.869 391.367C623.635 390.737 623.281 390.24 622.807 389.875C622.338 389.51 621.752 389.328 621.049 389.328C620.372 389.328 619.799 389.503 619.33 389.852C618.867 390.201 618.515 390.687 618.275 391.312C618.036 391.937 617.916 392.667 617.916 393.5ZM634.26 399.742C633.135 399.742 632.153 399.484 631.314 398.969C630.476 398.453 629.825 397.732 629.361 396.805C628.898 395.878 628.666 394.794 628.666 393.555C628.666 392.31 628.898 391.221 629.361 390.289C629.825 389.357 630.476 388.633 631.314 388.117C632.153 387.602 633.135 387.344 634.26 387.344C635.385 387.344 636.367 387.602 637.205 388.117C638.044 388.633 638.695 389.357 639.158 390.289C639.622 391.221 639.854 392.31 639.854 393.555C639.854 394.794 639.622 395.878 639.158 396.805C638.695 397.732 638.044 398.453 637.205 398.969C636.367 399.484 635.385 399.742 634.26 399.742ZM634.268 397.781C634.997 397.781 635.601 397.589 636.08 397.203C636.559 396.818 636.913 396.305 637.143 395.664C637.377 395.023 637.494 394.318 637.494 393.547C637.494 392.781 637.377 392.078 637.143 391.437C636.913 390.792 636.559 390.273 636.08 389.883C635.601 389.492 634.997 389.297 634.268 389.297C633.533 389.297 632.924 389.492 632.439 389.883C631.96 390.273 631.604 390.792 631.369 391.437C631.14 392.078 631.025 392.781 631.025 393.547C631.025 394.318 631.14 395.023 631.369 395.664C631.604 396.305 631.96 396.818 632.439 397.203C632.924 397.589 633.533 397.781 634.268 397.781ZM644.797 392.375V399.5H642.461V387.5H644.703V389.453H644.852C645.128 388.818 645.56 388.307 646.148 387.922C646.742 387.536 647.49 387.344 648.391 387.344C649.208 387.344 649.924 387.516 650.539 387.859C651.154 388.198 651.63 388.703 651.969 389.375C652.307 390.047 652.477 390.878 652.477 391.867V399.5H650.141V392.148C650.141 391.279 649.914 390.599 649.461 390.109C649.008 389.615 648.385 389.367 647.594 389.367C647.052 389.367 646.57 389.484 646.148 389.719C645.732 389.953 645.401 390.297 645.156 390.75C644.917 391.198 644.797 391.74 644.797 392.375ZM664.602 390.43L662.484 390.805C662.396 390.534 662.255 390.276 662.063 390.031C661.875 389.786 661.62 389.586 661.297 389.43C660.974 389.273 660.57 389.195 660.086 389.195C659.424 389.195 658.872 389.344 658.43 389.641C657.987 389.932 657.766 390.31 657.766 390.773C657.766 391.174 657.914 391.497 658.211 391.742C658.508 391.987 658.987 392.187 659.648 392.344L661.555 392.781C662.659 393.036 663.482 393.43 664.023 393.961C664.565 394.492 664.836 395.182 664.836 396.031C664.836 396.75 664.628 397.391 664.211 397.953C663.799 398.51 663.224 398.948 662.484 399.266C661.75 399.583 660.898 399.742 659.93 399.742C658.586 399.742 657.49 399.456 656.641 398.883C655.792 398.305 655.271 397.484 655.078 396.422L657.336 396.078C657.477 396.667 657.766 397.112 658.203 397.414C658.641 397.711 659.211 397.859 659.914 397.859C660.68 397.859 661.292 397.701 661.75 397.383C662.208 397.06 662.437 396.667 662.437 396.203C662.437 395.828 662.297 395.513 662.016 395.258C661.74 395.003 661.315 394.81 660.742 394.68L658.711 394.234C657.591 393.979 656.763 393.573 656.227 393.016C655.695 392.458 655.43 391.753 655.43 390.898C655.43 390.19 655.628 389.57 656.023 389.039C656.419 388.508 656.966 388.094 657.664 387.797C658.362 387.495 659.161 387.344 660.063 387.344C661.359 387.344 662.38 387.625 663.125 388.187C663.87 388.745 664.362 389.492 664.602 390.43ZM672.576 399.742C671.394 399.742 670.376 399.49 669.521 398.984C668.673 398.474 668.016 397.758 667.553 396.836C667.094 395.909 666.865 394.823 666.865 393.578C666.865 392.349 667.094 391.266 667.553 390.328C668.016 389.391 668.662 388.659 669.49 388.133C670.324 387.607 671.298 387.344 672.412 387.344C673.089 387.344 673.745 387.456 674.381 387.68C675.016 387.904 675.587 388.255 676.092 388.734C676.597 389.214 676.995 389.836 677.287 390.602C677.579 391.362 677.725 392.286 677.725 393.375V394.203H668.186V392.453H675.436C675.436 391.839 675.311 391.294 675.061 390.82C674.811 390.341 674.459 389.964 674.006 389.687C673.558 389.411 673.032 389.273 672.428 389.273C671.771 389.273 671.199 389.435 670.709 389.758C670.225 390.076 669.85 390.492 669.584 391.008C669.324 391.518 669.193 392.073 669.193 392.672V394.039C669.193 394.841 669.334 395.523 669.615 396.086C669.902 396.648 670.3 397.078 670.811 397.375C671.321 397.667 671.917 397.812 672.6 397.812C673.042 397.812 673.446 397.75 673.811 397.625C674.175 397.495 674.49 397.302 674.756 397.047C675.021 396.792 675.225 396.477 675.365 396.102L677.576 396.5C677.399 397.151 677.081 397.721 676.623 398.211C676.17 398.695 675.6 399.073 674.912 399.344C674.23 399.609 673.451 399.742 672.576 399.742Z" fill="#81A1C1"/>
</g>
<g filter="url(#filter3_i_1316_2693)">
<rect x="727" y="368.5" width="141" height="46" rx="23" fill="#202227"/>
<path d="M752.675 399.5V387.5H754.917V389.453H755.065C755.315 388.792 755.724 388.276 756.292 387.906C756.86 387.531 757.539 387.344 758.331 387.344C759.133 387.344 759.805 387.531 760.347 387.906C760.894 388.281 761.297 388.797 761.558 389.453H761.683C761.969 388.812 762.425 388.302 763.05 387.922C763.675 387.536 764.42 387.344 765.284 387.344C766.373 387.344 767.261 387.685 767.948 388.367C768.641 389.049 768.987 390.078 768.987 391.453V399.5H766.651V391.672C766.651 390.859 766.43 390.271 765.987 389.906C765.545 389.542 765.016 389.359 764.401 389.359C763.641 389.359 763.05 389.594 762.628 390.062C762.206 390.526 761.995 391.122 761.995 391.852V399.5H759.667V391.523C759.667 390.872 759.464 390.349 759.058 389.953C758.651 389.557 758.123 389.359 757.472 389.359C757.029 389.359 756.62 389.477 756.245 389.711C755.875 389.94 755.576 390.26 755.347 390.672C755.123 391.083 755.011 391.56 755.011 392.102V399.5H752.675ZM775.61 399.766C774.85 399.766 774.162 399.625 773.548 399.344C772.933 399.057 772.446 398.643 772.087 398.102C771.733 397.56 771.556 396.896 771.556 396.109C771.556 395.432 771.686 394.875 771.946 394.437C772.207 394 772.558 393.654 773.001 393.398C773.444 393.143 773.938 392.951 774.485 392.82C775.032 392.69 775.59 392.591 776.157 392.523C776.876 392.44 777.459 392.372 777.907 392.32C778.355 392.263 778.681 392.172 778.884 392.047C779.087 391.922 779.188 391.719 779.188 391.437V391.383C779.188 390.701 778.996 390.172 778.61 389.797C778.23 389.422 777.662 389.234 776.907 389.234C776.121 389.234 775.501 389.409 775.048 389.758C774.6 390.102 774.29 390.484 774.118 390.906L771.923 390.406C772.183 389.677 772.563 389.089 773.063 388.641C773.569 388.187 774.149 387.859 774.806 387.656C775.462 387.448 776.152 387.344 776.876 387.344C777.355 387.344 777.863 387.401 778.399 387.516C778.941 387.625 779.446 387.828 779.915 388.125C780.389 388.422 780.777 388.846 781.079 389.398C781.381 389.945 781.532 390.656 781.532 391.531V399.5H779.251V397.859H779.157C779.006 398.161 778.78 398.458 778.478 398.75C778.175 399.042 777.787 399.284 777.313 399.477C776.84 399.669 776.272 399.766 775.61 399.766ZM776.118 397.891C776.764 397.891 777.316 397.763 777.774 397.508C778.238 397.253 778.59 396.919 778.829 396.508C779.074 396.091 779.196 395.646 779.196 395.172V393.625C779.113 393.708 778.951 393.786 778.712 393.859C778.478 393.927 778.209 393.987 777.907 394.039C777.605 394.086 777.311 394.13 777.024 394.172C776.738 394.208 776.498 394.24 776.306 394.266C775.853 394.323 775.438 394.419 775.063 394.555C774.694 394.69 774.397 394.885 774.173 395.141C773.954 395.391 773.845 395.724 773.845 396.141C773.845 396.719 774.058 397.156 774.485 397.453C774.912 397.745 775.457 397.891 776.118 397.891ZM786.487 387.5L789.136 392.172L791.808 387.5H794.362L790.62 393.5L794.394 399.5H791.839L789.136 395.016L786.44 399.5H783.878L787.612 393.5L783.925 387.5H786.487ZM803.337 391.727V393.75H796.243V391.727H803.337ZM809.942 399.766C809.182 399.766 808.494 399.625 807.88 399.344C807.265 399.057 806.778 398.643 806.419 398.102C806.065 397.56 805.888 396.896 805.888 396.109C805.888 395.432 806.018 394.875 806.278 394.437C806.539 394 806.89 393.654 807.333 393.398C807.776 393.143 808.271 392.951 808.817 392.82C809.364 392.69 809.922 392.591 810.489 392.523C811.208 392.44 811.791 392.372 812.239 392.32C812.687 392.263 813.013 392.172 813.216 392.047C813.419 391.922 813.521 391.719 813.521 391.437V391.383C813.521 390.701 813.328 390.172 812.942 389.797C812.562 389.422 811.994 389.234 811.239 389.234C810.453 389.234 809.833 389.409 809.38 389.758C808.932 390.102 808.622 390.484 808.45 390.906L806.255 390.406C806.515 389.677 806.896 389.089 807.396 388.641C807.901 388.187 808.481 387.859 809.138 387.656C809.794 387.448 810.484 387.344 811.208 387.344C811.687 387.344 812.195 387.401 812.731 387.516C813.273 387.625 813.778 387.828 814.247 388.125C814.721 388.422 815.109 388.846 815.411 389.398C815.713 389.945 815.864 390.656 815.864 391.531V399.5H813.583V397.859H813.489C813.338 398.161 813.112 398.458 812.81 398.75C812.507 399.042 812.119 399.284 811.646 399.477C811.172 399.669 810.604 399.766 809.942 399.766ZM810.45 397.891C811.096 397.891 811.648 397.763 812.106 397.508C812.57 397.253 812.922 396.919 813.161 396.508C813.406 396.091 813.528 395.646 813.528 395.172V393.625C813.445 393.708 813.284 393.786 813.044 393.859C812.81 393.927 812.541 393.987 812.239 394.039C811.937 394.086 811.643 394.13 811.356 394.172C811.07 394.208 810.83 394.24 810.638 394.266C810.185 394.323 809.771 394.419 809.396 394.555C809.026 394.69 808.729 394.885 808.505 395.141C808.286 395.391 808.177 395.724 808.177 396.141C808.177 396.719 808.39 397.156 808.817 397.453C809.244 397.745 809.789 397.891 810.45 397.891ZM824.007 404.25C823.054 404.25 822.233 404.125 821.546 403.875C820.864 403.625 820.306 403.294 819.874 402.883C819.442 402.471 819.119 402.021 818.905 401.531L820.913 400.703C821.054 400.932 821.241 401.174 821.476 401.43C821.715 401.69 822.038 401.911 822.444 402.094C822.856 402.276 823.384 402.367 824.03 402.367C824.916 402.367 825.647 402.151 826.226 401.719C826.804 401.292 827.093 400.609 827.093 399.672V397.312H826.944C826.804 397.568 826.601 397.852 826.335 398.164C826.075 398.477 825.715 398.747 825.257 398.977C824.799 399.206 824.202 399.32 823.468 399.32C822.52 399.32 821.666 399.099 820.905 398.656C820.15 398.208 819.551 397.549 819.108 396.68C818.671 395.805 818.452 394.729 818.452 393.453C818.452 392.177 818.668 391.083 819.101 390.172C819.538 389.26 820.137 388.562 820.897 388.078C821.658 387.589 822.52 387.344 823.483 387.344C824.228 387.344 824.83 387.469 825.288 387.719C825.746 387.964 826.103 388.25 826.358 388.578C826.619 388.906 826.819 389.195 826.96 389.445H827.132V387.5H829.421V399.766C829.421 400.797 829.181 401.643 828.702 402.305C828.223 402.966 827.575 403.456 826.757 403.773C825.944 404.091 825.028 404.25 824.007 404.25ZM823.983 397.383C824.655 397.383 825.223 397.227 825.687 396.914C826.155 396.596 826.509 396.143 826.749 395.555C826.994 394.961 827.116 394.25 827.116 393.422C827.116 392.615 826.996 391.904 826.757 391.289C826.517 390.674 826.166 390.195 825.702 389.852C825.239 389.503 824.666 389.328 823.983 389.328C823.28 389.328 822.694 389.51 822.226 389.875C821.757 390.234 821.403 390.724 821.163 391.344C820.929 391.964 820.812 392.656 820.812 393.422C820.812 394.208 820.931 394.898 821.171 395.492C821.41 396.086 821.765 396.549 822.233 396.883C822.707 397.216 823.291 397.383 823.983 397.383ZM837.726 399.742C836.543 399.742 835.525 399.49 834.671 398.984C833.822 398.474 833.166 397.758 832.702 396.836C832.244 395.909 832.015 394.823 832.015 393.578C832.015 392.349 832.244 391.266 832.702 390.328C833.166 389.391 833.812 388.659 834.64 388.133C835.473 387.607 836.447 387.344 837.562 387.344C838.239 387.344 838.895 387.456 839.53 387.68C840.166 387.904 840.736 388.255 841.241 388.734C841.746 389.214 842.145 389.836 842.437 390.602C842.728 391.362 842.874 392.286 842.874 393.375V394.203H833.335V392.453H840.585C840.585 391.839 840.46 391.294 840.21 390.82C839.96 390.341 839.608 389.964 839.155 389.687C838.707 389.411 838.181 389.273 837.577 389.273C836.921 389.273 836.348 389.435 835.858 389.758C835.374 390.076 834.999 390.492 834.733 391.008C834.473 391.518 834.343 392.073 834.343 392.672V394.039C834.343 394.841 834.483 395.523 834.765 396.086C835.051 396.648 835.45 397.078 835.96 397.375C836.47 397.667 837.067 397.812 837.749 397.812C838.192 397.812 838.595 397.75 838.96 397.625C839.325 397.495 839.64 397.302 839.905 397.047C840.171 396.792 840.374 396.477 840.515 396.102L842.726 396.5C842.549 397.151 842.231 397.721 841.772 398.211C841.319 398.695 840.749 399.073 840.062 399.344C839.379 399.609 838.601 399.742 837.726 399.742Z" fill="#81A1C1"/>
</g>
<g filter="url(#filter4_i_1316_2693)">
<rect x="417.5" y="443.5" width="303" height="46" rx="23" fill="#202227"/>
<path d="M443.57 474.5V458.5H449.43C450.565 458.5 451.505 458.687 452.25 459.062C452.995 459.432 453.552 459.935 453.922 460.57C454.292 461.201 454.477 461.911 454.477 462.703C454.477 463.37 454.354 463.932 454.109 464.391C453.865 464.844 453.536 465.208 453.125 465.484C452.719 465.755 452.271 465.953 451.781 466.078V466.234C452.313 466.26 452.831 466.432 453.336 466.75C453.846 467.062 454.268 467.508 454.602 468.086C454.935 468.664 455.102 469.367 455.102 470.195C455.102 471.013 454.909 471.747 454.523 472.398C454.143 473.044 453.555 473.557 452.758 473.937C451.961 474.312 450.943 474.5 449.703 474.5H443.57ZM445.984 472.43H449.469C450.625 472.43 451.453 472.206 451.953 471.758C452.453 471.31 452.703 470.75 452.703 470.078C452.703 469.573 452.576 469.109 452.32 468.687C452.065 468.266 451.701 467.93 451.227 467.68C450.758 467.43 450.201 467.305 449.555 467.305H445.984V472.43ZM445.984 465.422H449.219C449.76 465.422 450.247 465.318 450.68 465.109C451.117 464.901 451.464 464.609 451.719 464.234C451.979 463.854 452.109 463.406 452.109 462.891C452.109 462.229 451.878 461.674 451.414 461.227C450.951 460.779 450.24 460.555 449.281 460.555H445.984V465.422ZM461.27 474.766C460.509 474.766 459.822 474.625 459.207 474.344C458.592 474.057 458.105 473.643 457.746 473.102C457.392 472.56 457.215 471.896 457.215 471.109C457.215 470.432 457.345 469.875 457.605 469.437C457.866 469 458.217 468.654 458.66 468.398C459.103 468.143 459.598 467.951 460.145 467.82C460.691 467.69 461.249 467.591 461.816 467.523C462.535 467.44 463.118 467.372 463.566 467.32C464.014 467.263 464.34 467.172 464.543 467.047C464.746 466.922 464.848 466.719 464.848 466.437V466.383C464.848 465.701 464.655 465.172 464.27 464.797C463.889 464.422 463.322 464.234 462.566 464.234C461.78 464.234 461.16 464.409 460.707 464.758C460.259 465.102 459.949 465.484 459.777 465.906L457.582 465.406C457.842 464.677 458.223 464.089 458.723 463.641C459.228 463.187 459.809 462.859 460.465 462.656C461.121 462.448 461.811 462.344 462.535 462.344C463.014 462.344 463.522 462.401 464.059 462.516C464.6 462.625 465.105 462.828 465.574 463.125C466.048 463.422 466.436 463.846 466.738 464.398C467.04 464.945 467.191 465.656 467.191 466.531V474.5H464.91V472.859H464.816C464.665 473.161 464.439 473.458 464.137 473.75C463.835 474.042 463.447 474.284 462.973 474.477C462.499 474.669 461.931 474.766 461.27 474.766ZM461.777 472.891C462.423 472.891 462.975 472.763 463.434 472.508C463.897 472.253 464.249 471.919 464.488 471.508C464.733 471.091 464.855 470.646 464.855 470.172V468.625C464.772 468.708 464.611 468.786 464.371 468.859C464.137 468.927 463.868 468.987 463.566 469.039C463.264 469.086 462.97 469.13 462.684 469.172C462.397 469.208 462.158 469.24 461.965 469.266C461.512 469.323 461.098 469.419 460.723 469.555C460.353 469.69 460.056 469.885 459.832 470.141C459.613 470.391 459.504 470.724 459.504 471.141C459.504 471.719 459.717 472.156 460.145 472.453C460.572 472.745 461.116 472.891 461.777 472.891ZM475.357 474.742C474.196 474.742 473.196 474.479 472.357 473.953C471.524 473.422 470.883 472.69 470.436 471.758C469.988 470.826 469.764 469.758 469.764 468.555C469.764 467.336 469.993 466.26 470.451 465.328C470.91 464.391 471.555 463.659 472.389 463.133C473.222 462.607 474.204 462.344 475.334 462.344C476.245 462.344 477.058 462.513 477.771 462.852C478.485 463.185 479.061 463.654 479.498 464.258C479.941 464.862 480.204 465.568 480.287 466.375H478.014C477.889 465.812 477.602 465.328 477.154 464.922C476.712 464.516 476.118 464.312 475.373 464.312C474.722 464.312 474.152 464.484 473.662 464.828C473.178 465.167 472.8 465.651 472.529 466.281C472.258 466.906 472.123 467.646 472.123 468.5C472.123 469.375 472.256 470.13 472.521 470.766C472.787 471.401 473.162 471.893 473.646 472.242C474.136 472.591 474.712 472.766 475.373 472.766C475.816 472.766 476.217 472.685 476.576 472.523C476.941 472.357 477.245 472.12 477.49 471.812C477.74 471.505 477.915 471.135 478.014 470.703H480.287C480.204 471.479 479.951 472.172 479.529 472.781C479.107 473.391 478.542 473.87 477.834 474.219C477.131 474.568 476.305 474.742 475.357 474.742ZM484.934 470.43L484.918 467.578H485.324L490.105 462.5H492.902L487.449 468.281H487.082L484.934 470.43ZM482.785 474.5V458.5H485.121V474.5H482.785ZM490.363 474.5L486.066 468.797L487.676 467.164L493.23 474.5H490.363ZM499.568 479.25C498.615 479.25 497.795 479.125 497.107 478.875C496.425 478.625 495.868 478.294 495.436 477.883C495.003 477.471 494.68 477.021 494.467 476.531L496.475 475.703C496.615 475.932 496.803 476.174 497.037 476.43C497.277 476.69 497.6 476.911 498.006 477.094C498.417 477.276 498.946 477.367 499.592 477.367C500.477 477.367 501.209 477.151 501.787 476.719C502.365 476.292 502.654 475.609 502.654 474.672V472.312H502.506C502.365 472.568 502.162 472.852 501.896 473.164C501.636 473.477 501.277 473.747 500.818 473.977C500.36 474.206 499.764 474.32 499.029 474.32C498.081 474.32 497.227 474.099 496.467 473.656C495.712 473.208 495.113 472.549 494.67 471.68C494.232 470.805 494.014 469.729 494.014 468.453C494.014 467.177 494.23 466.083 494.662 465.172C495.1 464.26 495.699 463.562 496.459 463.078C497.219 462.589 498.081 462.344 499.045 462.344C499.79 462.344 500.391 462.469 500.85 462.719C501.308 462.964 501.665 463.25 501.92 463.578C502.18 463.906 502.381 464.195 502.521 464.445H502.693V462.5H504.982V474.766C504.982 475.797 504.743 476.643 504.264 477.305C503.785 477.966 503.136 478.456 502.318 478.773C501.506 479.091 500.589 479.25 499.568 479.25ZM499.545 472.383C500.217 472.383 500.785 472.227 501.248 471.914C501.717 471.596 502.071 471.143 502.311 470.555C502.555 469.961 502.678 469.25 502.678 468.422C502.678 467.615 502.558 466.904 502.318 466.289C502.079 465.674 501.727 465.195 501.264 464.852C500.8 464.503 500.227 464.328 499.545 464.328C498.842 464.328 498.256 464.51 497.787 464.875C497.318 465.234 496.964 465.724 496.725 466.344C496.49 466.964 496.373 467.656 496.373 468.422C496.373 469.208 496.493 469.898 496.732 470.492C496.972 471.086 497.326 471.549 497.795 471.883C498.269 472.216 498.852 472.383 499.545 472.383ZM508.115 474.5V462.5H510.373V464.406H510.498C510.717 463.76 511.102 463.253 511.654 462.883C512.212 462.508 512.842 462.32 513.545 462.32C513.691 462.32 513.863 462.326 514.061 462.336C514.264 462.346 514.423 462.359 514.537 462.375V464.609C514.443 464.583 514.277 464.555 514.037 464.523C513.798 464.487 513.558 464.469 513.318 464.469C512.766 464.469 512.274 464.586 511.842 464.82C511.415 465.049 511.076 465.37 510.826 465.781C510.576 466.187 510.451 466.651 510.451 467.172V474.5H508.115ZM521.184 474.742C520.059 474.742 519.077 474.484 518.238 473.969C517.4 473.453 516.749 472.732 516.285 471.805C515.822 470.878 515.59 469.794 515.59 468.555C515.59 467.31 515.822 466.221 516.285 465.289C516.749 464.357 517.4 463.633 518.238 463.117C519.077 462.602 520.059 462.344 521.184 462.344C522.309 462.344 523.29 462.602 524.129 463.117C524.967 463.633 525.618 464.357 526.082 465.289C526.546 466.221 526.777 467.31 526.777 468.555C526.777 469.794 526.546 470.878 526.082 471.805C525.618 472.732 524.967 473.453 524.129 473.969C523.29 474.484 522.309 474.742 521.184 474.742ZM521.191 472.781C521.921 472.781 522.525 472.589 523.004 472.203C523.483 471.818 523.837 471.305 524.066 470.664C524.301 470.023 524.418 469.318 524.418 468.547C524.418 467.781 524.301 467.078 524.066 466.437C523.837 465.792 523.483 465.273 523.004 464.883C522.525 464.492 521.921 464.297 521.191 464.297C520.457 464.297 519.848 464.492 519.363 464.883C518.884 465.273 518.527 465.792 518.293 466.437C518.064 467.078 517.949 467.781 517.949 468.547C517.949 469.318 518.064 470.023 518.293 470.664C518.527 471.305 518.884 471.818 519.363 472.203C519.848 472.589 520.457 472.781 521.191 472.781ZM536.986 469.523V462.5H539.33V474.5H537.033V472.422H536.908C536.632 473.063 536.189 473.596 535.58 474.023C534.976 474.445 534.223 474.656 533.322 474.656C532.551 474.656 531.869 474.487 531.275 474.148C530.687 473.805 530.223 473.297 529.885 472.625C529.551 471.953 529.385 471.122 529.385 470.133V462.5H531.721V469.852C531.721 470.669 531.947 471.32 532.4 471.805C532.854 472.289 533.442 472.531 534.166 472.531C534.604 472.531 535.038 472.422 535.471 472.203C535.908 471.984 536.27 471.654 536.557 471.211C536.848 470.768 536.992 470.206 536.986 469.523ZM544.805 467.375V474.5H542.469V462.5H544.711V464.453H544.859C545.135 463.818 545.568 463.307 546.156 462.922C546.75 462.536 547.497 462.344 548.398 462.344C549.216 462.344 549.932 462.516 550.547 462.859C551.161 463.198 551.638 463.703 551.977 464.375C552.315 465.047 552.484 465.878 552.484 466.867V474.5H550.148V467.148C550.148 466.279 549.922 465.599 549.469 465.109C549.016 464.615 548.393 464.367 547.602 464.367C547.06 464.367 546.578 464.484 546.156 464.719C545.74 464.953 545.409 465.297 545.164 465.75C544.924 466.198 544.805 466.74 544.805 467.375ZM560.109 474.734C559.141 474.734 558.276 474.487 557.516 473.992C556.76 473.492 556.167 472.781 555.734 471.859C555.307 470.932 555.094 469.82 555.094 468.523C555.094 467.227 555.31 466.117 555.742 465.195C556.18 464.273 556.779 463.568 557.539 463.078C558.299 462.589 559.161 462.344 560.125 462.344C560.87 462.344 561.469 462.469 561.922 462.719C562.38 462.964 562.734 463.25 562.984 463.578C563.24 463.906 563.438 464.195 563.578 464.445H563.719V458.5H566.055V474.5H563.773V472.633H563.578C563.438 472.888 563.234 473.18 562.969 473.508C562.708 473.836 562.349 474.122 561.891 474.367C561.432 474.612 560.839 474.734 560.109 474.734ZM560.625 472.742C561.297 472.742 561.865 472.565 562.328 472.211C562.797 471.852 563.151 471.354 563.391 470.719C563.635 470.083 563.758 469.344 563.758 468.5C563.758 467.667 563.638 466.937 563.398 466.312C563.159 465.687 562.807 465.201 562.344 464.852C561.88 464.503 561.307 464.328 560.625 464.328C559.922 464.328 559.336 464.51 558.867 464.875C558.398 465.24 558.044 465.737 557.805 466.367C557.57 466.997 557.453 467.708 557.453 468.5C557.453 469.302 557.573 470.023 557.813 470.664C558.052 471.305 558.406 471.812 558.875 472.187C559.349 472.557 559.932 472.742 560.625 472.742ZM575.211 474.5V462.5H577.469V464.406H577.594C577.813 463.76 578.198 463.253 578.75 462.883C579.307 462.508 579.938 462.32 580.641 462.32C580.786 462.32 580.958 462.326 581.156 462.336C581.359 462.346 581.518 462.359 581.633 462.375V464.609C581.539 464.583 581.372 464.555 581.133 464.523C580.893 464.487 580.654 464.469 580.414 464.469C579.862 464.469 579.37 464.586 578.938 464.82C578.51 465.049 578.172 465.37 577.922 465.781C577.672 466.187 577.547 466.651 577.547 467.172V474.5H575.211ZM588.396 474.742C587.214 474.742 586.196 474.49 585.342 473.984C584.493 473.474 583.837 472.758 583.373 471.836C582.915 470.909 582.686 469.823 582.686 468.578C582.686 467.349 582.915 466.266 583.373 465.328C583.837 464.391 584.482 463.659 585.311 463.133C586.144 462.607 587.118 462.344 588.232 462.344C588.91 462.344 589.566 462.456 590.201 462.68C590.837 462.904 591.407 463.255 591.912 463.734C592.417 464.214 592.816 464.836 593.107 465.602C593.399 466.362 593.545 467.286 593.545 468.375V469.203H584.006V467.453H591.256C591.256 466.839 591.131 466.294 590.881 465.82C590.631 465.341 590.279 464.964 589.826 464.687C589.378 464.411 588.852 464.273 588.248 464.273C587.592 464.273 587.019 464.435 586.529 464.758C586.045 465.076 585.67 465.492 585.404 466.008C585.144 466.518 585.014 467.073 585.014 467.672V469.039C585.014 469.841 585.154 470.523 585.436 471.086C585.722 471.648 586.12 472.078 586.631 472.375C587.141 472.667 587.738 472.812 588.42 472.812C588.863 472.812 589.266 472.75 589.631 472.625C589.995 472.495 590.311 472.302 590.576 472.047C590.842 471.792 591.045 471.477 591.186 471.102L593.396 471.5C593.219 472.151 592.902 472.721 592.443 473.211C591.99 473.695 591.42 474.073 590.732 474.344C590.05 474.609 589.271 474.742 588.396 474.742ZM606.059 462.5L601.707 474.5H599.207L594.848 462.5H597.355L600.395 471.734H600.52L603.551 462.5H606.059ZM611.402 474.766C610.642 474.766 609.954 474.625 609.34 474.344C608.725 474.057 608.238 473.643 607.879 473.102C607.525 472.56 607.348 471.896 607.348 471.109C607.348 470.432 607.478 469.875 607.738 469.437C607.999 469 608.35 468.654 608.793 468.398C609.236 468.143 609.73 467.951 610.277 467.82C610.824 467.69 611.382 467.591 611.949 467.523C612.668 467.44 613.251 467.372 613.699 467.32C614.147 467.263 614.473 467.172 614.676 467.047C614.879 466.922 614.98 466.719 614.98 466.437V466.383C614.98 465.701 614.788 465.172 614.402 464.797C614.022 464.422 613.454 464.234 612.699 464.234C611.913 464.234 611.293 464.409 610.84 464.758C610.392 465.102 610.082 465.484 609.91 465.906L607.715 465.406C607.975 464.677 608.355 464.089 608.855 463.641C609.361 463.187 609.941 462.859 610.598 462.656C611.254 462.448 611.944 462.344 612.668 462.344C613.147 462.344 613.655 462.401 614.191 462.516C614.733 462.625 615.238 462.828 615.707 463.125C616.181 463.422 616.569 463.846 616.871 464.398C617.173 464.945 617.324 465.656 617.324 466.531V474.5H615.043V472.859H614.949C614.798 473.161 614.572 473.458 614.27 473.75C613.967 474.042 613.579 474.284 613.105 474.477C612.632 474.669 612.064 474.766 611.402 474.766ZM611.91 472.891C612.556 472.891 613.108 472.763 613.566 472.508C614.03 472.253 614.382 471.919 614.621 471.508C614.866 471.091 614.988 470.646 614.988 470.172V468.625C614.905 468.708 614.743 468.786 614.504 468.859C614.27 468.927 614.001 468.987 613.699 469.039C613.397 469.086 613.103 469.13 612.816 469.172C612.53 469.208 612.29 469.24 612.098 469.266C611.645 469.323 611.23 469.419 610.855 469.555C610.486 469.69 610.189 469.885 609.965 470.141C609.746 470.391 609.637 470.724 609.637 471.141C609.637 471.719 609.85 472.156 610.277 472.453C610.704 472.745 611.249 472.891 611.91 472.891ZM622.771 458.5V474.5H620.436V458.5H622.771ZM625.914 474.5V462.5H628.25V474.5H625.914ZM627.094 460.648C626.688 460.648 626.339 460.513 626.047 460.242C625.76 459.966 625.617 459.638 625.617 459.258C625.617 458.872 625.76 458.544 626.047 458.273C626.339 457.997 626.688 457.859 627.094 457.859C627.5 457.859 627.846 457.997 628.133 458.273C628.424 458.544 628.57 458.872 628.57 459.258C628.57 459.638 628.424 459.966 628.133 460.242C627.846 460.513 627.5 460.648 627.094 460.648ZM635.885 474.734C634.916 474.734 634.051 474.487 633.291 473.992C632.536 473.492 631.942 472.781 631.51 471.859C631.083 470.932 630.869 469.82 630.869 468.523C630.869 467.227 631.085 466.117 631.518 465.195C631.955 464.273 632.554 463.568 633.314 463.078C634.075 462.589 634.937 462.344 635.9 462.344C636.645 462.344 637.244 462.469 637.697 462.719C638.156 462.964 638.51 463.25 638.76 463.578C639.015 463.906 639.213 464.195 639.354 464.445H639.494V458.5H641.83V474.5H639.549V472.633H639.354C639.213 472.888 639.01 473.18 638.744 473.508C638.484 473.836 638.124 474.122 637.666 474.367C637.208 474.612 636.614 474.734 635.885 474.734ZM636.4 472.742C637.072 472.742 637.64 472.565 638.104 472.211C638.572 471.852 638.926 471.354 639.166 470.719C639.411 470.083 639.533 469.344 639.533 468.5C639.533 467.667 639.413 466.937 639.174 466.312C638.934 465.687 638.583 465.201 638.119 464.852C637.656 464.503 637.083 464.328 636.4 464.328C635.697 464.328 635.111 464.51 634.643 464.875C634.174 465.24 633.82 465.737 633.58 466.367C633.346 466.997 633.229 467.708 633.229 468.5C633.229 469.302 633.348 470.023 633.588 470.664C633.827 471.305 634.182 471.812 634.65 472.187C635.124 472.557 635.708 472.742 636.4 472.742ZM648.656 474.766C647.896 474.766 647.208 474.625 646.594 474.344C645.979 474.057 645.492 473.643 645.133 473.102C644.779 472.56 644.602 471.896 644.602 471.109C644.602 470.432 644.732 469.875 644.992 469.437C645.253 469 645.604 468.654 646.047 468.398C646.49 468.143 646.984 467.951 647.531 467.82C648.078 467.69 648.635 467.591 649.203 467.523C649.922 467.44 650.505 467.372 650.953 467.32C651.401 467.263 651.727 467.172 651.93 467.047C652.133 466.922 652.234 466.719 652.234 466.437V466.383C652.234 465.701 652.042 465.172 651.656 464.797C651.276 464.422 650.708 464.234 649.953 464.234C649.167 464.234 648.547 464.409 648.094 464.758C647.646 465.102 647.336 465.484 647.164 465.906L644.969 465.406C645.229 464.677 645.609 464.089 646.109 463.641C646.615 463.187 647.195 462.859 647.852 462.656C648.508 462.448 649.198 462.344 649.922 462.344C650.401 462.344 650.909 462.401 651.445 462.516C651.987 462.625 652.492 462.828 652.961 463.125C653.435 463.422 653.823 463.846 654.125 464.398C654.427 464.945 654.578 465.656 654.578 466.531V474.5H652.297V472.859H652.203C652.052 473.161 651.826 473.458 651.523 473.75C651.221 474.042 650.833 474.284 650.359 474.477C649.885 474.669 649.318 474.766 648.656 474.766ZM649.164 472.891C649.81 472.891 650.362 472.763 650.82 472.508C651.284 472.253 651.635 471.919 651.875 471.508C652.12 471.091 652.242 470.646 652.242 470.172V468.625C652.159 468.708 651.997 468.786 651.758 468.859C651.523 468.927 651.255 468.987 650.953 469.039C650.651 469.086 650.357 469.13 650.07 469.172C649.784 469.208 649.544 469.24 649.352 469.266C648.898 469.323 648.484 469.419 648.109 469.555C647.74 469.69 647.443 469.885 647.219 470.141C647 470.391 646.891 470.724 646.891 471.141C646.891 471.719 647.104 472.156 647.531 472.453C647.958 472.745 648.503 472.891 649.164 472.891ZM663.291 462.5V464.375H656.736V462.5H663.291ZM658.494 459.625H660.83V470.977C660.83 471.43 660.898 471.771 661.033 472C661.169 472.224 661.343 472.378 661.557 472.461C661.775 472.539 662.012 472.578 662.268 472.578C662.455 472.578 662.619 472.565 662.76 472.539C662.9 472.513 663.01 472.492 663.088 472.477L663.51 474.406C663.374 474.458 663.182 474.51 662.932 474.563C662.682 474.62 662.369 474.651 661.994 474.656C661.38 474.667 660.807 474.557 660.275 474.328C659.744 474.099 659.314 473.745 658.986 473.266C658.658 472.786 658.494 472.185 658.494 471.461V459.625ZM665.875 474.5V462.5H668.211V474.5H665.875ZM667.055 460.648C666.648 460.648 666.299 460.513 666.008 460.242C665.721 459.966 665.578 459.638 665.578 459.258C665.578 458.872 665.721 458.544 666.008 458.273C666.299 457.997 666.648 457.859 667.055 457.859C667.461 457.859 667.807 457.997 668.094 458.273C668.385 458.544 668.531 458.872 668.531 459.258C668.531 459.638 668.385 459.966 668.094 460.242C667.807 460.513 667.461 460.648 667.055 460.648ZM676.408 474.742C675.283 474.742 674.301 474.484 673.463 473.969C672.624 473.453 671.973 472.732 671.51 471.805C671.046 470.878 670.814 469.794 670.814 468.555C670.814 467.31 671.046 466.221 671.51 465.289C671.973 464.357 672.624 463.633 673.463 463.117C674.301 462.602 675.283 462.344 676.408 462.344C677.533 462.344 678.515 462.602 679.354 463.117C680.192 463.633 680.843 464.357 681.307 465.289C681.77 466.221 682.002 467.31 682.002 468.555C682.002 469.794 681.77 470.878 681.307 471.805C680.843 472.732 680.192 473.453 679.354 473.969C678.515 474.484 677.533 474.742 676.408 474.742ZM676.416 472.781C677.145 472.781 677.749 472.589 678.229 472.203C678.708 471.818 679.062 471.305 679.291 470.664C679.525 470.023 679.643 469.318 679.643 468.547C679.643 467.781 679.525 467.078 679.291 466.437C679.062 465.792 678.708 465.273 678.229 464.883C677.749 464.492 677.145 464.297 676.416 464.297C675.682 464.297 675.072 464.492 674.588 464.883C674.109 465.273 673.752 465.792 673.518 466.437C673.288 467.078 673.174 467.781 673.174 468.547C673.174 469.318 673.288 470.023 673.518 470.664C673.752 471.305 674.109 471.818 674.588 472.203C675.072 472.589 675.682 472.781 676.416 472.781ZM686.945 467.375V474.5H684.609V462.5H686.852V464.453H687C687.276 463.818 687.708 463.307 688.297 462.922C688.891 462.536 689.638 462.344 690.539 462.344C691.357 462.344 692.073 462.516 692.688 462.859C693.302 463.198 693.779 463.703 694.117 464.375C694.456 465.047 694.625 465.878 694.625 466.867V474.5H692.289V467.148C692.289 466.279 692.063 465.599 691.609 465.109C691.156 464.615 690.534 464.367 689.742 464.367C689.201 464.367 688.719 464.484 688.297 464.719C687.88 464.953 687.549 465.297 687.305 465.75C687.065 466.198 686.945 466.74 686.945 467.375Z" fill="#81A1C1"/>
</g>
<path d="M45.22 564V548.727H47.487V551.034H47.6461C47.9245 550.278 48.4283 549.665 49.1575 549.195C49.8867 548.724 50.7086 548.489 51.6234 548.489C51.7958 548.489 52.0112 548.492 52.2697 548.499C52.5282 548.505 52.7238 548.515 52.8564 548.528V550.915C52.7768 550.895 52.5945 550.865 52.3095 550.825C52.0311 550.779 51.7361 550.756 51.4245 550.756C50.6821 550.756 50.0192 550.911 49.4359 551.223C48.8592 551.528 48.4018 551.952 48.0637 552.496C47.7323 553.033 47.5666 553.646 47.5666 554.335V564H45.22ZM55.9561 564V543.636H58.3027V551.153H58.5016C58.6739 550.888 58.9126 550.55 59.2175 550.139C59.5291 549.722 59.9732 549.35 60.5499 549.026C61.1332 548.694 61.9221 548.528 62.9164 548.528C64.2024 548.528 65.3359 548.85 66.3169 549.493C67.298 550.136 68.0636 551.047 68.6138 552.227C69.164 553.407 69.4391 554.799 69.4391 556.403C69.4391 558.021 69.164 559.423 68.6138 560.609C68.0636 561.789 67.3013 562.704 66.3269 563.354C65.3525 563.997 64.2289 564.318 62.9561 564.318C61.9751 564.318 61.1896 564.156 60.5996 563.831C60.0096 563.5 59.5556 563.125 59.2374 562.707C58.9192 562.283 58.6739 561.932 58.5016 561.653H58.2232V564H55.9561ZM58.263 556.364C58.263 557.517 58.432 558.535 58.7701 559.416C59.1081 560.291 59.602 560.977 60.2516 561.474C60.9012 561.965 61.6967 562.21 62.638 562.21C63.619 562.21 64.4377 561.952 65.0939 561.435C65.7568 560.911 66.254 560.208 66.5854 559.327C66.9235 558.438 67.0925 557.451 67.0925 556.364C67.0925 555.29 66.9268 554.322 66.5953 553.46C66.2705 552.592 65.7767 551.906 65.1138 551.402C64.4576 550.892 63.6323 550.636 62.638 550.636C61.6834 550.636 60.8813 550.878 60.2317 551.362C59.5821 551.839 59.0916 552.509 58.7601 553.371C58.4287 554.226 58.263 555.223 58.263 556.364ZM73.0286 564V548.727H75.3752V564H73.0286ZM74.2218 546.182C73.7644 546.182 73.37 546.026 73.0385 545.714C72.7137 545.403 72.5513 545.028 72.5513 544.591C72.5513 544.153 72.7137 543.779 73.0385 543.467C73.37 543.156 73.7644 543 74.2218 543C74.6792 543 75.0703 543.156 75.3951 543.467C75.7265 543.779 75.8922 544.153 75.8922 544.591C75.8922 545.028 75.7265 545.403 75.3951 545.714C75.0703 546.026 74.6792 546.182 74.2218 546.182ZM81.8606 558.432L81.8208 555.528H82.2981L88.9799 548.727H91.8833L84.764 555.926H84.5652L81.8606 558.432ZM79.6731 564V543.636H82.0197V564H79.6731ZM89.3777 564L83.4118 556.443L85.0822 554.812L92.3606 564H89.3777ZM99.3979 564.358C98.4301 564.358 97.5518 564.176 96.763 563.811C95.9741 563.44 95.3477 562.906 94.8837 562.21C94.4197 561.508 94.1877 560.659 94.1877 559.665C94.1877 558.79 94.36 558.08 94.7047 557.537C95.0494 556.987 95.5101 556.556 96.0868 556.244C96.6635 555.933 97.2999 555.701 97.9959 555.548C98.6986 555.389 99.4045 555.263 100.114 555.17C101.042 555.051 101.794 554.962 102.371 554.902C102.954 554.836 103.378 554.726 103.644 554.574C103.915 554.421 104.051 554.156 104.051 553.778V553.699C104.051 552.718 103.783 551.955 103.246 551.412C102.716 550.868 101.91 550.597 100.83 550.597C99.7095 550.597 98.8311 550.842 98.1948 551.332C97.5584 551.823 97.111 552.347 96.8525 552.903L94.6252 552.108C95.0229 551.18 95.5532 550.457 96.2161 549.94C96.8856 549.417 97.6148 549.052 98.4036 548.847C99.199 548.634 99.9812 548.528 100.75 548.528C101.241 548.528 101.804 548.588 102.441 548.707C103.084 548.82 103.703 549.055 104.3 549.413C104.903 549.771 105.404 550.312 105.801 551.034C106.199 551.757 106.398 552.724 106.398 553.938V564H104.051V561.932H103.932C103.773 562.263 103.508 562.618 103.137 562.996C102.765 563.374 102.271 563.695 101.655 563.96C101.039 564.225 100.286 564.358 99.3979 564.358ZM99.7559 562.25C100.684 562.25 101.466 562.068 102.102 561.703C102.745 561.339 103.229 560.868 103.554 560.291C103.886 559.714 104.051 559.108 104.051 558.472V556.324C103.952 556.443 103.733 556.553 103.395 556.652C103.064 556.745 102.679 556.828 102.242 556.901C101.811 556.967 101.39 557.027 100.979 557.08C100.575 557.126 100.246 557.166 99.9945 557.199C99.3846 557.278 98.8146 557.408 98.2843 557.587C97.7606 557.759 97.3364 558.021 97.0115 558.372C96.6934 558.717 96.5343 559.187 96.5343 559.784C96.5343 560.599 96.8359 561.216 97.4391 561.634C98.0489 562.045 98.8212 562.25 99.7559 562.25ZM112.391 564.159C111.901 564.159 111.48 563.983 111.128 563.632C110.777 563.281 110.601 562.86 110.601 562.369C110.601 561.879 110.777 561.458 111.128 561.107C111.48 560.755 111.901 560.58 112.391 560.58C112.882 560.58 113.303 560.755 113.654 561.107C114.005 561.458 114.181 561.879 114.181 562.369C114.181 562.694 114.098 562.992 113.932 563.264C113.773 563.536 113.558 563.755 113.286 563.92C113.021 564.08 112.723 564.159 112.391 564.159ZM124.596 564.318C123.165 564.318 121.932 563.98 120.898 563.304C119.863 562.628 119.068 561.696 118.511 560.51C117.954 559.323 117.676 557.968 117.676 556.443C117.676 554.892 117.961 553.523 118.531 552.337C119.108 551.143 119.91 550.212 120.937 549.543C121.971 548.866 123.178 548.528 124.557 548.528C125.631 548.528 126.598 548.727 127.46 549.125C128.322 549.523 129.028 550.08 129.578 550.795C130.128 551.511 130.47 552.347 130.602 553.301H128.256C128.077 552.605 127.679 551.989 127.062 551.452C126.452 550.908 125.631 550.636 124.596 550.636C123.682 550.636 122.88 550.875 122.19 551.352C121.507 551.823 120.974 552.489 120.589 553.351C120.211 554.206 120.023 555.21 120.023 556.364C120.023 557.544 120.208 558.571 120.579 559.446C120.957 560.321 121.488 561 122.17 561.484C122.86 561.968 123.668 562.21 124.596 562.21C125.206 562.21 125.76 562.104 126.257 561.892C126.754 561.68 127.175 561.375 127.52 560.977C127.864 560.58 128.11 560.102 128.256 559.545H130.602C130.47 560.447 130.141 561.259 129.618 561.982C129.101 562.697 128.415 563.268 127.559 563.692C126.711 564.109 125.723 564.318 124.596 564.318ZM140.237 564.318C138.858 564.318 137.648 563.99 136.608 563.334C135.574 562.678 134.765 561.759 134.182 560.58C133.605 559.4 133.317 558.021 133.317 556.443C133.317 554.852 133.605 553.464 134.182 552.277C134.765 551.09 135.574 550.169 136.608 549.513C137.648 548.857 138.858 548.528 140.237 548.528C141.616 548.528 142.822 548.857 143.856 549.513C144.897 550.169 145.706 551.09 146.282 552.277C146.866 553.464 147.157 554.852 147.157 556.443C147.157 558.021 146.866 559.4 146.282 560.58C145.706 561.759 144.897 562.678 143.856 563.334C142.822 563.99 141.616 564.318 140.237 564.318ZM140.237 562.21C141.284 562.21 142.146 561.942 142.822 561.405C143.498 560.868 143.999 560.162 144.324 559.287C144.648 558.412 144.811 557.464 144.811 556.443C144.811 555.422 144.648 554.471 144.324 553.589C143.999 552.708 143.498 551.995 142.822 551.452C142.146 550.908 141.284 550.636 140.237 550.636C139.19 550.636 138.328 550.908 137.652 551.452C136.976 551.995 136.475 552.708 136.15 553.589C135.826 554.471 135.663 555.422 135.663 556.443C135.663 557.464 135.826 558.412 136.15 559.287C136.475 560.162 136.976 560.868 137.652 561.405C138.328 561.942 139.19 562.21 140.237 562.21ZM150.74 564V548.727H153.007V551.114H153.205C153.524 550.298 154.037 549.665 154.747 549.214C155.456 548.757 156.308 548.528 157.302 548.528C158.31 548.528 159.148 548.757 159.818 549.214C160.494 549.665 161.021 550.298 161.399 551.114H161.558C161.949 550.325 162.535 549.698 163.318 549.234C164.1 548.764 165.038 548.528 166.132 548.528C167.497 548.528 168.614 548.956 169.482 549.811C170.351 550.66 170.785 551.982 170.785 553.778V564H168.438V553.778C168.438 552.652 168.13 551.846 167.514 551.362C166.897 550.878 166.171 550.636 165.336 550.636C164.262 550.636 163.43 550.961 162.84 551.611C162.25 552.254 161.955 553.069 161.955 554.057V564H159.569V553.54C159.569 552.671 159.287 551.972 158.724 551.442C158.16 550.905 157.435 550.636 156.546 550.636C155.936 550.636 155.366 550.799 154.836 551.124C154.312 551.448 153.888 551.899 153.563 552.476C153.245 553.046 153.086 553.705 153.086 554.455V564H150.74Z" fill="#D8DEE9"/>
</g>
<defs>
<filter id="filter0_d_1316_2693" x="0" y="0" width="1138" height="608" filterUnits="userSpaceOnUse" color-interpolation-filters="sRGB">
<feFlood flood-opacity="0" result="BackgroundImageFix"/>
<feColorMatrix in="SourceAlpha" type="matrix" values="0 0 0 0 0 0 0 0 0 0 0 0 0 0 0 0 0 0 127 0" result="hardAlpha"/>
<feOffset dy="4"/>
<feGaussianBlur stdDeviation="2"/>
<feComposite in2="hardAlpha" operator="out"/>
<feColorMatrix type="matrix" values="0 0 0 0 0 0 0 0 0 0 0 0 0 0 0 0 0 0 0.25 0"/>
<feBlend mode="normal" in2="BackgroundImageFix" result="effect1_dropShadow_1316_2693"/>
<feBlend mode="normal" in="SourceGraphic" in2="effect1_dropShadow_1316_2693" result="shape"/>
</filter>
<filter id="filter1_i_1316_2693" x="270" y="368.5" width="204" height="47" filterUnits="userSpaceOnUse" color-interpolation-filters="sRGB">
<feFlood flood-opacity="0" result="BackgroundImageFix"/>
<feBlend mode="normal" in="SourceGraphic" in2="BackgroundImageFix" result="shape"/>
<feColorMatrix in="SourceAlpha" type="matrix" values="0 0 0 0 0 0 0 0 0 0 0 0 0 0 0 0 0 0 127 0" result="hardAlpha"/>
<feOffset dy="1"/>
<feGaussianBlur stdDeviation="0.5"/>
<feComposite in2="hardAlpha" operator="arithmetic" k2="-1" k3="1"/>
<feColorMatrix type="matrix" values="0 0 0 0 1 0 0 0 0 1 0 0 0 0 1 0 0 0 0.25 0"/>
<feBlend mode="normal" in2="shape" result="effect1_innerShadow_1316_2693"/>
</filter>
<filter id="filter2_i_1316_2693" x="498" y="368.5" width="205" height="47" filterUnits="userSpaceOnUse" color-interpolation-filters="sRGB">
<feFlood flood-opacity="0" result="BackgroundImageFix"/>
<feBlend mode="normal" in="SourceGraphic" in2="BackgroundImageFix" result="shape"/>
<feColorMatrix in="SourceAlpha" type="matrix" values="0 0 0 0 0 0 0 0 0 0 0 0 0 0 0 0 0 0 127 0" result="hardAlpha"/>
<feOffset dy="1"/>
<feGaussianBlur stdDeviation="0.5"/>
<feComposite in2="hardAlpha" operator="arithmetic" k2="-1" k3="1"/>
<feColorMatrix type="matrix" values="0 0 0 0 1 0 0 0 0 1 0 0 0 0 1 0 0 0 0.25 0"/>
<feBlend mode="normal" in2="shape" result="effect1_innerShadow_1316_2693"/>
</filter>
<filter id="filter3_i_1316_2693" x="727" y="368.5" width="141" height="47" filterUnits="userSpaceOnUse" color-interpolation-filters="sRGB">
<feFlood flood-opacity="0" result="BackgroundImageFix"/>
<feBlend mode="normal" in="SourceGraphic" in2="BackgroundImageFix" result="shape"/>
<feColorMatrix in="SourceAlpha" type="matrix" values="0 0 0 0 0 0 0 0 0 0 0 0 0 0 0 0 0 0 127 0" result="hardAlpha"/>
<feOffset dy="1"/>
<feGaussianBlur stdDeviation="0.5"/>
<feComposite in2="hardAlpha" operator="arithmetic" k2="-1" k3="1"/>
<feColorMatrix type="matrix" values="0 0 0 0 1 0 0 0 0 1 0 0 0 0 1 0 0 0 0.25 0"/>
<feBlend mode="normal" in2="shape" result="effect1_innerShadow_1316_2693"/>
</filter>
<filter id="filter4_i_1316_2693" x="417.5" y="443.5" width="303" height="47" filterUnits="userSpaceOnUse" color-interpolation-filters="sRGB">
<feFlood flood-opacity="0" result="BackgroundImageFix"/>
<feBlend mode="normal" in="SourceGraphic" in2="BackgroundImageFix" result="shape"/>
<feColorMatrix in="SourceAlpha" type="matrix" values="0 0 0 0 0 0 0 0 0 0 0 0 0 0 0 0 0 0 127 0" result="hardAlpha"/>
<feOffset dy="1"/>
<feGaussianBlur stdDeviation="0.5"/>
<feComposite in2="hardAlpha" operator="arithmetic" k2="-1" k3="1"/>
<feColorMatrix type="matrix" values="0 0 0 0 1 0 0 0 0 1 0 0 0 0 1 0 0 0 0.25 0"/>
<feBlend mode="normal" in2="shape" result="effect1_innerShadow_1316_2693"/>
</filter>
</defs>
</svg>
